<?xml version="1.0" encoding="UTF-8" standalone="no"?>
<!DOCTYPE svg PUBLIC "-//W3C//DTD SVG 1.1//EN"
 "http://www.w3.org/Graphics/SVG/1.1/DTD/svg11.dtd">
<!-- Generated by graphviz version 3.0.0 (20220315.2325)
 -->
<!-- Pages: 1 -->
<svg width="603pt" height="203pt"
 viewBox="0.00 0.00 724.00 244.00" xmlns="http://www.w3.org/2000/svg" xmlns:xlink="http://www.w3.org/1999/xlink">
<g id="graph0" class="graph" transform="scale(0.833333 0.833333) rotate(0) translate(4 240)">
<polygon fill="white" stroke="transparent" points="-4,4 -4,-240 720,-240 720,4 -4,4"/>
<g id="clust1" class="cluster">
<title>clusterA</title>
<polygon fill="none" stroke="transparent" points="8,-92 8,-228 150,-228 150,-92 8,-92"/>
</g>
<g id="clust5" class="cluster">
<title>clusterB</title>
<polygon fill="none" stroke="transparent" points="220,-92 220,-228 362,-228 362,-92 220,-92"/>
</g>
<g id="clust10" class="cluster">
<title>clusterC</title>
<polygon fill="none" stroke="transparent" points="494,-8 494,-228 708,-228 708,-8 494,-8"/>
</g>
<!-- A_u1 -->
<g id="node1" class="node">
<title>A_u1</title>
<polygon fill="none" stroke="black" points="43,-184 70,-211 16,-211 43,-184"/>
<text text-anchor="middle" x="43" y="-198.3" font-family="Times,serif" font-size="14.00">u</text>
</g>
<!-- A_left -->
<g id="node3" class="node">
<title>A_left</title>
<polygon fill="none" stroke="black" points="58,-100.5 58,-146.5 112,-146.5 112,-100.5 58,-100.5"/>
<text text-anchor="middle" x="71" y="-131.3" font-family="Times,serif" font-size="14.00"> </text>
<polyline fill="none" stroke="black" points="58,-123.5 84,-123.5 "/>
<text text-anchor="middle" x="71" y="-108.3" font-family="Times,serif" font-size="14.00">a</text>
<polyline fill="none" stroke="black" points="84,-100.5 84,-146.5 "/>
<text text-anchor="middle" x="98" y="-131.3" font-family="Times,serif" font-size="14.00"> </text>
<polyline fill="none" stroke="black" points="84,-123.5 112,-123.5 "/>
<text text-anchor="middle" x="98" y="-108.3" font-family="Times,serif" font-size="14.00">b</text>
</g>
<!-- A_u1&#45;&gt;A_left -->
<g id="edge1" class="edge">
<title>A_u1:s&#45;&gt;A_left:n</title>
<path fill="none" stroke="black" d="M45.79,-174.39C52.87,-164.09 71,-163.59 71,-147"/>
<polygon fill="black" stroke="black" points="42.42,-173.42 43,-184 49.15,-175.37 42.42,-173.42"/>
</g>
<!-- A_v1 -->
<g id="node2" class="node">
<title>A_v1</title>
<polygon fill="none" stroke="black" points="115,-184 142,-211 88,-211 115,-184"/>
<text text-anchor="middle" x="115" y="-198.3" font-family="Times,serif" font-size="14.00">v</text>
</g>
<!-- A_v1&#45;&gt;A_left -->
<g id="edge2" class="edge">
<title>A_v1:s&#45;&gt;A_left:n</title>
<path fill="none" stroke="black" d="M112.78,-173.96C108.17,-164.65 98,-161 98,-147"/>
<polygon fill="black" stroke="black" points="109.42,-174.99 115,-184 116.26,-173.48 109.42,-174.99"/>
</g>
<!-- temp0 -->
<g id="node4" class="node">
<title>temp0</title>
<ellipse fill="transparent" stroke="transparent" cx="185" cy="-202" rx="1.8" ry="1.8"/>
</g>
<!-- temp1 -->
<g id="node5" class="node">
<title>temp1</title>
<text text-anchor="middle" x="185" y="-119.8" font-family="Times,serif" font-size="14.00">+</text>
</g>
<!-- temp0&#45;&gt;temp1 -->
<g id="edge3" class="edge">
<title>temp0&#45;&gt;temp1</title>
</g>
<!-- A_w1 -->
<g id="node6" class="node">
<title>A_w1</title>
<polygon fill="none" stroke="black" points="255,-184 282,-211 228,-211 255,-184"/>
<text text-anchor="middle" x="255" y="-198.3" font-family="Times,serif" font-size="14.00">w</text>
</g>
<!-- A_right -->
<g id="node8" class="node">
<title>A_right</title>
<polygon fill="none" stroke="black" points="269,-100.5 269,-146.5 323,-146.5 323,-100.5 269,-100.5"/>
<text text-anchor="middle" x="282.5" y="-131.3" font-family="Times,serif" font-size="14.00"> </text>
<polyline fill="none" stroke="black" points="269,-123.5 296,-123.5 "/>
<text text-anchor="middle" x="282.5" y="-108.3" font-family="Times,serif" font-size="14.00">b</text>
<polyline fill="none" stroke="black" points="296,-100.5 296,-146.5 "/>
<text text-anchor="middle" x="309.5" y="-131.3" font-family="Times,serif" font-size="14.00"> </text>
<polyline fill="none" stroke="black" points="296,-123.5 323,-123.5 "/>
<text text-anchor="middle" x="309.5" y="-108.3" font-family="Times,serif" font-size="14.00">d</text>
</g>
<!-- A_w1&#45;&gt;A_right -->
<g id="edge4" class="edge">
<title>A_w1:s&#45;&gt;A_right:n</title>
<path fill="none" stroke="black" d="M257.89,-174.17C264.85,-164.16 282,-163.22 282,-147"/>
<polygon fill="black" stroke="black" points="254.46,-173.42 255,-184 261.18,-175.39 254.46,-173.42"/>
</g>
<!-- A_x1 -->
<g id="node7" class="node">
<title>A_x1</title>
<polygon fill="none" stroke="black" points="327,-184 354,-211 300,-211 327,-184"/>
<text text-anchor="middle" x="327" y="-198.3" font-family="Times,serif" font-size="14.00">x</text>
</g>
<!-- A_x1&#45;&gt;A_right -->
<g id="edge5" class="edge">
<title>A_x1:s&#45;&gt;A_right:n</title>
<path fill="none" stroke="black" d="M324.78,-173.96C320.17,-164.65 310,-161 310,-147"/>
<polygon fill="black" stroke="black" points="321.42,-174.99 327,-184 328.26,-173.48 321.42,-174.99"/>
</g>
<!-- temp2a -->
<g id="node9" class="node">
<title>temp2a</title>
<ellipse fill="transparent" stroke="transparent" cx="436" cy="-202" rx="1.8" ry="1.8"/>
</g>
<!-- temp2b -->
<g id="node10" class="node">
<title>temp2b</title>
<ellipse fill="transparent" stroke="transparent" cx="376" cy="-123.5" rx="1.8" ry="1.8"/>
</g>
<!-- temp2a&#45;&gt;temp2b -->
<g id="edge6" class="edge">
<title>temp2a&#45;&gt;temp2b</title>
</g>
<!-- temp2c -->
<g id="node11" class="node">
<title>temp2c</title>
<ellipse fill="transparent" stroke="transparent" cx="482" cy="-123.5" rx="1.8" ry="1.8"/>
</g>
<!-- temp2a&#45;&gt;temp2c -->
<g id="edge7" class="edge">
<title>temp2a&#45;&gt;temp2c</title>
</g>
<!-- temp2b&#45;&gt;temp2c -->
<g id="edge8" class="edge">
<title>temp2b&#45;&gt;temp2c</title>
<path fill="none" stroke="black" d="M377.84,-123.5C388.7,-123.5 444.76,-123.5 469.85,-123.5"/>
<polygon fill="black" stroke="black" points="470.11,-127 480.11,-123.5 470.11,-120 470.11,-127"/>
<text text-anchor="middle" x="429" y="-130.3" font-family="Times,serif" font-size="14.00" fill="#fffffe">wwwwwww</text>
</g>
<!-- A_u2 -->
<g id="node12" class="node">
<title>A_u2</title>
<polygon fill="none" stroke="black" points="529,-105.5 556,-132.5 502,-132.5 529,-105.5"/>
<text text-anchor="middle" x="529" y="-119.8" font-family="Times,serif" font-size="14.00">u</text>
</g>
<!-- A_result -->
<g id="node17" class="node">
<title>A_result</title>
<polygon fill="none" stroke="black" points="562,-16.5 562,-62.5 642,-62.5 642,-16.5 562,-16.5"/>
<text text-anchor="middle" x="574.5" y="-47.3" font-family="Times,serif" font-size="14.00"> </text>
<polyline fill="none" stroke="black" points="562,-39.5 587,-39.5 "/>
<text text-anchor="middle" x="574.5" y="-24.3" font-family="Times,serif" font-size="14.00">a</text>
<polyline fill="none" stroke="black" points="587,-16.5 587,-62.5 "/>
<text text-anchor="middle" x="601.5" y="-47.3" font-family="Times,serif" font-size="14.00"> </text>
<polyline fill="none" stroke="black" points="587,-39.5 616,-39.5 "/>
<text text-anchor="middle" x="601.5" y="-24.3" font-family="Times,serif" font-size="14.00">b&#39;</text>
<polyline fill="none" stroke="black" points="616,-16.5 616,-62.5 "/>
<text text-anchor="middle" x="629" y="-47.3" font-family="Times,serif" font-size="14.00"> </text>
<polyline fill="none" stroke="black" points="616,-39.5 642,-39.5 "/>
<text text-anchor="middle" x="629" y="-24.3" font-family="Times,serif" font-size="14.00">d</text>
</g>
<!-- A_u2&#45;&gt;A_result -->
<g id="edge9" class="edge">
<title>A_u2:s&#45;&gt;A_result:n</title>
<path fill="none" stroke="black" d="M531.68,-94.77C541.37,-80.24 574,-86.17 574,-63"/>
<polygon fill="black" stroke="black" points="528.28,-93.93 529,-104.5 535.03,-95.79 528.28,-93.93"/>
</g>
<!-- A_vw -->
<g id="node13" class="node">
<title>A_vw</title>
<polygon fill="none" stroke="black" points="574,-105.5 574,-141.5 628,-141.5 628,-105.5 574,-105.5"/>
<text text-anchor="middle" x="586.5" y="-128.8" font-family="Times,serif" font-size="14.00"> </text>
<polyline fill="none" stroke="black" points="574,-123.5 599,-123.5 "/>
<text text-anchor="middle" x="586.5" y="-110.8" font-family="Times,serif" font-size="14.00">v</text>
<polyline fill="none" stroke="black" points="599,-105.5 599,-141.5 "/>
<text text-anchor="middle" x="613.5" y="-128.8" font-family="Times,serif" font-size="14.00"> </text>
<polyline fill="none" stroke="black" points="599,-123.5 628,-123.5 "/>
<text text-anchor="middle" x="613.5" y="-110.8" font-family="Times,serif" font-size="14.00">w</text>
</g>
<!-- A_vw&#45;&gt;A_result -->
<g id="edge10" class="edge">
<title>A_vw:s&#45;&gt;A_result:n</title>
<path fill="none" stroke="black" d="M601,-94.41C601,-83.49 601,-77.55 601,-63"/>
<polygon fill="black" stroke="black" points="597.5,-94.5 601,-104.5 604.5,-94.5 597.5,-94.5"/>
</g>
<!-- A_x2 -->
<g id="node14" class="node">
<title>A_x2</title>
<polygon fill="none" stroke="black" points="673,-105.5 700,-132.5 646,-132.5 673,-105.5"/>
<text text-anchor="middle" x="673" y="-119.8" font-family="Times,serif" font-size="14.00">x</text>
</g>
<!-- A_x2&#45;&gt;A_result -->
<g id="edge11" class="edge">
<title>A_x2:s&#45;&gt;A_result:n</title>
<path fill="none" stroke="black" d="M670.11,-94.47C660.32,-80.49 629,-85.68 629,-63"/>
<polygon fill="black" stroke="black" points="666.87,-95.86 673,-104.5 673.6,-93.92 666.87,-95.86"/>
</g>
<!-- A_vp -->
<g id="node15" class="node">
<title>A_vp</title>
<polygon fill="none" stroke="black" points="559,-184 586,-211 532,-211 559,-184"/>
</g>
<!-- A_vp&#45;&gt;A_vw -->
<g id="edge12" class="edge">
<title>A_vp:s&#45;&gt;A_vw:n</title>
<path fill="none" stroke="black" d="M561.3,-174.23C567.83,-162.11 586,-160.55 586,-142.5"/>
<polygon fill="black" stroke="black" points="557.89,-173.46 559,-184 564.7,-175.07 557.89,-173.46"/>
</g>
<!-- A_wp -->
<g id="node16" class="node">
<title>A_wp</title>
<polygon fill="none" stroke="black" points="631,-184 658,-211 604,-211 631,-184"/>
</g>
<!-- A_wp&#45;&gt;A_vw -->
<g id="edge13" class="edge">
<title>A_wp:s&#45;&gt;A_vw:n</title>
<path fill="none" stroke="black" d="M629.31,-174.14C625.01,-162.73 614,-158.54 614,-142.5"/>
<polygon fill="black" stroke="black" points="625.86,-174.74 631,-184 632.76,-173.55 625.86,-174.74"/>
</g>
</g>
</svg>
