<?xml version="1.0" encoding="UTF-8" standalone="no"?>
<!DOCTYPE svg PUBLIC "-//W3C//DTD SVG 1.1//EN"
 "http://www.w3.org/Graphics/SVG/1.1/DTD/svg11.dtd">
<!-- Generated by graphviz version 3.0.0 (20220315.2325)
 -->
<!-- Pages: 1 -->
<svg width="662pt" height="133pt"
 viewBox="0.00 0.00 794.00 160.00" xmlns="http://www.w3.org/2000/svg" xmlns:xlink="http://www.w3.org/1999/xlink">
<g id="graph0" class="graph" transform="scale(0.833333 0.833333) rotate(0) translate(4 156)">
<polygon fill="white" stroke="transparent" points="-4,4 -4,-156 790,-156 790,4 -4,4"/>
<g id="clust1" class="cluster">
<title>clusterA</title>
<polygon fill="none" stroke="transparent" points="8,-8 8,-144 150,-144 150,-8 8,-8"/>
</g>
<g id="clust5" class="cluster">
<title>clusterB</title>
<polygon fill="none" stroke="transparent" points="220,-8 220,-144 362,-144 362,-8 220,-8"/>
</g>
<g id="clust10" class="cluster">
<title>clusterC</title>
<polygon fill="none" stroke="transparent" points="492,-8 492,-144 778,-144 778,-8 492,-8"/>
</g>
<!-- A_u1 -->
<g id="node1" class="node">
<title>A_u1</title>
<polygon fill="none" stroke="black" points="43,-100 70,-127 16,-127 43,-100"/>
<text text-anchor="middle" x="43" y="-114.3" font-family="Times,serif" font-size="14.00">u</text>
</g>
<!-- A_left -->
<g id="node3" class="node">
<title>A_left</title>
<polygon fill="none" stroke="black" points="58,-16.5 58,-62.5 112,-62.5 112,-16.5 58,-16.5"/>
<text text-anchor="middle" x="71" y="-47.3" font-family="Times,serif" font-size="14.00"> </text>
<polyline fill="none" stroke="black" points="58,-39.5 84,-39.5 "/>
<text text-anchor="middle" x="71" y="-24.3" font-family="Times,serif" font-size="14.00">a</text>
<polyline fill="none" stroke="black" points="84,-16.5 84,-62.5 "/>
<text text-anchor="middle" x="98" y="-47.3" font-family="Times,serif" font-size="14.00"> </text>
<polyline fill="none" stroke="black" points="84,-39.5 112,-39.5 "/>
<text text-anchor="middle" x="98" y="-24.3" font-family="Times,serif" font-size="14.00">b</text>
</g>
<!-- A_u1&#45;&gt;A_left -->
<g id="edge1" class="edge">
<title>A_u1:s&#45;&gt;A_left:n</title>
<path fill="none" stroke="black" d="M45.79,-90.39C52.87,-80.09 71,-79.59 71,-63"/>
<polygon fill="black" stroke="black" points="42.42,-89.42 43,-100 49.15,-91.37 42.42,-89.42"/>
</g>
<!-- A_v1 -->
<g id="node2" class="node">
<title>A_v1</title>
<polygon fill="none" stroke="black" points="115,-100 142,-127 88,-127 115,-100"/>
<text text-anchor="middle" x="115" y="-114.3" font-family="Times,serif" font-size="14.00">v</text>
</g>
<!-- A_v1&#45;&gt;A_left -->
<g id="edge2" class="edge">
<title>A_v1:s&#45;&gt;A_left:n</title>
<path fill="none" stroke="black" d="M112.78,-89.96C108.17,-80.65 98,-77 98,-63"/>
<polygon fill="black" stroke="black" points="109.42,-90.99 115,-100 116.26,-89.48 109.42,-90.99"/>
</g>
<!-- temp0 -->
<g id="node4" class="node">
<title>temp0</title>
<ellipse fill="transparent" stroke="transparent" cx="185" cy="-118" rx="1.8" ry="1.8"/>
</g>
<!-- temp1 -->
<g id="node5" class="node">
<title>temp1</title>
<text text-anchor="middle" x="185" y="-35.8" font-family="Times,serif" font-size="14.00">+</text>
</g>
<!-- temp0&#45;&gt;temp1 -->
<g id="edge3" class="edge">
<title>temp0&#45;&gt;temp1</title>
</g>
<!-- A_w1 -->
<g id="node6" class="node">
<title>A_w1</title>
<polygon fill="none" stroke="black" points="255,-100 282,-127 228,-127 255,-100"/>
<text text-anchor="middle" x="255" y="-114.3" font-family="Times,serif" font-size="14.00">w</text>
</g>
<!-- A_right -->
<g id="node8" class="node">
<title>A_right</title>
<polygon fill="none" stroke="black" points="270,-16.5 270,-62.5 324,-62.5 324,-16.5 270,-16.5"/>
<text text-anchor="middle" x="283" y="-47.3" font-family="Times,serif" font-size="14.00"> </text>
<polyline fill="none" stroke="black" points="270,-39.5 296,-39.5 "/>
<text text-anchor="middle" x="283" y="-24.3" font-family="Times,serif" font-size="14.00">c</text>
<polyline fill="none" stroke="black" points="296,-16.5 296,-62.5 "/>
<text text-anchor="middle" x="310" y="-47.3" font-family="Times,serif" font-size="14.00"> </text>
<polyline fill="none" stroke="black" points="296,-39.5 324,-39.5 "/>
<text text-anchor="middle" x="310" y="-24.3" font-family="Times,serif" font-size="14.00">d</text>
</g>
<!-- A_w1&#45;&gt;A_right -->
<g id="edge4" class="edge">
<title>A_w1:s&#45;&gt;A_right:n</title>
<path fill="none" stroke="black" d="M257.79,-90.39C264.87,-80.09 283,-79.59 283,-63"/>
<polygon fill="black" stroke="black" points="254.42,-89.42 255,-100 261.15,-91.37 254.42,-89.42"/>
</g>
<!-- A_x1 -->
<g id="node7" class="node">
<title>A_x1</title>
<polygon fill="none" stroke="black" points="327,-100 354,-127 300,-127 327,-100"/>
<text text-anchor="middle" x="327" y="-114.3" font-family="Times,serif" font-size="14.00">x</text>
</g>
<!-- A_x1&#45;&gt;A_right -->
<g id="edge5" class="edge">
<title>A_x1:s&#45;&gt;A_right:n</title>
<path fill="none" stroke="black" d="M324.78,-89.96C320.17,-80.65 310,-77 310,-63"/>
<polygon fill="black" stroke="black" points="321.42,-90.99 327,-100 328.26,-89.48 321.42,-90.99"/>
</g>
<!-- temp2a -->
<g id="node9" class="node">
<title>temp2a</title>
<ellipse fill="transparent" stroke="transparent" cx="435" cy="-118" rx="1.8" ry="1.8"/>
</g>
<!-- temp2b -->
<g id="node10" class="node">
<title>temp2b</title>
<ellipse fill="transparent" stroke="transparent" cx="376" cy="-39.5" rx="1.8" ry="1.8"/>
</g>
<!-- temp2a&#45;&gt;temp2b -->
<g id="edge6" class="edge">
<title>temp2a&#45;&gt;temp2b</title>
</g>
<!-- temp2c -->
<g id="node11" class="node">
<title>temp2c</title>
<ellipse fill="transparent" stroke="transparent" cx="482" cy="-39.5" rx="1.8" ry="1.8"/>
</g>
<!-- temp2a&#45;&gt;temp2c -->
<g id="edge7" class="edge">
<title>temp2a&#45;&gt;temp2c</title>
</g>
<!-- temp2b&#45;&gt;temp2c -->
<g id="edge8" class="edge">
<title>temp2b&#45;&gt;temp2c</title>
<path fill="none" stroke="black" d="M377.84,-39.5C388.7,-39.5 444.76,-39.5 469.85,-39.5"/>
<polygon fill="black" stroke="black" points="470.11,-43 480.11,-39.5 470.11,-36 470.11,-43"/>
<text text-anchor="middle" x="429" y="-46.3" font-family="Times,serif" font-size="14.00" fill="#fffffe">wwwwwww</text>
</g>
<!-- A_u2 -->
<g id="node12" class="node">
<title>A_u2</title>
<polygon fill="none" stroke="black" points="527,-100 554,-127 500,-127 527,-100"/>
<text text-anchor="middle" x="527" y="-114.3" font-family="Times,serif" font-size="14.00">u</text>
</g>
<!-- A_result -->
<g id="node16" class="node">
<title>A_result</title>
<polygon fill="none" stroke="black" points="591.5,-16.5 591.5,-62.5 692.5,-62.5 692.5,-16.5 591.5,-16.5"/>
<text text-anchor="middle" x="604" y="-47.3" font-family="Times,serif" font-size="14.00"> </text>
<polyline fill="none" stroke="black" points="591.5,-39.5 616.5,-39.5 "/>
<text text-anchor="middle" x="604" y="-24.3" font-family="Times,serif" font-size="14.00">a</text>
<polyline fill="none" stroke="black" points="616.5,-16.5 616.5,-62.5 "/>
<text text-anchor="middle" x="629.5" y="-47.3" font-family="Times,serif" font-size="14.00"> </text>
<polyline fill="none" stroke="black" points="616.5,-39.5 642.5,-39.5 "/>
<text text-anchor="middle" x="629.5" y="-24.3" font-family="Times,serif" font-size="14.00">b</text>
<polyline fill="none" stroke="black" points="642.5,-16.5 642.5,-62.5 "/>
<text text-anchor="middle" x="654.5" y="-47.3" font-family="Times,serif" font-size="14.00"> </text>
<polyline fill="none" stroke="black" points="642.5,-39.5 666.5,-39.5 "/>
<text text-anchor="middle" x="654.5" y="-24.3" font-family="Times,serif" font-size="14.00">c</text>
<polyline fill="none" stroke="black" points="666.5,-16.5 666.5,-62.5 "/>
<text text-anchor="middle" x="679.5" y="-47.3" font-family="Times,serif" font-size="14.00"> </text>
<polyline fill="none" stroke="black" points="666.5,-39.5 692.5,-39.5 "/>
<text text-anchor="middle" x="679.5" y="-24.3" font-family="Times,serif" font-size="14.00">d</text>
</g>
<!-- A_u2&#45;&gt;A_result -->
<g id="edge9" class="edge">
<title>A_u2:s&#45;&gt;A_result:n</title>
<path fill="none" stroke="black" d="M529.56,-90.1C542.92,-69.63 604,-96.82 604,-63"/>
<polygon fill="black" stroke="black" points="526.12,-89.44 527,-100 532.89,-91.2 526.12,-89.44"/>
</g>
<!-- A_v2 -->
<g id="node13" class="node">
<title>A_v2</title>
<polygon fill="none" stroke="black" points="599,-100 626,-127 572,-127 599,-100"/>
<text text-anchor="middle" x="599" y="-114.3" font-family="Times,serif" font-size="14.00">v</text>
</g>
<!-- A_v2&#45;&gt;A_result -->
<g id="edge10" class="edge">
<title>A_v2:s&#45;&gt;A_result:n</title>
<path fill="none" stroke="black" d="M601.99,-90.23C609.57,-79.9 629,-80.04 629,-63"/>
<polygon fill="black" stroke="black" points="598.58,-89.41 599,-100 605.27,-91.46 598.58,-89.41"/>
</g>
<!-- A_w2 -->
<g id="node14" class="node">
<title>A_w2</title>
<polygon fill="none" stroke="black" points="671,-100 698,-127 644,-127 671,-100"/>
<text text-anchor="middle" x="671" y="-114.3" font-family="Times,serif" font-size="14.00">w</text>
</g>
<!-- A_w2&#45;&gt;A_result -->
<g id="edge11" class="edge">
<title>A_w2:s&#45;&gt;A_result:n</title>
<path fill="none" stroke="black" d="M668.91,-90.01C664.57,-80.7 655,-76.86 655,-63"/>
<polygon fill="black" stroke="black" points="665.52,-90.93 671,-100 672.38,-89.49 665.52,-90.93"/>
</g>
<!-- A_x2 -->
<g id="node15" class="node">
<title>A_x2</title>
<polygon fill="none" stroke="black" points="743,-100 770,-127 716,-127 743,-100"/>
<text text-anchor="middle" x="743" y="-114.3" font-family="Times,serif" font-size="14.00">x</text>
</g>
<!-- A_x2&#45;&gt;A_result -->
<g id="edge12" class="edge">
<title>A_x2:s&#45;&gt;A_result:n</title>
<path fill="none" stroke="black" d="M739.96,-89.98C727.38,-73.89 680,-91.16 680,-63"/>
<polygon fill="black" stroke="black" points="736.75,-91.45 743,-100 743.45,-89.41 736.75,-91.45"/>
</g>
</g>
</svg>
