<?xml version="1.0" encoding="UTF-8" standalone="no"?>
<!DOCTYPE svg PUBLIC "-//W3C//DTD SVG 1.1//EN"
 "http://www.w3.org/Graphics/SVG/1.1/DTD/svg11.dtd">
<!-- Generated by graphviz version 3.0.0 (20220315.2325)
 -->
<!-- Pages: 1 -->
<svg width="426pt" height="194pt"
 viewBox="0.00 0.00 511.00 233.00" xmlns="http://www.w3.org/2000/svg" xmlns:xlink="http://www.w3.org/1999/xlink">
<g id="graph0" class="graph" transform="scale(0.833333 0.833333) rotate(0) translate(4 229)">
<polygon fill="white" stroke="transparent" points="-4,4 -4,-229 507,-229 507,4 -4,4"/>
<g id="clust1" class="cluster">
<title>clusterA</title>
<polygon fill="none" stroke="transparent" points="8,-81 8,-217 78,-217 78,-81 8,-81"/>
</g>
<g id="clust5" class="cluster">
<title>clusterB</title>
<polygon fill="none" stroke="transparent" points="152,-81 152,-217 222,-217 222,-81 152,-81"/>
</g>
<g id="clust10" class="cluster">
<title>clusterC</title>
<polygon fill="none" stroke="transparent" points="353,-8 353,-217 495,-217 495,-8 353,-8"/>
</g>
<!-- A_u1 -->
<g id="node1" class="node">
<title>A_u1</title>
<polygon fill="none" stroke="black" points="43,-173 70,-200 16,-200 43,-173"/>
<text text-anchor="middle" x="43" y="-187.3" font-family="Times,serif" font-size="14.00">x</text>
</g>
<!-- A_left -->
<g id="node2" class="node">
<title>A_left</title>
<polygon fill="none" stroke="black" points="16,-89.5 16,-135.5 70,-135.5 70,-89.5 16,-89.5"/>
<text text-anchor="middle" x="43" y="-120.3" font-family="Times,serif" font-size="14.00"> </text>
<polyline fill="none" stroke="black" points="16,-112.5 70,-112.5 "/>
<text text-anchor="middle" x="43" y="-97.3" font-family="Times,serif" font-size="14.00">a</text>
</g>
<!-- A_u1&#45;&gt;A_left -->
<g id="edge1" class="edge">
<title>A_u1:s&#45;&gt;A_left:n</title>
<path fill="none" stroke="black" d="M43,-162.87C43,-153.84 43,-148.46 43,-136"/>
<polygon fill="black" stroke="black" points="39.5,-163 43,-173 46.5,-163 39.5,-163"/>
</g>
<!-- temp0 -->
<g id="node3" class="node">
<title>temp0</title>
<ellipse fill="transparent" stroke="transparent" cx="115" cy="-191" rx="1.8" ry="1.8"/>
</g>
<!-- temp1 -->
<g id="node4" class="node">
<title>temp1</title>
<text text-anchor="middle" x="115" y="-108.8" font-family="Times,serif" font-size="14.00">+</text>
</g>
<!-- temp0&#45;&gt;temp1 -->
<g id="edge2" class="edge">
<title>temp0&#45;&gt;temp1</title>
</g>
<!-- A_w1 -->
<g id="node5" class="node">
<title>A_w1</title>
<polygon fill="none" stroke="black" points="187,-173 214,-200 160,-200 187,-173"/>
<text text-anchor="middle" x="187" y="-187.3" font-family="Times,serif" font-size="14.00">y</text>
</g>
<!-- A_right -->
<g id="node6" class="node">
<title>A_right</title>
<polygon fill="none" stroke="black" points="160,-89.5 160,-135.5 214,-135.5 214,-89.5 160,-89.5"/>
<text text-anchor="middle" x="187" y="-120.3" font-family="Times,serif" font-size="14.00"> </text>
<polyline fill="none" stroke="black" points="160,-112.5 214,-112.5 "/>
<text text-anchor="middle" x="187" y="-97.3" font-family="Times,serif" font-size="14.00">a</text>
</g>
<!-- A_w1&#45;&gt;A_right -->
<g id="edge3" class="edge">
<title>A_w1:s&#45;&gt;A_right:n</title>
<path fill="none" stroke="black" d="M187,-162.87C187,-153.84 187,-148.46 187,-136"/>
<polygon fill="black" stroke="black" points="183.5,-163 187,-173 190.5,-163 183.5,-163"/>
</g>
<!-- temp2a -->
<g id="node7" class="node">
<title>temp2a</title>
<ellipse fill="transparent" stroke="transparent" cx="296" cy="-191" rx="1.8" ry="1.8"/>
</g>
<!-- temp2b -->
<g id="node8" class="node">
<title>temp2b</title>
<ellipse fill="transparent" stroke="transparent" cx="237" cy="-112.5" rx="1.8" ry="1.8"/>
</g>
<!-- temp2a&#45;&gt;temp2b -->
<g id="edge4" class="edge">
<title>temp2a&#45;&gt;temp2b</title>
</g>
<!-- temp2c -->
<g id="node9" class="node">
<title>temp2c</title>
<ellipse fill="transparent" stroke="transparent" cx="343" cy="-112.5" rx="1.8" ry="1.8"/>
</g>
<!-- temp2a&#45;&gt;temp2c -->
<g id="edge5" class="edge">
<title>temp2a&#45;&gt;temp2c</title>
</g>
<!-- temp2b&#45;&gt;temp2c -->
<g id="edge6" class="edge">
<title>temp2b&#45;&gt;temp2c</title>
<path fill="none" stroke="black" d="M238.84,-112.5C249.7,-112.5 305.76,-112.5 330.85,-112.5"/>
<polygon fill="black" stroke="black" points="331.11,-116 341.11,-112.5 331.11,-109 331.11,-116"/>
<text text-anchor="middle" x="290" y="-119.3" font-family="Times,serif" font-size="14.00" fill="#fffffe">wwwwwww</text>
</g>
<!-- A_u2 -->
<g id="node10" class="node">
<title>A_u2</title>
<polygon fill="none" stroke="black" points="388,-173 415,-200 361,-200 388,-173"/>
</g>
<!-- A_result -->
<g id="node12" class="node">
<title>A_result</title>
<polygon fill="none" stroke="black" points="402,-89.5 402,-135.5 456,-135.5 456,-89.5 402,-89.5"/>
<text text-anchor="middle" x="415.5" y="-120.3" font-family="Times,serif" font-size="14.00"> </text>
<polyline fill="none" stroke="black" points="402,-112.5 429,-112.5 "/>
<text text-anchor="middle" x="415.5" y="-97.3" font-family="Times,serif" font-size="14.00">x</text>
<polyline fill="none" stroke="black" points="429,-89.5 429,-135.5 "/>
<text text-anchor="middle" x="442.5" y="-120.3" font-family="Times,serif" font-size="14.00"> </text>
<polyline fill="none" stroke="black" points="429,-112.5 456,-112.5 "/>
<text text-anchor="middle" x="442.5" y="-97.3" font-family="Times,serif" font-size="14.00">y</text>
</g>
<!-- A_u2&#45;&gt;A_result -->
<g id="edge7" class="edge">
<title>A_u2:s&#45;&gt;A_result:n</title>
<path fill="none" stroke="black" d="M390.89,-163.17C397.85,-153.16 415,-152.22 415,-136"/>
<polygon fill="black" stroke="black" points="387.46,-162.42 388,-173 394.18,-164.39 387.46,-162.42"/>
</g>
<!-- A_v2 -->
<g id="node11" class="node">
<title>A_v2</title>
<polygon fill="none" stroke="black" points="460,-173 487,-200 433,-200 460,-173"/>
</g>
<!-- A_v2&#45;&gt;A_result -->
<g id="edge8" class="edge">
<title>A_v2:s&#45;&gt;A_result:n</title>
<path fill="none" stroke="black" d="M457.78,-162.96C453.17,-153.65 443,-150 443,-136"/>
<polygon fill="black" stroke="black" points="454.42,-163.99 460,-173 461.26,-162.48 454.42,-163.99"/>
</g>
<!-- A_ap -->
<g id="node13" class="node">
<title>A_ap</title>
<text text-anchor="middle" x="429" y="-30.3" font-family="Times,serif" font-size="14.00">a&#39;</text>
</g>
<!-- A_result&#45;&gt;A_ap -->
<g id="edge9" class="edge">
<title>A_result:s&#45;&gt;A_ap:n</title>
<path fill="none" stroke="black" d="M429,-78.23C429,-69.49 429,-64.17 429,-52"/>
<polygon fill="black" stroke="black" points="425.5,-78.5 429,-88.5 432.5,-78.5 425.5,-78.5"/>
</g>
</g>
</svg>
