<?xml version="1.0" encoding="UTF-8" standalone="no"?>
<!DOCTYPE svg PUBLIC "-//W3C//DTD SVG 1.1//EN"
 "http://www.w3.org/Graphics/SVG/1.1/DTD/svg11.dtd">
<!-- Generated by graphviz version 3.0.0 (20220315.2325)
 -->
<!-- Pages: 1 -->
<svg width="555pt" height="210pt"
 viewBox="0.00 0.00 666.00 252.00" xmlns="http://www.w3.org/2000/svg" xmlns:xlink="http://www.w3.org/1999/xlink">
<g id="graph0" class="graph" transform="scale(0.833333 0.833333) rotate(0) translate(4 248)">
<polygon fill="white" stroke="transparent" points="-4,4 -4,-248 662,-248 662,4 -4,4"/>
<g id="clust1" class="cluster">
<title>clusterA</title>
<polygon fill="none" stroke="transparent" points="8,-92 8,-228 150,-228 150,-92 8,-92"/>
</g>
<g id="clust5" class="cluster">
<title>clusterB</title>
<polygon fill="none" stroke="transparent" points="220,-92 220,-228 362,-228 362,-92 220,-92"/>
</g>
<g id="clust10" class="cluster">
<title>clusterC</title>
<polygon fill="none" stroke="transparent" points="492,-8 492,-236 650,-236 650,-8 492,-8"/>
</g>
<g id="clust11" class="cluster">
<title>clusterSubC</title>
<polygon fill="none" stroke="transparent" points="500,-97.5 500,-228 642,-228 642,-97.5 500,-97.5"/>
</g>
<!-- A_u1 -->
<g id="node1" class="node">
<title>A_u1</title>
<polygon fill="none" stroke="black" points="43,-184 70,-211 16,-211 43,-184"/>
<text text-anchor="middle" x="43" y="-198.3" font-family="Times,serif" font-size="14.00">u</text>
</g>
<!-- A_left -->
<g id="node3" class="node">
<title>A_left</title>
<polygon fill="none" stroke="black" points="58,-100.5 58,-146.5 112,-146.5 112,-100.5 58,-100.5"/>
<text text-anchor="middle" x="71" y="-131.3" font-family="Times,serif" font-size="14.00"> </text>
<polyline fill="none" stroke="black" points="58,-123.5 84,-123.5 "/>
<text text-anchor="middle" x="71" y="-108.3" font-family="Times,serif" font-size="14.00">a</text>
<polyline fill="none" stroke="black" points="84,-100.5 84,-146.5 "/>
<text text-anchor="middle" x="98" y="-131.3" font-family="Times,serif" font-size="14.00"> </text>
<polyline fill="none" stroke="black" points="84,-123.5 112,-123.5 "/>
<text text-anchor="middle" x="98" y="-108.3" font-family="Times,serif" font-size="14.00">b</text>
</g>
<!-- A_u1&#45;&gt;A_left -->
<g id="edge1" class="edge">
<title>A_u1:s&#45;&gt;A_left:n</title>
<path fill="none" stroke="black" d="M45.79,-174.39C52.87,-164.09 71,-163.59 71,-147"/>
<polygon fill="black" stroke="black" points="42.42,-173.42 43,-184 49.15,-175.37 42.42,-173.42"/>
</g>
<!-- A_v1 -->
<g id="node2" class="node">
<title>A_v1</title>
<polygon fill="none" stroke="black" points="115,-184 142,-211 88,-211 115,-184"/>
<text text-anchor="middle" x="115" y="-198.3" font-family="Times,serif" font-size="14.00">v</text>
</g>
<!-- A_v1&#45;&gt;A_left -->
<g id="edge2" class="edge">
<title>A_v1:s&#45;&gt;A_left:n</title>
<path fill="none" stroke="black" d="M112.78,-173.96C108.17,-164.65 98,-161 98,-147"/>
<polygon fill="black" stroke="black" points="109.42,-174.99 115,-184 116.26,-173.48 109.42,-174.99"/>
</g>
<!-- temp0 -->
<g id="node4" class="node">
<title>temp0</title>
<ellipse fill="transparent" stroke="transparent" cx="185" cy="-202" rx="1.8" ry="1.8"/>
</g>
<!-- temp1 -->
<g id="node5" class="node">
<title>temp1</title>
<text text-anchor="middle" x="185" y="-119.8" font-family="Times,serif" font-size="14.00">+</text>
</g>
<!-- temp0&#45;&gt;temp1 -->
<g id="edge3" class="edge">
<title>temp0&#45;&gt;temp1</title>
</g>
<!-- A_w1 -->
<g id="node6" class="node">
<title>A_w1</title>
<polygon fill="none" stroke="black" points="255,-184 282,-211 228,-211 255,-184"/>
<text text-anchor="middle" x="255" y="-198.3" font-family="Times,serif" font-size="14.00">v</text>
</g>
<!-- A_right -->
<g id="node8" class="node">
<title>A_right</title>
<polygon fill="none" stroke="black" points="269,-100.5 269,-146.5 323,-146.5 323,-100.5 269,-100.5"/>
<text text-anchor="middle" x="282.5" y="-131.3" font-family="Times,serif" font-size="14.00"> </text>
<polyline fill="none" stroke="black" points="269,-123.5 296,-123.5 "/>
<text text-anchor="middle" x="282.5" y="-108.3" font-family="Times,serif" font-size="14.00">b</text>
<polyline fill="none" stroke="black" points="296,-100.5 296,-146.5 "/>
<text text-anchor="middle" x="309.5" y="-131.3" font-family="Times,serif" font-size="14.00"> </text>
<polyline fill="none" stroke="black" points="296,-123.5 323,-123.5 "/>
<text text-anchor="middle" x="309.5" y="-108.3" font-family="Times,serif" font-size="14.00">d</text>
</g>
<!-- A_w1&#45;&gt;A_right -->
<g id="edge4" class="edge">
<title>A_w1:s&#45;&gt;A_right:n</title>
<path fill="none" stroke="black" d="M257.89,-174.17C264.85,-164.16 282,-163.22 282,-147"/>
<polygon fill="black" stroke="black" points="254.46,-173.42 255,-184 261.18,-175.39 254.46,-173.42"/>
</g>
<!-- A_x1 -->
<g id="node7" class="node">
<title>A_x1</title>
<polygon fill="none" stroke="black" points="327,-184 354,-211 300,-211 327,-184"/>
<text text-anchor="middle" x="327" y="-198.3" font-family="Times,serif" font-size="14.00">u</text>
</g>
<!-- A_x1&#45;&gt;A_right -->
<g id="edge5" class="edge">
<title>A_x1:s&#45;&gt;A_right:n</title>
<path fill="none" stroke="black" d="M324.78,-173.96C320.17,-164.65 310,-161 310,-147"/>
<polygon fill="black" stroke="black" points="321.42,-174.99 327,-184 328.26,-173.48 321.42,-174.99"/>
</g>
<!-- temp2a -->
<g id="node9" class="node">
<title>temp2a</title>
<ellipse fill="transparent" stroke="transparent" cx="435" cy="-202" rx="1.8" ry="1.8"/>
</g>
<!-- temp2b -->
<g id="node10" class="node">
<title>temp2b</title>
<ellipse fill="transparent" stroke="transparent" cx="376" cy="-123.5" rx="1.8" ry="1.8"/>
</g>
<!-- temp2a&#45;&gt;temp2b -->
<g id="edge6" class="edge">
<title>temp2a&#45;&gt;temp2b</title>
</g>
<!-- temp2c -->
<g id="node11" class="node">
<title>temp2c</title>
<ellipse fill="transparent" stroke="transparent" cx="482" cy="-123.5" rx="1.8" ry="1.8"/>
</g>
<!-- temp2a&#45;&gt;temp2c -->
<g id="edge7" class="edge">
<title>temp2a&#45;&gt;temp2c</title>
</g>
<!-- temp2b&#45;&gt;temp2c -->
<g id="edge8" class="edge">
<title>temp2b&#45;&gt;temp2c</title>
<path fill="none" stroke="black" d="M377.84,-123.5C388.7,-123.5 444.76,-123.5 469.85,-123.5"/>
<polygon fill="black" stroke="black" points="470.11,-127 480.11,-123.5 470.11,-120 470.11,-127"/>
<text text-anchor="middle" x="429" y="-130.3" font-family="Times,serif" font-size="14.00" fill="#fffffe">wwwwwww</text>
</g>
<!-- A_u2 -->
<g id="node12" class="node">
<title>A_u2</title>
<polygon fill="none" stroke="black" points="571,-184 598,-211 544,-211 571,-184"/>
<text text-anchor="middle" x="571" y="-198.3" font-family="Times,serif" font-size="14.00">u</text>
</g>
<!-- A_ut1 -->
<g id="node13" class="node">
<title>A_ut1</title>
<ellipse fill="transparent" stroke="transparent" cx="508" cy="-123.5" rx="0.01" ry="0.01"/>
</g>
<!-- A_u2&#45;&gt;A_ut1 -->
<g id="edge12" class="edge">
<title>A_u2:sw&#45;&gt;A_ut1:n</title>
<path fill="none" stroke="black" d="M554.39,-184.97C530.04,-164.15 508,-159.32 508,-124.5"/>
<polygon fill="black" stroke="black" points="552.28,-187.79 562,-192 557.03,-182.64 552.28,-187.79"/>
</g>
<!-- A_v2 -->
<g id="node14" class="node">
<title>A_v2</title>
<polygon fill="none" stroke="black" points="571,-105.5 598,-132.5 544,-132.5 571,-105.5"/>
<text text-anchor="middle" x="571" y="-119.8" font-family="Times,serif" font-size="14.00">v</text>
</g>
<!-- A_u2&#45;&gt;A_v2 -->
<g id="edge11" class="edge">
<title>A_u2&#45;&gt;A_v2</title>
</g>
<!-- A_ut2 -->
<g id="node15" class="node">
<title>A_ut2</title>
<ellipse fill="transparent" stroke="transparent" cx="634" cy="-123.5" rx="0.01" ry="0.01"/>
</g>
<!-- A_u2&#45;&gt;A_ut2 -->
<g id="edge14" class="edge">
<title>A_u2:se&#45;&gt;A_ut2:n</title>
<path fill="none" stroke="black" d="M587.61,-184.97C611.96,-164.15 634,-159.32 634,-124.5"/>
<polygon fill="black" stroke="black" points="584.97,-182.64 580,-192 589.72,-187.79 584.97,-182.64"/>
</g>
<!-- A_ut1&#45;&gt;A_v2 -->
<g id="edge9" class="edge">
<title>A_ut1&#45;&gt;A_v2</title>
</g>
<!-- A_result -->
<g id="node16" class="node">
<title>A_result</title>
<polygon fill="none" stroke="black" points="532.5,-16.5 532.5,-62.5 609.5,-62.5 609.5,-16.5 532.5,-16.5"/>
<text text-anchor="middle" x="545" y="-47.3" font-family="Times,serif" font-size="14.00"> </text>
<polyline fill="none" stroke="black" points="532.5,-39.5 557.5,-39.5 "/>
<text text-anchor="middle" x="545" y="-24.3" font-family="Times,serif" font-size="14.00">a</text>
<polyline fill="none" stroke="black" points="557.5,-16.5 557.5,-62.5 "/>
<text text-anchor="middle" x="570.5" y="-47.3" font-family="Times,serif" font-size="14.00"> </text>
<polyline fill="none" stroke="black" points="557.5,-39.5 583.5,-39.5 "/>
<text text-anchor="middle" x="570.5" y="-24.3" font-family="Times,serif" font-size="14.00">b</text>
<polyline fill="none" stroke="black" points="583.5,-16.5 583.5,-62.5 "/>
<text text-anchor="middle" x="596.5" y="-47.3" font-family="Times,serif" font-size="14.00"> </text>
<polyline fill="none" stroke="black" points="583.5,-39.5 609.5,-39.5 "/>
<text text-anchor="middle" x="596.5" y="-24.3" font-family="Times,serif" font-size="14.00">d</text>
</g>
<!-- A_ut1&#45;&gt;A_result -->
<g id="edge16" class="edge">
<title>A_ut1:s&#45;&gt;A_result:n</title>
<path fill="none" stroke="black" d="M508,-122.5C508,-91.36 545,-94.14 545,-63"/>
</g>
<!-- A_v2&#45;&gt;A_ut2 -->
<g id="edge10" class="edge">
<title>A_v2&#45;&gt;A_ut2</title>
</g>
<!-- A_v2&#45;&gt;A_result -->
<g id="edge13" class="edge">
<title>A_v2:s&#45;&gt;A_result:n</title>
<path fill="none" stroke="black" d="M570.89,-94.41C570.62,-83.49 570,-77.56 570,-63"/>
<polygon fill="black" stroke="black" points="567.39,-94.54 571,-104.5 574.39,-94.46 567.39,-94.54"/>
</g>
<!-- A_v2&#45;&gt;A_result -->
<g id="edge15" class="edge">
<title>A_v2:s&#45;&gt;A_result:n</title>
</g>
<!-- A_ut2&#45;&gt;A_result -->
<g id="edge17" class="edge">
<title>A_ut2:s&#45;&gt;A_result:n</title>
<path fill="none" stroke="black" d="M634,-122.5C634,-91.36 597,-94.14 597,-63"/>
</g>
</g>
</svg>
