<?xml version="1.0" encoding="UTF-8" standalone="no"?>
<!DOCTYPE svg PUBLIC "-//W3C//DTD SVG 1.1//EN"
 "http://www.w3.org/Graphics/SVG/1.1/DTD/svg11.dtd">
<!-- Generated by graphviz version 3.0.0 (20220315.2325)
 -->
<!-- Pages: 1 -->
<svg width="769pt" height="212pt"
 viewBox="0.00 0.00 768.79 212.00" xmlns="http://www.w3.org/2000/svg" xmlns:xlink="http://www.w3.org/1999/xlink">
<g id="graph0" class="graph" transform="scale(1 1) rotate(0) translate(18 194)">
<polygon fill="white" stroke="transparent" points="-18,18 -18,-194 750.79,-194 750.79,18 -18,18"/>
<g id="clust1" class="cluster">
<title>clusterA</title>
<polygon fill="none" stroke="transparent" points="104.39,-8 104.39,-168 641.79,-168 641.79,-8 104.39,-8"/>
</g>
<!-- BasicBlockStartState -->
<g id="node1" class="node">
<title>BasicBlockStartState</title>
<g id="a_node1"><a xlink:href="../BasicBlockStartState.html" xlink:title="{BasicBlockStartState | {&lt;alt1&gt; alt 1 |&lt;alt2&gt; alt 2 | &amp;#0183;\n&amp;#0183;\n&amp;#0183; |&lt;altn&gt; alt n}}" target="_parent">
<polygon fill="none" stroke="black" points="112.39,-23 112.39,-145 352.39,-145 352.39,-23 112.39,-23"/>
<text text-anchor="middle" x="203.39" y="-80.3" font-family="CourierNew" font-size="14.00">BasicBlockStartState</text>
<polyline fill="none" stroke="black" points="294.39,-23 294.39,-145 "/>
<text text-anchor="middle" x="323.39" y="-129.8" font-family="CourierNew" font-size="14.00">alt 1</text>
<polyline fill="none" stroke="black" points="294.39,-122 352.39,-122 "/>
<text text-anchor="middle" x="323.39" y="-106.8" font-family="CourierNew" font-size="14.00">alt 2</text>
<polyline fill="none" stroke="black" points="294.39,-99 352.39,-99 "/>
<text text-anchor="middle" x="323.39" y="-83.8" font-family="CourierNew" font-size="14.00">·</text>
<text text-anchor="middle" x="323.39" y="-68.8" font-family="CourierNew" font-size="14.00">·</text>
<text text-anchor="middle" x="323.39" y="-53.8" font-family="CourierNew" font-size="14.00">·</text>
<polyline fill="none" stroke="black" points="294.39,-46 352.39,-46 "/>
<text text-anchor="middle" x="323.39" y="-30.8" font-family="CourierNew" font-size="14.00">alt n</text>
</a>
</g>
</g>
<!-- content1 -->
<g id="node3" class="node">
<title>content1</title>
<ellipse fill="none" stroke="black" stroke-dasharray="5,2" cx="435.09" cy="-142" rx="37.89" ry="18"/>
<text text-anchor="middle" x="435.09" y="-138.3" font-family="CourierNew" font-size="14.00">alt 1</text>
</g>
<!-- BasicBlockStartState&#45;&gt;content1 -->
<g id="edge3" class="edge">
<title>BasicBlockStartState:alt1&#45;&gt;content1</title>
<path fill="none" stroke="black" d="M352.39,-134C364.19,-134 376.89,-134.84 388.69,-135.97"/>
<polygon fill="black" stroke="black" points="388.47,-139.46 398.78,-137.02 389.2,-132.5 388.47,-139.46"/>
<text text-anchor="middle" x="374.89" y="-137.8" font-family="CourierNew" font-size="14.00">ε</text>
</g>
<!-- content2 -->
<g id="node4" class="node">
<title>content2</title>
<ellipse fill="none" stroke="black" stroke-dasharray="5,2" cx="435.09" cy="-88" rx="37.89" ry="18"/>
<text text-anchor="middle" x="435.09" y="-84.3" font-family="CourierNew" font-size="14.00">alt 2</text>
</g>
<!-- BasicBlockStartState&#45;&gt;content2 -->
<g id="edge5" class="edge">
<title>BasicBlockStartState:alt2&#45;&gt;content2</title>
<path fill="none" stroke="black" d="M352.39,-111C361.54,-111 361.81,-104.17 370.39,-101 376.3,-98.82 382.65,-96.97 388.98,-95.41"/>
<polygon fill="black" stroke="black" points="389.85,-98.8 398.84,-93.2 388.32,-91.97 389.85,-98.8"/>
<text text-anchor="middle" x="374.89" y="-104.8" font-family="CourierNew" font-size="14.00">ε</text>
</g>
<!-- more -->
<g id="node5" class="node">
<title>more</title>
<ellipse fill="none" stroke="black" stroke-dasharray="5,2" cx="435.09" cy="-34" rx="37.89" ry="18"/>
<text text-anchor="middle" x="435.09" y="-30.3" font-family="CourierNew" font-size="14.00">alt n</text>
</g>
<!-- BasicBlockStartState&#45;&gt;more -->
<g id="edge7" class="edge">
<title>BasicBlockStartState:altn&#45;&gt;more</title>
<path fill="none" stroke="black" d="M352.39,-34C363.58,-34 375.62,-34 386.94,-34"/>
<polygon fill="black" stroke="black" points="387.08,-37.5 397.08,-34 387.08,-30.5 387.08,-37.5"/>
<text text-anchor="middle" x="374.89" y="-37.8" font-family="CourierNew" font-size="14.00">ε</text>
</g>
<!-- BlockEndState -->
<g id="node2" class="node">
<title>BlockEndState</title>
<g id="a_node2"><a xlink:href="../BlockEndState.html" xlink:title="\N" target="_parent">
<polygon fill="none" stroke="black" points="509.79,-70 509.79,-106 633.79,-106 633.79,-70 509.79,-70"/>
<text text-anchor="middle" x="571.79" y="-84.3" font-family="CourierNew" font-size="14.00">BlockEndState</text>
</a>
</g>
</g>
<!-- end -->
<g id="node7" class="node">
<title>end</title>
<ellipse fill="none" stroke="black" stroke-dasharray="5,2" cx="705.79" cy="-88" rx="27" ry="18"/>
<text text-anchor="middle" x="705.79" y="-84.3" font-family="CourierNew" font-size="14.00">end</text>
</g>
<!-- BlockEndState&#45;&gt;end -->
<g id="edge2" class="edge">
<title>BlockEndState&#45;&gt;end</title>
<path fill="none" stroke="black" d="M634.15,-88C645.86,-88 657.77,-88 668.39,-88"/>
<polygon fill="black" stroke="black" points="668.53,-91.5 678.53,-88 668.53,-84.5 668.53,-91.5"/>
<text text-anchor="middle" x="656.29" y="-91.8" font-family="CourierNew" font-size="14.00">ε</text>
</g>
<!-- content1&#45;&gt;BlockEndState -->
<g id="edge4" class="edge">
<title>content1&#45;&gt;BlockEndState</title>
<path fill="none" stroke="black" stroke-dasharray="5,2" d="M464.66,-130.55C479.64,-124.54 498.51,-116.97 516.18,-109.89"/>
<polygon fill="black" stroke="black" points="517.85,-112.99 525.83,-106.02 515.24,-106.5 517.85,-112.99"/>
</g>
<!-- content2&#45;&gt;BlockEndState -->
<g id="edge6" class="edge">
<title>content2&#45;&gt;BlockEndState</title>
<path fill="none" stroke="black" stroke-dasharray="5,2" d="M472.9,-88C481.25,-88 490.39,-88 499.64,-88"/>
<polygon fill="black" stroke="black" points="499.67,-91.5 509.67,-88 499.67,-84.5 499.67,-91.5"/>
</g>
<!-- more&#45;&gt;BlockEndState -->
<g id="edge8" class="edge">
<title>more&#45;&gt;BlockEndState</title>
<path fill="none" stroke="black" stroke-dasharray="5,2" d="M464.66,-45.45C479.64,-51.46 498.51,-59.03 516.18,-66.11"/>
<polygon fill="black" stroke="black" points="515.24,-69.5 525.83,-69.98 517.85,-63.01 515.24,-69.5"/>
</g>
<!-- begin -->
<g id="node6" class="node">
<title>begin</title>
<ellipse fill="none" stroke="black" stroke-dasharray="5,2" cx="37.7" cy="-84" rx="37.89" ry="18"/>
<text text-anchor="middle" x="37.7" y="-80.3" font-family="CourierNew" font-size="14.00">begin</text>
</g>
<!-- begin&#45;&gt;BasicBlockStartState -->
<g id="edge1" class="edge">
<title>begin&#45;&gt;BasicBlockStartState</title>
<path fill="none" stroke="black" stroke-dasharray="5,2" d="M75.39,-84C83.5,-84 92.53,-84 102.05,-84"/>
<polygon fill="black" stroke="black" points="102.14,-87.5 112.14,-84 102.14,-80.5 102.14,-87.5"/>
</g>
</g>
</svg>
