<?xml version="1.0" encoding="UTF-8" standalone="no"?>
<!DOCTYPE svg PUBLIC "-//W3C//DTD SVG 1.1//EN"
 "http://www.w3.org/Graphics/SVG/1.1/DTD/svg11.dtd">
<!-- Generated by graphviz version 3.0.0 (20220315.2325)
 -->
<!-- Pages: 1 -->
<svg width="1364pt" height="314pt"
 viewBox="0.00 0.00 1363.79 314.00" xmlns="http://www.w3.org/2000/svg" xmlns:xlink="http://www.w3.org/1999/xlink">
<g id="graph0" class="graph" transform="scale(1 1) rotate(0) translate(18 296)">
<polygon fill="white" stroke="transparent" points="-18,18 -18,-296 1345.79,-296 1345.79,18 -18,18"/>
<g id="clust1" class="cluster">
<title>cluster0</title>
<polygon fill="none" stroke="transparent" points="104.39,-8 104.39,-270 1236.79,-270 1236.79,-8 104.39,-8"/>
</g>
<!-- StarLoopEntryState -->
<g id="node1" class="node">
<title>StarLoopEntryState</title>
<g id="a_node1"><a xlink:href="../StarLoopEntryState.html" xlink:title="{StarLoopEntryState | {&lt;alt1&gt; alt 1 |&lt;alt2&gt; alt 2}}" target="_parent">
<polygon fill="none" stroke="black" points="112.39,-124 112.39,-170 335.39,-170 335.39,-124 112.39,-124"/>
<text text-anchor="middle" x="194.89" y="-143.3" font-family="CourierNew" font-size="14.00">StarLoopEntryState</text>
<polyline fill="none" stroke="black" points="277.39,-124 277.39,-170 "/>
<text text-anchor="middle" x="306.39" y="-154.8" font-family="CourierNew" font-size="14.00">alt 1</text>
<polyline fill="none" stroke="black" points="277.39,-147 335.39,-147 "/>
<text text-anchor="middle" x="306.39" y="-131.8" font-family="CourierNew" font-size="14.00">alt 2</text>
</a>
</g>
</g>
<!-- StarBlockStartState -->
<g id="node3" class="node">
<title>StarBlockStartState</title>
<g id="a_node3"><a xlink:href="../StarBlockStartState.html" xlink:title="{StarBlockStartState | {&lt;alt1&gt; alt 1 |&lt;alt2&gt; alt 2 | &amp;#0183;\n&amp;#0183;\n&amp;#0183; |&lt;altn&gt; alt n}}" target="_parent">
<polygon fill="none" stroke="black" points="380.39,-74 380.39,-196 611.39,-196 611.39,-74 380.39,-74"/>
<text text-anchor="middle" x="466.89" y="-131.3" font-family="CourierNew" font-size="14.00">StarBlockStartState</text>
<polyline fill="none" stroke="black" points="553.39,-74 553.39,-196 "/>
<text text-anchor="middle" x="582.39" y="-180.8" font-family="CourierNew" font-size="14.00">alt 1</text>
<polyline fill="none" stroke="black" points="553.39,-173 611.39,-173 "/>
<text text-anchor="middle" x="582.39" y="-157.8" font-family="CourierNew" font-size="14.00">alt 2</text>
<polyline fill="none" stroke="black" points="553.39,-150 611.39,-150 "/>
<text text-anchor="middle" x="582.39" y="-134.8" font-family="CourierNew" font-size="14.00">·</text>
<text text-anchor="middle" x="582.39" y="-119.8" font-family="CourierNew" font-size="14.00">·</text>
<text text-anchor="middle" x="582.39" y="-104.8" font-family="CourierNew" font-size="14.00">·</text>
<polyline fill="none" stroke="black" points="553.39,-97 611.39,-97 "/>
<text text-anchor="middle" x="582.39" y="-81.8" font-family="CourierNew" font-size="14.00">alt n</text>
</a>
</g>
</g>
<!-- StarLoopEntryState&#45;&gt;StarBlockStartState -->
<g id="edge10" class="edge">
<title>StarLoopEntryState:alt2&#45;&gt;StarBlockStartState</title>
<path fill="none" stroke="black" d="M335.39,-135C346.64,-135 358.33,-135 370.04,-135"/>
<polygon fill="black" stroke="black" points="370.33,-138.5 380.33,-135 370.33,-131.5 370.33,-138.5"/>
<text text-anchor="middle" x="357.89" y="-138.8" font-family="CourierNew" font-size="14.00">ε</text>
</g>
<!-- LoopEndState -->
<g id="node5" class="node">
<title>LoopEndState</title>
<g id="a_node5"><a xlink:href="../LoopEndState.html" xlink:title="\N" target="_parent">
<polygon fill="none" stroke="black" points="1112.79,-225 1112.79,-261 1228.79,-261 1228.79,-225 1112.79,-225"/>
<text text-anchor="middle" x="1170.79" y="-239.3" font-family="CourierNew" font-size="14.00">LoopEndState</text>
</a>
</g>
</g>
<!-- StarLoopEntryState&#45;&gt;LoopEndState -->
<g id="edge11" class="edge">
<title>StarLoopEntryState:alt1&#45;&gt;LoopEndState</title>
<path fill="none" stroke="black" d="M335.39,-159C364.31,-159 356.13,-190.26 380.39,-206 425.74,-235.42 440.84,-247 494.89,-247 494.89,-247 494.89,-247 916.29,-247 979.39,-247 1051.33,-245.75 1102.4,-244.64"/>
<polygon fill="black" stroke="black" points="1102.73,-248.14 1112.66,-244.42 1102.58,-241.14 1102.73,-248.14"/>
<text text-anchor="middle" x="694.09" y="-250.8" font-family="CourierNew" font-size="14.00">ε</text>
</g>
<!-- StarLoopbackState -->
<g id="node2" class="node">
<title>StarLoopbackState</title>
<g id="a_node2"><a xlink:href="../StarLoopbackState.html" xlink:title="\N" target="_parent">
<polygon fill="none" stroke="black" points="937.79,-67 937.79,-103 1094.79,-103 1094.79,-67 937.79,-67"/>
<text text-anchor="middle" x="1016.29" y="-81.3" font-family="CourierNew" font-size="14.00">StarLoopbackState</text>
</a>
</g>
</g>
<!-- StarLoopbackState&#45;&gt;StarLoopEntryState -->
<g id="edge12" class="edge">
<title>StarLoopbackState:s&#45;&gt;StarLoopEntryState:s</title>
<path fill="none" stroke="black" d="M1016.29,-66C1016.29,17.22 915.01,-34 831.79,-34 494.89,-34 494.89,-34 494.89,-34 371.59,-34 231.77,1.74 224.21,-112.97"/>
<polygon fill="black" stroke="black" points="220.71,-112.89 223.89,-123 227.71,-113.12 220.71,-112.89"/>
<text text-anchor="middle" x="694.09" y="-37.8" font-family="CourierNew" font-size="14.00">ε</text>
</g>
<!-- content1 -->
<g id="node6" class="node">
<title>content1</title>
<ellipse fill="none" stroke="black" stroke-dasharray="5,2" cx="694.09" cy="-193" rx="37.89" ry="18"/>
<text text-anchor="middle" x="694.09" y="-189.3" font-family="CourierNew" font-size="14.00">alt 1</text>
</g>
<!-- StarBlockStartState&#45;&gt;content1 -->
<g id="edge3" class="edge">
<title>StarBlockStartState:alt1&#45;&gt;content1</title>
<path fill="none" stroke="black" d="M611.39,-185C623.19,-185 635.89,-185.84 647.69,-186.97"/>
<polygon fill="black" stroke="black" points="647.47,-190.46 657.78,-188.02 648.2,-183.5 647.47,-190.46"/>
<text text-anchor="middle" x="633.89" y="-188.8" font-family="CourierNew" font-size="14.00">ε</text>
</g>
<!-- content2 -->
<g id="node7" class="node">
<title>content2</title>
<ellipse fill="none" stroke="black" stroke-dasharray="5,2" cx="694.09" cy="-139" rx="37.89" ry="18"/>
<text text-anchor="middle" x="694.09" y="-135.3" font-family="CourierNew" font-size="14.00">alt 2</text>
</g>
<!-- StarBlockStartState&#45;&gt;content2 -->
<g id="edge5" class="edge">
<title>StarBlockStartState:alt2&#45;&gt;content2</title>
<path fill="none" stroke="black" d="M611.39,-162C620.54,-162 620.81,-155.17 629.39,-152 635.3,-149.82 641.65,-147.97 647.98,-146.41"/>
<polygon fill="black" stroke="black" points="648.85,-149.8 657.84,-144.2 647.32,-142.97 648.85,-149.8"/>
<text text-anchor="middle" x="633.89" y="-155.8" font-family="CourierNew" font-size="14.00">ε</text>
</g>
<!-- more -->
<g id="node8" class="node">
<title>more</title>
<ellipse fill="none" stroke="black" stroke-dasharray="5,2" cx="694.09" cy="-85" rx="37.89" ry="18"/>
<text text-anchor="middle" x="694.09" y="-81.3" font-family="CourierNew" font-size="14.00">alt n</text>
</g>
<!-- StarBlockStartState&#45;&gt;more -->
<g id="edge7" class="edge">
<title>StarBlockStartState:altn&#45;&gt;more</title>
<path fill="none" stroke="black" d="M611.39,-85C622.58,-85 634.62,-85 645.94,-85"/>
<polygon fill="black" stroke="black" points="646.08,-88.5 656.08,-85 646.08,-81.5 646.08,-88.5"/>
<text text-anchor="middle" x="633.89" y="-88.8" font-family="CourierNew" font-size="14.00">ε</text>
</g>
<!-- BlockEndState -->
<g id="node4" class="node">
<title>BlockEndState</title>
<g id="a_node4"><a xlink:href="../BlockEndState.html" xlink:title="\N" target="_parent">
<polygon fill="none" stroke="black" points="768.79,-90 768.79,-126 892.79,-126 892.79,-90 768.79,-90"/>
<text text-anchor="middle" x="830.79" y="-104.3" font-family="CourierNew" font-size="14.00">BlockEndState</text>
</a>
</g>
</g>
<!-- BlockEndState&#45;&gt;StarLoopbackState -->
<g id="edge9" class="edge">
<title>BlockEndState:e&#45;&gt;StarLoopbackState:w</title>
<path fill="none" stroke="black" d="M892.79,-108C911.21,-108 914.57,-92.52 927.59,-86.96"/>
<polygon fill="black" stroke="black" points="928.63,-90.33 937.79,-85 927.31,-83.45 928.63,-90.33"/>
<text text-anchor="middle" x="915.29" y="-103.8" font-family="CourierNew" font-size="14.00">ε</text>
</g>
<!-- end -->
<g id="node10" class="node">
<title>end</title>
<ellipse fill="none" stroke="black" stroke-dasharray="5,2" cx="1300.79" cy="-243" rx="27" ry="18"/>
<text text-anchor="middle" x="1300.79" y="-239.3" font-family="CourierNew" font-size="14.00">end</text>
</g>
<!-- LoopEndState&#45;&gt;end -->
<g id="edge2" class="edge">
<title>LoopEndState&#45;&gt;end</title>
<path fill="none" stroke="black" d="M1229.05,-243C1240.73,-243 1252.71,-243 1263.42,-243"/>
<polygon fill="black" stroke="black" points="1263.65,-246.5 1273.65,-243 1263.65,-239.5 1263.65,-246.5"/>
<text text-anchor="middle" x="1251.29" y="-246.8" font-family="CourierNew" font-size="14.00">ε</text>
</g>
<!-- content1&#45;&gt;BlockEndState -->
<g id="edge4" class="edge">
<title>content1&#45;&gt;BlockEndState</title>
<path fill="none" stroke="black" stroke-dasharray="5,2" d="M717.64,-178.77C738.05,-165.89 768.5,-146.67 792.53,-131.51"/>
<polygon fill="black" stroke="black" points="794.47,-134.42 801.06,-126.13 790.74,-128.5 794.47,-134.42"/>
</g>
<!-- content2&#45;&gt;BlockEndState -->
<g id="edge6" class="edge">
<title>content2&#45;&gt;BlockEndState</title>
<path fill="none" stroke="black" stroke-dasharray="5,2" d="M728.39,-131.34C737.75,-129.18 748.31,-126.75 758.98,-124.3"/>
<polygon fill="black" stroke="black" points="759.82,-127.69 768.78,-122.04 758.25,-120.87 759.82,-127.69"/>
</g>
<!-- more&#45;&gt;BlockEndState -->
<g id="edge8" class="edge">
<title>more&#45;&gt;BlockEndState</title>
<path fill="none" stroke="black" stroke-dasharray="5,2" d="M729.78,-90.92C738.66,-92.44 748.55,-94.13 758.55,-95.84"/>
<polygon fill="black" stroke="black" points="758.11,-99.31 768.56,-97.55 759.29,-92.41 758.11,-99.31"/>
</g>
<!-- begin -->
<g id="node9" class="node">
<title>begin</title>
<ellipse fill="none" stroke="black" stroke-dasharray="5,2" cx="37.7" cy="-147" rx="37.89" ry="18"/>
<text text-anchor="middle" x="37.7" y="-143.3" font-family="CourierNew" font-size="14.00">begin</text>
</g>
<!-- begin&#45;&gt;StarLoopEntryState -->
<g id="edge1" class="edge">
<title>begin&#45;&gt;StarLoopEntryState</title>
<path fill="none" stroke="black" stroke-dasharray="5,2" d="M75.53,-147C83.55,-147 92.45,-147 101.8,-147"/>
<polygon fill="black" stroke="black" points="102.1,-150.5 112.1,-147 102.1,-143.5 102.1,-150.5"/>
</g>
</g>
</svg>
