<?xml version="1.0" encoding="UTF-8" standalone="no"?>
<!DOCTYPE svg PUBLIC "-//W3C//DTD SVG 1.1//EN"
 "http://www.w3.org/Graphics/SVG/1.1/DTD/svg11.dtd">
<!-- Generated by graphviz version 3.0.0 (20220315.2325)
 -->
<!-- Pages: 1 -->
<svg width="347pt" height="115pt"
 viewBox="0.00 0.00 417.00 138.00" xmlns="http://www.w3.org/2000/svg" xmlns:xlink="http://www.w3.org/1999/xlink">
<g id="graph0" class="graph" transform="scale(0.833333 0.833333) rotate(0) translate(4 134)">
<polygon fill="white" stroke="transparent" points="-4,4 -4,-134 413,-134 413,4 -4,4"/>
<!-- left -->
<g id="node1" class="node">
<title>left</title>
<text text-anchor="middle" x="27" y="-103.3" font-family="Times,serif" font-size="14.00">$</text>
</g>
<!-- leftroot -->
<g id="node2" class="node">
<title>leftroot</title>
<text text-anchor="middle" x="27" y="-19.8" font-family="Times,serif" font-size="14.00">a</text>
</g>
<!-- left&#45;&gt;leftroot -->
<g id="edge1" class="edge">
<title>left&#45;&gt;leftroot</title>
<path fill="none" stroke="black" d="M27,-78.6C27,-66.42 27,-52.45 27,-41.76"/>
<polygon fill="black" stroke="black" points="23.5,-78.72 27,-88.72 30.5,-78.72 23.5,-78.72"/>
</g>
<!-- temp1 -->
<g id="node3" class="node">
<title>temp1</title>
<text text-anchor="middle" x="99" y="-103.3" font-family="Times,serif" font-size="14.00">+</text>
</g>
<!-- right -->
<g id="node4" class="node">
<title>right</title>
<polygon fill="none" stroke="black" points="176,-84 208.49,-118.5 143.51,-118.5 176,-84"/>
<text text-anchor="middle" x="176" y="-103.3" font-family="Times,serif" font-size="14.00">x</text>
</g>
<!-- rightroot -->
<g id="node5" class="node">
<title>rightroot</title>
<text text-anchor="middle" x="176" y="-19.8" font-family="Times,serif" font-size="14.00">b</text>
</g>
<!-- right&#45;&gt;rightroot -->
<g id="edge2" class="edge">
<title>right&#45;&gt;rightroot</title>
<path fill="none" stroke="black" d="M176,-73.6C176,-62.65 176,-50.85 176,-41.57"/>
<polygon fill="black" stroke="black" points="172.5,-73.73 176,-83.73 179.5,-73.73 172.5,-73.73"/>
</g>
<!-- temp2b -->
<g id="node6" class="node">
<title>temp2b</title>
<ellipse fill="transparent" stroke="transparent" cx="228" cy="-107" rx="1.8" ry="1.8"/>
</g>
<!-- temp2c -->
<g id="node7" class="node">
<title>temp2c</title>
<ellipse fill="transparent" stroke="transparent" cx="334" cy="-107" rx="1.8" ry="1.8"/>
</g>
<!-- temp2b&#45;&gt;temp2c -->
<g id="edge3" class="edge">
<title>temp2b&#45;&gt;temp2c</title>
<path fill="none" stroke="black" d="M229.84,-107C240.7,-107 296.76,-107 321.85,-107"/>
<polygon fill="black" stroke="black" points="322.11,-110.5 332.11,-107 322.11,-103.5 322.11,-110.5"/>
<text text-anchor="middle" x="281" y="-113.8" font-family="Times,serif" font-size="14.00" fill="#fffffe">wwwwwww</text>
</g>
<!-- result -->
<g id="node8" class="node">
<title>result</title>
<text text-anchor="middle" x="381" y="-103.3" font-family="Times,serif" font-size="14.00">$</text>
</g>
<!-- resultroot -->
<g id="node9" class="node">
<title>resultroot</title>
<polygon fill="none" stroke="black" points="355,-0.5 355,-46.5 409,-46.5 409,-0.5 355,-0.5"/>
<text text-anchor="middle" x="368" y="-31.3" font-family="Times,serif" font-size="14.00"> </text>
<polyline fill="none" stroke="black" points="355,-23.5 381,-23.5 "/>
<text text-anchor="middle" x="368" y="-8.3" font-family="Times,serif" font-size="14.00">a</text>
<polyline fill="none" stroke="black" points="381,-0.5 381,-46.5 "/>
<text text-anchor="middle" x="395" y="-31.3" font-family="Times,serif" font-size="14.00"> </text>
<polyline fill="none" stroke="black" points="381,-23.5 409,-23.5 "/>
<text text-anchor="middle" x="395" y="-8.3" font-family="Times,serif" font-size="14.00">b</text>
</g>
<!-- result&#45;&gt;resultroot -->
<g id="edge4" class="edge">
<title>result&#45;&gt;resultroot:n</title>
<path fill="none" stroke="black" d="M372.52,-79.16C370.05,-69.17 368,-57.66 368,-47"/>
<polygon fill="black" stroke="black" points="369.18,-80.19 375.18,-88.92 375.93,-78.35 369.18,-80.19"/>
</g>
<!-- result&#45;&gt;resultroot -->
<g id="edge5" class="edge">
<title>result&#45;&gt;resultroot:n</title>
<path fill="none" stroke="black" d="M390.13,-79.2C392.79,-69.21 395,-57.7 395,-47"/>
<polygon fill="black" stroke="black" points="386.72,-78.37 387.26,-88.96 393.44,-80.35 386.72,-78.37"/>
</g>
</g>
</svg>
