<?xml version="1.0" encoding="UTF-8" standalone="no"?>
<!DOCTYPE svg PUBLIC "-//W3C//DTD SVG 1.1//EN"
 "http://www.w3.org/Graphics/SVG/1.1/DTD/svg11.dtd">
<!-- Generated by graphviz version 3.0.0 (20220315.2325)
 -->
<!-- Pages: 1 -->
<svg width="747pt" height="155pt"
 viewBox="0.00 0.00 747.39 155.00" xmlns="http://www.w3.org/2000/svg" xmlns:xlink="http://www.w3.org/1999/xlink">
<g id="graph0" class="graph" transform="scale(1 1) rotate(0) translate(18 137)">
<polygon fill="white" stroke="transparent" points="-18,18 -18,-137 729.39,-137 729.39,18 -18,18"/>
<g id="clust1" class="cluster">
<title>cluster0</title>
<polygon fill="none" stroke="transparent" points="104.39,-8 104.39,-111 620.39,-111 620.39,-8 104.39,-8"/>
</g>
<!-- BasicBlockStartState -->
<g id="node1" class="node">
<title>BasicBlockStartState</title>
<g id="a_node1"><a xlink:href="../BasicBlockStartState.html" xlink:title="{BasicBlockStartState | {&lt;alt1&gt; alt 1 |&lt;alt2&gt; alt 2}}" target="_parent">
<polygon fill="none" stroke="black" points="112.39,-45 112.39,-91 352.39,-91 352.39,-45 112.39,-45"/>
<text text-anchor="middle" x="203.39" y="-64.3" font-family="CourierNew" font-size="14.00">BasicBlockStartState</text>
<polyline fill="none" stroke="black" points="294.39,-45 294.39,-91 "/>
<text text-anchor="middle" x="323.39" y="-75.8" font-family="CourierNew" font-size="14.00">alt 1</text>
<polyline fill="none" stroke="black" points="294.39,-68 352.39,-68 "/>
<text text-anchor="middle" x="323.39" y="-52.8" font-family="CourierNew" font-size="14.00">alt 2</text>
</a>
</g>
</g>
<!-- BlockEndState -->
<g id="node2" class="node">
<title>BlockEndState</title>
<g id="a_node2"><a xlink:href="../BlockEndState.html" xlink:title="\N" target="_parent">
<polygon fill="none" stroke="black" points="488.39,-42 488.39,-78 612.39,-78 612.39,-42 488.39,-42"/>
<text text-anchor="middle" x="550.39" y="-56.3" font-family="CourierNew" font-size="14.00">BlockEndState</text>
</a>
</g>
</g>
<!-- BasicBlockStartState&#45;&gt;BlockEndState -->
<g id="edge5" class="edge">
<title>BasicBlockStartState:alt1&#45;&gt;BlockEndState</title>
<path fill="none" stroke="black" d="M352.39,-80C394.19,-80 440.71,-75.49 478.05,-70.75"/>
<polygon fill="black" stroke="black" points="478.86,-74.18 488.33,-69.41 477.96,-67.24 478.86,-74.18"/>
<text text-anchor="middle" x="424.39" y="-81.8" font-family="CourierNew" font-size="14.00">ε</text>
</g>
<!-- content -->
<g id="node3" class="node">
<title>content</title>
<ellipse fill="none" stroke="black" stroke-dasharray="5,2" cx="424.39" cy="-34" rx="27" ry="18"/>
<text text-anchor="middle" x="424.39" y="-30.3" font-family="CourierNew" font-size="14.00">alt</text>
</g>
<!-- BasicBlockStartState&#45;&gt;content -->
<g id="edge3" class="edge">
<title>BasicBlockStartState:alt2&#45;&gt;content</title>
<path fill="none" stroke="black" d="M352.39,-56C366.04,-56 380.52,-52.25 392.83,-47.84"/>
<polygon fill="black" stroke="black" points="394.11,-51.1 402.17,-44.23 391.58,-44.57 394.11,-51.1"/>
<text text-anchor="middle" x="374.89" y="-57.8" font-family="CourierNew" font-size="14.00">ε</text>
</g>
<!-- end -->
<g id="node5" class="node">
<title>end</title>
<ellipse fill="none" stroke="black" stroke-dasharray="5,2" cx="684.39" cy="-60" rx="27" ry="18"/>
<text text-anchor="middle" x="684.39" y="-56.3" font-family="CourierNew" font-size="14.00">end</text>
</g>
<!-- BlockEndState&#45;&gt;end -->
<g id="edge2" class="edge">
<title>BlockEndState&#45;&gt;end</title>
<path fill="none" stroke="black" d="M612.76,-60C624.47,-60 636.38,-60 647,-60"/>
<polygon fill="black" stroke="black" points="647.14,-63.5 657.14,-60 647.14,-56.5 647.14,-63.5"/>
<text text-anchor="middle" x="634.89" y="-63.8" font-family="CourierNew" font-size="14.00">ε</text>
</g>
<!-- content&#45;&gt;BlockEndState -->
<g id="edge4" class="edge">
<title>content&#45;&gt;BlockEndState</title>
<path fill="none" stroke="black" stroke-dasharray="5,2" d="M450.49,-39.26C458.71,-40.99 468.3,-43 478.21,-45.08"/>
<polygon fill="black" stroke="black" points="477.69,-48.54 488.19,-47.17 479.12,-41.69 477.69,-48.54"/>
</g>
<!-- begin -->
<g id="node4" class="node">
<title>begin</title>
<ellipse fill="none" stroke="black" stroke-dasharray="5,2" cx="37.7" cy="-68" rx="37.89" ry="18"/>
<text text-anchor="middle" x="37.7" y="-64.3" font-family="CourierNew" font-size="14.00">begin</text>
</g>
<!-- begin&#45;&gt;BasicBlockStartState -->
<g id="edge1" class="edge">
<title>begin&#45;&gt;BasicBlockStartState</title>
<path fill="none" stroke="black" stroke-dasharray="5,2" d="M75.39,-68C83.5,-68 92.53,-68 102.05,-68"/>
<polygon fill="black" stroke="black" points="102.14,-71.5 112.14,-68 102.14,-64.5 102.14,-71.5"/>
</g>
</g>
</svg>
