<?xml version="1.0" encoding="UTF-8" standalone="no"?>
<!DOCTYPE svg PUBLIC "-//W3C//DTD SVG 1.1//EN"
 "http://www.w3.org/Graphics/SVG/1.1/DTD/svg11.dtd">
<!-- Generated by graphviz version 3.0.0 (20220315.2325)
 -->
<!-- Pages: 1 -->
<svg width="747pt" height="155pt"
 viewBox="0.00 0.00 747.39 155.00" xmlns="http://www.w3.org/2000/svg" xmlns:xlink="http://www.w3.org/1999/xlink">
<g id="graph0" class="graph" transform="scale(1 1) rotate(0) translate(18 137)">
<polygon fill="white" stroke="transparent" points="-18,18 -18,-137 729.39,-137 729.39,18 -18,18"/>
<g id="clust1" class="cluster">
<title>cluster0</title>
<polygon fill="none" stroke="transparent" points="104.39,-8 104.39,-111 620.39,-111 620.39,-8 104.39,-8"/>
</g>
<!-- BasicBlockStartState -->
<g id="node1" class="node">
<title>BasicBlockStartState</title>
<g id="a_node1"><a xlink:href="../BasicBlockStartState.html" xlink:title="{BasicBlockStartState | {&lt;alt1&gt; alt 1 |&lt;alt2&gt; alt 2}}" target="_parent">
<polygon fill="none" stroke="black" points="112.39,-30 112.39,-76 352.39,-76 352.39,-30 112.39,-30"/>
<text text-anchor="middle" x="203.39" y="-49.3" font-family="CourierNew" font-size="14.00">BasicBlockStartState</text>
<polyline fill="none" stroke="black" points="294.39,-30 294.39,-76 "/>
<text text-anchor="middle" x="323.39" y="-60.8" font-family="CourierNew" font-size="14.00">alt 1</text>
<polyline fill="none" stroke="black" points="294.39,-53 352.39,-53 "/>
<text text-anchor="middle" x="323.39" y="-37.8" font-family="CourierNew" font-size="14.00">alt 2</text>
</a>
</g>
</g>
<!-- BlockEndState -->
<g id="node2" class="node">
<title>BlockEndState</title>
<g id="a_node2"><a xlink:href="../BlockEndState.html" xlink:title="\N" target="_parent">
<polygon fill="none" stroke="black" points="488.39,-31 488.39,-67 612.39,-67 612.39,-31 488.39,-31"/>
<text text-anchor="middle" x="550.39" y="-45.3" font-family="CourierNew" font-size="14.00">BlockEndState</text>
</a>
</g>
</g>
<!-- BasicBlockStartState&#45;&gt;BlockEndState -->
<g id="edge5" class="edge">
<title>BasicBlockStartState:alt2&#45;&gt;BlockEndState</title>
<path fill="none" stroke="black" d="M352.39,-41C396.4,-41 407.42,-41.21 451.39,-43 460.06,-43.35 469.14,-43.8 478.15,-44.3"/>
<polygon fill="black" stroke="black" points="478.07,-47.8 488.25,-44.87 478.46,-40.81 478.07,-47.8"/>
<text text-anchor="middle" x="424.39" y="-46.8" font-family="CourierNew" font-size="14.00">ε</text>
</g>
<!-- content -->
<g id="node3" class="node">
<title>content</title>
<ellipse fill="none" stroke="black" stroke-dasharray="5,2" cx="424.39" cy="-85" rx="27" ry="18"/>
<text text-anchor="middle" x="424.39" y="-81.3" font-family="CourierNew" font-size="14.00">alt</text>
</g>
<!-- BasicBlockStartState&#45;&gt;content -->
<g id="edge3" class="edge">
<title>BasicBlockStartState:alt1&#45;&gt;content</title>
<path fill="none" stroke="black" d="M352.39,-65C365.6,-65 379.69,-68.25 391.8,-72.12"/>
<polygon fill="black" stroke="black" points="390.86,-75.5 401.45,-75.47 393.15,-68.89 390.86,-75.5"/>
<text text-anchor="middle" x="374.89" y="-71.8" font-family="CourierNew" font-size="14.00">ε</text>
</g>
<!-- end -->
<g id="node5" class="node">
<title>end</title>
<ellipse fill="none" stroke="black" stroke-dasharray="5,2" cx="684.39" cy="-49" rx="27" ry="18"/>
<text text-anchor="middle" x="684.39" y="-45.3" font-family="CourierNew" font-size="14.00">end</text>
</g>
<!-- BlockEndState&#45;&gt;end -->
<g id="edge2" class="edge">
<title>BlockEndState&#45;&gt;end</title>
<path fill="none" stroke="black" d="M612.76,-49C624.47,-49 636.38,-49 647,-49"/>
<polygon fill="black" stroke="black" points="647.14,-52.5 657.14,-49 647.14,-45.5 647.14,-52.5"/>
<text text-anchor="middle" x="634.89" y="-52.8" font-family="CourierNew" font-size="14.00">ε</text>
</g>
<!-- content&#45;&gt;BlockEndState -->
<g id="edge4" class="edge">
<title>content&#45;&gt;BlockEndState</title>
<path fill="none" stroke="black" stroke-dasharray="5,2" d="M449.6,-77.97C458.12,-75.5 468.19,-72.58 478.6,-69.55"/>
<polygon fill="black" stroke="black" points="479.58,-72.91 488.21,-66.76 477.63,-66.19 479.58,-72.91"/>
</g>
<!-- begin -->
<g id="node4" class="node">
<title>begin</title>
<ellipse fill="none" stroke="black" stroke-dasharray="5,2" cx="37.7" cy="-53" rx="37.89" ry="18"/>
<text text-anchor="middle" x="37.7" y="-49.3" font-family="CourierNew" font-size="14.00">begin</text>
</g>
<!-- begin&#45;&gt;BasicBlockStartState -->
<g id="edge1" class="edge">
<title>begin&#45;&gt;BasicBlockStartState</title>
<path fill="none" stroke="black" stroke-dasharray="5,2" d="M75.39,-53C83.5,-53 92.53,-53 102.05,-53"/>
<polygon fill="black" stroke="black" points="102.14,-56.5 112.14,-53 102.14,-49.5 102.14,-56.5"/>
</g>
</g>
</svg>
