<?xml version="1.0" encoding="UTF-8" standalone="no"?>
<!DOCTYPE svg PUBLIC "-//W3C//DTD SVG 1.1//EN"
 "http://www.w3.org/Graphics/SVG/1.1/DTD/svg11.dtd">
<!-- Generated by graphviz version 3.0.0 (20220315.2325)
 -->
<!-- Pages: 1 -->
<svg width="1189pt" height="302pt"
 viewBox="0.00 0.00 1188.79 302.00" xmlns="http://www.w3.org/2000/svg" xmlns:xlink="http://www.w3.org/1999/xlink">
<g id="graph0" class="graph" transform="scale(1 1) rotate(0) translate(18 284)">
<polygon fill="white" stroke="transparent" points="-18,18 -18,-284 1170.79,-284 1170.79,18 -18,18"/>
<g id="clust1" class="cluster">
<title>cluster0</title>
<polygon fill="none" stroke="transparent" points="104.39,-8 104.39,-188 1061.79,-188 1061.79,-8 104.39,-8"/>
</g>
<!-- PlusBlockStartState -->
<g id="node1" class="node">
<title>PlusBlockStartState</title>
<g id="a_node1"><a xlink:href="../PlusBlockStartState.html" xlink:title="{PlusBlockStartState | {&lt;alt1&gt; alt 1 |&lt;alt2&gt; alt 2 | &amp;#0183;\n&amp;#0183;\n&amp;#0183; |&lt;altn&gt; alt n}}" target="_parent">
<polygon fill="none" stroke="black" points="112.39,-29 112.39,-151 343.39,-151 343.39,-29 112.39,-29"/>
<text text-anchor="middle" x="198.89" y="-86.3" font-family="CourierNew" font-size="14.00">PlusBlockStartState</text>
<polyline fill="none" stroke="black" points="285.39,-29 285.39,-151 "/>
<text text-anchor="middle" x="314.39" y="-135.8" font-family="CourierNew" font-size="14.00">alt 1</text>
<polyline fill="none" stroke="black" points="285.39,-128 343.39,-128 "/>
<text text-anchor="middle" x="314.39" y="-112.8" font-family="CourierNew" font-size="14.00">alt 2</text>
<polyline fill="none" stroke="black" points="285.39,-105 343.39,-105 "/>
<text text-anchor="middle" x="314.39" y="-89.8" font-family="CourierNew" font-size="14.00">·</text>
<text text-anchor="middle" x="314.39" y="-74.8" font-family="CourierNew" font-size="14.00">·</text>
<text text-anchor="middle" x="314.39" y="-59.8" font-family="CourierNew" font-size="14.00">·</text>
<polyline fill="none" stroke="black" points="285.39,-52 343.39,-52 "/>
<text text-anchor="middle" x="314.39" y="-36.8" font-family="CourierNew" font-size="14.00">alt n</text>
</a>
</g>
</g>
<!-- content1 -->
<g id="node5" class="node">
<title>content1</title>
<ellipse fill="none" stroke="black" stroke-dasharray="5,2" cx="426.09" cy="-142" rx="37.89" ry="18"/>
<text text-anchor="middle" x="426.09" y="-138.3" font-family="CourierNew" font-size="14.00">alt 1</text>
</g>
<!-- PlusBlockStartState&#45;&gt;content1 -->
<g id="edge3" class="edge">
<title>PlusBlockStartState:alt1&#45;&gt;content1</title>
<path fill="none" stroke="black" d="M343.39,-140C354.58,-140 366.63,-140.19 377.95,-140.45"/>
<polygon fill="black" stroke="black" points="378,-143.95 388.09,-140.71 378.18,-136.96 378,-143.95"/>
<text text-anchor="middle" x="365.89" y="-143.8" font-family="CourierNew" font-size="14.00">ε</text>
</g>
<!-- content2 -->
<g id="node6" class="node">
<title>content2</title>
<ellipse fill="none" stroke="black" stroke-dasharray="5,2" cx="426.09" cy="-88" rx="37.89" ry="18"/>
<text text-anchor="middle" x="426.09" y="-84.3" font-family="CourierNew" font-size="14.00">alt 2</text>
</g>
<!-- PlusBlockStartState&#45;&gt;content2 -->
<g id="edge5" class="edge">
<title>PlusBlockStartState:alt2&#45;&gt;content2</title>
<path fill="none" stroke="black" d="M343.39,-117C353.26,-117 352.45,-108.17 361.39,-104 367.5,-101.15 374.19,-98.77 380.86,-96.78"/>
<polygon fill="black" stroke="black" points="381.82,-100.15 390.55,-94.16 379.98,-93.4 381.82,-100.15"/>
<text text-anchor="middle" x="365.89" y="-107.8" font-family="CourierNew" font-size="14.00">ε</text>
</g>
<!-- more -->
<g id="node7" class="node">
<title>more</title>
<ellipse fill="none" stroke="black" stroke-dasharray="5,2" cx="426.09" cy="-34" rx="37.89" ry="18"/>
<text text-anchor="middle" x="426.09" y="-30.3" font-family="CourierNew" font-size="14.00">alt n</text>
</g>
<!-- PlusBlockStartState&#45;&gt;more -->
<g id="edge7" class="edge">
<title>PlusBlockStartState:altn&#45;&gt;more</title>
<path fill="none" stroke="black" d="M343.39,-40C354.83,-40 367.13,-39.41 378.64,-38.6"/>
<polygon fill="black" stroke="black" points="379.24,-42.06 388.94,-37.8 378.7,-35.08 379.24,-42.06"/>
<text text-anchor="middle" x="365.89" y="-43.8" font-family="CourierNew" font-size="14.00">ε</text>
</g>
<!-- PlusLoopbackState -->
<g id="node2" class="node">
<title>PlusLoopbackState</title>
<g id="a_node2"><a xlink:href="../PlusLoopbackState.html" xlink:title="{PlusLoopbackState | {&lt;alt1&gt; alt 1 |&lt;alt2&gt; alt 2}}" target="_parent">
<polygon fill="none" stroke="black" points="677.79,-92 677.79,-138 892.79,-138 892.79,-92 677.79,-92"/>
<text text-anchor="middle" x="756.29" y="-111.3" font-family="CourierNew" font-size="14.00">PlusLoopbackState</text>
<polyline fill="none" stroke="black" points="834.79,-92 834.79,-138 "/>
<text text-anchor="middle" x="863.79" y="-122.8" font-family="CourierNew" font-size="14.00">alt 1</text>
<polyline fill="none" stroke="black" points="834.79,-115 892.79,-115 "/>
<text text-anchor="middle" x="863.79" y="-99.8" font-family="CourierNew" font-size="14.00">alt 2</text>
</a>
</g>
</g>
<!-- PlusLoopbackState&#45;&gt;PlusBlockStartState -->
<g id="edge10" class="edge">
<title>PlusLoopbackState:n&#45;&gt;PlusBlockStartState:n</title>
<path fill="none" stroke="black" d="M864.29,-139C864.29,-277 258.59,-292.74 229.01,-162.08"/>
<polygon fill="black" stroke="black" points="232.48,-161.55 227.89,-152 225.52,-162.33 232.48,-161.55"/>
<text text-anchor="middle" x="486.29" y="-254.8" font-family="CourierNew" font-size="14.00">ε</text>
</g>
<!-- LoopEndState -->
<g id="node4" class="node">
<title>LoopEndState</title>
<g id="a_node4"><a xlink:href="../LoopEndState.html" xlink:title="\N" target="_parent">
<polygon fill="none" stroke="black" points="937.79,-85 937.79,-121 1053.79,-121 1053.79,-85 937.79,-85"/>
<text text-anchor="middle" x="995.79" y="-99.3" font-family="CourierNew" font-size="14.00">LoopEndState</text>
</a>
</g>
</g>
<!-- PlusLoopbackState&#45;&gt;LoopEndState -->
<g id="edge11" class="edge">
<title>PlusLoopbackState:alt2&#45;&gt;LoopEndState</title>
<path fill="none" stroke="black" d="M892.79,-103C904.02,-103 915.94,-103 927.53,-103"/>
<polygon fill="black" stroke="black" points="927.6,-106.5 937.6,-103 927.6,-99.5 927.6,-106.5"/>
<text text-anchor="middle" x="915.29" y="-106.8" font-family="CourierNew" font-size="14.00">ε</text>
</g>
<!-- BlockEndState -->
<g id="node3" class="node">
<title>BlockEndState</title>
<g id="a_node3"><a xlink:href="../BlockEndState.html" xlink:title="\N" target="_parent">
<polygon fill="none" stroke="black" points="508.79,-80 508.79,-116 632.79,-116 632.79,-80 508.79,-80"/>
<text text-anchor="middle" x="570.79" y="-94.3" font-family="CourierNew" font-size="14.00">BlockEndState</text>
</a>
</g>
</g>
<!-- BlockEndState&#45;&gt;PlusLoopbackState -->
<g id="edge9" class="edge">
<title>BlockEndState&#45;&gt;PlusLoopbackState</title>
<path fill="none" stroke="black" d="M632.97,-102.89C643.89,-103.77 655.59,-104.7 667.46,-105.65"/>
<polygon fill="black" stroke="black" points="667.22,-109.15 677.47,-106.45 667.78,-102.17 667.22,-109.15"/>
<text text-anchor="middle" x="655.29" y="-107.8" font-family="CourierNew" font-size="14.00">ε</text>
</g>
<!-- end -->
<g id="node9" class="node">
<title>end</title>
<ellipse fill="none" stroke="black" stroke-dasharray="5,2" cx="1125.79" cy="-103" rx="27" ry="18"/>
<text text-anchor="middle" x="1125.79" y="-99.3" font-family="CourierNew" font-size="14.00">end</text>
</g>
<!-- LoopEndState&#45;&gt;end -->
<g id="edge2" class="edge">
<title>LoopEndState&#45;&gt;end</title>
<path fill="none" stroke="black" d="M1054.05,-103C1065.73,-103 1077.71,-103 1088.42,-103"/>
<polygon fill="black" stroke="black" points="1088.65,-106.5 1098.65,-103 1088.65,-99.5 1088.65,-106.5"/>
<text text-anchor="middle" x="1076.29" y="-106.8" font-family="CourierNew" font-size="14.00">ε</text>
</g>
<!-- content1&#45;&gt;BlockEndState -->
<g id="edge4" class="edge">
<title>content1&#45;&gt;BlockEndState</title>
<path fill="none" stroke="black" stroke-dasharray="5,2" d="M458.05,-132.45C470.83,-128.51 486.18,-123.78 501.36,-119.1"/>
<polygon fill="black" stroke="black" points="502.75,-122.33 511.27,-116.04 500.69,-115.64 502.75,-122.33"/>
</g>
<!-- content2&#45;&gt;BlockEndState -->
<g id="edge6" class="edge">
<title>content2&#45;&gt;BlockEndState</title>
<path fill="none" stroke="black" stroke-dasharray="5,2" d="M463.47,-90.55C474.18,-91.3 486.28,-92.15 498.39,-93"/>
<polygon fill="black" stroke="black" points="498.31,-96.5 508.53,-93.71 498.8,-89.52 498.31,-96.5"/>
</g>
<!-- more&#45;&gt;BlockEndState -->
<g id="edge8" class="edge">
<title>more&#45;&gt;BlockEndState</title>
<path fill="none" stroke="black" stroke-dasharray="5,2" d="M454.27,-46.19C472.87,-54.53 498.09,-65.84 520.22,-75.77"/>
<polygon fill="black" stroke="black" points="518.93,-79.03 529.48,-79.92 521.79,-72.64 518.93,-79.03"/>
</g>
<!-- begin -->
<g id="node8" class="node">
<title>begin</title>
<ellipse fill="none" stroke="black" stroke-dasharray="5,2" cx="37.7" cy="-90" rx="37.89" ry="18"/>
<text text-anchor="middle" x="37.7" y="-86.3" font-family="CourierNew" font-size="14.00">begin</text>
</g>
<!-- begin&#45;&gt;PlusBlockStartState -->
<g id="edge1" class="edge">
<title>begin&#45;&gt;PlusBlockStartState</title>
<path fill="none" stroke="black" stroke-dasharray="5,2" d="M75.43,-90C83.53,-90 92.54,-90 102.03,-90"/>
<polygon fill="black" stroke="black" points="102.06,-93.5 112.06,-90 102.06,-86.5 102.06,-93.5"/>
</g>
</g>
</svg>
