<?xml version="1.0" encoding="UTF-8" standalone="no"?>
<!DOCTYPE svg PUBLIC "-//W3C//DTD SVG 1.1//EN"
 "http://www.w3.org/Graphics/SVG/1.1/DTD/svg11.dtd">
<!-- Generated by graphviz version 3.0.0 (20220315.2325)
 -->
<!-- Pages: 1 -->
<svg width="1189pt" height="303pt"
 viewBox="0.00 0.00 1188.79 302.88" xmlns="http://www.w3.org/2000/svg" xmlns:xlink="http://www.w3.org/1999/xlink">
<g id="graph0" class="graph" transform="scale(1 1) rotate(0) translate(18 284.88)">
<polygon fill="white" stroke="transparent" points="-18,18 -18,-284.88 1170.79,-284.88 1170.79,18 -18,18"/>
<g id="clust1" class="cluster">
<title>cluster0</title>
<polygon fill="none" stroke="transparent" points="104.39,-78.88 104.39,-258.88 1061.79,-258.88 1061.79,-78.88 104.39,-78.88"/>
</g>
<!-- PlusBlockStartState -->
<g id="node1" class="node">
<title>PlusBlockStartState</title>
<g id="a_node1"><a xlink:href="../PlusBlockStartState.html" xlink:title="{PlusBlockStartState | {&lt;alt1&gt; alt 1 |&lt;alt2&gt; alt 2 | &amp;#0183;\n&amp;#0183;\n&amp;#0183; |&lt;altn&gt; alt n}}" target="_parent">
<polygon fill="none" stroke="black" points="112.39,-101.88 112.39,-223.88 343.39,-223.88 343.39,-101.88 112.39,-101.88"/>
<text text-anchor="middle" x="198.89" y="-159.18" font-family="CourierNew" font-size="14.00">PlusBlockStartState</text>
<polyline fill="none" stroke="black" points="285.39,-101.88 285.39,-223.88 "/>
<text text-anchor="middle" x="314.39" y="-208.68" font-family="CourierNew" font-size="14.00">alt 1</text>
<polyline fill="none" stroke="black" points="285.39,-200.88 343.39,-200.88 "/>
<text text-anchor="middle" x="314.39" y="-185.68" font-family="CourierNew" font-size="14.00">alt 2</text>
<polyline fill="none" stroke="black" points="285.39,-177.88 343.39,-177.88 "/>
<text text-anchor="middle" x="314.39" y="-162.68" font-family="CourierNew" font-size="14.00">·</text>
<text text-anchor="middle" x="314.39" y="-147.68" font-family="CourierNew" font-size="14.00">·</text>
<text text-anchor="middle" x="314.39" y="-132.68" font-family="CourierNew" font-size="14.00">·</text>
<polyline fill="none" stroke="black" points="285.39,-124.88 343.39,-124.88 "/>
<text text-anchor="middle" x="314.39" y="-109.68" font-family="CourierNew" font-size="14.00">alt n</text>
</a>
</g>
</g>
<!-- content1 -->
<g id="node5" class="node">
<title>content1</title>
<ellipse fill="none" stroke="black" stroke-dasharray="5,2" cx="426.09" cy="-232.88" rx="37.89" ry="18"/>
<text text-anchor="middle" x="426.09" y="-229.18" font-family="CourierNew" font-size="14.00">alt 1</text>
</g>
<!-- PlusBlockStartState&#45;&gt;content1 -->
<g id="edge3" class="edge">
<title>PlusBlockStartState:alt1&#45;&gt;content1</title>
<path fill="none" stroke="black" d="M343.39,-212.88C357.47,-212.88 372.54,-215.72 385.84,-219.26"/>
<polygon fill="black" stroke="black" points="385.06,-222.67 395.63,-222.06 386.99,-215.94 385.06,-222.67"/>
<text text-anchor="middle" x="365.89" y="-218.68" font-family="CourierNew" font-size="14.00">ε</text>
</g>
<!-- content2 -->
<g id="node6" class="node">
<title>content2</title>
<ellipse fill="none" stroke="black" stroke-dasharray="5,2" cx="426.09" cy="-178.88" rx="37.89" ry="18"/>
<text text-anchor="middle" x="426.09" y="-175.18" font-family="CourierNew" font-size="14.00">alt 2</text>
</g>
<!-- PlusBlockStartState&#45;&gt;content2 -->
<g id="edge5" class="edge">
<title>PlusBlockStartState:alt2&#45;&gt;content2</title>
<path fill="none" stroke="black" d="M343.39,-189.88C351.7,-189.88 353.23,-186.39 361.39,-184.88 366.85,-183.88 372.61,-183.03 378.34,-182.33"/>
<polygon fill="black" stroke="black" points="379,-185.78 388.56,-181.21 378.23,-178.82 379,-185.78"/>
<text text-anchor="middle" x="365.89" y="-188.68" font-family="CourierNew" font-size="14.00">ε</text>
</g>
<!-- more -->
<g id="node7" class="node">
<title>more</title>
<ellipse fill="none" stroke="black" stroke-dasharray="5,2" cx="426.09" cy="-124.88" rx="37.89" ry="18"/>
<text text-anchor="middle" x="426.09" y="-121.18" font-family="CourierNew" font-size="14.00">alt n</text>
</g>
<!-- PlusBlockStartState&#45;&gt;more -->
<g id="edge7" class="edge">
<title>PlusBlockStartState:altn&#45;&gt;more</title>
<path fill="none" stroke="black" d="M343.39,-112.88C355.82,-112.88 369.21,-114.26 381.47,-116.08"/>
<polygon fill="black" stroke="black" points="381.04,-119.56 391.47,-117.7 382.15,-112.65 381.04,-119.56"/>
<text text-anchor="middle" x="365.89" y="-118.68" font-family="CourierNew" font-size="14.00">ε</text>
</g>
<!-- PlusLoopbackState -->
<g id="node2" class="node">
<title>PlusLoopbackState</title>
<g id="a_node2"><a xlink:href="../PlusLoopbackState.html" xlink:title="{PlusLoopbackState | {&lt;alt1&gt; alt 1 |&lt;alt2&gt; alt 2}}" target="_parent">
<polygon fill="none" stroke="black" points="677.79,-112.88 677.79,-158.88 892.79,-158.88 892.79,-112.88 677.79,-112.88"/>
<text text-anchor="middle" x="756.29" y="-132.18" font-family="CourierNew" font-size="14.00">PlusLoopbackState</text>
<polyline fill="none" stroke="black" points="834.79,-112.88 834.79,-158.88 "/>
<text text-anchor="middle" x="863.79" y="-143.68" font-family="CourierNew" font-size="14.00">alt 1</text>
<polyline fill="none" stroke="black" points="834.79,-135.88 892.79,-135.88 "/>
<text text-anchor="middle" x="863.79" y="-120.68" font-family="CourierNew" font-size="14.00">alt 2</text>
</a>
</g>
</g>
<!-- PlusLoopbackState&#45;&gt;PlusBlockStartState -->
<g id="edge10" class="edge">
<title>PlusLoopbackState:s&#45;&gt;PlusBlockStartState:s</title>
<path fill="none" stroke="black" d="M864.29,-111.88C864.29,26.11 258.59,39.94 229.01,-90.8"/>
<polygon fill="black" stroke="black" points="225.52,-90.56 227.89,-100.88 232.48,-91.33 225.52,-90.56"/>
<text text-anchor="middle" x="486.29" y="-5.68" font-family="CourierNew" font-size="14.00">ε</text>
</g>
<!-- LoopEndState -->
<g id="node4" class="node">
<title>LoopEndState</title>
<g id="a_node4"><a xlink:href="../LoopEndState.html" xlink:title="\N" target="_parent">
<polygon fill="none" stroke="black" points="937.79,-129.88 937.79,-165.88 1053.79,-165.88 1053.79,-129.88 937.79,-129.88"/>
<text text-anchor="middle" x="995.79" y="-144.18" font-family="CourierNew" font-size="14.00">LoopEndState</text>
</a>
</g>
</g>
<!-- PlusLoopbackState&#45;&gt;LoopEndState -->
<g id="edge11" class="edge">
<title>PlusLoopbackState:alt1&#45;&gt;LoopEndState</title>
<path fill="none" stroke="black" d="M892.79,-147.88C904.02,-147.88 915.94,-147.88 927.53,-147.88"/>
<polygon fill="black" stroke="black" points="927.6,-151.38 937.6,-147.88 927.6,-144.38 927.6,-151.38"/>
<text text-anchor="middle" x="915.29" y="-151.68" font-family="CourierNew" font-size="14.00">ε</text>
</g>
<!-- BlockEndState -->
<g id="node3" class="node">
<title>BlockEndState</title>
<g id="a_node3"><a xlink:href="../BlockEndState.html" xlink:title="\N" target="_parent">
<polygon fill="none" stroke="black" points="508.79,-142.88 508.79,-178.88 632.79,-178.88 632.79,-142.88 508.79,-142.88"/>
<text text-anchor="middle" x="570.79" y="-157.18" font-family="CourierNew" font-size="14.00">BlockEndState</text>
</a>
</g>
</g>
<!-- BlockEndState&#45;&gt;PlusLoopbackState -->
<g id="edge9" class="edge">
<title>BlockEndState&#45;&gt;PlusLoopbackState</title>
<path fill="none" stroke="black" d="M632.97,-153.69C643.89,-152.4 655.59,-151.02 667.46,-149.63"/>
<polygon fill="black" stroke="black" points="667.95,-153.09 677.47,-148.45 667.13,-146.14 667.95,-153.09"/>
<text text-anchor="middle" x="655.29" y="-154.68" font-family="CourierNew" font-size="14.00">ε</text>
</g>
<!-- end -->
<g id="node9" class="node">
<title>end</title>
<ellipse fill="none" stroke="black" stroke-dasharray="5,2" cx="1125.79" cy="-147.88" rx="27" ry="18"/>
<text text-anchor="middle" x="1125.79" y="-144.18" font-family="CourierNew" font-size="14.00">end</text>
</g>
<!-- LoopEndState&#45;&gt;end -->
<g id="edge2" class="edge">
<title>LoopEndState&#45;&gt;end</title>
<path fill="none" stroke="black" d="M1054.05,-147.88C1065.73,-147.88 1077.71,-147.88 1088.42,-147.88"/>
<polygon fill="black" stroke="black" points="1088.65,-151.38 1098.65,-147.88 1088.65,-144.38 1088.65,-151.38"/>
<text text-anchor="middle" x="1076.29" y="-151.68" font-family="CourierNew" font-size="14.00">ε</text>
</g>
<!-- content1&#45;&gt;BlockEndState -->
<g id="edge4" class="edge">
<title>content1&#45;&gt;BlockEndState</title>
<path fill="none" stroke="black" stroke-dasharray="5,2" d="M452.6,-220.01C472.63,-209.91 501.01,-195.58 524.83,-183.57"/>
<polygon fill="black" stroke="black" points="526.69,-186.55 534.04,-178.92 523.54,-180.3 526.69,-186.55"/>
</g>
<!-- content2&#45;&gt;BlockEndState -->
<g id="edge6" class="edge">
<title>content2&#45;&gt;BlockEndState</title>
<path fill="none" stroke="black" stroke-dasharray="5,2" d="M462.73,-174.39C473.67,-173.01 486.13,-171.44 498.57,-169.87"/>
<polygon fill="black" stroke="black" points="499.04,-173.33 508.53,-168.61 498.17,-166.39 499.04,-173.33"/>
</g>
<!-- more&#45;&gt;BlockEndState -->
<g id="edge8" class="edge">
<title>more&#45;&gt;BlockEndState</title>
<path fill="none" stroke="black" stroke-dasharray="5,2" d="M459.83,-133.14C471.48,-136.08 485.1,-139.52 498.71,-142.95"/>
<polygon fill="black" stroke="black" points="498.03,-146.39 508.58,-145.44 499.74,-139.6 498.03,-146.39"/>
</g>
<!-- begin -->
<g id="node8" class="node">
<title>begin</title>
<ellipse fill="none" stroke="black" stroke-dasharray="5,2" cx="37.7" cy="-162.88" rx="37.89" ry="18"/>
<text text-anchor="middle" x="37.7" y="-159.18" font-family="CourierNew" font-size="14.00">begin</text>
</g>
<!-- begin&#45;&gt;PlusBlockStartState -->
<g id="edge1" class="edge">
<title>begin&#45;&gt;PlusBlockStartState</title>
<path fill="none" stroke="black" stroke-dasharray="5,2" d="M75.43,-162.88C83.53,-162.88 92.54,-162.88 102.03,-162.88"/>
<polygon fill="black" stroke="black" points="102.06,-166.38 112.06,-162.88 102.06,-159.38 102.06,-166.38"/>
</g>
</g>
</svg>
