<?xml version="1.0" encoding="UTF-8" standalone="no"?>
<!DOCTYPE svg PUBLIC "-//W3C//DTD SVG 1.1//EN"
 "http://www.w3.org/Graphics/SVG/1.1/DTD/svg11.dtd">
<!-- Generated by graphviz version 3.0.0 (20220315.2325)
 -->
<!-- Pages: 1 -->
<svg width="470pt" height="72pt"
 viewBox="0.00 0.00 470.19 72.00" xmlns="http://www.w3.org/2000/svg" xmlns:xlink="http://www.w3.org/1999/xlink">
<g id="graph0" class="graph" transform="scale(1 1) rotate(0) translate(18 54)">
<polygon fill="white" stroke="transparent" points="-18,18 -18,-54 452.19,-54 452.19,18 -18,18"/>
<!-- RuleStartState -->
<g id="node1" class="node">
<title>RuleStartState</title>
<g id="a_node1"><a xlink:href="../RuleStartState.html" xlink:title="RuleStartState" target="_parent">
<polygon fill="none" stroke="black" points="132,-36 0,-36 0,0 132,0 132,-36"/>
<text text-anchor="middle" x="66" y="-14.3" font-family="CourierNew" font-size="14.00">RuleStartState</text>
</a>
</g>
</g>
<!-- content -->
<g id="node3" class="node">
<title>content</title>
<ellipse fill="none" stroke="black" stroke-dasharray="5,2" cx="225.1" cy="-18" rx="48.19" ry="18"/>
<text text-anchor="middle" x="225.1" y="-14.3" font-family="CourierNew" font-size="14.00">content</text>
</g>
<!-- RuleStartState&#45;&gt;content -->
<g id="edge1" class="edge">
<title>RuleStartState&#45;&gt;content</title>
<path fill="none" stroke="black" d="M132.26,-18C143.75,-18 155.63,-18 166.87,-18"/>
<polygon fill="black" stroke="black" points="167,-21.5 177,-18 167,-14.5 167,-21.5"/>
<text text-anchor="middle" x="154.5" y="-21.8" font-family="CourierNew" font-size="14.00">ε</text>
</g>
<!-- RuleStopState -->
<g id="node2" class="node">
<title>RuleStopState</title>
<g id="a_node2"><a xlink:href="../RuleStopState.html" xlink:title="RuleStopState" target="_parent">
<polygon fill="none" stroke="black" points="434.19,-36 310.19,-36 310.19,0 434.19,0 434.19,-36"/>
<text text-anchor="middle" x="372.19" y="-14.3" font-family="CourierNew" font-size="14.00">RuleStopState</text>
</a>
</g>
</g>
<!-- content&#45;&gt;RuleStopState -->
<g id="edge2" class="edge">
<title>content&#45;&gt;RuleStopState</title>
<path fill="none" stroke="black" stroke-dasharray="5,2" d="M273.2,-18C281.74,-18 290.82,-18 299.87,-18"/>
<polygon fill="black" stroke="black" points="300.04,-21.5 310.04,-18 300.04,-14.5 300.04,-21.5"/>
</g>
</g>
</svg>
