<?xml version="1.0" encoding="UTF-8" standalone="no"?>
<!DOCTYPE svg PUBLIC "-//W3C//DTD SVG 1.1//EN"
 "http://www.w3.org/Graphics/SVG/1.1/DTD/svg11.dtd">
<!-- Generated by graphviz version 3.0.0 (20220315.2325)
 -->
<!-- Pages: 1 -->
<svg width="377pt" height="133pt"
 viewBox="0.00 0.00 452.50 159.00" xmlns="http://www.w3.org/2000/svg" xmlns:xlink="http://www.w3.org/1999/xlink">
<g id="graph0" class="graph" transform="scale(0.833333 0.833333) rotate(0) translate(4 155)">
<polygon fill="white" stroke="transparent" points="-4,4 -4,-155 448.5,-155 448.5,4 -4,4"/>
<g id="clust5" class="cluster">
<title>clusterRes</title>
<polygon fill="none" stroke="transparent" points="356.5,-8 356.5,-143 436.5,-143 436.5,-8 356.5,-8"/>
</g>
<!-- left -->
<g id="node1" class="node">
<title>left</title>
<polygon fill="none" stroke="black" points="32.5,-89 64.99,-123.5 0,-123.5 32.5,-89"/>
<text text-anchor="middle" x="32.5" y="-108.3" font-family="Times,serif" font-size="14.00">x</text>
</g>
<!-- leftroot -->
<g id="node2" class="node">
<title>leftroot</title>
<text text-anchor="middle" x="32.5" y="-30.3" font-family="Times,serif" font-size="14.00">a</text>
</g>
<!-- left&#45;&gt;leftroot -->
<g id="edge1" class="edge">
<title>left&#45;&gt;leftroot</title>
<path fill="none" stroke="black" d="M32.5,-78.42C32.5,-69.48 32.5,-60.14 32.5,-52.41"/>
<polygon fill="black" stroke="black" points="29,-78.61 32.5,-88.61 36,-78.61 29,-78.61"/>
</g>
<!-- temp1 -->
<g id="node3" class="node">
<title>temp1</title>
<text text-anchor="middle" x="109.5" y="-108.3" font-family="Times,serif" font-size="14.00">+</text>
</g>
<!-- right -->
<g id="node4" class="node">
<title>right</title>
<polygon fill="none" stroke="black" points="186.5,-89 218.99,-123.5 154,-123.5 186.5,-89"/>
<text text-anchor="middle" x="186.5" y="-108.3" font-family="Times,serif" font-size="14.00">x</text>
</g>
<!-- rightroot -->
<g id="node5" class="node">
<title>rightroot</title>
<text text-anchor="middle" x="186.5" y="-30.3" font-family="Times,serif" font-size="14.00">a</text>
</g>
<!-- right&#45;&gt;rightroot -->
<g id="edge2" class="edge">
<title>right&#45;&gt;rightroot</title>
<path fill="none" stroke="black" d="M186.5,-78.42C186.5,-69.48 186.5,-60.14 186.5,-52.41"/>
<polygon fill="black" stroke="black" points="183,-78.61 186.5,-88.61 190,-78.61 183,-78.61"/>
</g>
<!-- temp2b -->
<g id="node6" class="node">
<title>temp2b</title>
<ellipse fill="transparent" stroke="transparent" cx="238.5" cy="-112" rx="1.8" ry="1.8"/>
</g>
<!-- temp2c -->
<g id="node7" class="node">
<title>temp2c</title>
<ellipse fill="transparent" stroke="transparent" cx="344.5" cy="-112" rx="1.8" ry="1.8"/>
</g>
<!-- temp2b&#45;&gt;temp2c -->
<g id="edge3" class="edge">
<title>temp2b&#45;&gt;temp2c</title>
<path fill="none" stroke="black" d="M240.34,-112C251.19,-112 307.26,-112 332.34,-112"/>
<polygon fill="black" stroke="black" points="332.61,-115.5 342.61,-112 332.61,-108.5 332.61,-115.5"/>
<text text-anchor="middle" x="291.5" y="-118.8" font-family="Times,serif" font-size="14.00" fill="#fffffe">wwwwwww</text>
</g>
<!-- result -->
<g id="node8" class="node">
<title>result</title>
<polygon fill="none" stroke="black" points="396.5,-89 428.99,-123.5 364,-123.5 396.5,-89"/>
<text text-anchor="middle" x="396.5" y="-108.3" font-family="Times,serif" font-size="14.00">x</text>
</g>
<!-- resultroot -->
<g id="node9" class="node">
<title>resultroot</title>
<text text-anchor="middle" x="396.5" y="-30.3" font-family="Times,serif" font-size="14.00">a</text>
</g>
<!-- result&#45;&gt;resultroot -->
<g id="edge4" class="edge">
<title>result&#45;&gt;resultroot</title>
<path fill="none" stroke="black" d="M396.5,-78.42C396.5,-69.48 396.5,-60.14 396.5,-52.41"/>
<polygon fill="black" stroke="black" points="393,-78.61 396.5,-88.61 400,-78.61 393,-78.61"/>
</g>
</g>
</svg>
