<?xml version="1.0" encoding="UTF-8" standalone="no"?>
<!DOCTYPE svg PUBLIC "-//W3C//DTD SVG 1.1//EN"
 "http://www.w3.org/Graphics/SVG/1.1/DTD/svg11.dtd">
<!-- Generated by graphviz version 3.0.0 (20220315.2325)
 -->
<!-- Pages: 1 -->
<svg width="427pt" height="194pt"
 viewBox="0.00 0.00 512.50 233.00" xmlns="http://www.w3.org/2000/svg" xmlns:xlink="http://www.w3.org/1999/xlink">
<g id="graph0" class="graph" transform="scale(0.833333 0.833333) rotate(0) translate(4 229)">
<polygon fill="white" stroke="transparent" points="-4,4 -4,-229 508.5,-229 508.5,4 -4,4"/>
<g id="clust6" class="cluster">
<title>clusterRes</title>
<polygon fill="none" stroke="transparent" points="354.5,-8 354.5,-217 496.5,-217 496.5,-8 354.5,-8"/>
</g>
<!-- lefttree -->
<g id="node1" class="node">
<title>lefttree</title>
</g>
<!-- left -->
<g id="node2" class="node">
<title>left</title>
<polygon fill="none" stroke="black" points="32.5,-89.5 64.99,-124 0,-124 32.5,-89.5"/>
<text text-anchor="middle" x="32.5" y="-108.8" font-family="Times,serif" font-size="14.00">x</text>
</g>
<!-- lefttree&#45;&gt;left -->
<g id="edge1" class="edge">
<title>lefttree&#45;&gt;left</title>
</g>
<!-- leftroot -->
<g id="node3" class="node">
<title>leftroot</title>
<text text-anchor="middle" x="32.5" y="-30.3" font-family="Times,serif" font-size="14.00">a</text>
</g>
<!-- left&#45;&gt;leftroot -->
<g id="edge2" class="edge">
<title>left&#45;&gt;leftroot</title>
<path fill="none" stroke="black" d="M32.5,-79.23C32.5,-69.95 32.5,-60.2 32.5,-52.22"/>
<polygon fill="black" stroke="black" points="29,-79.37 32.5,-89.37 36,-79.37 29,-79.37"/>
</g>
<!-- optree -->
<g id="node4" class="node">
<title>optree</title>
</g>
<!-- temp1 -->
<g id="node5" class="node">
<title>temp1</title>
<text text-anchor="middle" x="109.5" y="-108.8" font-family="Times,serif" font-size="14.00">+</text>
</g>
<!-- optree&#45;&gt;temp1 -->
<g id="edge3" class="edge">
<title>optree&#45;&gt;temp1</title>
</g>
<!-- righttree -->
<g id="node6" class="node">
<title>righttree</title>
</g>
<!-- right -->
<g id="node7" class="node">
<title>right</title>
<polygon fill="none" stroke="black" points="186.5,-89.5 218.99,-124 154,-124 186.5,-89.5"/>
<text text-anchor="middle" x="186.5" y="-108.8" font-family="Times,serif" font-size="14.00">y</text>
</g>
<!-- righttree&#45;&gt;right -->
<g id="edge4" class="edge">
<title>righttree&#45;&gt;right</title>
</g>
<!-- rightroot -->
<g id="node8" class="node">
<title>rightroot</title>
<text text-anchor="middle" x="186.5" y="-30.3" font-family="Times,serif" font-size="14.00">a</text>
</g>
<!-- right&#45;&gt;rightroot -->
<g id="edge5" class="edge">
<title>right&#45;&gt;rightroot</title>
<path fill="none" stroke="black" d="M186.5,-79.23C186.5,-69.95 186.5,-60.2 186.5,-52.22"/>
<polygon fill="black" stroke="black" points="183,-79.37 186.5,-89.37 190,-79.37 183,-79.37"/>
</g>
<!-- temp2a -->
<g id="node9" class="node">
<title>temp2a</title>
<ellipse fill="transparent" stroke="transparent" cx="287.5" cy="-191" rx="1.8" ry="1.8"/>
</g>
<!-- temp2b -->
<g id="node10" class="node">
<title>temp2b</title>
<ellipse fill="transparent" stroke="transparent" cx="238.5" cy="-112.5" rx="1.8" ry="1.8"/>
</g>
<!-- temp2a&#45;&gt;temp2b -->
<g id="edge6" class="edge">
<title>temp2a&#45;&gt;temp2b</title>
</g>
<!-- temp2c -->
<g id="node11" class="node">
<title>temp2c</title>
<ellipse fill="transparent" stroke="transparent" cx="344.5" cy="-112.5" rx="1.8" ry="1.8"/>
</g>
<!-- temp2a&#45;&gt;temp2c -->
<g id="edge7" class="edge">
<title>temp2a&#45;&gt;temp2c</title>
</g>
<!-- temp2b&#45;&gt;temp2c -->
<g id="edge8" class="edge">
<title>temp2b&#45;&gt;temp2c</title>
<path fill="none" stroke="black" d="M240.34,-112.5C251.19,-112.5 307.26,-112.5 332.34,-112.5"/>
<polygon fill="black" stroke="black" points="332.61,-116 342.61,-112.5 332.61,-109 332.61,-116"/>
<text text-anchor="middle" x="291.5" y="-119.3" font-family="Times,serif" font-size="14.00" fill="#fffffe">wwwwwww</text>
</g>
<!-- resulttree1 -->
<g id="node12" class="node">
<title>resulttree1</title>
<polygon fill="none" stroke="black" points="389.5,-173 416.5,-200 362.5,-200 389.5,-173"/>
</g>
<!-- result -->
<g id="node14" class="node">
<title>result</title>
<polygon fill="none" stroke="black" points="403.5,-89.5 403.5,-135.5 457.5,-135.5 457.5,-89.5 403.5,-89.5"/>
<text text-anchor="middle" x="417" y="-120.3" font-family="Times,serif" font-size="14.00"> </text>
<polyline fill="none" stroke="black" points="403.5,-112.5 430.5,-112.5 "/>
<text text-anchor="middle" x="417" y="-97.3" font-family="Times,serif" font-size="14.00">x</text>
<polyline fill="none" stroke="black" points="430.5,-89.5 430.5,-135.5 "/>
<text text-anchor="middle" x="444" y="-120.3" font-family="Times,serif" font-size="14.00"> </text>
<polyline fill="none" stroke="black" points="430.5,-112.5 457.5,-112.5 "/>
<text text-anchor="middle" x="444" y="-97.3" font-family="Times,serif" font-size="14.00">y</text>
</g>
<!-- resulttree1&#45;&gt;result -->
<g id="edge9" class="edge">
<title>resulttree1:s&#45;&gt;result:n</title>
<path fill="none" stroke="black" d="M392.39,-163.17C399.35,-153.16 416.5,-152.22 416.5,-136"/>
<polygon fill="black" stroke="black" points="388.96,-162.42 389.5,-173 395.68,-164.39 388.96,-162.42"/>
</g>
<!-- resulttree2 -->
<g id="node13" class="node">
<title>resulttree2</title>
<polygon fill="none" stroke="black" points="461.5,-173 488.5,-200 434.5,-200 461.5,-173"/>
</g>
<!-- resulttree2&#45;&gt;result -->
<g id="edge10" class="edge">
<title>resulttree2:s&#45;&gt;result:n</title>
<path fill="none" stroke="black" d="M459.27,-162.96C454.67,-153.65 444.5,-150 444.5,-136"/>
<polygon fill="black" stroke="black" points="455.92,-163.99 461.5,-173 462.75,-162.48 455.92,-163.99"/>
</g>
<!-- resultroot -->
<g id="node15" class="node">
<title>resultroot</title>
<text text-anchor="middle" x="430.5" y="-30.3" font-family="Times,serif" font-size="14.00">a&#39;</text>
</g>
<!-- result&#45;&gt;resultroot -->
<g id="edge11" class="edge">
<title>result&#45;&gt;resultroot</title>
<path fill="none" stroke="black" d="M430.5,-79.23C430.5,-69.95 430.5,-60.2 430.5,-52.22"/>
<polygon fill="black" stroke="black" points="427,-79.37 430.5,-89.37 434,-79.37 427,-79.37"/>
</g>
</g>
</svg>
