<?xml version="1.0" encoding="UTF-8" standalone="no"?>
<!DOCTYPE svg PUBLIC "-//W3C//DTD SVG 1.1//EN"
 "http://www.w3.org/Graphics/SVG/1.1/DTD/svg11.dtd">
<!-- Generated by graphviz version 3.0.0 (20220315.2325)
 -->
<!-- Pages: 1 -->
<svg width="377pt" height="142pt"
 viewBox="0.00 0.00 452.50 170.00" xmlns="http://www.w3.org/2000/svg" xmlns:xlink="http://www.w3.org/1999/xlink">
<g id="graph0" class="graph" transform="scale(0.833333 0.833333) rotate(0) translate(4 166)">
<polygon fill="white" stroke="transparent" points="-4,4 -4,-166 448.5,-166 448.5,4 -4,4"/>
<g id="clust5" class="cluster">
<title>clusterRes</title>
<polygon fill="none" stroke="transparent" points="356.5,-8 356.5,-154 436.5,-154 436.5,-8 356.5,-8"/>
</g>
<!-- left -->
<g id="node1" class="node">
<title>left</title>
<polygon fill="none" stroke="black" points="32.5,-100 64.99,-134.5 0,-134.5 32.5,-100"/>
<text text-anchor="middle" x="32.5" y="-119.3" font-family="Times,serif" font-size="14.00">x</text>
</g>
<!-- leftroot -->
<g id="node2" class="node">
<title>leftroot</title>
<text text-anchor="middle" x="32.5" y="-35.8" font-family="Times,serif" font-size="14.00">a</text>
</g>
<!-- left&#45;&gt;leftroot -->
<g id="edge1" class="edge">
<title>left&#45;&gt;leftroot</title>
<path fill="none" stroke="black" d="M32.5,-89.6C32.5,-78.65 32.5,-66.85 32.5,-57.57"/>
<polygon fill="black" stroke="black" points="29,-89.73 32.5,-99.73 36,-89.73 29,-89.73"/>
</g>
<!-- temp1 -->
<g id="node3" class="node">
<title>temp1</title>
<text text-anchor="middle" x="109.5" y="-119.3" font-family="Times,serif" font-size="14.00">+</text>
</g>
<!-- right -->
<g id="node4" class="node">
<title>right</title>
<polygon fill="none" stroke="black" points="186.5,-100 218.99,-134.5 154,-134.5 186.5,-100"/>
<text text-anchor="middle" x="186.5" y="-119.3" font-family="Times,serif" font-size="14.00">x</text>
</g>
<!-- rightroot -->
<g id="node5" class="node">
<title>rightroot</title>
<text text-anchor="middle" x="186.5" y="-35.8" font-family="Times,serif" font-size="14.00">b</text>
</g>
<!-- right&#45;&gt;rightroot -->
<g id="edge2" class="edge">
<title>right&#45;&gt;rightroot</title>
<path fill="none" stroke="black" d="M186.5,-89.6C186.5,-78.65 186.5,-66.85 186.5,-57.57"/>
<polygon fill="black" stroke="black" points="183,-89.73 186.5,-99.73 190,-89.73 183,-89.73"/>
</g>
<!-- temp2b -->
<g id="node6" class="node">
<title>temp2b</title>
<ellipse fill="transparent" stroke="transparent" cx="238.5" cy="-123" rx="1.8" ry="1.8"/>
</g>
<!-- temp2c -->
<g id="node7" class="node">
<title>temp2c</title>
<ellipse fill="transparent" stroke="transparent" cx="344.5" cy="-123" rx="1.8" ry="1.8"/>
</g>
<!-- temp2b&#45;&gt;temp2c -->
<g id="edge3" class="edge">
<title>temp2b&#45;&gt;temp2c</title>
<path fill="none" stroke="black" d="M240.34,-123C251.19,-123 307.26,-123 332.34,-123"/>
<polygon fill="black" stroke="black" points="332.61,-126.5 342.61,-123 332.61,-119.5 332.61,-126.5"/>
<text text-anchor="middle" x="291.5" y="-129.8" font-family="Times,serif" font-size="14.00" fill="#fffffe">wwwwwww</text>
</g>
<!-- resulttree -->
<g id="node8" class="node">
<title>resulttree</title>
<polygon fill="none" stroke="black" points="396.5,-100 428.99,-134.5 364,-134.5 396.5,-100"/>
<text text-anchor="middle" x="396.5" y="-119.3" font-family="Times,serif" font-size="14.00">x</text>
</g>
<!-- result -->
<g id="node9" class="node">
<title>result</title>
<polygon fill="none" stroke="black" points="369.5,-16.5 369.5,-62.5 423.5,-62.5 423.5,-16.5 369.5,-16.5"/>
<text text-anchor="middle" x="382.5" y="-47.3" font-family="Times,serif" font-size="14.00"> </text>
<polyline fill="none" stroke="black" points="369.5,-39.5 395.5,-39.5 "/>
<text text-anchor="middle" x="382.5" y="-24.3" font-family="Times,serif" font-size="14.00">a</text>
<polyline fill="none" stroke="black" points="395.5,-16.5 395.5,-62.5 "/>
<text text-anchor="middle" x="409.5" y="-47.3" font-family="Times,serif" font-size="14.00"> </text>
<polyline fill="none" stroke="black" points="395.5,-39.5 423.5,-39.5 "/>
<text text-anchor="middle" x="409.5" y="-24.3" font-family="Times,serif" font-size="14.00">b</text>
</g>
<!-- resulttree&#45;&gt;result -->
<g id="edge4" class="edge">
<title>resulttree&#45;&gt;result:n</title>
<path fill="none" stroke="black" d="M387.75,-96.61C384.92,-86.31 382.5,-74.21 382.5,-63"/>
<polygon fill="black" stroke="black" points="384.41,-97.65 390.64,-106.21 391.11,-95.63 384.41,-97.65"/>
</g>
<!-- resulttree&#45;&gt;result -->
<g id="edge5" class="edge">
<title>resulttree&#45;&gt;result:n</title>
<path fill="none" stroke="black" d="M404.81,-95.81C407.36,-85.67 409.5,-73.9 409.5,-63"/>
<polygon fill="black" stroke="black" points="401.37,-95.11 402.09,-105.68 408.12,-96.97 401.37,-95.11"/>
</g>
</g>
</svg>
