<?xml version="1.0" encoding="UTF-8"?>
<!DOCTYPE svg PUBLIC "-//W3C//DTD SVG 1.1//EN" "http://www.w3.org/Graphics/SVG/1.1/DTD/svg11.dtd">
<svg xmlns="http://www.w3.org/2000/svg" version="1.1" width="2133px" height="2133px" style="shape-rendering:geometricPrecision; text-rendering:geometricPrecision; image-rendering:optimizeQuality; fill-rule:evenodd; clip-rule:evenodd" xmlns:xlink="http://www.w3.org/1999/xlink">
<g><path style="opacity:1" fill="#116efe" d="M 754.5,327.5 C 756.167,327.5 757.833,327.5 759.5,327.5C 781.657,328.833 804.157,329.5 827,329.5C 849.843,329.5 872.343,328.833 894.5,327.5C 896.833,327.5 899.167,327.5 901.5,327.5C 902.334,328.748 903.667,329.415 905.5,329.5C 920.64,331.294 935.64,333.961 950.5,337.5C 950.833,337.5 951.167,337.5 951.5,337.5C 960.597,342.213 969.93,346.713 979.5,351C 990.875,358.015 1001.88,365.515 1012.5,373.5C 1033.59,393.067 1050.26,415.733 1062.5,441.5C 1062.62,444.578 1063.62,447.245 1065.5,449.5C 1071.28,463.127 1074.61,477.461 1075.5,492.5C 1076.16,719.99 1076.83,947.323 1077.5,1174.5C 1079.17,1176.83 1081.17,1178.83 1083.5,1180.5C 1087.73,1185.08 1092.06,1189.41 1096.5,1193.5C 1129.92,1227.32 1155.59,1266.32 1173.5,1310.5C 1173.43,1312.03 1174.09,1313.03 1175.5,1313.5C 1175.62,1316.1 1176.62,1318.1 1178.5,1319.5C 1178.42,1322.65 1179.42,1325.32 1181.5,1327.5C 1186.95,1343.78 1191.29,1360.45 1194.5,1377.5C 1194.07,1380.88 1194.73,1383.88 1196.5,1386.5C 1196.72,1389.07 1197.39,1391.4 1198.5,1393.5C 1198.5,1393.83 1198.5,1394.17 1198.5,1394.5C 1198.83,1400.5 1199.17,1406.5 1199.5,1412.5C 1199.91,1421 1200.58,1429.34 1201.5,1437.5C 1202.83,1447.83 1202.83,1458.17 1201.5,1468.5C 1201.5,1471.17 1201.5,1473.83 1201.5,1476.5C 1201.5,1480.5 1201.5,1484.5 1201.5,1488.5C 1201.5,1488.83 1201.5,1489.17 1201.5,1489.5C 1199.52,1502.58 1197.36,1515.91 1195,1529.5C 1190.56,1546.55 1186.06,1563.55 1181.5,1580.5C 1169.99,1609.74 1155.49,1637.74 1138,1664.5C 1131.33,1673.17 1124.67,1681.83 1118,1690.5C 1117.52,1691.45 1117.35,1692.45 1117.5,1693.5C 1105.47,1706.03 1093.14,1718.53 1080.5,1731C 1072.35,1737.91 1064.02,1744.57 1055.5,1751C 1054.18,1751.82 1053.51,1752.98 1053.5,1754.5C 1052.45,1754.35 1051.45,1754.52 1050.5,1755C 1043.78,1760.05 1036.78,1764.72 1029.5,1769C 1027.23,1770.43 1025.57,1772.26 1024.5,1774.5C 1023.13,1774.34 1021.79,1774.51 1020.5,1775C 1015.82,1777.68 1011.16,1780.35 1006.5,1783C 1004.94,1783.76 1003.94,1784.93 1003.5,1786.5C 998.314,1787.76 993.314,1789.59 988.5,1792C 982.818,1795 977.151,1798 971.5,1801C 961.254,1804.14 951.254,1807.64 941.5,1811.5C 938.772,1811.17 936.438,1811.84 934.5,1813.5C 932.973,1813.43 931.973,1814.09 931.5,1815.5C 920.509,1817.67 909.509,1819.83 898.5,1822C 897.944,1822.38 897.611,1822.88 897.5,1823.5C 896.258,1822.96 894.925,1822.62 893.5,1822.5C 888.381,1823.69 883.381,1825.02 878.5,1826.5C 878.167,1826.5 877.833,1826.5 877.5,1826.5C 877.167,1826.5 876.833,1826.5 876.5,1826.5C 875.036,1825.84 873.369,1825.51 871.5,1825.5C 862.441,1826.93 853.441,1827.93 844.5,1828.5C 833.167,1828.5 821.833,1828.5 810.5,1828.5C 801.582,1827.93 792.582,1826.93 783.5,1825.5C 781.955,1825.51 780.622,1825.84 779.5,1826.5C 779.167,1826.5 778.833,1826.5 778.5,1826.5C 777.833,1826.5 777.167,1826.5 776.5,1826.5C 776.389,1825.88 776.056,1825.38 775.5,1825C 770.714,1824.78 766.047,1823.95 761.5,1822.5C 760.416,1822.69 759.416,1823.02 758.5,1823.5C 750.942,1821.26 743.276,1819.1 735.5,1817C 731.855,1816.28 728.188,1815.78 724.5,1815.5C 718.137,1812.72 711.471,1810.22 704.5,1808C 701.883,1807.18 699.216,1806.68 696.5,1806.5C 686.168,1801.24 675.501,1796.57 664.5,1792.5C 661.215,1789.25 657.215,1787.25 652.5,1786.5C 616.217,1766.1 583.384,1740.77 554,1710.5C 537.222,1692.27 522.389,1672.6 509.5,1651.5C 509.043,1650.7 508.376,1650.37 507.5,1650.5C 499.356,1636.29 491.856,1621.62 485,1606.5C 480.677,1596.18 476.51,1585.85 472.5,1575.5C 468.061,1558.23 463.394,1541.23 458.5,1524.5C 458.5,1524.17 458.5,1523.83 458.5,1523.5C 458.084,1518.51 457.751,1513.51 457.5,1508.5C 457.066,1503.33 456.4,1498.33 455.5,1493.5C 454.381,1483.08 453.381,1472.75 452.5,1462.5C 452.5,1456.17 452.5,1449.83 452.5,1443.5C 453.358,1432.3 454.358,1420.97 455.5,1409.5C 455.5,1407.5 455.5,1405.5 455.5,1403.5C 456.117,1403.39 456.617,1403.06 457,1402.5C 457.495,1400.53 457.662,1398.53 457.5,1396.5C 457.216,1394.59 457.549,1392.92 458.5,1391.5C 459.525,1388.03 460.192,1384.36 460.5,1380.5C 461.519,1372.75 463.019,1365.09 465,1357.5C 469.493,1343.54 473.993,1329.54 478.5,1315.5C 488.858,1291.46 501.358,1268.46 516,1246.5C 516.483,1245.55 516.649,1244.55 516.5,1243.5C 518.634,1241.31 520.801,1238.98 523,1236.5C 523.791,1235.26 524.291,1233.92 524.5,1232.5C 527.044,1231.29 528.378,1229.29 528.5,1226.5C 535.093,1220.06 541.26,1213.06 547,1205.5C 554.036,1198.63 560.869,1191.63 567.5,1184.5C 570.833,1181.5 574.167,1178.5 577.5,1175.5C 578.174,946.988 578.84,718.322 579.5,489.5C 579.5,488.167 579.5,486.833 579.5,485.5C 579.5,485.167 579.5,484.833 579.5,484.5C 581.71,475.921 583.71,467.255 585.5,458.5C 590.221,447.859 595.055,437.192 600,426.5C 606.854,416.11 613.687,405.776 620.5,395.5C 626.891,389.612 633.224,383.446 639.5,377C 647.732,370.582 655.732,364.082 663.5,357.5C 676.955,350.062 690.621,343.395 704.5,337.5C 705.15,337.804 705.817,338.137 706.5,338.5C 713.514,335.94 720.514,333.607 727.5,331.5C 736.2,331.071 744.866,330.237 753.5,329C 754.056,328.617 754.389,328.117 754.5,327.5 Z M 762.5,455.5 C 806.167,455.5 849.833,455.5 893.5,455.5C 894.609,455.557 895.609,455.89 896.5,456.5C 904.521,457.15 911.855,459.483 918.5,463.5C 934.26,471.954 944.594,484.954 949.5,502.5C 950.472,527.147 950.805,551.814 950.5,576.5C 908.99,576.835 867.657,577.835 826.5,579.5C 826.5,600.167 826.5,620.833 826.5,641.5C 867.487,643.494 908.82,644.161 950.5,643.5C 950.5,663.167 950.5,682.833 950.5,702.5C 909.337,703.499 868.003,703.832 826.5,703.5C 826.5,724.5 826.5,745.5 826.5,766.5C 867.663,767.499 908.997,767.832 950.5,767.5C 950.5,787.167 950.5,806.833 950.5,826.5C 909.499,826.333 868.499,826.5 827.5,827C 826.944,827.383 826.611,827.883 826.5,828.5C 826.5,849.5 826.5,870.5 826.5,891.5C 867.487,893.494 908.82,894.161 950.5,893.5C 950.5,1005.17 950.5,1116.83 950.5,1228.5C 953.939,1230.09 957.606,1231.42 961.5,1232.5C 968.415,1237.72 975.415,1243.06 982.5,1248.5C 983.736,1249.25 985.07,1249.58 986.5,1249.5C 992.813,1255.31 999.146,1261.47 1005.5,1268C 1008.73,1270.74 1012.06,1273.24 1015.5,1275.5C 1015.35,1276.55 1015.52,1277.55 1016,1278.5C 1026.8,1289.32 1036.13,1300.66 1044,1312.5C 1048.46,1320.5 1053.29,1328.33 1058.5,1336C 1058.04,1336.41 1057.71,1336.91 1057.5,1337.5C 1058.71,1339.15 1060.04,1340.65 1061.5,1342C 1061.04,1342.41 1060.71,1342.91 1060.5,1343.5C 1061.83,1345.17 1063.17,1346.83 1064.5,1348.5C 1064.29,1349.09 1063.96,1349.59 1063.5,1350C 1064.77,1350.9 1065.77,1352.07 1066.5,1353.5C 1069.6,1363.07 1072.93,1372.57 1076.5,1382C 1079.04,1391.75 1081.21,1401.59 1083,1411.5C 1083.38,1412.06 1083.88,1412.39 1084.5,1412.5C 1083.7,1414.04 1083.37,1415.71 1083.5,1417.5C 1083.08,1419.78 1083.74,1421.45 1085.5,1422.5C 1085.5,1424.5 1085.5,1426.5 1085.5,1428.5C 1084.92,1432.65 1085.59,1436.32 1087.5,1439.5C 1087.5,1439.83 1087.5,1440.17 1087.5,1440.5C 1086.17,1449.17 1086.17,1457.83 1087.5,1466.5C 1087.5,1467.17 1087.5,1467.83 1087.5,1468.5C 1085.55,1473.74 1084.88,1479.4 1085.5,1485.5C 1083.74,1486.55 1083.08,1488.22 1083.5,1490.5C 1083.37,1492.29 1083.7,1493.96 1084.5,1495.5C 1080.21,1511.55 1075.55,1527.72 1070.5,1544C 1064.18,1557.63 1057.51,1571.46 1050.5,1585.5C 1049.1,1587.9 1047.43,1590.07 1045.5,1592C 1044.85,1593.44 1044.52,1594.94 1044.5,1596.5C 1040.52,1599.22 1037.69,1602.88 1036,1607.5C 1017.13,1631.2 995.295,1652.2 970.5,1670.5C 962.713,1674.9 954.713,1679.06 946.5,1683C 944.76,1684.52 943.094,1686.02 941.5,1687.5C 939.073,1687.52 936.74,1688.02 934.5,1689C 926.959,1692.23 919.626,1695.73 912.5,1699.5C 910.304,1699.59 908.137,1699.92 906,1700.5C 904.624,1700.68 903.791,1701.35 903.5,1702.5C 893.785,1704.29 884.119,1706.29 874.5,1708.5C 872.901,1708.23 871.568,1708.57 870.5,1709.5C 869.167,1709.5 867.833,1709.5 866.5,1709.5C 858.505,1710.89 850.505,1711.89 842.5,1712.5C 841.791,1713.4 840.791,1713.74 839.5,1713.5C 831.5,1713.5 823.5,1713.5 815.5,1713.5C 814.391,1713.44 813.391,1713.11 812.5,1712.5C 800.836,1710.4 788.836,1709.06 776.5,1708.5C 776.389,1707.88 776.056,1707.38 775.5,1707C 756.022,1703.71 737.522,1697.54 720,1688.5C 718.234,1687.77 716.401,1687.43 714.5,1687.5C 714.167,1687.5 713.833,1687.5 713.5,1687.5C 713.489,1685.98 712.823,1684.82 711.5,1684C 701.563,1679.24 691.897,1673.9 682.5,1668C 673.715,1660.97 664.715,1654.14 655.5,1647.5C 642.445,1634.78 630.111,1621.45 618.5,1607.5C 618.804,1606.85 619.137,1606.18 619.5,1605.5C 618.019,1604.52 616.685,1603.35 615.5,1602C 615.833,1601.67 616.167,1601.33 616.5,1601C 612.77,1596.94 609.436,1592.61 606.5,1588C 599.306,1574.44 592.639,1561.11 586.5,1548C 582.09,1532.85 577.424,1518.02 572.5,1503.5C 572.5,1503.17 572.5,1502.83 572.5,1502.5C 573.156,1501.38 573.489,1500.05 573.5,1498.5C 572.604,1493.12 571.271,1488.12 569.5,1483.5C 569.5,1483.17 569.5,1482.83 569.5,1482.5C 570.165,1479.35 570.498,1476.02 570.5,1472.5C 570.42,1468.57 569.753,1464.91 568.5,1461.5C 568.5,1456.83 568.5,1452.17 568.5,1447.5C 569.117,1447.39 569.617,1447.06 570,1446.5C 570.498,1443.18 570.665,1439.85 570.5,1436.5C 570.813,1432.96 570.479,1429.62 569.5,1426.5C 569.5,1426.17 569.5,1425.83 569.5,1425.5C 572.562,1413.67 575.229,1401.51 577.5,1389C 581.315,1376.74 585.315,1364.57 589.5,1352.5C 591.088,1351.36 592.421,1349.86 593.5,1348C 593.167,1347.67 592.833,1347.33 592.5,1347C 594.008,1345.49 595.341,1343.83 596.5,1342C 596.167,1341.67 595.833,1341.33 595.5,1341C 598.898,1335.82 601.731,1330.32 604,1324.5C 607.662,1318.84 611.328,1313.17 615,1307.5C 616.214,1305.95 617.714,1304.78 619.5,1304C 619.043,1303.59 618.709,1303.09 618.5,1302.5C 629.078,1289.38 640.578,1277.04 653,1265.5C 654.085,1264.26 654.918,1262.93 655.5,1261.5C 670.771,1249.43 686.771,1238.43 703.5,1228.5C 704.5,989.834 704.833,751.168 704.5,512.5C 704.5,510.833 704.5,509.167 704.5,507.5C 707.431,498.264 711.431,489.264 716.5,480.5C 723.244,473.418 730.577,467.085 738.5,461.5C 745.054,459.201 751.721,457.534 758.5,456.5C 759.708,455.766 761.041,455.433 762.5,455.5 Z"/></g>
<g><path style="opacity:1" fill="#8195be" d="M 759.5,327.5 C 804.5,327.5 849.5,327.5 894.5,327.5C 872.343,328.833 849.843,329.5 827,329.5C 804.157,329.5 781.657,328.833 759.5,327.5 Z"/></g>
<g><path style="opacity:1" fill="#a1a1a1" d="M 754.5,327.5 C 754.389,328.117 754.056,328.617 753.5,329C 744.866,330.237 736.2,331.071 727.5,331.5C 730.744,329.888 734.411,328.888 738.5,328.5C 743.792,327.505 749.125,327.172 754.5,327.5 Z"/></g>
<g><path style="opacity:0.776" fill="#9d9fa4" d="M 901.5,327.5 C 910.375,327.167 919.042,328 927.5,330C 934.472,331.661 941.472,333.494 948.5,335.5C 949.713,335.747 950.38,336.414 950.5,337.5C 935.64,333.961 920.64,331.294 905.5,329.5C 903.667,329.415 902.334,328.748 901.5,327.5 Z"/></g>
<g><path style="opacity:0.269" fill="#a4a7ae" d="M 727.5,331.5 C 720.514,333.607 713.514,335.94 706.5,338.5C 705.817,338.137 705.15,337.804 704.5,337.5C 707.519,335.693 710.852,334.193 714.5,333C 718.79,332.077 723.123,331.577 727.5,331.5 Z"/></g>
<g><path style="opacity:0.894" fill="#bebfc2" d="M 704.5,337.5 C 690.621,343.395 676.955,350.062 663.5,357.5C 663.414,356.504 663.748,355.671 664.5,355C 672.256,350.25 680.256,345.917 688.5,342C 693.627,339.714 698.961,338.214 704.5,337.5 Z"/></g>
<g><path style="opacity:0.549" fill="#c0c3ca" d="M 951.5,337.5 C 962.453,339.981 972.787,344.148 982.5,350C 988.403,354.087 994.403,357.92 1000.5,361.5C 1004.94,364.715 1008.94,368.381 1012.5,372.5C 1012.5,372.833 1012.5,373.167 1012.5,373.5C 1001.88,365.515 990.875,358.015 979.5,351C 969.93,346.713 960.597,342.213 951.5,337.5 Z"/></g>
<g><path style="opacity:0.345" fill="#d4d6da" d="M 663.5,357.5 C 655.732,364.082 647.732,370.582 639.5,377C 633.224,383.446 626.891,389.612 620.5,395.5C 620.351,394.448 620.517,393.448 621,392.5C 631.771,381.035 643.271,370.535 655.5,361C 658.09,359.555 660.757,358.388 663.5,357.5 Z"/></g>
<g><path style="opacity:0.588" fill="#d8dbdf" d="M 1012.5,372.5 C 1020.47,378.469 1027.8,385.136 1034.5,392.5C 1039.06,399.389 1044.06,405.889 1049.5,412C 1049.17,412.333 1048.83,412.667 1048.5,413C 1049.69,414.353 1051.02,415.52 1052.5,416.5C 1052.29,417.086 1051.96,417.586 1051.5,418C 1053.22,418.523 1054.56,419.523 1055.5,421C 1057.73,427.7 1060.73,434.033 1064.5,440C 1065.23,441.766 1065.57,443.599 1065.5,445.5C 1064.14,444.41 1063.14,443.076 1062.5,441.5C 1050.26,415.733 1033.59,393.067 1012.5,373.5C 1012.5,373.167 1012.5,372.833 1012.5,372.5 Z"/></g>
<g><path style="opacity:0.224" fill="#d4d6db" d="M 620.5,395.5 C 613.687,405.776 606.854,416.11 600,426.5C 595.055,437.192 590.221,447.859 585.5,458.5C 585.547,455.432 586.047,452.432 587,449.5C 590.815,440.772 594.815,432.105 599,423.5C 603.923,416.243 608.756,408.909 613.5,401.5C 615.853,399.477 618.186,397.477 620.5,395.5 Z"/></g>
<g><path style="opacity:1" fill="#4c73c6" d="M 1062.5,441.5 C 1063.14,443.076 1064.14,444.41 1065.5,445.5C 1065.5,446.833 1065.5,448.167 1065.5,449.5C 1063.62,447.245 1062.62,444.578 1062.5,441.5 Z"/></g>
<g><path style="opacity:0.204" fill="#575757" d="M 893.5,455.5 C 849.833,455.5 806.167,455.5 762.5,455.5C 762.611,454.883 762.944,454.383 763.5,454C 806.167,453.333 848.833,453.333 891.5,454C 892.416,454.278 893.082,454.778 893.5,455.5 Z"/></g>
<g><path style="opacity:0.341" fill="#a7aab1" d="M 920.5,461.5 C 919.167,461.5 918.5,462.167 918.5,463.5C 911.855,459.483 904.521,457.15 896.5,456.5C 897.152,455.275 898.319,454.608 900,454.5C 907.208,456.165 914.041,458.498 920.5,461.5 Z"/></g>
<g><path style="opacity:0.573" fill="#acb0bc" d="M 758.5,456.5 C 751.721,457.534 745.054,459.201 738.5,461.5C 738.856,460.13 739.69,459.13 741,458.5C 745.461,456.449 750.128,455.116 755,454.5C 756.681,454.608 757.848,455.275 758.5,456.5 Z"/></g>
<g><path style="opacity:0.522" fill="#d0d1d4" d="M 585.5,458.5 C 583.71,467.255 581.71,475.921 579.5,484.5C 578.844,483.378 578.511,482.045 578.5,480.5C 579.313,476.049 580.647,471.883 582.5,468C 581.941,467.275 581.608,466.442 581.5,465.5C 582.397,462.766 583.731,460.433 585.5,458.5 Z"/></g>
<g><path style="opacity:0.539" fill="#c6c8cd" d="M 1065.5,445.5 C 1066.5,445.47 1067.16,445.97 1067.5,447C 1071.67,459.942 1075,472.775 1077.5,485.5C 1078.49,488.768 1078.82,492.102 1078.5,495.5C 1077.83,495.5 1077.17,495.5 1076.5,495.5C 1076.74,494.209 1076.4,493.209 1075.5,492.5C 1074.61,477.461 1071.28,463.127 1065.5,449.5C 1065.5,448.167 1065.5,446.833 1065.5,445.5 Z"/></g>
<g><path style="opacity:0.004" fill="#d5d8dd" d="M 738.5,461.5 C 730.577,467.085 723.244,473.418 716.5,480.5C 711.431,489.264 707.431,498.264 704.5,507.5C 704.5,505.167 704.5,502.833 704.5,500.5C 708.925,485.535 717.591,473.368 730.5,464C 732.927,462.409 735.593,461.575 738.5,461.5 Z"/></g>
<g><path style="opacity:0.655" fill="#ebebeb" d="M 579.5,485.5 C 579.5,486.833 579.5,488.167 579.5,489.5C 578.833,489.833 578.167,490.167 577.5,490.5C 577.077,488.219 577.744,486.552 579.5,485.5 Z"/></g>
<g><path style="opacity:0.894" fill="#7987a3" d="M 579.5,489.5 C 578.84,718.322 578.174,946.988 577.5,1175.5C 577.5,950.167 577.5,724.833 577.5,499.5C 577.5,496.5 577.5,493.5 577.5,490.5C 578.167,490.167 578.833,489.833 579.5,489.5 Z"/></g>
<g><path style="opacity:0.039" fill="#606060" d="M 1076.5,495.5 C 1077.17,495.5 1077.83,495.5 1078.5,495.5C 1078.77,497.099 1078.43,498.432 1077.5,499.5C 1076.57,498.432 1076.23,497.099 1076.5,495.5 Z"/></g>
<g><path style="opacity:1" fill="#7d8da4" d="M 1460.5,503.5 C 1462.5,503.5 1464.5,503.5 1466.5,503.5C 1466.56,504.609 1466.89,505.609 1467.5,506.5C 1464.83,506.5 1462.17,506.5 1459.5,506.5C 1460.11,505.609 1460.44,504.609 1460.5,503.5 Z"/></g>
<g><path style="opacity:1" fill="#93c0fe" d="M 1459.5,506.5 C 1462.17,506.5 1464.83,506.5 1467.5,506.5C 1468.55,506.351 1469.55,506.517 1470.5,507C 1472.74,509.733 1475.07,512.233 1477.5,514.5C 1477.5,515.167 1477.5,515.833 1477.5,516.5C 1477.49,653.074 1477.49,789.74 1477.5,926.5C 1476.69,928.631 1476.19,930.964 1476,933.5C 1474.79,937.902 1472.29,941.402 1468.5,944C 1464.18,944.499 1459.85,944.666 1455.5,944.5C 1446.08,936.074 1436.08,928.407 1425.5,921.5C 1419.04,916.209 1412.71,910.709 1406.5,905C 1391.29,895.136 1376.63,884.469 1362.5,873C 1360.78,871.441 1358.78,870.608 1356.5,870.5C 1356.5,869.833 1356.17,869.5 1355.5,869.5C 1353.77,866.918 1351.77,864.418 1349.5,862C 1340.74,857.914 1333.07,852.247 1326.5,845C 1305.86,829.86 1285.2,815.027 1264.5,800.5C 1239.48,780.817 1214.14,761.484 1188.5,742.5C 1180.77,731.289 1180.61,719.955 1188,708.5C 1191.5,706.512 1194.67,704.178 1197.5,701.5C 1220.68,683.22 1244.34,665.387 1268.5,648C 1270.04,646.629 1271.37,645.129 1272.5,643.5C 1277.22,641.471 1281.22,638.471 1284.5,634.5C 1294.69,627.831 1304.69,620.831 1314.5,613.5C 1317.27,611.741 1319.27,609.407 1320.5,606.5C 1320.83,606.5 1321.17,606.5 1321.5,606.5C 1322.92,606.291 1324.26,605.791 1325.5,605C 1342.43,591.557 1359.77,578.723 1377.5,566.5C 1398.26,549.616 1419.59,533.45 1441.5,518C 1444.17,515.333 1446.83,512.667 1449.5,510C 1452.44,507.743 1455.77,506.576 1459.5,506.5 Z"/></g>
<g><path style="opacity:0.199" fill="#e6e6e6" d="M 1466.5,503.5 C 1472.5,504.835 1476.17,508.502 1477.5,514.5C 1475.07,512.233 1472.74,509.733 1470.5,507C 1469.55,506.517 1468.55,506.351 1467.5,506.5C 1466.89,505.609 1466.56,504.609 1466.5,503.5 Z"/></g>
<g><path style="opacity:0.302" fill="#cecece" d="M 1077.5,500.5 C 1078.12,500.611 1078.62,500.944 1079,501.5C 1079.33,725.833 1079.67,950.167 1080,1174.5C 1082.04,1176.37 1083.87,1178.37 1085.5,1180.5C 1084.83,1180.5 1084.17,1180.5 1083.5,1180.5C 1081.17,1178.83 1079.17,1176.83 1077.5,1174.5C 1077.5,949.833 1077.5,725.167 1077.5,500.5 Z"/></g>
<g><path style="opacity:0.624" fill="#bdbdbd" d="M 577.5,499.5 C 577.5,724.833 577.5,950.167 577.5,1175.5C 574.167,1178.5 570.833,1181.5 567.5,1184.5C 567.5,1184.17 567.5,1183.83 567.5,1183.5C 569.648,1179.52 572.648,1176.35 576.5,1174C 575.834,1061.57 575.5,949.07 575.5,836.5C 575.5,723.831 576.167,611.498 577.5,499.5 Z"/></g>
<g><path style="opacity:1" fill="#2465c7" d="M 1075.5,492.5 C 1076.4,493.209 1076.74,494.209 1076.5,495.5C 1076.23,497.099 1076.57,498.432 1077.5,499.5C 1077.5,499.833 1077.5,500.167 1077.5,500.5C 1077.5,725.167 1077.5,949.833 1077.5,1174.5C 1076.83,947.323 1076.16,719.99 1075.5,492.5 Z"/></g>
<g><path style="opacity:0.953" fill="#a3a3a3" d="M 704.5,500.5 C 704.5,502.833 704.5,505.167 704.5,507.5C 704.5,509.167 704.5,510.833 704.5,512.5C 704.166,751.002 703.166,989.335 701.5,1227.5C 702.332,988.236 702.832,748.903 703,509.5C 703.181,506.305 703.681,503.305 704.5,500.5 Z"/></g>
<g><path style="opacity:0.626" fill="#cecfd2" d="M 920.5,461.5 C 938.595,471.698 949.262,487.031 952.5,507.5C 952.5,530.833 952.5,554.167 952.5,577.5C 951.833,577.167 951.167,576.833 950.5,576.5C 950.805,551.814 950.472,527.147 949.5,502.5C 944.594,484.954 934.26,471.954 918.5,463.5C 918.5,462.167 919.167,461.5 920.5,461.5 Z"/></g>
<g><path style="opacity:1" fill="#7e99be" d="M 1477.5,516.5 C 1479.37,518.635 1480.04,521.302 1479.5,524.5C 1478.5,657.999 1478.17,791.666 1478.5,925.5C 1478.5,926.167 1478.17,926.5 1477.5,926.5C 1477.49,789.74 1477.49,653.074 1477.5,516.5 Z"/></g>
<g><path style="opacity:0.302" fill="#e2e2e2" d="M 1479.5,524.5 C 1480.5,657.999 1480.83,791.666 1480.5,925.5C 1479.83,925.5 1479.17,925.5 1478.5,925.5C 1478.17,791.666 1478.5,657.999 1479.5,524.5 Z"/></g>
<g><path style="opacity:0.815" fill="#8b8b8b" d="M 950.5,576.5 C 951.167,576.833 951.833,577.167 952.5,577.5C 952.389,578.117 952.056,578.617 951.5,579C 910.168,579.5 868.835,579.667 827.5,579.5C 827.167,579.5 826.833,579.5 826.5,579.5C 867.657,577.835 908.99,576.835 950.5,576.5 Z"/></g>
<g><path style="opacity:0.16" fill="#e1e2e3" d="M 1460.5,503.5 C 1460.44,504.609 1460.11,505.609 1459.5,506.5C 1455.77,506.576 1452.44,507.743 1449.5,510C 1446.83,512.667 1444.17,515.333 1441.5,518C 1419.59,533.45 1398.26,549.616 1377.5,566.5C 1359.77,578.723 1342.43,591.557 1325.5,605C 1324.26,605.791 1322.92,606.291 1321.5,606.5C 1322.09,604.903 1323.09,603.569 1324.5,602.5C 1331.38,597.45 1338.38,592.617 1345.5,588C 1348.97,584.917 1352.3,581.751 1355.5,578.5C 1357.71,579.047 1359.38,578.047 1360.5,575.5C 1365.61,571.595 1370.94,568.095 1376.5,565C 1390.78,552.55 1405.78,541.05 1421.5,530.5C 1422.5,529.167 1423.5,527.833 1424.5,526.5C 1425.09,526.709 1425.59,527.043 1426,527.5C 1428.95,524.208 1432.12,521.208 1435.5,518.5C 1440.04,516.637 1443.7,513.637 1446.5,509.5C 1450.72,506.391 1455.38,504.391 1460.5,503.5 Z"/></g>
<g><path style="opacity:1" fill="#356ac8" d="M 952.5,507.5 C 953.831,531.569 953.831,555.736 952.5,580C 910.665,580.831 868.998,580.665 827.5,579.5C 868.835,579.667 910.168,579.5 951.5,579C 952.056,578.617 952.389,578.117 952.5,577.5C 952.5,554.167 952.5,530.833 952.5,507.5 Z"/></g>
<g><path style="opacity:0.447" fill="#e3e4e5" d="M 1320.5,606.5 C 1319.27,609.407 1317.27,611.741 1314.5,613.5C 1304.69,620.831 1294.69,627.831 1284.5,634.5C 1284.37,633.761 1284.54,633.094 1285,632.5C 1288.82,630.614 1291.99,627.948 1294.5,624.5C 1295.09,624.709 1295.59,625.043 1296,625.5C 1303.43,618.195 1311.6,611.861 1320.5,606.5 Z"/></g>
<g><path style="opacity:0.176" fill="#e8e8e8" d="M 1284.5,634.5 C 1281.22,638.471 1277.22,641.471 1272.5,643.5C 1274.89,640.066 1277.89,637.233 1281.5,635C 1282.45,634.517 1283.45,634.351 1284.5,634.5 Z"/></g>
<g><path style="opacity:0.92" fill="#d5d5d5" d="M 826.5,641.5 C 868.5,641.5 910.5,641.5 952.5,641.5C 952.83,662.007 952.497,682.34 951.5,702.5C 951.167,702.5 950.833,702.5 950.5,702.5C 950.5,682.833 950.5,663.167 950.5,643.5C 908.82,644.161 867.487,643.494 826.5,641.5 Z"/></g>
<g><path style="opacity:1" fill="#5679af" d="M 952.5,641.5 C 953.828,662.004 953.828,682.671 952.5,703.5C 951.893,703.376 951.56,703.043 951.5,702.5C 952.497,682.34 952.83,662.007 952.5,641.5 Z"/></g>
<g><path style="opacity:0.106" fill="#e7e8e9" d="M 1272.5,643.5 C 1271.37,645.129 1270.04,646.629 1268.5,648C 1244.34,665.387 1220.68,683.22 1197.5,701.5C 1195.83,702.167 1194.17,702.833 1192.5,703.5C 1192.72,702.265 1193.39,701.265 1194.5,700.5C 1202.17,695 1209.83,689.5 1217.5,684C 1218.67,682.5 1219.83,681 1221,679.5C 1221.33,679.833 1221.67,680.167 1222,680.5C 1230.52,673.388 1239.35,666.722 1248.5,660.5C 1249.5,659.167 1250.5,657.833 1251.5,656.5C 1252.09,656.709 1252.59,657.043 1253,657.5C 1258.56,651.43 1265.06,646.763 1272.5,643.5 Z"/></g>
<g><path style="opacity:0.112" fill="#b9bcc1" d="M 1197.5,701.5 C 1194.67,704.178 1191.5,706.512 1188,708.5C 1180.61,719.955 1180.77,731.289 1188.5,742.5C 1187.83,742.5 1187.17,742.5 1186.5,742.5C 1178.28,729.985 1178.61,717.651 1187.5,705.5C 1189.14,704.678 1190.81,704.011 1192.5,703.5C 1194.17,702.833 1195.83,702.167 1197.5,701.5 Z"/></g>
<g><path style="opacity:0.311" fill="#5a5a5a" d="M 951.5,766.5 C 951.5,767.167 951.167,767.5 950.5,767.5C 908.997,767.832 867.663,767.499 826.5,766.5C 868.455,766.105 910.121,766.105 951.5,766.5 Z"/></g>
<g><path style="opacity:0.305" fill="#e9e9ea" d="M 1186.5,742.5 C 1187.17,742.5 1187.83,742.5 1188.5,742.5C 1214.14,761.484 1239.48,780.817 1264.5,800.5C 1263.85,800.804 1263.18,801.137 1262.5,801.5C 1255.47,794.979 1248.14,788.812 1240.5,783C 1233.12,779.462 1226.62,774.629 1221,768.5C 1220.67,768.833 1220.33,769.167 1220,769.5C 1210.02,761.53 1200.02,753.53 1190,745.5C 1188,746.032 1186.83,745.032 1186.5,742.5 Z"/></g>
<g><path style="opacity:0.376" fill="#c1c1c2" d="M 704.5,512.5 C 704.833,751.168 704.5,989.834 703.5,1228.5C 686.771,1238.43 670.771,1249.43 655.5,1261.5C 654.609,1262.11 653.609,1262.44 652.5,1262.5C 667.409,1248.94 683.743,1237.27 701.5,1227.5C 703.166,989.335 704.166,751.002 704.5,512.5 Z"/></g>
<g><path style="opacity:0.557" fill="#a7aebc" d="M 951.5,766.5 C 952.832,776.478 953.499,786.811 953.5,797.5C 953.494,808.074 953.161,818.574 952.5,829C 910.429,829.827 868.429,829.66 826.5,828.5C 826.611,827.883 826.944,827.383 827.5,827C 868.499,826.5 909.499,826.333 950.5,826.5C 950.5,806.833 950.5,787.167 950.5,767.5C 951.167,767.5 951.5,767.167 951.5,766.5 Z"/></g>
<g><path style="opacity:0.604" fill="#dedfe1" d="M 1264.5,800.5 C 1285.2,815.027 1305.86,829.86 1326.5,845C 1333.07,852.247 1340.74,857.914 1349.5,862C 1351.77,864.418 1353.77,866.918 1355.5,869.5C 1348.88,864.263 1341.88,859.597 1334.5,855.5C 1331.12,852.792 1327.95,849.792 1325,846.5C 1324.59,846.957 1324.09,847.291 1323.5,847.5C 1322.5,846.167 1321.5,844.833 1320.5,843.5C 1311.35,837.278 1302.52,830.612 1294,823.5C 1293.67,823.833 1293.33,824.167 1293,824.5C 1291.83,823 1290.67,821.5 1289.5,820C 1284.28,816.413 1278.94,812.913 1273.5,809.5C 1270.03,806.871 1267.03,803.871 1264.5,800.5 Z"/></g>
<g><path style="opacity:0.05" fill="#8c99b5" d="M 953.5,1225.5 C 952.667,1114.67 952.167,1003.67 952,892.5C 951.617,893.056 951.117,893.389 950.5,893.5C 908.82,894.161 867.487,893.494 826.5,891.5C 868.667,890.169 910.833,890.169 953,891.5C 953.5,1002.83 953.667,1114.17 953.5,1225.5 Z"/></g>
<g><path style="opacity:0.659" fill="#cfcfcf" d="M 953.5,1225.5 C 956.167,1227.83 958.833,1230.17 961.5,1232.5C 957.606,1231.42 953.939,1230.09 950.5,1228.5C 950.5,1116.83 950.5,1005.17 950.5,893.5C 951.117,893.389 951.617,893.056 952,892.5C 952.167,1003.67 952.667,1114.67 953.5,1225.5 Z"/></g>
<g><path style="opacity:0.678" fill="#e8e9ea" d="M 1356.5,870.5 C 1358.78,870.608 1360.78,871.441 1362.5,873C 1376.63,884.469 1391.29,895.136 1406.5,905C 1412.71,910.709 1419.04,916.209 1425.5,921.5C 1424.5,921.414 1423.67,921.748 1423,922.5C 1422.22,920.714 1421.05,919.214 1419.5,918C 1410.29,912.384 1401.79,905.884 1394,898.5C 1393.59,898.957 1393.09,899.291 1392.5,899.5C 1389.25,896.249 1385.92,893.082 1382.5,890C 1375.42,885.914 1368.92,881.081 1363,875.5C 1362.67,875.833 1362.33,876.167 1362,876.5C 1360.3,874.304 1358.47,872.304 1356.5,870.5 Z"/></g>
<g><path style="opacity:0.233" fill="#ececec" d="M 1425.5,921.5 C 1436.08,928.407 1446.08,936.074 1455.5,944.5C 1453.94,944.481 1452.44,944.148 1451,943.5C 1443.31,936.405 1435.14,929.905 1426.5,924C 1425.75,923.329 1425.41,922.496 1425.5,921.5 Z"/></g>
<g><path style="opacity:0.224" fill="#b5b8bc" d="M 1478.5,925.5 C 1479.17,925.5 1479.83,925.5 1480.5,925.5C 1479.52,932.455 1476.85,938.622 1472.5,944C 1469.37,945.522 1466.04,946.355 1462.5,946.5C 1459.73,946.471 1457.4,945.805 1455.5,944.5C 1459.85,944.666 1464.18,944.499 1468.5,944C 1472.29,941.402 1474.79,937.902 1476,933.5C 1476.19,930.964 1476.69,928.631 1477.5,926.5C 1478.17,926.5 1478.5,926.167 1478.5,925.5 Z"/></g>
<g><path style="opacity:0.851" fill="#797979" d="M 793.5,952.5 C 816.5,952.5 839.5,952.5 862.5,952.5C 862.5,953.167 862.5,953.833 862.5,954.5C 839.5,954.5 816.5,954.5 793.5,954.5C 793.5,953.833 793.5,953.167 793.5,952.5 Z"/></g>
<g><path style="opacity:1" fill="#80a1d0" d="M 793.5,954.5 C 816.5,954.5 839.5,954.5 862.5,954.5C 864.735,954.205 866.735,954.539 868.5,955.5C 841.093,955.176 813.759,955.509 786.5,956.5C 788.279,954.656 790.612,953.99 793.5,954.5 Z"/></g>
<g><path style="opacity:1" fill="#93c0fe" d="M 868.5,955.5 C 871.715,957.303 875.048,958.97 878.5,960.5C 879.838,962.67 881.672,964.336 884,965.5C 885.371,968.664 886.871,971.664 888.5,974.5C 888.167,1078 888.501,1181.33 889.5,1284.5C 890.167,1285.17 890.833,1285.83 891.5,1286.5C 918.267,1297.23 941.6,1313.23 961.5,1334.5C 967.88,1341.38 973.714,1348.72 979,1356.5C 979.333,1357.83 979.667,1359.17 980,1360.5C 983.047,1362.92 985.38,1365.92 987,1369.5C 989.502,1374.16 991.669,1378.83 993.5,1383.5C 997.304,1395.05 1000.64,1406.72 1003.5,1418.5C 1006.45,1437.33 1007.28,1456.33 1006,1475.5C 1004.3,1485.22 1002.47,1494.89 1000.5,1504.5C 992.96,1528.76 980.96,1550.76 964.5,1570.5C 946.323,1590.36 925.323,1606.36 901.5,1618.5C 892.885,1621.6 884.218,1624.77 875.5,1628C 865.98,1628.94 856.98,1630.78 848.5,1633.5C 848.672,1634.49 848.338,1635.16 847.5,1635.5C 847.5,1634.83 847.5,1634.17 847.5,1633.5C 834.167,1632.17 820.833,1632.17 807.5,1633.5C 807.167,1633.5 806.833,1633.5 806.5,1633.5C 798.164,1630.75 789.498,1628.92 780.5,1628C 739.621,1615.79 706.788,1592.29 682,1557.5C 680.729,1556.12 679.229,1555.12 677.5,1554.5C 676.428,1549.69 674.262,1545.36 671,1541.5C 659.82,1520.82 652.987,1498.82 650.5,1475.5C 650.988,1472.29 650.321,1469.46 648.5,1467C 649.487,1456.25 649.82,1445.41 649.5,1434.5C 651.895,1425.44 653.561,1416.11 654.5,1406.5C 657.5,1400.67 659.5,1394.51 660.5,1388C 663.947,1380.68 667.613,1373.51 671.5,1366.5C 674.938,1357.96 680.105,1350.63 687,1344.5C 699.278,1327.04 714.445,1313.04 732.5,1302.5C 740.973,1296.85 749.973,1292.19 759.5,1288.5C 761.991,1288.17 764.157,1287.17 766,1285.5C 766.5,1183.83 766.667,1082.17 766.5,980.5C 767.705,967.961 774.372,959.961 786.5,956.5C 813.759,955.509 841.093,955.176 868.5,955.5 Z"/></g>
<g><path style="opacity:1" fill="#a4a7ac" d="M 862.5,952.5 C 868.003,952.22 872.67,953.887 876.5,957.5C 877.167,958.5 877.833,959.5 878.5,960.5C 875.048,958.97 871.715,957.303 868.5,955.5C 866.735,954.539 864.735,954.205 862.5,954.5C 862.5,953.833 862.5,953.167 862.5,952.5 Z"/></g>
<g><path style="opacity:0.31" fill="#c4c5c8" d="M 793.5,952.5 C 793.5,953.167 793.5,953.833 793.5,954.5C 790.612,953.99 788.279,954.656 786.5,956.5C 774.372,959.961 767.705,967.961 766.5,980.5C 765.833,980.833 765.167,981.167 764.5,981.5C 764.793,971.796 768.793,963.963 776.5,958C 781.482,954.169 787.148,952.335 793.5,952.5 Z"/></g>
<g><path style="opacity:0.192" fill="#e0e0e1" d="M 876.5,957.5 C 884.549,961.729 889.549,968.395 891.5,977.5C 890.1,976.9 889.1,975.9 888.5,974.5C 886.871,971.664 885.371,968.664 884,965.5C 881.672,964.336 879.838,962.67 878.5,960.5C 877.833,959.5 877.167,958.5 876.5,957.5 Z"/></g>
<g><path style="opacity:1" fill="#88aee3" d="M 888.5,974.5 C 889.1,975.9 890.1,976.9 891.5,977.5C 891.5,978.833 891.5,980.167 891.5,981.5C 889.502,1082.16 888.836,1183.16 889.5,1284.5C 888.501,1181.33 888.167,1078 888.5,974.5 Z"/></g>
<g><path style="opacity:1" fill="#72849f" d="M 766.5,980.5 C 766.667,1082.17 766.5,1183.83 766,1285.5C 764.157,1287.17 761.991,1288.17 759.5,1288.5C 759.5,1287.83 759.5,1287.17 759.5,1286.5C 761.011,1285.5 762.678,1284.83 764.5,1284.5C 764.5,1183.5 764.5,1082.5 764.5,981.5C 765.167,981.167 765.833,980.833 766.5,980.5 Z"/></g>
<g><path style="opacity:0.794" fill="#575757" d="M 891.5,981.5 C 891.5,1082.5 891.5,1183.5 891.5,1284.5C 891.5,1285.17 891.5,1285.83 891.5,1286.5C 890.833,1285.83 890.167,1285.17 889.5,1284.5C 888.836,1183.16 889.502,1082.16 891.5,981.5 Z"/></g>
<g><path style="opacity:0.639" fill="#8491af" d="M 1083.5,1180.5 C 1084.17,1180.5 1084.83,1180.5 1085.5,1180.5C 1089.5,1183.83 1093.17,1187.5 1096.5,1191.5C 1096.5,1192.17 1096.5,1192.83 1096.5,1193.5C 1092.06,1189.41 1087.73,1185.08 1083.5,1180.5 Z"/></g>
<g><path style="opacity:0.165" fill="#d4d7dc" d="M 567.5,1183.5 C 567.5,1183.83 567.5,1184.17 567.5,1184.5C 560.869,1191.63 554.036,1198.63 547,1205.5C 541.26,1213.06 535.093,1220.06 528.5,1226.5C 529.819,1223.2 531.652,1220.2 534,1217.5C 544.068,1206.22 554.235,1195.06 564.5,1184C 565.448,1183.52 566.448,1183.35 567.5,1183.5 Z"/></g>
<g><path style="opacity:0.351" fill="#e4e5e6" d="M 528.5,1226.5 C 528.378,1229.29 527.044,1231.29 524.5,1232.5C 524.196,1231.85 523.863,1231.18 523.5,1230.5C 525.186,1229.14 526.852,1227.81 528.5,1226.5 Z"/></g>
<g><path style="opacity:0.203" fill="#dbdde1" d="M 524.5,1232.5 C 524.291,1233.92 523.791,1235.26 523,1236.5C 520.801,1238.98 518.634,1241.31 516.5,1243.5C 517.74,1238.74 520.407,1235.08 524.5,1232.5 Z"/></g>
<g><path style="opacity:0.165" fill="#caccd1" d="M 961.5,1232.5 C 964.016,1232.76 966.35,1233.59 968.5,1235C 972.166,1238.17 976.166,1240.83 980.5,1243C 982.756,1245.08 984.756,1247.25 986.5,1249.5C 985.07,1249.58 983.736,1249.25 982.5,1248.5C 975.415,1243.06 968.415,1237.72 961.5,1232.5 Z"/></g>
<g><path style="opacity:0.195" fill="#e3e4e7" d="M 1096.5,1191.5 C 1106.03,1199.52 1114.2,1208.52 1121,1218.5C 1123.02,1220.68 1125.18,1222.68 1127.5,1224.5C 1127.29,1225.09 1126.96,1225.59 1126.5,1226C 1129.78,1228.92 1132.78,1232.08 1135.5,1235.5C 1140.23,1243.19 1145.23,1250.69 1150.5,1258C 1150.17,1258.33 1149.83,1258.67 1149.5,1259C 1150.69,1260.35 1152.02,1261.52 1153.5,1262.5C 1153.29,1263.09 1152.96,1263.59 1152.5,1264C 1153.96,1265.35 1155.29,1266.85 1156.5,1268.5C 1156.29,1269.09 1155.96,1269.59 1155.5,1270C 1157.77,1273.29 1160.11,1276.62 1162.5,1280C 1166.98,1289.77 1171.65,1299.44 1176.5,1309C 1176.26,1309.9 1175.92,1310.74 1175.5,1311.5C 1174.83,1311.17 1174.17,1310.83 1173.5,1310.5C 1155.59,1266.32 1129.92,1227.32 1096.5,1193.5C 1096.5,1192.83 1096.5,1192.17 1096.5,1191.5 Z"/></g>
<g><path style="opacity:0.22" fill="#cacdd3" d="M 986.5,1249.5 C 989.274,1250.72 991.941,1252.22 994.5,1254C 1001.66,1260.16 1008.5,1266.66 1015,1273.5C 1015.46,1274.09 1015.63,1274.76 1015.5,1275.5C 1012.06,1273.24 1008.73,1270.74 1005.5,1268C 999.146,1261.47 992.813,1255.31 986.5,1249.5 Z"/></g>
<g><path style="opacity:0.283" fill="#dcdee3" d="M 516.5,1243.5 C 516.649,1244.55 516.483,1245.55 516,1246.5C 501.358,1268.46 488.858,1291.46 478.5,1315.5C 477.364,1311.97 478.364,1308.97 481.5,1306.5C 481.291,1305.91 480.957,1305.41 480.5,1305C 488.82,1287.79 497.82,1271.45 507.5,1256C 507.167,1255.67 506.833,1255.33 506.5,1255C 509.698,1250.97 513.032,1247.14 516.5,1243.5 Z"/></g>
<g><path style="opacity:0.431" fill="#a7aaae" d="M 759.5,1286.5 C 759.5,1287.17 759.5,1287.83 759.5,1288.5C 749.973,1292.19 740.973,1296.85 732.5,1302.5C 732.5,1301.5 732.5,1300.5 732.5,1299.5C 739.809,1295.22 747.309,1291.22 755,1287.5C 756.44,1286.85 757.94,1286.52 759.5,1286.5 Z"/></g>
<g><path style="opacity:0.384" fill="#dbdde2" d="M 655.5,1261.5 C 654.918,1262.93 654.085,1264.26 653,1265.5C 640.578,1277.04 629.078,1289.38 618.5,1302.5C 618.709,1303.09 619.043,1303.59 619.5,1304C 617.714,1304.78 616.214,1305.95 615,1307.5C 611.328,1313.17 607.662,1318.84 604,1324.5C 601.731,1330.32 598.898,1335.82 595.5,1341C 595.833,1341.33 596.167,1341.67 596.5,1342C 595.341,1343.83 594.008,1345.49 592.5,1347C 592.833,1347.33 593.167,1347.67 593.5,1348C 592.421,1349.86 591.088,1351.36 589.5,1352.5C 589.5,1351.5 589.5,1350.5 589.5,1349.5C 603.922,1315.74 624.922,1286.74 652.5,1262.5C 653.609,1262.44 654.609,1262.11 655.5,1261.5 Z"/></g>
<g><path style="opacity:0.788" fill="#babdc2" d="M 891.5,1284.5 C 918.266,1294.28 941.266,1309.61 960.5,1330.5C 960.833,1331.83 961.167,1333.17 961.5,1334.5C 941.6,1313.23 918.267,1297.23 891.5,1286.5C 891.5,1285.83 891.5,1285.17 891.5,1284.5 Z"/></g>
<g><path style="opacity:0.843" fill="#6180b8" d="M 1173.5,1310.5 C 1174.17,1310.83 1174.83,1311.17 1175.5,1311.5C 1175.5,1311.83 1175.5,1312.17 1175.5,1312.5C 1175.5,1312.83 1175.5,1313.17 1175.5,1313.5C 1174.09,1313.03 1173.43,1312.03 1173.5,1310.5 Z"/></g>
<g><path style="opacity:0.251" fill="#ced1db" d="M 1175.5,1312.5 C 1178.47,1314.09 1179.47,1316.43 1178.5,1319.5C 1176.62,1318.1 1175.62,1316.1 1175.5,1313.5C 1175.5,1313.17 1175.5,1312.83 1175.5,1312.5 Z"/></g>
<g><path style="opacity:0.145" fill="#d3d6dd" d="M 1015.5,1275.5 C 1017.72,1276.2 1019.55,1277.54 1021,1279.5C 1051.4,1313.3 1072.07,1352.3 1083,1396.5C 1083.83,1401.81 1084.33,1407.14 1084.5,1412.5C 1083.88,1412.39 1083.38,1412.06 1083,1411.5C 1081.21,1401.59 1079.04,1391.75 1076.5,1382C 1072.93,1372.57 1069.6,1363.07 1066.5,1353.5C 1065.77,1352.07 1064.77,1350.9 1063.5,1350C 1063.96,1349.59 1064.29,1349.09 1064.5,1348.5C 1063.17,1346.83 1061.83,1345.17 1060.5,1343.5C 1060.71,1342.91 1061.04,1342.41 1061.5,1342C 1060.04,1340.65 1058.71,1339.15 1057.5,1337.5C 1057.71,1336.91 1058.04,1336.41 1058.5,1336C 1053.29,1328.33 1048.46,1320.5 1044,1312.5C 1036.13,1300.66 1026.8,1289.32 1016,1278.5C 1015.52,1277.55 1015.35,1276.55 1015.5,1275.5 Z"/></g>
<g><path style="opacity:0.128" fill="#ebebec" d="M 1178.5,1319.5 C 1181.76,1321.35 1182.76,1324.02 1181.5,1327.5C 1179.42,1325.32 1178.42,1322.65 1178.5,1319.5 Z"/></g>
<g><path style="opacity:0.348" fill="#d7d8da" d="M 732.5,1299.5 C 732.5,1300.5 732.5,1301.5 732.5,1302.5C 714.445,1313.04 699.278,1327.04 687,1344.5C 680.105,1350.63 674.938,1357.96 671.5,1366.5C 670.833,1366.83 670.167,1367.17 669.5,1367.5C 669.864,1364.2 671.031,1361.2 673,1358.5C 688.193,1334.47 708.026,1314.81 732.5,1299.5 Z"/></g>
<g><path style="opacity:0.749" fill="#d4d5d8" d="M 478.5,1315.5 C 473.993,1329.54 469.493,1343.54 465,1357.5C 463.019,1365.09 461.519,1372.75 460.5,1380.5C 459.833,1381.5 459.167,1382.5 458.5,1383.5C 460.98,1365.06 465.314,1347.06 471.5,1329.5C 472.523,1326.75 473.857,1324.25 475.5,1322C 474.978,1321.44 474.645,1320.77 474.5,1320C 475.465,1318.02 476.799,1316.52 478.5,1315.5 Z"/></g>
<g><path style="opacity:0.573" fill="#dedfe1" d="M 960.5,1330.5 C 965.784,1337.12 971.45,1343.45 977.5,1349.5C 977.291,1350.09 976.957,1350.59 976.5,1351C 984.586,1360.7 990.92,1371.53 995.5,1383.5C 994.833,1383.5 994.167,1383.5 993.5,1383.5C 991.669,1378.83 989.502,1374.16 987,1369.5C 985.38,1365.92 983.047,1362.92 980,1360.5C 979.667,1359.17 979.333,1357.83 979,1356.5C 973.714,1348.72 967.88,1341.38 961.5,1334.5C 961.167,1333.17 960.833,1331.83 960.5,1330.5 Z"/></g>
<g><path style="opacity:0.076" fill="#d2d2d4" d="M 1181.5,1327.5 C 1183.1,1328.74 1184.26,1330.4 1185,1332.5C 1189.81,1348.5 1193.98,1364.67 1197.5,1381C 1198.12,1385.15 1198.46,1389.31 1198.5,1393.5C 1197.39,1391.4 1196.72,1389.07 1196.5,1386.5C 1196.14,1383.31 1195.47,1380.31 1194.5,1377.5C 1191.29,1360.45 1186.95,1343.78 1181.5,1327.5 Z"/></g>
<g><path style="opacity:0.149" fill="#c0c2c7" d="M 671.5,1366.5 C 667.613,1373.51 663.947,1380.68 660.5,1388C 659.5,1394.51 657.5,1400.67 654.5,1406.5C 653.561,1416.11 651.895,1425.44 649.5,1434.5C 648.833,1434.5 648.167,1434.5 647.5,1434.5C 647.798,1428.32 649.131,1422.49 651.5,1417C 650.903,1415.94 650.57,1414.77 650.5,1413.5C 651.423,1409.74 652.757,1406.24 654.5,1403C 653.978,1402.44 653.645,1401.77 653.5,1401C 654.632,1398.48 655.966,1396.15 657.5,1394C 656.978,1393.44 656.645,1392.77 656.5,1392C 658.281,1388.38 659.948,1384.71 661.5,1381C 663.787,1376.09 666.454,1371.59 669.5,1367.5C 670.167,1367.17 670.833,1366.83 671.5,1366.5 Z"/></g>
<g><path style="opacity:0.918" fill="#396bc3" d="M 1194.5,1377.5 C 1195.47,1380.31 1196.14,1383.31 1196.5,1386.5C 1194.73,1383.88 1194.07,1380.88 1194.5,1377.5 Z"/></g>
<g><path style="opacity:1" fill="#4871be" d="M 460.5,1380.5 C 460.192,1384.36 459.525,1388.03 458.5,1391.5C 458.5,1389.17 458.5,1386.83 458.5,1384.5C 458.5,1384.17 458.5,1383.83 458.5,1383.5C 459.167,1382.5 459.833,1381.5 460.5,1380.5 Z"/></g>
<g><path style="opacity:0.325" fill="#bdc0c6" d="M 993.5,1383.5 C 994.167,1383.5 994.833,1383.5 995.5,1383.5C 996.929,1387.4 998.596,1391.24 1000.5,1395C 1000.36,1395.77 1000.02,1396.44 999.5,1397C 1001.26,1399.37 1002.59,1402.04 1003.5,1405C 1003.41,1406.11 1003.08,1407.11 1002.5,1408C 1004.71,1411.46 1006.04,1415.3 1006.5,1419.5C 1005.39,1419.44 1004.39,1419.11 1003.5,1418.5C 1000.64,1406.72 997.304,1395.05 993.5,1383.5 Z"/></g>
<g><path style="opacity:0.533" fill="#c6c6c6" d="M 458.5,1384.5 C 458.5,1386.83 458.5,1389.17 458.5,1391.5C 457.549,1392.92 457.216,1394.59 457.5,1396.5C 456.978,1398.22 455.978,1399.55 454.5,1400.5C 454.893,1394.71 456.226,1389.37 458.5,1384.5 Z"/></g>
<g><path style="opacity:0.082" fill="#bfc2c9" d="M 589.5,1349.5 C 589.5,1350.5 589.5,1351.5 589.5,1352.5C 585.315,1364.57 581.315,1376.74 577.5,1389C 575.229,1401.51 572.562,1413.67 569.5,1425.5C 571.704,1398.88 578.371,1373.55 589.5,1349.5 Z"/></g>
<g><path style="opacity:0.231" fill="#aaabae" d="M 1198.5,1394.5 C 1200.61,1400.06 1201.95,1406.06 1202.5,1412.5C 1202.5,1415.03 1202.16,1417.36 1201.5,1419.5C 1200.93,1417.05 1200.27,1414.71 1199.5,1412.5C 1199.17,1406.5 1198.83,1400.5 1198.5,1394.5 Z"/></g>
<g><path style="opacity:0.533" fill="#6c7388" d="M 457.5,1396.5 C 457.662,1398.53 457.495,1400.53 457,1402.5C 456.617,1403.06 456.117,1403.39 455.5,1403.5C 454.89,1402.61 454.557,1401.61 454.5,1400.5C 455.978,1399.55 456.978,1398.22 457.5,1396.5 Z"/></g>
<g><path style="opacity:0.207" fill="#ededed" d="M 455.5,1403.5 C 455.5,1405.5 455.5,1407.5 455.5,1409.5C 454.5,1409.5 453.5,1409.5 452.5,1409.5C 452.5,1407.5 452.5,1405.5 452.5,1403.5C 453.5,1403.5 454.5,1403.5 455.5,1403.5 Z"/></g>
<g><path style="opacity:0.296" fill="#f6f6f6" d="M 1083.5,1417.5 C 1085.26,1418.55 1085.92,1420.22 1085.5,1422.5C 1083.74,1421.45 1083.08,1419.78 1083.5,1417.5 Z"/></g>
<g><path style="opacity:1" fill="#959cac" d="M 1084.5,1412.5 C 1086.43,1417.74 1087.43,1423.4 1087.5,1429.5C 1086.83,1429.17 1086.17,1428.83 1085.5,1428.5C 1085.5,1426.5 1085.5,1424.5 1085.5,1422.5C 1085.92,1420.22 1085.26,1418.55 1083.5,1417.5C 1083.37,1415.71 1083.7,1414.04 1084.5,1412.5 Z"/></g>
<g><path style="opacity:0.933" fill="#959699" d="M 452.5,1409.5 C 453.5,1409.5 454.5,1409.5 455.5,1409.5C 454.358,1420.97 453.358,1432.3 452.5,1443.5C 452.717,1432.02 452.717,1420.68 452.5,1409.5 Z"/></g>
<g><path style="opacity:1" fill="#2b67ca" d="M 1199.5,1412.5 C 1200.27,1414.71 1200.93,1417.05 1201.5,1419.5C 1201.5,1419.83 1201.5,1420.17 1201.5,1420.5C 1201.5,1424.5 1201.5,1428.5 1201.5,1432.5C 1201.5,1434.17 1201.5,1435.83 1201.5,1437.5C 1200.58,1429.34 1199.91,1421 1199.5,1412.5 Z"/></g>
<g><path style="opacity:0.263" fill="#c0c0c0" d="M 1201.5,1420.5 C 1203.44,1424.71 1204.1,1429.38 1203.5,1434.5C 1202.83,1433.83 1202.17,1433.17 1201.5,1432.5C 1201.5,1428.5 1201.5,1424.5 1201.5,1420.5 Z"/></g>
<g><path style="opacity:0.302" fill="#e8e8e8" d="M 1085.5,1428.5 C 1086.17,1428.83 1086.83,1429.17 1087.5,1429.5C 1087.5,1432.83 1087.5,1436.17 1087.5,1439.5C 1085.59,1436.32 1084.92,1432.65 1085.5,1428.5 Z"/></g>
<g><path style="opacity:0.355" fill="#f3f3f3" d="M 570.5,1436.5 C 570.665,1439.85 570.498,1443.18 570,1446.5C 569.617,1447.06 569.117,1447.39 568.5,1447.5C 568.334,1443.49 568.501,1439.49 569,1435.5C 569.383,1436.06 569.883,1436.39 570.5,1436.5 Z"/></g>
<g><path style="opacity:1" fill="#9ba3b1" d="M 569.5,1426.5 C 570.479,1429.62 570.813,1432.96 570.5,1436.5C 569.883,1436.39 569.383,1436.06 569,1435.5C 568.501,1439.49 568.334,1443.49 568.5,1447.5C 566.989,1440.5 567.322,1433.5 569.5,1426.5 Z"/></g>
<g><path style="opacity:1" fill="#7a899f" d="M 647.5,1434.5 C 648.167,1434.5 648.833,1434.5 649.5,1434.5C 649.82,1445.41 649.487,1456.25 648.5,1467C 650.321,1469.46 650.988,1472.29 650.5,1475.5C 649.5,1475.5 648.5,1475.5 647.5,1475.5C 647.5,1472.17 647.5,1468.83 647.5,1465.5C 648.833,1457.5 648.833,1449.5 647.5,1441.5C 647.5,1439.17 647.5,1436.83 647.5,1434.5 Z"/></g>
<g><path style="opacity:0.429" fill="#c7c7c7" d="M 1007.5,1436.5 C 1008.83,1442.3 1009.5,1448.46 1009.5,1455C 1009.5,1461.54 1008.83,1467.7 1007.5,1473.5C 1007.5,1461.17 1007.5,1448.83 1007.5,1436.5 Z"/></g>
<g><path style="opacity:0.953" fill="#e0e0e0" d="M 647.5,1441.5 C 648.833,1449.5 648.833,1457.5 647.5,1465.5C 646.187,1457.6 646.187,1449.6 647.5,1441.5 Z"/></g>
<g><path style="opacity:0.027" fill="#616161" d="M 1087.5,1440.5 C 1088.83,1449.17 1088.83,1457.83 1087.5,1466.5C 1086.17,1457.83 1086.17,1449.17 1087.5,1440.5 Z"/></g>
<g><path style="opacity:0.263" fill="#545454" d="M 1201.5,1432.5 C 1202.17,1433.17 1202.83,1433.83 1203.5,1434.5C 1203.5,1445.5 1203.5,1456.5 1203.5,1467.5C 1202.83,1467.83 1202.17,1468.17 1201.5,1468.5C 1202.83,1458.17 1202.83,1447.83 1201.5,1437.5C 1201.5,1435.83 1201.5,1434.17 1201.5,1432.5 Z"/></g>
<g><path style="opacity:1" fill="#a1a5ac" d="M 1003.5,1418.5 C 1004.39,1419.11 1005.39,1419.44 1006.5,1419.5C 1007.29,1425.13 1007.63,1430.8 1007.5,1436.5C 1007.5,1448.83 1007.5,1461.17 1007.5,1473.5C 1008.06,1478 1007.39,1482.16 1005.5,1486C 1006.59,1488.06 1006.76,1490.23 1006,1492.5C 1005.2,1495.51 1004.03,1498.35 1002.5,1501C 1003.25,1501.67 1003.59,1502.5 1003.5,1503.5C 1002.39,1503.56 1001.39,1503.89 1000.5,1504.5C 1002.47,1494.89 1004.3,1485.22 1006,1475.5C 1007.28,1456.33 1006.45,1437.33 1003.5,1418.5 Z"/></g>
<g><path style="opacity:0.035" fill="#b2b3b5" d="M 568.5,1461.5 C 569.753,1464.91 570.42,1468.57 570.5,1472.5C 570.498,1476.02 570.165,1479.35 569.5,1482.5C 568.897,1478.73 568.23,1475.06 567.5,1471.5C 567.187,1467.96 567.521,1464.62 568.5,1461.5 Z"/></g>
<g><path style="opacity:0.875" fill="#929292" d="M 1203.5,1467.5 C 1203.5,1470.17 1203.5,1472.83 1203.5,1475.5C 1202.83,1475.83 1202.17,1476.17 1201.5,1476.5C 1201.5,1473.83 1201.5,1471.17 1201.5,1468.5C 1202.17,1468.17 1202.83,1467.83 1203.5,1467.5 Z"/></g>
<g><path style="opacity:0.875" fill="#dcdcdc" d="M 1203.5,1475.5 C 1204.1,1480.29 1203.43,1484.63 1201.5,1488.5C 1201.5,1484.5 1201.5,1480.5 1201.5,1476.5C 1202.17,1476.17 1202.83,1475.83 1203.5,1475.5 Z"/></g>
<g><path style="opacity:1" fill="#a4a6ab" d="M 452.5,1462.5 C 453.381,1472.75 454.381,1483.08 455.5,1493.5C 455.5,1496.83 455.5,1500.17 455.5,1503.5C 454.5,1503.5 453.5,1503.5 452.5,1503.5C 452.5,1489.83 452.5,1476.17 452.5,1462.5 Z"/></g>
<g><path style="opacity:1" fill="#346ac6" d="M 567.5,1471.5 C 568.23,1475.06 568.897,1478.73 569.5,1482.5C 569.5,1482.83 569.5,1483.17 569.5,1483.5C 569.5,1486.5 569.5,1489.5 569.5,1492.5C 568.125,1485.71 567.458,1478.71 567.5,1471.5 Z"/></g>
<g><path style="opacity:0.624" fill="#e7e7e7" d="M 1085.5,1485.5 C 1085.92,1487.78 1085.26,1489.45 1083.5,1490.5C 1083.08,1488.22 1083.74,1486.55 1085.5,1485.5 Z"/></g>
<g><path style="opacity:0.608" fill="#9b9ea4" d="M 1087.5,1468.5 C 1087.43,1477.19 1086.93,1485.86 1086,1494.5C 1085.62,1495.06 1085.12,1495.39 1084.5,1495.5C 1083.7,1493.96 1083.37,1492.29 1083.5,1490.5C 1085.26,1489.45 1085.92,1487.78 1085.5,1485.5C 1084.88,1479.4 1085.55,1473.74 1087.5,1468.5 Z"/></g>
<g><path style="opacity:0.059" fill="#bfbfc0" d="M 569.5,1483.5 C 571.271,1488.12 572.604,1493.12 573.5,1498.5C 573.489,1500.05 573.156,1501.38 572.5,1502.5C 571.288,1499.22 570.288,1495.89 569.5,1492.5C 569.5,1489.5 569.5,1486.5 569.5,1483.5 Z"/></g>
<g><path style="opacity:1" fill="#336ac3" d="M 455.5,1493.5 C 456.4,1498.33 457.066,1503.33 457.5,1508.5C 456.833,1507.5 456.167,1506.5 455.5,1505.5C 455.5,1504.83 455.5,1504.17 455.5,1503.5C 455.5,1500.17 455.5,1496.83 455.5,1493.5 Z"/></g>
<g><path style="opacity:0.612" fill="#bdbec0" d="M 455.5,1505.5 C 456.167,1506.5 456.833,1507.5 457.5,1508.5C 457.751,1513.51 458.084,1518.51 458.5,1523.5C 456.577,1519.42 455.244,1514.92 454.5,1510C 454.508,1508.29 454.842,1506.79 455.5,1505.5 Z"/></g>
<g><path style="opacity:0.145" fill="#cacbce" d="M 647.5,1475.5 C 648.5,1475.5 649.5,1475.5 650.5,1475.5C 652.987,1498.82 659.82,1520.82 671,1541.5C 674.262,1545.36 676.428,1549.69 677.5,1554.5C 674.634,1552.54 672.3,1550.04 670.5,1547C 666.383,1537.31 661.883,1527.81 657,1518.5C 656.316,1517.22 656.483,1516.05 657.5,1515C 655.966,1512.85 654.632,1510.52 653.5,1508C 653.645,1507.23 653.978,1506.56 654.5,1506C 652.602,1502.99 651.269,1499.66 650.5,1496C 650.559,1494.56 650.892,1493.23 651.5,1492C 649.273,1486.82 647.939,1481.32 647.5,1475.5 Z"/></g>
<g><path style="opacity:0.584" fill="#bfc2ca" d="M 1201.5,1489.5 C 1202.65,1493.31 1202.81,1497.31 1202,1501.5C 1198.16,1526.32 1192.66,1550.82 1185.5,1575C 1184.86,1577.48 1183.52,1579.31 1181.5,1580.5C 1186.06,1563.55 1190.56,1546.55 1195,1529.5C 1197.36,1515.91 1199.52,1502.58 1201.5,1489.5 Z"/></g>
<g><path style="opacity:0.352" fill="#dcdde0" d="M 1084.5,1495.5 C 1079.16,1531.52 1066.5,1564.86 1046.5,1595.5C 1046.04,1596.3 1045.38,1596.63 1044.5,1596.5C 1044.52,1594.94 1044.85,1593.44 1045.5,1592C 1047.43,1590.07 1049.1,1587.9 1050.5,1585.5C 1057.51,1571.46 1064.18,1557.63 1070.5,1544C 1075.55,1527.72 1080.21,1511.55 1084.5,1495.5 Z"/></g>
<g><path style="opacity:0.486" fill="#bfc3cd" d="M 458.5,1524.5 C 463.394,1541.23 468.061,1558.23 472.5,1575.5C 471.833,1575.17 471.167,1574.83 470.5,1574.5C 464.467,1558.38 460.467,1541.72 458.5,1524.5 Z"/></g>
<g><path style="opacity:0.23" fill="#d4d6d9" d="M 1003.5,1503.5 C 1002.72,1506.62 1001.39,1509.46 999.5,1512C 1000.02,1512.56 1000.36,1513.23 1000.5,1514C 999.271,1516.58 997.938,1519.08 996.5,1521.5C 996.709,1522.09 997.043,1522.59 997.5,1523C 996.23,1523.9 995.23,1525.07 994.5,1526.5C 993.516,1530.95 991.85,1535.12 989.5,1539C 986.005,1544.41 982.672,1549.91 979.5,1555.5C 976.843,1559.09 973.843,1562.42 970.5,1565.5C 970.709,1566.09 971.043,1566.59 971.5,1567C 969.055,1568.77 966.722,1570.6 964.5,1572.5C 964.5,1571.83 964.5,1571.17 964.5,1570.5C 980.96,1550.76 992.96,1528.76 1000.5,1504.5C 1001.39,1503.89 1002.39,1503.56 1003.5,1503.5 Z"/></g>
<g><path style="opacity:0.431" fill="#bbbcbf" d="M 677.5,1554.5 C 679.229,1555.12 680.729,1556.12 682,1557.5C 706.788,1592.29 739.621,1615.79 780.5,1628C 789.498,1628.92 798.164,1630.75 806.5,1633.5C 787.96,1632.53 770.293,1628.36 753.5,1621C 723.921,1607.01 699.587,1586.51 680.5,1559.5C 679.167,1558.5 677.833,1557.5 676.5,1556.5C 676.863,1555.82 677.196,1555.15 677.5,1554.5 Z"/></g>
<g><path style="opacity:0.333" fill="#dcdddf" d="M 572.5,1503.5 C 577.424,1518.02 582.09,1532.85 586.5,1548C 592.639,1561.11 599.306,1574.44 606.5,1588C 609.436,1592.61 612.77,1596.94 616.5,1601C 616.167,1601.33 615.833,1601.67 615.5,1602C 616.685,1603.35 618.019,1604.52 619.5,1605.5C 619.137,1606.18 618.804,1606.85 618.5,1607.5C 601.814,1585.81 588.981,1561.81 580,1535.5C 576.864,1524.96 574.364,1514.29 572.5,1503.5 Z"/></g>
<g><path style="opacity:0.472" fill="#babcc0" d="M 964.5,1570.5 C 964.5,1571.17 964.5,1571.83 964.5,1572.5C 962.914,1574.63 961.081,1576.63 959,1578.5C 957.991,1580.02 957.491,1581.69 957.5,1583.5C 956.127,1583.34 954.793,1583.51 953.5,1584C 938.353,1601.15 920.019,1613.65 898.5,1621.5C 899.1,1620.1 900.1,1619.1 901.5,1618.5C 925.323,1606.36 946.323,1590.36 964.5,1570.5 Z"/></g>
<g><path style="opacity:0.228" fill="#e0e1e5" d="M 618.5,1607.5 C 630.111,1621.45 642.445,1634.78 655.5,1647.5C 654.609,1646.89 653.609,1646.56 652.5,1646.5C 638.935,1635.28 627.602,1622.28 618.5,1607.5 Z"/></g>
<g><path style="opacity:0.473" fill="#a2a6ab" d="M 901.5,1618.5 C 900.1,1619.1 899.1,1620.1 898.5,1621.5C 882.669,1628.92 866.003,1632.92 848.5,1633.5C 856.98,1630.78 865.98,1628.94 875.5,1628C 884.218,1624.77 892.885,1621.6 901.5,1618.5 Z"/></g>
<g><path style="opacity:0.275" fill="#d9dbe0" d="M 1044.5,1596.5 C 1044.65,1597.55 1044.48,1598.55 1044,1599.5C 1025.54,1626.96 1002.7,1650.13 975.5,1669C 973.975,1670.01 972.308,1670.51 970.5,1670.5C 995.295,1652.2 1017.13,1631.2 1036,1607.5C 1037.69,1602.88 1040.52,1599.22 1044.5,1596.5 Z"/></g>
<g><path style="opacity:1" fill="#7e8fa7" d="M 847.5,1633.5 C 844.5,1633.5 841.5,1633.5 838.5,1633.5C 828.111,1632.86 818.111,1633.53 808.5,1635.5C 807.662,1635.16 807.328,1634.49 807.5,1633.5C 820.833,1632.17 834.167,1632.17 847.5,1633.5 Z"/></g>
<g><path style="opacity:0.301" fill="#ababab" d="M 838.5,1633.5 C 838.5,1634.17 838.5,1634.83 838.5,1635.5C 828.5,1635.5 818.5,1635.5 808.5,1635.5C 818.111,1633.53 828.111,1632.86 838.5,1633.5 Z"/></g>
<g><path style="opacity:0.453" fill="#e9e9e9" d="M 838.5,1633.5 C 841.5,1633.5 844.5,1633.5 847.5,1633.5C 847.5,1634.17 847.5,1634.83 847.5,1635.5C 844.5,1635.5 841.5,1635.5 838.5,1635.5C 838.5,1634.83 838.5,1634.17 838.5,1633.5 Z"/></g>
<g><path style="opacity:0.275" fill="#d7d9df" d="M 470.5,1574.5 C 471.167,1574.83 471.833,1575.17 472.5,1575.5C 476.51,1585.85 480.677,1596.18 485,1606.5C 491.856,1621.62 499.356,1636.29 507.5,1650.5C 504.968,1650.17 503.968,1649 504.5,1647C 502.79,1643.45 500.456,1640.28 497.5,1637.5C 497.709,1636.91 498.043,1636.41 498.5,1636C 492.518,1627.75 487.851,1618.75 484.5,1609C 483.44,1607.07 482.107,1605.41 480.5,1604C 480.957,1603.59 481.291,1603.09 481.5,1602.5C 479.21,1597.8 476.877,1593.13 474.5,1588.5C 474.709,1587.91 475.043,1587.41 475.5,1587C 472.887,1583.27 471.221,1579.1 470.5,1574.5 Z"/></g>
<g><path style="opacity:0.316" fill="#c5c9d0" d="M 652.5,1646.5 C 653.609,1646.56 654.609,1646.89 655.5,1647.5C 664.715,1654.14 673.715,1660.97 682.5,1668C 691.897,1673.9 701.563,1679.24 711.5,1684C 712.823,1684.82 713.489,1685.98 713.5,1687.5C 703.431,1683.19 693.764,1678.02 684.5,1672C 675.27,1665.79 666.27,1659.12 657.5,1652C 655.627,1650.3 653.96,1648.46 652.5,1646.5 Z"/></g>
<g><path style="opacity:0.222" fill="#d5d8de" d="M 1181.5,1580.5 C 1181.92,1581.26 1182.26,1582.1 1182.5,1583C 1175.78,1599.57 1168.12,1616.57 1159.5,1634C 1151.25,1647.74 1142.25,1661.91 1132.5,1676.5C 1129.65,1679.93 1126.65,1683.26 1123.5,1686.5C 1123.71,1687.09 1124.04,1687.59 1124.5,1688C 1122,1689.67 1119.67,1691.5 1117.5,1693.5C 1117.35,1692.45 1117.52,1691.45 1118,1690.5C 1124.67,1681.83 1131.33,1673.17 1138,1664.5C 1155.49,1637.74 1169.99,1609.74 1181.5,1580.5 Z"/></g>
<g><path style="opacity:0.19" fill="#babdc4" d="M 970.5,1670.5 C 962.127,1678.19 952.46,1683.85 941.5,1687.5C 943.094,1686.02 944.76,1684.52 946.5,1683C 954.713,1679.06 962.713,1674.9 970.5,1670.5 Z"/></g>
<g><path style="opacity:1" fill="#c3c5cb" d="M 941.5,1687.5 C 933.268,1691.75 924.934,1695.92 916.5,1700C 915.072,1700.58 913.738,1700.41 912.5,1699.5C 919.626,1695.73 926.959,1692.23 934.5,1689C 936.74,1688.02 939.073,1687.52 941.5,1687.5 Z"/></g>
<g><path style="opacity:0.078" fill="#d2d4da" d="M 507.5,1650.5 C 508.376,1650.37 509.043,1650.7 509.5,1651.5C 522.389,1672.6 537.222,1692.27 554,1710.5C 583.384,1740.77 616.217,1766.1 652.5,1786.5C 648.813,1785.71 645.313,1784.38 642,1782.5C 586.729,1750.55 542.229,1708.05 508.5,1655C 507.852,1653.56 507.519,1652.06 507.5,1650.5 Z"/></g>
<g><path style="opacity:0.663" fill="#999b9e" d="M 912.5,1699.5 C 910.355,1700.98 908.021,1702.31 905.5,1703.5C 904.817,1703.14 904.15,1702.8 903.5,1702.5C 903.791,1701.35 904.624,1700.68 906,1700.5C 908.137,1699.92 910.304,1699.59 912.5,1699.5 Z"/></g>
<g><path style="opacity:0.58" fill="#b3b5bc" d="M 714.5,1687.5 C 716.401,1687.43 718.234,1687.77 720,1688.5C 737.522,1697.54 756.022,1703.71 775.5,1707C 776.056,1707.38 776.389,1707.88 776.5,1708.5C 775.423,1709.02 774.256,1709.35 773,1709.5C 762.456,1706.48 751.956,1703.48 741.5,1700.5C 734.27,1698.22 727.27,1695.38 720.5,1692C 717.894,1691.21 715.894,1689.71 714.5,1687.5 Z"/></g>
<g><path style="opacity:0.659" fill="#afb0b3" d="M 903.5,1702.5 C 901.417,1703.97 899.084,1705.14 896.5,1706C 889.084,1707.2 881.751,1708.7 874.5,1710.5C 874.5,1709.83 874.5,1709.17 874.5,1708.5C 884.119,1706.29 893.785,1704.29 903.5,1702.5 Z"/></g>
<g><path style="opacity:0.651" fill="#dbdbdb" d="M 874.5,1708.5 C 874.5,1709.17 874.5,1709.83 874.5,1710.5C 873.167,1710.5 871.833,1710.5 870.5,1710.5C 870.5,1710.17 870.5,1709.83 870.5,1709.5C 871.568,1708.57 872.901,1708.23 874.5,1708.5 Z"/></g>
<g><path style="opacity:0.549" fill="#b0b1b2" d="M 776.5,1708.5 C 788.836,1709.06 800.836,1710.4 812.5,1712.5C 807.684,1713.65 802.684,1713.82 797.5,1713C 790.833,1712 784.167,1711 777.5,1710C 776.944,1709.62 776.611,1709.12 776.5,1708.5 Z"/></g>
<g><path style="opacity:1" fill="#6a7a9b" d="M 866.5,1709.5 C 867.833,1709.5 869.167,1709.5 870.5,1709.5C 870.5,1709.83 870.5,1710.17 870.5,1710.5C 868.412,1711.94 866.079,1712.61 863.5,1712.5C 864.9,1711.9 865.9,1710.9 866.5,1709.5 Z"/></g>
<g><path style="opacity:0.123" fill="#d5d7dc" d="M 1117.5,1693.5 C 1117.65,1694.55 1117.48,1695.55 1117,1696.5C 1105.61,1709.29 1093.78,1721.62 1081.5,1733.5C 1080.07,1733.98 1078.74,1734.64 1077.5,1735.5C 1073.1,1740.9 1068.1,1745.56 1062.5,1749.5C 1059.93,1750.28 1057.93,1751.78 1056.5,1754C 1055.55,1754.48 1054.55,1754.65 1053.5,1754.5C 1053.51,1752.98 1054.18,1751.82 1055.5,1751C 1064.02,1744.57 1072.35,1737.91 1080.5,1731C 1093.14,1718.53 1105.47,1706.03 1117.5,1693.5 Z"/></g>
<g><path style="opacity:0.827" fill="#c9c9c9" d="M 866.5,1709.5 C 865.9,1710.9 864.9,1711.9 863.5,1712.5C 856.44,1713.6 849.44,1713.6 842.5,1712.5C 850.505,1711.89 858.505,1710.89 866.5,1709.5 Z"/></g>
<g><path style="opacity:1" fill="#4e64a6" d="M 815.5,1713.5 C 823.5,1713.5 831.5,1713.5 839.5,1713.5C 839.389,1714.12 839.056,1714.62 838.5,1715C 831.167,1715.67 823.833,1715.67 816.5,1715C 815.944,1714.62 815.611,1714.12 815.5,1713.5 Z"/></g>
<g><path style="opacity:0.055" fill="#c4c7ce" d="M 1053.5,1754.5 C 1051.14,1757.92 1048.14,1760.75 1044.5,1763C 1039,1765.55 1034,1768.89 1029.5,1773C 1027.98,1774.01 1026.31,1774.51 1024.5,1774.5C 1025.57,1772.26 1027.23,1770.43 1029.5,1769C 1036.78,1764.72 1043.78,1760.05 1050.5,1755C 1051.45,1754.52 1052.45,1754.35 1053.5,1754.5 Z"/></g>
<g><path style="opacity:0.149" fill="#c3c5cb" d="M 1024.5,1774.5 C 1018.51,1780.14 1011.51,1784.14 1003.5,1786.5C 1003.94,1784.93 1004.94,1783.76 1006.5,1783C 1011.16,1780.35 1015.82,1777.68 1020.5,1775C 1021.79,1774.51 1023.13,1774.34 1024.5,1774.5 Z"/></g>
<g><path style="opacity:0.412" fill="#c0c2c6" d="M 652.5,1786.5 C 657.215,1787.25 661.215,1789.25 664.5,1792.5C 659.566,1792.08 655.566,1790.08 652.5,1786.5 Z"/></g>
<g><path style="opacity:0.624" fill="#b3b7c1" d="M 1003.5,1786.5 C 1001.2,1787.9 999.035,1789.56 997,1791.5C 989.33,1794.58 981.83,1798.08 974.5,1802C 965.704,1804.9 957.037,1808.07 948.5,1811.5C 946.218,1812.22 943.884,1812.56 941.5,1812.5C 941.5,1812.17 941.5,1811.83 941.5,1811.5C 951.254,1807.64 961.254,1804.14 971.5,1801C 977.151,1798 982.818,1795 988.5,1792C 993.314,1789.59 998.314,1787.76 1003.5,1786.5 Z"/></g>
<g><path style="opacity:0.165" fill="#bec0c3" d="M 664.5,1792.5 C 675.501,1796.57 686.168,1801.24 696.5,1806.5C 691.533,1806.09 686.866,1804.76 682.5,1802.5C 677.868,1800.24 673.202,1798.08 668.5,1796C 666.907,1795.05 665.574,1793.88 664.5,1792.5 Z"/></g>
<g><path style="opacity:0.973" fill="#bbbcc1" d="M 696.5,1806.5 C 699.216,1806.68 701.883,1807.18 704.5,1808C 711.471,1810.22 718.137,1812.72 724.5,1815.5C 721.161,1815.11 717.827,1814.61 714.5,1814C 708.113,1812.21 702.113,1809.71 696.5,1806.5 Z"/></g>
<g><path style="opacity:0.996" fill="#4871ba" d="M 941.5,1811.5 C 941.5,1811.83 941.5,1812.17 941.5,1812.5C 939.139,1812.67 936.806,1813.01 934.5,1813.5C 936.438,1811.84 938.772,1811.17 941.5,1811.5 Z"/></g>
<g><path style="opacity:0.49" fill="#c4c5c6" d="M 941.5,1812.5 C 941.209,1813.65 940.376,1814.32 939,1814.5C 936.538,1815.16 934.038,1815.49 931.5,1815.5C 931.973,1814.09 932.973,1813.43 934.5,1813.5C 936.806,1813.01 939.139,1812.67 941.5,1812.5 Z"/></g>
<g><path style="opacity:0.004" fill="#ababad" d="M 724.5,1815.5 C 728.188,1815.78 731.855,1816.28 735.5,1817C 743.276,1819.1 750.942,1821.26 758.5,1823.5C 753.464,1823.41 748.464,1822.91 743.5,1822C 739.721,1820.37 735.721,1819.37 731.5,1819C 728.808,1818.26 726.475,1817.09 724.5,1815.5 Z"/></g>
<g><path style="opacity:0.212" fill="#a2a3a6" d="M 931.5,1815.5 C 931.389,1816.12 931.056,1816.62 930.5,1817C 924.167,1818.67 917.833,1820.33 911.5,1822C 906.863,1822.83 902.196,1823.33 897.5,1823.5C 897.611,1822.88 897.944,1822.38 898.5,1822C 909.509,1819.83 920.509,1817.67 931.5,1815.5 Z"/></g>
<g><path style="opacity:0.043" fill="#929396" d="M 776.5,1826.5 C 771.979,1826.5 767.479,1826.16 763,1825.5C 761.014,1825.43 759.514,1824.76 758.5,1823.5C 759.416,1823.02 760.416,1822.69 761.5,1822.5C 766.047,1823.95 770.714,1824.78 775.5,1825C 776.056,1825.38 776.389,1825.88 776.5,1826.5 Z"/></g>
<g><path style="opacity:0.306" fill="#a6a8ac" d="M 897.5,1823.5 C 897.389,1824.12 897.056,1824.62 896.5,1825C 890.523,1825.83 884.523,1826.33 878.5,1826.5C 883.381,1825.02 888.381,1823.69 893.5,1822.5C 894.925,1822.62 896.258,1822.96 897.5,1823.5 Z"/></g>
<g><path style="opacity:0.067" fill="#bebebe" d="M 778.5,1826.5 C 778.833,1826.5 779.167,1826.5 779.5,1826.5C 782.388,1825.99 784.721,1826.66 786.5,1828.5C 783.302,1829.04 780.635,1828.37 778.5,1826.5 Z"/></g>
<g><path style="opacity:0.208" fill="#6c707d" d="M 779.5,1826.5 C 780.622,1825.84 781.955,1825.51 783.5,1825.5C 792.582,1826.93 801.582,1827.93 810.5,1828.5C 802.5,1828.5 794.5,1828.5 786.5,1828.5C 784.721,1826.66 782.388,1825.99 779.5,1826.5 Z"/></g>
<g><path style="opacity:0.067" fill="#848994" d="M 876.5,1826.5 C 873.612,1825.99 871.279,1826.66 869.5,1828.5C 861.167,1828.5 852.833,1828.5 844.5,1828.5C 853.441,1827.93 862.441,1826.93 871.5,1825.5C 873.369,1825.51 875.036,1825.84 876.5,1826.5 Z"/></g>
<g><path style="opacity:0.059" fill="#cbcbcb" d="M 876.5,1826.5 C 876.833,1826.5 877.167,1826.5 877.5,1826.5C 875.365,1828.37 872.698,1829.04 869.5,1828.5C 871.279,1826.66 873.612,1825.99 876.5,1826.5 Z"/></g>
</svg>
