<svg id="Layer_1" data-name="Layer 1" xmlns="http://www.w3.org/2000/svg" width="64" height="64" viewBox="0 0 64 64"><defs><style>.cls-1{fill:#426b8e;}</style></defs><title>magic-wand</title><path class="cls-1" d="M48.77,19.14C47.08,17.2,44.58,16,43.83,16s-6.37,4.38-17.44,14.44S7.33,49,7.33,49C7.46,50,12.46,54.7,13,55.14s1.44,0,3.37-1.37,9.44-8.19,18.5-15.57A115.24,115.24,0,0,0,49.77,24.14C51.21,22.52,50.46,21.08,48.77,19.14ZM39.48,31.87C39.35,32,37,34,37,34a9.82,9.82,0,0,0,.15-2.22c-.15-.12-1,0-1,.1s-.22,2.72-.31,2.87-1.19,1.28-1.19,1,.82-4,.57-4.25-1-.28-1.1,0-.15,4.79-.47,5.1-1,1.31-1,.84.78-4.47.47-4.72-1.06.1-1,.25a30.83,30.83,0,0,1-.47,5.28c-.25.22-1.56,1.85-1.56,1.32s1-5.44.78-5.57-1.09.19-1.06.54-.41,5.53-.53,5.65-1,1.06-1,.72.59-5,.5-5.09-1,.06-1,.4-.31,5.35-.5,5.63-1,1.19-1,1,.34-4.44.19-4.53-1.07.18-1,.53a31.43,31.43,0,0,1-.21,4.87C25,44,24,45,24,44.8s.25-4.47,0-4.78-1.07.09-1.07.53.19,4.75,0,5S21.3,47.2,21.33,46.8s.34-4.82.25-5-1.06,0-1.06.53a45.69,45.69,0,0,1-.19,5.22c-.19.31-1.09,1.12-1.06.87a27.73,27.73,0,0,0,.28-4.28c-.19-.28-1.13-.09-1.13.28s.1,4.47-.18,4.88S17,50.92,17,50.45s.43-4.18.28-4.31-1.22.13-1.19.53a24.56,24.56,0,0,1-.31,4.56c-.25.35-.69,1.19-.75.69s.59-4.19.09-4.28-1,.13-1,.53a34.14,34.14,0,0,1,0,4.44c-.19.09-.91.22-1-.16s.53-3.87.22-4-1.1-.12-1.07.1.13,3.15-.25,2.84a22.17,22.17,0,0,1-2-2.2c-.08-.19,5-5,10.13-10s14.41-14,14.71-13.54a28.42,28.42,0,0,0,2.66,4C38.77,31.2,39.6,31.79,39.48,31.87Zm8.76-9.32A62.54,62.54,0,0,1,43,28.77c-1.85,1.84-2,2.25-2.35,2.12a11.74,11.74,0,0,1-2.81-3c-1.44-1.9-2-2.78-2-3.15l5.47-4.54c2.37-2,2.5-2.21,3-2.18a7.21,7.21,0,0,1,3,2.5C48,21.58,48.46,22.08,48.24,22.55Zm-4.69-2.72a28.64,28.64,0,0,0-3,2.44c-.25.34.59.84.84.84s.16-.06.85-.72a9.9,9.9,0,0,1,2.43-1.28c.57-.31.47-.69.1-1A1.27,1.27,0,0,0,43.55,19.83ZM32.92,14.17a10.57,10.57,0,0,0,.19,2.1.94.94,0,0,0,1.06.78c.47-.1,1.88-2.19,2.16-2.63s1.53.13,1.91.19.65-.13.84-.63-.41-.84-.59-1.28.75-1.75,1.09-2.28,0-.56-.34-1-2.5.5-2.94.69-1.47-1.5-2.19-1.38-1,2.54-1.34,3-2,.69-1.94,1.07S32.92,14.17,32.92,14.17Zm16.66-2.34s-.66,1.75-.75,2.06.06.44.56.47,1.78-1.56,1.94-1.56.72,1.25,1,1.59.63-.09.88-.41-.35-1.9-.35-1.9,1.25-.22,1.66-.31a.79.79,0,0,0,.53-1.1c-.22-.56-1.94-.28-2.16-.28s-.06-.5-.15-.91a1,1,0,0,0-1-.78c-.57.07-1,1.69-1.1,1.91s-1.63-.29-2.18-.19a.56.56,0,0,0-.38.91A8.2,8.2,0,0,0,49.58,11.83Zm6.19,19.4a8.29,8.29,0,0,1,.12-2.68c.13-.75,0-1-.43-1.13s-3.29,1.44-3.75,1.78S49.89,27.92,49.52,28a.62.62,0,0,0-.6.57c0,.28,1,1.87,1,2.25s-1.32.87-1.94,1.34-.35,1,.28,1.53,3.16-.12,3.41-.12.78,2.09,1,2.68.57.25,1,0,.62-2.62.71-2.9,1.35-.13,1.69-.13.35,0,.53-.65S56,31.39,55.77,31.23Z"/></svg>