<svg enable-background="new 0 0 512 512" height="512" viewBox="0 0 512 512" width="512" xmlns="http://www.w3.org/2000/svg"><g id="_x32_7_Gap_Analysis"><g><circle cx="195.112" cy="340.457" fill="#fff" r="78.79"/><path d="m215.258 485.506c0 11.134-9.012 20.174-20.147 20.174s-20.147-9.039-20.147-20.174c0-7.965 4.63-45.915 11.355-66.751 2.894.331 5.815.496 8.792.496 2.976 0 5.898-.166 8.792-.496 6.725 20.836 11.355 58.786 11.355 66.751z" fill="#94c1ff"/><path d="m107.561 186.352v195.912c0 7.189-5.828 13.017-13.017 13.017h-42.415c-7.189 0-13.017-5.828-13.017-13.017v-195.912c0-7.189 5.828-13.017 13.017-13.017h42.414c7.189 0 13.018 5.828 13.018 13.017z" fill="#94c1ff"/><path d="m229.336 297.326v84.939c0 7.189-5.828 13.017-13.017 13.017h-42.414c-7.189 0-13.017-5.828-13.017-13.017v-84.939c0-7.189 5.828-13.017 13.017-13.017h42.414c7.189-.001 13.017 5.828 13.017 13.017z" fill="#d7e9ff"/><path d="m351.112 104.955v277.31c0 7.189-5.828 13.017-13.017 13.017h-42.415c-7.189 0-13.017-5.828-13.017-13.017v-277.31c0-7.189 5.828-13.017 13.017-13.017h42.414c7.19-.001 13.018 5.828 13.018 13.017z" fill="#94c1ff"/><path d="m472.888 162.1v220.165c0 7.189-5.828 13.017-13.017 13.017h-42.414c-7.189 0-13.017-5.828-13.017-13.017v-220.165c0-7.189 5.828-13.017 13.017-13.017h42.414c7.188-.001 13.017 5.827 13.017 13.017z" fill="#d7e9ff"/><path d="m379.099 92.266 48.812 6.55c4.779.641 8.461-4.131 6.627-8.591l-18.728-45.55c-1.834-4.46-7.809-5.263-10.754-1.444l-30.085 39c-2.945 3.818-.652 9.393 4.128 10.035z" fill="#fff"/><g fill="#116fff"><path d="m216.318 278.997h-42.416c-10.106 0-18.329 8.223-18.329 18.329v84.94c0 10.106 8.223 18.329 18.329 18.329h42.416c10.106 0 18.329-8.223 18.329-18.329v-84.94c0-10.106-8.223-18.329-18.329-18.329zm7.704 103.269c0 4.249-3.455 7.704-7.704 7.704h-42.416c-4.249 0-7.704-3.455-7.704-7.704v-84.94c0-4.249 3.455-7.704 7.704-7.704h42.416c4.249 0 7.704 3.455 7.704 7.704z"/><path d="m338.092 86.625h-42.41c-10.106 0-18.329 8.223-18.329 18.329v217.992c-8.084-37.993-41.875-66.591-82.242-66.591s-74.154 28.597-82.237 66.589v-136.591c0-10.108-8.223-18.331-18.329-18.331h-42.416c-10.106 0-18.329 8.223-18.329 18.331v195.913c0 10.106 8.223 18.329 18.329 18.329h42.416c10.106 0 18.329-8.223 18.329-18.329v-24.296c7.017 32.98 33.414 58.827 66.665 65.085-5.96 22.008-9.884 55.065-9.884 62.451 0 14.054 11.418 25.485 25.457 25.485s25.462-11.431 25.462-25.485c0-7.38-3.924-40.431-9.881-62.452 33.248-6.26 59.645-32.107 66.662-65.085v24.297c0 10.106 8.223 18.329 18.329 18.329h42.41c10.111 0 18.334-8.223 18.334-18.329v-277.312c-.002-10.106-8.225-18.329-18.336-18.329zm-235.843 295.641c0 4.249-3.455 7.704-7.704 7.704h-42.416c-4.249 0-7.704-3.455-7.704-7.704v-195.913c0-4.249 3.455-7.706 7.704-7.706h42.416c4.249 0 7.704 3.458 7.704 7.706zm97.811 42.151c5.847 20.743 9.888 54.135 9.888 61.089 0 8.194-6.656 14.861-14.837 14.861-8.176 0-14.832-6.666-14.832-14.861 0-6.959 4.041-40.359 9.883-61.086.533.031 4.418.14 4.949.14.538 0 4.411-.111 4.949-.143zm-4.949-10.482c-40.213 0-73.475-32.707-73.475-73.478 0-40.517 32.958-73.478 73.475-73.478s73.48 32.961 73.48 73.478c0 40.497-32.976 73.478-73.48 73.478zm150.69-31.669c0 4.249-3.46 7.704-7.709 7.704h-42.41c-4.249 0-7.704-3.455-7.704-7.704v-277.312c0-4.249 3.455-7.704 7.704-7.704h42.41c4.249 0 7.709 3.455 7.709 7.704z"/><path d="m459.871 143.769h-42.416c-10.106 0-18.329 8.223-18.329 18.331v220.166c0 10.106 8.223 18.329 18.329 18.329h42.416c10.106 0 18.329-8.223 18.329-18.329v-220.166c-.001-10.108-8.223-18.331-18.329-18.331zm7.704 238.497c0 4.249-3.455 7.704-7.704 7.704h-42.416c-4.249 0-7.704-3.455-7.704-7.704v-220.166c0-4.249 3.455-7.706 7.704-7.706h42.416c4.249 0 7.704 3.458 7.704 7.706z"/><path d="m439.451 88.202-18.728-45.552c-3.384-8.224-14.412-9.741-19.875-2.667l-11.798 15.296-68.918-53.166c-2.355-1.826-5.782-1.334-7.533 1.076l-118.837 162.981-117.566-75.086c-2.48-1.58-5.758-.859-7.336 1.619-1.577 2.472-.856 5.756 1.619 7.336l121.774 77.773c2.361 1.514 5.504.915 7.149-1.346l118.566-162.605 64.594 49.831-11.797 15.294c-5.452 7.06-1.202 17.358 7.626 18.544l48.812 6.55c8.898 1.177 15.619-7.677 12.248-15.878zm-60.272-2.726 30.084-39.002c.442-.567 1.344-.478 1.634.22l18.728 45.546c.292.708-.315 1.415-1.012 1.307l-48.812-6.55c-.714-.091-1.087-.92-.622-1.521z"/></g></g></g></svg>