<?xml version="1.0" encoding="UTF-8"?>
<!DOCTYPE svg PUBLIC "-//W3C//DTD SVG 1.1//EN" "http://www.w3.org/Graphics/SVG/1.1/DTD/svg11.dtd">
<svg version="1.1" xmlns="http://www.w3.org/2000/svg" xmlns:xlink="http://www.w3.org/1999/xlink" x="0" y="0" width="512" height="512" viewBox="0, 0, 512, 512">
  <g id="RF_Selected" display="none">
    <g>
      <path d="M256,25.5 L256,253.5" fill-opacity="0" stroke="#CE56FF" stroke-width="36" stroke-linecap="round"/>
      <path d="M256,253.5 L472,385.5" fill-opacity="0" stroke="#CE56FF" stroke-width="36" stroke-linecap="round"/>
      <path d="M256,253.5 L40,385.5" fill-opacity="0" stroke="#CE56FF" stroke-width="36" stroke-linecap="round"/>
      <path d="M61,153.5 C51.059,153.5 43,145.441 43,135.5 C43,125.559 51.059,117.5 61,117.5 C70.941,117.5 79,125.559 79,135.5 C79,145.441 70.941,153.5 61,153.5 z" fill="#E7AAFF"/>
      <path d="M256,341.5 C246.059,341.5 238,333.441 238,323.5 C238,313.559 246.059,305.5 256,305.5 C265.941,305.5 274,313.559 274,323.5 C274,333.441 265.941,341.5 256,341.5 z" fill="#E7AAFF"/>
      <path d="M256,414 C246.059,414 238,405.941 238,396 C238,386.059 246.059,378 256,378 C265.941,378 274,386.059 274,396 C274,405.941 265.941,414 256,414 z" fill="#E7AAFF"/>
      <path d="M256,486.5 C246.059,486.5 238,478.441 238,468.5 C238,458.559 246.059,450.5 256,450.5 C265.941,450.5 274,458.559 274,468.5 C274,478.441 265.941,486.5 256,486.5 z" fill="#E7AAFF"/>
      <path d="M125,193.5 C115.059,193.5 107,185.441 107,175.5 C107,165.559 115.059,157.5 125,157.5 C134.941,157.5 143,165.559 143,175.5 C143,185.441 134.941,193.5 125,193.5 z" fill="#E7AAFF"/>
      <path d="M189,232.5 C179.059,232.5 171,224.441 171,214.5 C171,204.559 179.059,196.5 189,196.5 C198.941,196.5 207,204.559 207,214.5 C207,224.441 198.941,232.5 189,232.5 z" fill="#E7AAFF"/>
      <path d="M449,153.5 C458.941,153.5 467,145.441 467,135.5 C467,125.559 458.941,117.5 449,117.5 C439.059,117.5 431,125.559 431,135.5 C431,145.441 439.059,153.5 449,153.5 z" fill="#E7AAFF"/>
      <path d="M385,193.5 C394.941,193.5 403,185.441 403,175.5 C403,165.559 394.941,157.5 385,157.5 C375.059,157.5 367,165.559 367,175.5 C367,185.441 375.059,193.5 385,193.5 z" fill="#E7AAFF"/>
      <path d="M321,232.5 C330.941,232.5 339,224.441 339,214.5 C339,204.559 330.941,196.5 321,196.5 C311.059,196.5 303,204.559 303,214.5 C303,224.441 311.059,232.5 321,232.5 z" fill="#E7AAFF"/>
    </g>
  </g>
  <g id="RF">
    <g>
      <path d="M256,25.5 L256,253.5" fill-opacity="0" stroke="#116FFF" stroke-width="36" stroke-linecap="round"/>
      <path d="M256,253.5 L472,385.5" fill-opacity="0" stroke="#116FFF" stroke-width="36" stroke-linecap="round"/>
      <path d="M256,253.5 L40,385.5" fill-opacity="0" stroke="#116FFF" stroke-width="36" stroke-linecap="round"/>
      <path d="M61,153.5 C51.059,153.5 43,145.441 43,135.5 C43,125.559 51.059,117.5 61,117.5 C70.941,117.5 79,125.559 79,135.5 C79,145.441 70.941,153.5 61,153.5 z" fill="#94C1FF"/>
      <path d="M256,341.5 C246.059,341.5 238,333.441 238,323.5 C238,313.559 246.059,305.5 256,305.5 C265.941,305.5 274,313.559 274,323.5 C274,333.441 265.941,341.5 256,341.5 z" fill="#94C1FF"/>
      <path d="M256,414 C246.059,414 238,405.941 238,396 C238,386.059 246.059,378 256,378 C265.941,378 274,386.059 274,396 C274,405.941 265.941,414 256,414 z" fill="#94C1FF"/>
      <path d="M256,486.5 C246.059,486.5 238,478.441 238,468.5 C238,458.559 246.059,450.5 256,450.5 C265.941,450.5 274,458.559 274,468.5 C274,478.441 265.941,486.5 256,486.5 z" fill="#94C1FF"/>
      <path d="M125,193.5 C115.059,193.5 107,185.441 107,175.5 C107,165.559 115.059,157.5 125,157.5 C134.941,157.5 143,165.559 143,175.5 C143,185.441 134.941,193.5 125,193.5 z" fill="#94C1FF"/>
      <path d="M189,232.5 C179.059,232.5 171,224.441 171,214.5 C171,204.559 179.059,196.5 189,196.5 C198.941,196.5 207,204.559 207,214.5 C207,224.441 198.941,232.5 189,232.5 z" fill="#94C1FF"/>
      <path d="M449,153.5 C458.941,153.5 467,145.441 467,135.5 C467,125.559 458.941,117.5 449,117.5 C439.059,117.5 431,125.559 431,135.5 C431,145.441 439.059,153.5 449,153.5 z" fill="#94C1FF"/>
      <path d="M385,193.5 C394.941,193.5 403,185.441 403,175.5 C403,165.559 394.941,157.5 385,157.5 C375.059,157.5 367,165.559 367,175.5 C367,185.441 375.059,193.5 385,193.5 z" fill="#94C1FF"/>
      <path d="M321,232.5 C330.941,232.5 339,224.441 339,214.5 C339,204.559 330.941,196.5 321,196.5 C311.059,196.5 303,204.559 303,214.5 C303,224.441 311.059,232.5 321,232.5 z" fill="#94C1FF"/>
    </g>
  </g>
</svg>
