<?xml version="1.0" encoding="utf-8"?>
<svg version="1.1" x="0" y="0" width="512" height="512" viewBox="0, 0, 512, 512" xmlns="http://www.w3.org/2000/svg" xmlns:bx="https://boxy-svg.com">
  <defs>
    <style bx:fonts="Abhaya Libre">@import url(https://fonts.googleapis.com/css2?family=Abhaya+Libre%3Aital%2Cwght%400%2C400%3B0%2C500%3B0%2C600%3B0%2C700%3B0%2C800&amp;display=swap);</style>
  </defs>
  <g id="retract_selected" display="none">
    <g>
      <path d="M66.133,352.343 L444.945,352.343 C448.136,352.343 450.723,354.575 450.723,357.327 L450.723,403.126 C450.723,405.879 448.136,408.11 444.945,408.11 L66.133,408.11 C62.942,408.11 60.355,405.879 60.355,403.126 L60.355,357.327 C60.355,354.575 62.942,352.343 66.133,352.343 z" fill="#E7AAFF" fill-opacity="0.5" display="none"/>
      <path d="M66.133,352.343 L444.945,352.343 C448.136,352.343 450.723,354.575 450.723,357.327 L450.723,403.126 C450.723,405.879 448.136,408.11 444.945,408.11 L66.133,408.11 C62.942,408.11 60.355,405.879 60.355,403.126 L60.355,357.327 C60.355,354.575 62.942,352.343 66.133,352.343 z" fill-opacity="0" stroke="#AA01EE" stroke-width="5" display="none"/>
    </g>
    <g>
      <path d="M106.68,193.385 L404.398,193.385 C406.906,193.385 408.939,195.138 408.939,197.302 L408.939,233.296 C408.939,235.46 406.906,237.213 404.398,237.213 L106.68,237.213 C104.173,237.213 102.139,235.46 102.139,233.296 L102.139,197.302 C102.139,195.138 104.173,193.385 106.68,193.385 z" fill="#E7AAFF" fill-opacity="0.5" display="none"/>
      <path d="M106.68,193.385 L404.398,193.385 C406.906,193.385 408.939,195.138 408.939,197.302 L408.939,233.296 C408.939,235.46 406.906,237.213 404.398,237.213 L106.68,237.213 C104.173,237.213 102.139,235.46 102.139,233.296 L102.139,197.302 C102.139,195.138 104.173,193.385 106.68,193.385 z" fill-opacity="0" stroke="#AA01EE" stroke-width="5" display="none"/>
    </g>
    <path d="M83.098,352.343 L128.77,237.213" fill-opacity="0" stroke="#AA01EE" stroke-width="10" display="none"/>
    <path d="M203.08,352.343 L248.752,237.213" fill-opacity="0" stroke="#AA01EE" stroke-width="10" display="none"/>
    <path d="M185.08,352.343 L139.408,237.213" fill-opacity="0" stroke="#AA01EE" stroke-width="10" display="none"/>
    <path d="M423.54,352.343 L377.868,237.213" fill-opacity="0" stroke="#AA01EE" stroke-width="10" display="none"/>
    <path d="M305.746,352.343 L260.074,237.213" fill-opacity="0" stroke="#AA01EE" stroke-width="10" display="none"/>
    <path d="M321.643,352.343 L367.314,237.213" fill-opacity="0" stroke="#AA01EE" stroke-width="10" display="none"/>
    <text transform="matrix(1, 0, 0, 1, 253.596, 145.89)" display="none" style="white-space: pre;">
      <tspan x="-170.498" y="26" font-family="Helvetica" font-size="72" fill="#AA00EE">RETRACT</tspan>
    </text>
    <path d="M62.133,121.866 L62.133,272.277 L83.098,272.277 L51,323.717 L18.902,272.277 L39.867,272.277 L39.867,121.866 z" fill-opacity="0" stroke="#AA01EE" stroke-width="6" stroke-linecap="round" display="none"/>
    <path d="M472.133,121.866 L472.133,272.277 L493.098,272.277 L461,323.717 L428.902,272.277 L449.867,272.277 L449.867,121.866 z" fill-opacity="0" stroke="#AA01EE" stroke-width="6" stroke-linecap="round" display="none"/>
  </g>
  <g id="retract">
    <g>
      <g>
        <path d="M35.558,435.095 L476.442,435.095 C480.156,435.095 483.167,437.692 483.167,440.896 L483.167,494.2 C483.167,497.403 480.156,500 476.442,500 L35.558,500 C31.844,500 28.833,497.403 28.833,494.2 L28.833,440.896 C28.833,437.692 31.844,435.095 35.558,435.095 z" fill="#0878FF"/>
        <path d="M35.558,435.095 L476.442,435.095 C480.156,435.095 483.167,437.692 483.167,440.896 L483.167,494.2 C483.167,497.403 480.156,500 476.442,500 L35.558,500 C31.844,500 28.833,497.403 28.833,494.2 L28.833,440.896 C28.833,437.692 31.844,435.095 35.558,435.095 z" fill-opacity="0" stroke="#116FFF" stroke-width="5"/>
      </g>
      <g>
        <path d="M82.749,250.09 L429.251,250.09 C432.17,250.09 434.536,252.131 434.536,254.648 L434.536,296.541 C434.536,299.059 432.17,301.1 429.251,301.1 L82.749,301.1 C79.83,301.1 77.464,299.059 77.464,296.541 L77.464,254.648 C77.464,252.131 79.83,250.09 82.749,250.09 z" fill="#0878FF"/>
        <path d="M82.749,250.09 L429.251,250.09 C432.17,250.09 434.536,252.131 434.536,254.648 L434.536,296.541 C434.536,299.059 432.17,301.1 429.251,301.1 L82.749,301.1 C79.83,301.1 77.464,299.059 77.464,296.541 L77.464,254.648 C77.464,252.131 79.83,250.09 82.749,250.09 z" fill-opacity="0" stroke="#116FFF" stroke-width="5"/>
      </g>
      <path d="M83.559,435.095 L129.23,301.1" fill-opacity="0" stroke="#116FFF" stroke-width="16"/>
      <path d="M203.541,435.095 L249.213,301.1" fill-opacity="0" stroke="#116FFF" stroke-width="16"/>
      <path d="M185.541,435.095 L139.869,301.1" fill-opacity="0" stroke="#116FFF" stroke-width="16"/>
      <path d="M424.001,435.095 L378.329,301.1" fill-opacity="0" stroke="#116FFF" stroke-width="16"/>
      <path d="M306.207,435.095 L260.535,301.1" fill-opacity="0" stroke="#116FFF" stroke-width="16"/>
      <path d="M322.104,435.095 L367.775,301.1" fill-opacity="0" stroke="#116FFF" stroke-width="16"/>
    </g>
    <g/>
    <g/>
  </g>
  <text style="fill: rgb(18, 110, 255); font-family: &quot;Abhaya Libre&quot;; font-size: 43.2px; paint-order: fill; stroke-width: 7.21032px; white-space: pre; opacity: 0.8;" transform="matrix(3.621095, 0, 0, 3.172911, -721.200134, -481.585541)" x="217.81" y="186.016">(x, y)</text>
  <g transform="matrix(-0.003271, -0.461997, 0.588712, -0.004167, 180.213547, 252.981842)" style="">
    <path d="M22.165,139.464 C22.164,136.26 22.164,106.717 22.164,102.459 C22.164,98.201 24.691,96.446 27.404,96.433 C30.118,96.419 167.824,96.433 173.592,96.433 C179.361,96.433 183.046,91.947 183.046,88.238 C183.046,84.53 183.046,75.593 183.046,69.412 C183.046,63.074 189.936,60.76 196.116,66.116 C204.347,73.25 234.781,103.346 242.504,110.35 C250.227,117.354 253.733,121.612 242.504,131.775 C231.275,141.938 201.584,171.92 196.147,176.767 C190.71,181.615 183.046,178.078 183.046,171.724 C183.046,165.37 183.046,159.318 183.046,154.274 C183.046,149.23 178.395,145.562 173.613,145.562 C168.831,145.562 35.166,145.659 27.404,145.562 C22.164,145.496 22.165,141.619 22.165,139.464 z" style="fill: rgb(148, 193, 255);"/>
    <path d="M22.165,139.464 C22.164,136.26 22.164,106.717 22.164,102.459 C22.164,98.201 24.691,96.446 27.404,96.433 C30.118,96.419 167.824,96.433 173.592,96.433 C179.361,96.433 183.046,91.947 183.046,88.238 C183.046,84.53 183.046,75.593 183.046,69.412 C183.046,63.074 189.936,60.76 196.116,66.116 C204.347,73.25 234.781,103.346 242.504,110.35 C250.227,117.354 253.733,121.612 242.504,131.775 C231.275,141.938 201.584,171.92 196.147,176.767 C190.71,181.615 183.046,178.078 183.046,171.724 C183.046,165.37 183.046,159.318 183.046,154.274 C183.046,149.23 178.395,145.562 173.613,145.562 C168.831,145.562 35.166,145.659 27.404,145.562 C22.164,145.496 22.165,141.619 22.165,139.464 z" fill-opacity="0" stroke-width="6" stroke-linecap="round" stroke-linejoin="bevel" style="fill: rgb(148, 193, 255); stroke: rgb(18, 110, 255);"/>
    <g transform="matrix(-0.01532, 1.698538, -2.164408, -0.012026, 520.066956, -317.414612)"/>
  </g>
</svg>