<?xml version="1.0" encoding="UTF-8"?>
<!DOCTYPE svg PUBLIC "-//W3C//DTD SVG 1.1//EN" "http://www.w3.org/Graphics/SVG/1.1/DTD/svg11.dtd">
<svg version="1.1" xmlns="http://www.w3.org/2000/svg" xmlns:xlink="http://www.w3.org/1999/xlink" x="0" y="0" width="512" height="512" viewBox="0, 0, 512, 512">
  <g id="_x32_1_Volume">
    <path d="M127.914,121.205 L127.914,484.39 C127.914,494.094 120.064,501.944 110.305,501.944 L60.152,501.944 C50.394,501.944 42.543,494.094 42.543,484.39 L42.543,121.205 C42.543,111.447 50.393,103.597 60.152,103.597 L110.305,103.597 C120.063,103.596 127.914,111.447 127.914,121.205 z" fill="#E7C9FF"/>
    <path d="M241.762,74.436 L241.762,484.39 C241.762,494.094 233.912,501.944 224.153,501.944 L174,501.944 C164.242,501.944 156.391,494.094 156.391,484.39 L156.391,74.436 C156.391,64.678 164.241,56.828 174,56.828 L224.153,56.828 C233.912,56.827 241.762,64.678 241.762,74.436 z" fill="#DB80FF"/>
    <path d="M355.611,27.667 L355.611,484.39 C355.611,494.094 347.761,501.944 338.002,501.944 L287.849,501.944 C278.091,501.944 270.24,494.094 270.24,484.39 L270.24,27.667 C270.24,17.909 278.09,10.059 287.849,10.059 L338.002,10.059 C347.761,10.059 355.611,17.909 355.611,27.667 z" fill="#E7C9FF"/>
    <path d="M469.46,121.205 L469.46,484.39 C469.46,494.094 461.61,501.944 451.851,501.944 L401.698,501.944 C391.94,501.944 384.089,494.094 384.089,484.39 L384.089,121.205 C384.089,111.447 391.939,103.597 401.698,103.597 L451.851,103.597 C461.609,103.596 469.46,111.447 469.46,121.205 z" fill="#DB80FF"/>
    <g>
      <path d="M42.543,232.178 L42.543,484.39 C42.543,494.094 50.393,501.944 60.152,501.944 L110.305,501.944 C120.063,501.944 127.914,494.094 127.914,484.39 L127.914,232.178 z" fill="#FFFFFF"/>
      <path d="M156.392,185.409 L156.392,484.39 C156.392,494.094 164.242,501.944 174.001,501.944 L224.154,501.944 C233.912,501.944 241.763,494.094 241.763,484.39 L241.763,185.409 z" fill="#FFFFFF"/>
      <path d="M270.24,138.64 L270.24,484.39 C270.24,494.094 278.09,501.944 287.849,501.944 L338.002,501.944 C347.76,501.944 355.611,494.094 355.611,484.39 L355.611,138.64 z" fill="#FFFFFF"/>
      <path d="M384.089,232.178 L384.089,484.39 C384.089,494.094 391.939,501.944 401.698,501.944 L451.851,501.944 C461.609,501.944 469.46,494.094 469.46,484.39 L469.46,232.178 z" fill="#FFFFFF"/>
    </g>
    <path d="M60.152,98.364 C47.555,98.364 37.31,108.61 37.31,121.204 L37.31,484.39 C37.31,496.953 47.556,507.176 60.152,507.176 L110.303,507.176 C122.9,507.176 133.145,496.953 133.145,484.39 C133.145,425.865 133.145,221.251 133.145,121.204 C133.145,108.61 122.899,98.364 110.303,98.364 z M122.681,484.389 C122.681,491.183 117.126,496.71 110.304,496.71 L60.152,496.71 C53.33,496.71 47.775,491.183 47.775,484.389 L47.775,237.412 L122.68,237.412 L122.68,484.389 z M122.681,121.204 L122.681,226.946 L47.776,226.946 L47.776,121.204 C47.776,114.382 53.331,108.83 60.153,108.83 L110.304,108.83 C117.126,108.829 122.681,114.382 122.681,121.204 z" fill="#AA00EE"/>
    <path d="M174.002,51.595 C161.405,51.595 151.16,61.841 151.16,74.435 L151.16,484.389 C151.16,496.952 161.406,507.175 174.002,507.175 L224.153,507.175 C236.75,507.175 246.995,496.952 246.995,484.389 C246.995,360.021 246.995,195.082 246.995,74.435 C246.995,61.841 236.749,51.595 224.153,51.595 z M236.53,484.389 C236.53,491.183 230.975,496.71 224.153,496.71 L174.002,496.71 C167.18,496.71 161.625,491.183 161.625,484.389 L161.625,190.641 L236.53,190.641 z M236.53,74.435 L236.53,180.175 L161.625,180.175 L161.625,74.435 C161.625,67.613 167.18,62.061 174.002,62.061 L224.153,62.061 C230.975,62.061 236.53,67.613 236.53,74.435 z" fill="#AA00EE"/>
    <path d="M287.847,4.825 C275.256,4.825 265.01,15.071 265.01,27.667 L265.01,484.389 C265.01,496.952 275.256,507.175 287.847,507.175 L338.003,507.175 C350.6,507.175 360.845,496.952 360.845,484.389 C360.845,443.863 360.845,87.081 360.845,27.667 C360.845,15.07 350.599,4.825 338.003,4.825 L287.847,4.825 z M350.38,484.389 C350.38,491.183 344.825,496.71 338.003,496.71 L287.847,496.71 C281.025,496.71 275.475,491.183 275.475,484.389 L275.475,143.872 L350.38,143.872 z M350.38,27.667 L350.38,133.407 L275.475,133.407 L275.475,27.667 C275.475,20.842 281.025,15.29 287.847,15.29 L338.003,15.29 C344.825,15.29 350.38,20.842 350.38,27.667 z" fill="#AA00EE"/>
    <path d="M401.696,98.364 C389.099,98.364 378.854,108.61 378.854,121.204 L378.854,484.39 C378.854,496.953 389.1,507.176 401.696,507.176 L451.852,507.176 C464.443,507.176 474.689,496.953 474.689,484.39 C474.689,425.865 474.689,221.251 474.689,121.204 C474.689,108.61 464.443,98.364 451.852,98.364 z M464.224,484.389 C464.224,491.183 458.674,496.71 451.852,496.71 L401.696,496.71 C394.874,496.71 389.319,491.183 389.319,484.389 L389.319,237.412 L464.224,237.412 z M464.224,121.204 L464.224,226.946 L389.319,226.946 L389.319,121.204 C389.319,114.382 394.874,108.83 401.696,108.83 L451.852,108.83 C458.675,108.829 464.224,114.382 464.224,121.204 z" fill="#AA00EE"/>
  </g>
</svg>
