<?xml version="1.0" encoding="UTF-8"?>
<!DOCTYPE svg PUBLIC "-//W3C//DTD SVG 1.1//EN" "http://www.w3.org/Graphics/SVG/1.1/DTD/svg11.dtd">
<svg version="1.1" xmlns="http://www.w3.org/2000/svg" xmlns:xlink="http://www.w3.org/1999/xlink" x="0" y="0" width="512.004" height="512.004" viewBox="0, 0, 512.004, 512.004">
  <g id="connected-selected" display="none">
    <path d="M481.539,52.376 L458.251,29.089 C455.051,25.889 449.385,25.889 446.185,29.089 L376.314,98.96 C372.978,102.296 372.978,107.69 376.314,111.026 L399.601,134.313 C401.197,135.917 403.373,136.813 405.634,136.813 C407.895,136.813 410.063,135.917 411.667,134.313 L481.538,64.442 C484.875,61.106 484.875,55.713 481.539,52.376 z M405.635,116.214 L394.414,104.993 L452.219,47.188 L463.44,58.409 L405.635,116.214 z" fill="#126EFF"/>
    <path d="M417.07,127.657 L382.971,93.558 C372.987,83.574 356.757,83.574 346.773,93.558 L335.543,104.779 C333.939,106.375 333.043,108.542 333.043,110.812 C333.043,113.073 333.939,115.241 335.543,116.845 L393.775,175.076 C395.371,176.68 397.547,177.576 399.808,177.576 C402.078,177.576 404.245,176.671 405.85,175.076 L417.071,163.855 C427.054,153.871 427.054,137.641 417.07,127.657 z M404.995,151.781 L399.807,156.969 L353.65,110.804 L358.838,105.616 C362.166,102.305 367.576,102.288 370.904,105.616 L404.995,139.715 C408.323,143.043 408.323,148.453 404.995,151.781 z" fill="#126EFF"/>
    <path d="M410.192,167.354 L343.257,100.419 C330.363,87.525 313.228,80.425 294.992,80.425 C276.765,80.425 259.63,87.525 246.736,100.419 L195.801,151.354 C194.197,152.95 193.301,155.117 193.301,157.387 C193.301,159.657 194.197,161.816 195.801,163.42 L347.191,314.818 C348.855,316.482 351.04,317.318 353.224,317.318 C355.409,317.318 357.593,316.482 359.257,314.818 L410.192,263.883 C436.799,237.268 436.799,193.961 410.192,167.354 z M398.126,251.817 L353.224,296.719 L213.899,157.387 L258.801,112.493 C268.469,102.825 281.32,97.5 294.991,97.5 C308.67,97.5 321.521,102.825 331.189,112.493 L398.124,179.428 C418.076,199.38 418.076,231.858 398.126,251.817 z" fill="#126EFF"/>
    <path d="M398.061,251.81 L353.159,296.712 L213.834,157.38 L258.736,112.486 C268.404,102.818 281.255,97.493 294.926,97.493 C308.605,97.493 321.456,102.818 331.124,112.486 L398.059,179.421 C418.011,199.373 418.011,231.851 398.061,251.81 z" fill="#E29AFF"/>
    <path d="M341.797,145.543 L318.501,122.238 C305.539,109.284 284.47,109.284 271.517,122.238 L248.221,145.543 C244.884,148.88 244.884,154.273 248.221,157.609 C251.558,160.945 256.959,160.945 260.287,157.609 L283.583,134.304 C289.889,128.006 300.138,128.006 306.435,134.304 L329.731,157.609 C331.395,159.273 333.58,160.109 335.764,160.109 C337.94,160.109 340.124,159.273 341.797,157.609 C345.133,154.273 345.133,148.879 341.797,145.543 z" fill="#126EFF"/>
    <path d="M134.093,400.187 L110.806,376.9 C109.21,375.296 107.034,374.4 104.773,374.4 C102.512,374.4 100.344,375.296 98.74,376.9 L28.868,446.771 C25.532,450.108 25.532,455.501 28.868,458.837 L52.155,482.124 C53.751,483.728 55.927,484.624 58.188,484.624 C60.458,484.624 62.625,483.728 64.221,482.124 L134.092,412.253 C137.429,408.917 137.429,403.524 134.093,400.187 z M58.189,464.025 L46.968,452.804 L104.773,394.999 L115.994,406.22 L58.189,464.025 z" fill="#126EFF"/>
    <path d="M174.848,394.376 L116.617,336.145 C115.021,334.541 112.845,333.645 110.584,333.645 C108.323,333.645 106.155,334.541 104.551,336.145 L93.33,347.366 C83.346,357.35 83.346,373.58 93.33,383.564 L127.429,417.663 C132.421,422.655 138.975,425.147 145.528,425.147 C152.081,425.147 158.635,422.655 163.619,417.663 L174.849,406.442 C176.453,404.846 177.349,402.679 177.349,400.409 C177.348,398.148 176.452,395.981 174.848,394.376 z M151.578,405.589 C148.25,408.9 142.84,408.917 139.512,405.589 L105.413,371.49 C102.085,368.162 102.085,362.752 105.413,359.424 L110.601,354.236 L156.766,400.401 L151.578,405.589 z" fill="#126EFF"/>
    <path d="M326.247,336.128 L174.857,184.738 C171.657,181.538 165.991,181.538 162.791,184.738 L100.208,247.321 C73.601,273.936 73.601,317.243 100.208,343.85 L167.143,410.785 C180.037,423.679 197.172,430.779 215.408,430.779 C233.644,430.779 250.779,423.679 263.673,410.777 L326.248,348.194 C329.583,344.857 329.583,339.464 326.247,336.128 z M251.597,398.72 C241.929,408.388 229.078,413.713 215.407,413.713 C201.728,413.713 188.877,408.388 179.209,398.72 L112.274,331.785 C92.323,311.834 92.323,279.356 112.274,259.397 L168.824,202.847 L308.139,342.171 L251.597,398.72 z" fill="#126EFF"/>
    <path d="M251.597,398.72 C241.929,408.388 229.078,413.713 215.407,413.713 C201.728,413.713 188.877,408.388 179.209,398.72 L112.274,331.785 C92.323,311.834 92.323,279.356 112.274,259.397 L168.824,202.847 L308.139,342.171 L251.597,398.72 z" fill="#E29AFF"/>
    <path d="M279.663,336.136 L174.857,231.33 C171.521,227.993 166.127,227.993 162.791,231.33 L116.208,277.913 C112.871,281.25 112.871,286.643 116.208,289.979 L221.023,394.785 C222.687,396.449 224.872,397.285 227.056,397.285 C229.232,397.285 231.417,396.449 233.081,394.785 L279.664,348.202 C283,344.866 283,339.473 279.663,336.136 z M227.047,376.687 L134.307,283.947 L168.824,249.43 L261.564,342.17 L227.047,376.687 z" fill="#126EFF"/>
    <path d="M231.44,314.497 L196.505,279.553 C193.168,276.217 187.775,276.216 184.439,279.553 C181.103,282.89 181.103,288.283 184.439,291.619 L219.374,326.563 C221.038,328.227 223.223,329.063 225.407,329.063 C227.591,329.063 229.776,328.227 231.44,326.563 C234.777,323.226 234.777,317.833 231.44,314.497 z" fill="#126EFF"/>
  </g>
  <g id="connected">
    <path d="M481.539,52.376 L458.251,29.089 C455.051,25.889 449.385,25.889 446.185,29.089 L376.314,98.96 C372.978,102.296 372.978,107.69 376.314,111.026 L399.601,134.313 C401.197,135.917 403.373,136.813 405.634,136.813 C407.895,136.813 410.063,135.917 411.667,134.313 L481.538,64.442 C484.875,61.106 484.875,55.713 481.539,52.376 z M405.635,116.214 L394.414,104.993 L452.219,47.188 L463.44,58.409 L405.635,116.214 z" fill="#126EFF"/>
    <path d="M417.07,127.657 L382.971,93.558 C372.987,83.574 356.757,83.574 346.773,93.558 L335.543,104.779 C333.939,106.375 333.043,108.542 333.043,110.812 C333.043,113.073 333.939,115.241 335.543,116.845 L393.775,175.076 C395.371,176.68 397.547,177.576 399.808,177.576 C402.078,177.576 404.245,176.671 405.85,175.076 L417.071,163.855 C427.054,153.871 427.054,137.641 417.07,127.657 z M404.995,151.781 L399.807,156.969 L353.65,110.804 L358.838,105.616 C362.166,102.305 367.576,102.288 370.904,105.616 L404.995,139.715 C408.323,143.043 408.323,148.453 404.995,151.781 z" fill="#126EFF"/>
    <path d="M410.192,167.354 L343.257,100.419 C330.363,87.525 313.228,80.425 294.992,80.425 C276.765,80.425 259.63,87.525 246.736,100.419 L195.801,151.354 C194.197,152.95 193.301,155.117 193.301,157.387 C193.301,159.657 194.197,161.816 195.801,163.42 L347.191,314.818 C348.855,316.482 351.04,317.318 353.224,317.318 C355.409,317.318 357.593,316.482 359.257,314.818 L410.192,263.883 C436.799,237.268 436.799,193.961 410.192,167.354 z M398.126,251.817 L353.224,296.719 L213.899,157.387 L258.801,112.493 C268.469,102.825 281.32,97.5 294.991,97.5 C308.67,97.5 321.521,102.825 331.189,112.493 L398.124,179.428 C418.076,199.38 418.076,231.858 398.126,251.817 z" fill="#126EFF"/>
    <path d="M398.061,251.81 L353.159,296.712 L213.834,157.38 L258.736,112.486 C268.404,102.818 281.255,97.493 294.926,97.493 C308.605,97.493 321.456,102.818 331.124,112.486 L398.059,179.421 C418.011,199.373 418.011,231.851 398.061,251.81 z" fill="#A5CBFF"/>
    <path d="M341.797,145.543 L318.501,122.238 C305.539,109.284 284.47,109.284 271.517,122.238 L248.221,145.543 C244.884,148.88 244.884,154.273 248.221,157.609 C251.558,160.945 256.959,160.945 260.287,157.609 L283.583,134.304 C289.889,128.006 300.138,128.006 306.435,134.304 L329.731,157.609 C331.395,159.273 333.58,160.109 335.764,160.109 C337.94,160.109 340.124,159.273 341.797,157.609 C345.133,154.273 345.133,148.879 341.797,145.543 z" fill="#126EFF"/>
    <path d="M134.093,400.187 L110.806,376.9 C109.21,375.296 107.034,374.4 104.773,374.4 C102.512,374.4 100.344,375.296 98.74,376.9 L28.868,446.771 C25.532,450.108 25.532,455.501 28.868,458.837 L52.155,482.124 C53.751,483.728 55.927,484.624 58.188,484.624 C60.458,484.624 62.625,483.728 64.221,482.124 L134.092,412.253 C137.429,408.917 137.429,403.524 134.093,400.187 z M58.189,464.025 L46.968,452.804 L104.773,394.999 L115.994,406.22 L58.189,464.025 z" fill="#126EFF"/>
    <path d="M174.848,394.376 L116.617,336.145 C115.021,334.541 112.845,333.645 110.584,333.645 C108.323,333.645 106.155,334.541 104.551,336.145 L93.33,347.366 C83.346,357.35 83.346,373.58 93.33,383.564 L127.429,417.663 C132.421,422.655 138.975,425.147 145.528,425.147 C152.081,425.147 158.635,422.655 163.619,417.663 L174.849,406.442 C176.453,404.846 177.349,402.679 177.349,400.409 C177.348,398.148 176.452,395.981 174.848,394.376 z M151.578,405.589 C148.25,408.9 142.84,408.917 139.512,405.589 L105.413,371.49 C102.085,368.162 102.085,362.752 105.413,359.424 L110.601,354.236 L156.766,400.401 L151.578,405.589 z" fill="#126EFF"/>
    <path d="M326.247,336.128 L174.857,184.738 C171.657,181.538 165.991,181.538 162.791,184.738 L100.208,247.321 C73.601,273.936 73.601,317.243 100.208,343.85 L167.143,410.785 C180.037,423.679 197.172,430.779 215.408,430.779 C233.644,430.779 250.779,423.679 263.673,410.777 L326.248,348.194 C329.583,344.857 329.583,339.464 326.247,336.128 z M251.597,398.72 C241.929,408.388 229.078,413.713 215.407,413.713 C201.728,413.713 188.877,408.388 179.209,398.72 L112.274,331.785 C92.323,311.834 92.323,279.356 112.274,259.397 L168.824,202.847 L308.139,342.171 L251.597,398.72 z" fill="#126EFF"/>
    <path d="M251.597,398.72 C241.929,408.388 229.078,413.713 215.407,413.713 C201.728,413.713 188.877,408.388 179.209,398.72 L112.274,331.785 C92.323,311.834 92.323,279.356 112.274,259.397 L168.824,202.847 L308.139,342.171 L251.597,398.72 z" fill="#A5CBFF"/>
    <path d="M279.663,336.136 L174.857,231.33 C171.521,227.993 166.127,227.993 162.791,231.33 L116.208,277.913 C112.871,281.25 112.871,286.643 116.208,289.979 L221.023,394.785 C222.687,396.449 224.872,397.285 227.056,397.285 C229.232,397.285 231.417,396.449 233.081,394.785 L279.664,348.202 C283,344.866 283,339.473 279.663,336.136 z M227.047,376.687 L134.307,283.947 L168.824,249.43 L261.564,342.17 L227.047,376.687 z" fill="#126EFF"/>
    <path d="M231.44,314.497 L196.505,279.553 C193.168,276.217 187.775,276.216 184.439,279.553 C181.103,282.89 181.103,288.283 184.439,291.619 L219.374,326.563 C221.038,328.227 223.223,329.063 225.407,329.063 C227.591,329.063 229.776,328.227 231.44,326.563 C234.777,323.226 234.777,317.833 231.44,314.497 z" fill="#126EFF"/>
  </g>
</svg>
