<svg enable-background="new 0 0 512 512" height="512" viewBox="0 0 512 512" width="512" xmlns="http://www.w3.org/2000/svg"><g id="_x32_1_Volume"><g><path d="m127.914 121.205v363.185c0 9.704-7.85 17.554-17.609 17.554h-50.153c-9.758 0-17.609-7.85-17.609-17.554v-363.185c0-9.758 7.85-17.608 17.609-17.608h50.153c9.758-.001 17.609 7.85 17.609 17.608z" fill="#d7e9ff"/><path d="m241.762 74.436v409.954c0 9.704-7.85 17.554-17.609 17.554h-50.153c-9.758 0-17.609-7.85-17.609-17.554v-409.954c0-9.758 7.85-17.608 17.609-17.608h50.153c9.759-.001 17.609 7.85 17.609 17.608z" fill="#94c1ff"/><path d="m355.611 27.667v456.723c0 9.704-7.85 17.554-17.609 17.554h-50.153c-9.758 0-17.609-7.85-17.609-17.554v-456.723c0-9.758 7.85-17.608 17.609-17.608h50.153c9.759 0 17.609 7.85 17.609 17.608z" fill="#d7e9ff"/><path d="m469.46 121.205v363.185c0 9.704-7.85 17.554-17.609 17.554h-50.153c-9.758 0-17.609-7.85-17.609-17.554v-363.185c0-9.758 7.85-17.608 17.609-17.608h50.153c9.758-.001 17.609 7.85 17.609 17.608z" fill="#94c1ff"/><g fill="#fff"><path d="m42.543 232.178v252.212c0 9.704 7.85 17.554 17.609 17.554h50.153c9.758 0 17.609-7.85 17.609-17.554v-252.212z"/><path d="m156.392 185.409v298.981c0 9.704 7.85 17.554 17.609 17.554h50.153c9.758 0 17.609-7.85 17.609-17.554v-298.981z"/><path d="m270.24 138.64v345.75c0 9.704 7.85 17.554 17.609 17.554h50.153c9.758 0 17.609-7.85 17.609-17.554v-345.75z"/><path d="m384.089 232.178v252.212c0 9.704 7.85 17.554 17.609 17.554h50.153c9.758 0 17.609-7.85 17.609-17.554v-252.212z"/></g><path d="m60.152 98.364c-12.597 0-22.842 10.246-22.842 22.84v363.186c0 12.563 10.246 22.786 22.842 22.786h50.151c12.597 0 22.842-10.223 22.842-22.786 0-58.525 0-263.139 0-363.186 0-12.594-10.246-22.84-22.842-22.84zm62.529 386.025c0 6.794-5.555 12.321-12.377 12.321h-50.152c-6.822 0-12.377-5.527-12.377-12.321v-246.977h74.905v246.977zm0-363.185v105.742h-74.905v-105.742c0-6.822 5.555-12.374 12.377-12.374h50.151c6.822-.001 12.377 5.552 12.377 12.374z" fill="#116fff"/><path d="m174.002 51.595c-12.597 0-22.842 10.246-22.842 22.84v409.954c0 12.563 10.246 22.786 22.842 22.786h50.151c12.597 0 22.842-10.223 22.842-22.786 0-124.368 0-289.307 0-409.954 0-12.594-10.246-22.84-22.842-22.84zm62.528 432.794c0 6.794-5.555 12.321-12.377 12.321h-50.151c-6.822 0-12.377-5.527-12.377-12.321v-293.748h74.905zm0-409.954v105.74h-74.905v-105.74c0-6.822 5.555-12.374 12.377-12.374h50.151c6.822 0 12.377 5.552 12.377 12.374z" fill="#116fff"/><path d="m287.847 4.825c-12.591 0-22.837 10.246-22.837 22.842v456.722c0 12.563 10.246 22.786 22.837 22.786h50.156c12.597 0 22.842-10.223 22.842-22.786 0-40.526 0-397.308 0-456.722 0-12.597-10.246-22.842-22.842-22.842h-50.156zm62.533 479.564c0 6.794-5.555 12.321-12.377 12.321h-50.156c-6.822 0-12.372-5.527-12.372-12.321v-340.517h74.905zm0-456.722v105.74h-74.905v-105.74c0-6.825 5.55-12.377 12.372-12.377h50.156c6.822 0 12.377 5.552 12.377 12.377z" fill="#116fff"/><path d="m401.696 98.364c-12.597 0-22.842 10.246-22.842 22.84v363.186c0 12.563 10.246 22.786 22.842 22.786h50.156c12.591 0 22.837-10.223 22.837-22.786 0-58.525 0-263.139 0-363.186 0-12.594-10.246-22.84-22.837-22.84zm62.528 386.025c0 6.794-5.55 12.321-12.372 12.321h-50.156c-6.822 0-12.377-5.527-12.377-12.321v-246.977h74.905zm0-363.185v105.742h-74.905v-105.742c0-6.822 5.555-12.374 12.377-12.374h50.156c6.823-.001 12.372 5.552 12.372 12.374z" fill="#116fff"/></g></g></svg>