<?xml version="1.0" encoding="UTF-8"?>
<!DOCTYPE svg PUBLIC "-//W3C//DTD SVG 1.1//EN" "http://www.w3.org/Graphics/SVG/1.1/DTD/svg11.dtd">
<svg version="1.1" xmlns="http://www.w3.org/2000/svg" x="0" y="0" width="24" height="24"
     viewBox="0, 0, 24, 24">
  <g id="Layer_1">
    <g>
      <path d="M4.734,6.295 C5.272,6.639 5.771,6.995 5.81,6.951 C7.848,4.624 10.391,3.968 12.397,4.001 C14.27,3.992 19.045,5.363 19.962,10.638 C19.963,11.192 19.586,11.556 19.189,11.561 C18.793,11.565 18.363,11.376 18.234,10.687 C17.877,8.778 15.844,5.864 12.38,5.755 C11.003,5.732 9.009,5.983 7.342,7.901 C7.841,8.225 7.628,8.086 8.174,8.426 C8.392,8.568 8.536,9.003 8.19,9.212 C7.356,9.702 5.913,10.506 4.692,11.126 C4.299,11.271 4.037,11.099 4,10.704 C4.063,9.306 4.115,8.554 4.13,6.623 C4.128,6.392 4.286,6.009 4.734,6.295 z" fill="#000000"/>
      <path d="M19.266,17.705 C18.728,17.361 18.229,17.005 18.19,17.049 C16.152,19.376 13.609,20.032 11.603,19.999 C9.73,20.008 4.955,18.637 4.038,13.362 C4.037,12.808 4.414,12.444 4.811,12.439 C5.207,12.435 5.637,12.624 5.766,13.313 C6.123,15.222 8.156,18.136 11.62,18.245 C12.997,18.268 14.991,18.017 16.658,16.099 C16.159,15.775 16.372,15.914 15.826,15.574 C15.608,15.432 15.464,14.997 15.81,14.788 C16.644,14.298 18.087,13.494 19.308,12.874 C19.701,12.729 19.963,12.901 20,13.296 C19.937,14.694 19.885,15.446 19.87,17.377 C19.872,17.608 19.714,17.991 19.266,17.705 z" fill="#000000"/>
    </g>
  </g>
</svg>
