<?xml version="1.0" encoding="UTF-8"?>
<!DOCTYPE svg PUBLIC "-//W3C//DTD SVG 1.1//EN" "http://www.w3.org/Graphics/SVG/1.1/DTD/svg11.dtd">
<svg version="1.1" xmlns="http://www.w3.org/2000/svg" xmlns:xlink="http://www.w3.org/1999/xlink" x="0" y="0" width="512" height="512" viewBox="0, 0, 512, 512">
  <g id="_x30_3_Landing_Page">
    <g>
      <path d="M91.424,400.454 L157.697,263.637 C159.015,260.842 159.543,257.89 159.332,254.937 C159.279,252.671 158.646,250.456 157.645,248.4 L91.475,111.581 C84.147,96.45 100.229,80.791 115.096,88.383 L412.881,240.439 C419.262,243.655 422.371,249.823 422.425,255.993 C422.372,262.162 419.262,268.329 412.881,271.547 L115.096,423.603 C100.176,431.245 84.148,415.533 91.424,400.454 z" fill="#94C1FF"/>
      <path d="M159.333,254.936 C159.28,252.67 158.647,250.455 157.646,248.399 L91.476,111.58 C84.148,96.449 100.23,80.79 115.097,88.382 L412.882,240.438 C419.263,243.654 422.372,249.822 422.426,255.992 L161.335,255.991 z" fill="#94C1FF"/>
      <path d="M161.366,256.002 L422.406,256.002" fill="#41B3E7"/>
      <path d="M118.493,81.767 C97.19,70.892 74.324,93.34 84.735,114.82 L150.972,251.637 C152.313,254.409 152.313,257.591 150.974,260.361 L84.737,397.184 C74.307,418.716 97.241,441.09 118.491,430.237 L416.272,278.197 C424.665,273.923 429.86,265.413 429.862,256.004 C429.864,246.594 424.656,238.091 416.277,233.809 z M98.152,108.323 C93.899,99.518 103.275,90.746 111.713,95.046 C428.216,256.808 409.595,246.782 411.601,248.548 L165.592,248.546 C165.23,247.401 164.925,246.243 164.392,245.142 z M111.715,416.953 C103.165,421.317 93.977,412.325 98.155,403.682 L164.392,266.859 C164.925,265.759 165.228,264.6 165.592,263.456 L411.508,263.458 C409.047,265.591 426.318,256.106 111.715,416.953 z" fill="#116FFF"/>
    </g>
  </g>
</svg>
