<?xml version="1.0" encoding="UTF-8"?>
<!DOCTYPE svg PUBLIC "-//W3C//DTD SVG 1.1//EN" "http://www.w3.org/Graphics/SVG/1.1/DTD/svg11.dtd">
<svg version="1.1" xmlns="http://www.w3.org/2000/svg" xmlns:xlink="http://www.w3.org/1999/xlink" x="0" y="0" width="512" height="512" viewBox="0, 0, 512, 512">
  <g id="_x32_7_Gap_Analysis">
    <path d="M273.902,340.457 C273.902,383.971 238.627,419.247 195.112,419.247 C151.597,419.247 116.322,383.971 116.322,340.457 C116.322,296.942 151.597,261.667 195.112,261.667 C238.627,261.667 273.902,296.942 273.902,340.457 z" fill="#FFFFFF"/>
    <path d="M215.258,485.506 C215.258,496.64 206.246,505.68 195.111,505.68 C183.976,505.68 174.964,496.641 174.964,485.506 C174.964,477.541 179.594,439.591 186.319,418.755 C189.213,419.086 192.134,419.251 195.111,419.251 C198.087,419.251 201.009,419.085 203.903,418.755 C210.628,439.591 215.258,477.541 215.258,485.506 z" fill="#DB7FFF"/>
    <path d="M107.561,186.352 L107.561,382.264 C107.561,389.453 101.733,395.281 94.544,395.281 L52.129,395.281 C44.94,395.281 39.112,389.453 39.112,382.264 L39.112,186.352 C39.112,179.163 44.94,173.335 52.129,173.335 L94.543,173.335 C101.732,173.335 107.561,179.163 107.561,186.352 z" fill="#DB80FF"/>
    <path d="M229.336,297.326 L229.336,382.265 C229.336,389.454 223.508,395.282 216.319,395.282 L173.905,395.282 C166.716,395.282 160.888,389.454 160.888,382.265 L160.888,297.326 C160.888,290.137 166.716,284.309 173.905,284.309 L216.319,284.309 C223.508,284.308 229.336,290.137 229.336,297.326 z" fill="#E7AAFF"/>
    <path d="M351.112,104.955 L351.112,382.265 C351.112,389.454 345.284,395.282 338.095,395.282 L295.68,395.282 C288.491,395.282 282.663,389.454 282.663,382.265 L282.663,104.955 C282.663,97.766 288.491,91.938 295.68,91.938 L338.094,91.938 C345.284,91.937 351.112,97.766 351.112,104.955 z" fill="#DB80FF"/>
    <path d="M472.888,162.1 L472.888,382.265 C472.888,389.454 467.06,395.282 459.871,395.282 L417.457,395.282 C410.268,395.282 404.44,389.454 404.44,382.265 L404.44,162.1 C404.44,154.911 410.268,149.083 417.457,149.083 L459.871,149.083 C467.059,149.082 472.888,154.91 472.888,162.1 z" fill="#E7AAFF"/>
    <path d="M379.099,92.266 L427.911,98.816 C432.69,99.457 436.372,94.685 434.538,90.225 L415.81,44.675 C413.976,40.215 408.001,39.412 405.056,43.231 L374.971,82.231 C372.026,86.049 374.319,91.624 379.099,92.266 z" fill="#FFFFFF"/>
    <g>
      <path d="M216.318,278.997 L173.902,278.997 C163.796,278.997 155.573,287.22 155.573,297.326 L155.573,382.266 C155.573,392.372 163.796,400.595 173.902,400.595 L216.318,400.595 C226.424,400.595 234.647,392.372 234.647,382.266 L234.647,297.326 C234.647,287.22 226.424,278.997 216.318,278.997 z M224.022,382.266 C224.022,386.515 220.567,389.97 216.318,389.97 L173.902,389.97 C169.653,389.97 166.198,386.515 166.198,382.266 L166.198,297.326 C166.198,293.077 169.653,289.622 173.902,289.622 L216.318,289.622 C220.567,289.622 224.022,293.077 224.022,297.326 z" fill="#CE56FF"/>
      <path d="M338.092,86.625 L295.682,86.625 C285.576,86.625 277.353,94.848 277.353,104.954 L277.353,322.946 C269.269,284.953 235.478,256.355 195.111,256.355 C154.744,256.355 120.957,284.952 112.874,322.944 L112.874,186.353 C112.874,176.245 104.651,168.022 94.545,168.022 L52.129,168.022 C42.023,168.022 33.8,176.245 33.8,186.353 L33.8,382.266 C33.8,392.372 42.023,400.595 52.129,400.595 L94.545,400.595 C104.651,400.595 112.874,392.372 112.874,382.266 L112.874,357.97 C119.891,390.95 146.288,416.797 179.539,423.055 C173.579,445.063 169.655,478.12 169.655,485.506 C169.655,499.56 181.073,510.991 195.112,510.991 C209.151,510.991 220.574,499.56 220.574,485.506 C220.574,478.126 216.65,445.075 210.693,423.054 C243.941,416.794 270.338,390.947 277.355,357.969 L277.355,382.266 C277.355,392.372 285.578,400.595 295.684,400.595 L338.094,400.595 C348.205,400.595 356.428,392.372 356.428,382.266 L356.428,104.954 C356.426,94.848 348.203,86.625 338.092,86.625 z M102.249,382.266 C102.249,386.515 98.794,389.97 94.545,389.97 L52.129,389.97 C47.88,389.97 44.425,386.515 44.425,382.266 L44.425,186.353 C44.425,182.104 47.88,178.647 52.129,178.647 L94.545,178.647 C98.794,178.647 102.249,182.105 102.249,186.353 z M200.06,424.417 C205.907,445.16 209.948,478.552 209.948,485.506 C209.948,493.7 203.292,500.367 195.111,500.367 C186.935,500.367 180.279,493.701 180.279,485.506 C180.279,478.547 184.32,445.147 190.162,424.42 C190.695,424.451 194.58,424.56 195.111,424.56 C195.649,424.56 199.522,424.449 200.06,424.417 z M195.111,413.935 C154.898,413.935 121.636,381.228 121.636,340.457 C121.636,299.94 154.594,266.979 195.111,266.979 C235.628,266.979 268.591,299.94 268.591,340.457 C268.591,380.954 235.615,413.935 195.111,413.935 z M345.801,382.266 C345.801,386.515 342.341,389.97 338.092,389.97 L295.682,389.97 C291.433,389.97 287.978,386.515 287.978,382.266 L287.978,104.954 C287.978,100.705 291.433,97.25 295.682,97.25 L338.092,97.25 C342.341,97.25 345.801,100.705 345.801,104.954 z" fill="#AA00EE"/>
      <path d="M459.871,143.769 L417.455,143.769 C407.349,143.769 399.126,151.992 399.126,162.1 L399.126,382.266 C399.126,392.372 407.349,400.595 417.455,400.595 L459.871,400.595 C469.977,400.595 478.2,392.372 478.2,382.266 L478.2,162.1 C478.199,151.992 469.977,143.769 459.871,143.769 z M467.575,382.266 C467.575,386.515 464.12,389.97 459.871,389.97 L417.455,389.97 C413.206,389.97 409.751,386.515 409.751,382.266 L409.751,162.1 C409.751,157.851 413.206,154.394 417.455,154.394 L459.871,154.394 C464.12,154.394 467.575,157.852 467.575,162.1 z" fill="#CE55FF"/>
      <path d="M439.451,88.202 L420.723,42.65 C417.339,34.426 406.311,32.909 400.848,39.983 L389.05,55.279 L320.132,2.113 C317.777,0.287 314.35,0.779 312.599,3.189 L193.762,166.17 L76.196,91.084 C73.716,89.504 70.438,90.225 68.86,92.703 C67.283,95.175 68.004,98.459 70.479,100.039 L192.253,177.812 C194.614,179.326 197.757,178.727 199.402,176.466 L317.968,13.861 L382.562,63.692 L370.765,78.986 C365.313,86.046 369.563,96.344 378.391,97.53 L427.203,104.08 C436.101,105.257 442.822,96.403 439.451,88.202 z M379.179,85.476 L409.263,46.474 C409.705,45.907 410.607,45.996 410.897,46.694 L429.625,92.24 C429.917,92.948 429.31,93.655 428.613,93.547 L379.801,86.997 C379.087,86.906 378.714,86.077 379.179,85.476 z" fill="#116FFF"/>
    </g>
  </g>
</svg>
