<?xml version="1.0" encoding="UTF-8"?>
<!DOCTYPE svg PUBLIC "-//W3C//DTD SVG 1.1//EN" "http://www.w3.org/Graphics/SVG/1.1/DTD/svg11.dtd">
<svg version="1.1" xmlns="http://www.w3.org/2000/svg" xmlns:xlink="http://www.w3.org/1999/xlink" x="0" y="0" width="512" height="512" viewBox="0, 0, 512, 512">
  <g id="filter-wheel" display="none">
    <path d="M419.084,92.861 C509.183,182.96 509.183,329.039 419.084,419.138 C328.985,509.236 182.907,509.236 92.808,419.138 C2.709,329.039 2.709,182.96 92.808,92.861 C182.907,2.763 328.985,2.763 419.084,92.861 z" fill="#B9D6FF"/>
    <path d="M392.812,119.134 C468.401,194.723 468.401,317.277 392.812,392.866 C317.223,468.455 194.669,468.455 119.08,392.866 C43.491,317.277 43.491,194.723 119.08,119.134 C194.669,43.545 317.223,43.545 392.812,119.134 z" fill="#D7E9FF"/>
    <path d="M254.689,484.521 C127.664,484.521 24.689,381.546 24.689,254.521 C24.689,127.496 127.664,24.521 254.689,24.521 C381.714,24.521 484.689,127.496 484.689,254.521 C484.689,381.546 381.714,484.521 254.689,484.521 z" fill-opacity="0" stroke="#116FFF" stroke-width="9"/>
    <g>
      <path d="M256,450.045 C231.659,450.045 211.926,430.312 211.926,405.971 C211.926,381.629 231.659,361.896 256,361.896 C280.341,361.896 300.074,381.629 300.074,405.971 C300.074,430.312 280.341,450.045 256,450.045 z" fill="#0073FF"/>
      <path d="M256,450.045 C231.659,450.045 211.926,430.312 211.926,405.971 C211.926,381.629 231.659,361.896 256,361.896 C280.341,361.896 300.074,381.629 300.074,405.971 C300.074,430.312 280.341,450.045 256,450.045 z" fill-opacity="0" stroke="#116FFF" stroke-width="9"/>
    </g>
    <g>
      <path d="M106.268,300.074 C81.927,300.074 62.194,280.341 62.194,256 C62.194,231.659 81.927,211.926 106.268,211.926 C130.61,211.926 150.342,231.659 150.342,256 C150.342,280.341 130.61,300.074 106.268,300.074 z" fill="#7892B1"/>
      <path d="M106.268,300.074 C81.927,300.074 62.194,280.341 62.194,256 C62.194,231.659 81.927,211.926 106.268,211.926 C130.61,211.926 150.342,231.659 150.342,256 C150.342,280.341 130.61,300.074 106.268,300.074 z" fill-opacity="0" stroke="#116FFF" stroke-width="9"/>
    </g>
    <g>
      <path d="M360.599,404.73 C336.257,404.73 316.525,384.997 316.525,360.656 C316.525,336.314 336.257,316.582 360.599,316.582 C384.94,316.582 404.673,336.314 404.673,360.656 C404.673,384.997 384.94,404.73 360.599,404.73 z" fill="#4B9CFF"/>
      <path d="M360.599,404.73 C336.257,404.73 316.525,384.997 316.525,360.656 C316.525,336.314 336.257,316.582 360.599,316.582 C384.94,316.582 404.673,336.314 404.673,360.656 C404.673,384.997 384.94,404.73 360.599,404.73 z" fill-opacity="0" stroke="#116FFF" stroke-width="9"/>
    </g>
    <g>
      <path d="M148.157,403.49 C123.816,403.49 104.083,383.757 104.083,359.416 C104.083,335.074 123.816,315.341 148.157,315.341 C172.499,315.341 192.231,335.074 192.231,359.416 C192.231,383.757 172.499,403.49 148.157,403.49 z" fill="#B0C3D9"/>
      <path d="M148.157,403.49 C123.816,403.49 104.083,383.757 104.083,359.416 C104.083,335.074 123.816,315.341 148.157,315.341 C172.499,315.341 192.231,335.074 192.231,359.416 C192.231,383.757 172.499,403.49 148.157,403.49 z" fill-opacity="0" stroke="#116FFF" stroke-width="9"/>
    </g>
    <g>
      <path d="M147.508,197.556 C123.167,197.556 103.434,177.823 103.434,153.482 C103.434,129.14 123.167,109.407 147.508,109.407 C171.85,109.407 191.583,129.14 191.583,153.482 C191.583,177.823 171.85,197.556 147.508,197.556 z" fill="#263950"/>
      <path d="M147.508,197.556 C123.167,197.556 103.434,177.823 103.434,153.482 C103.434,129.14 123.167,109.407 147.508,109.407 C171.85,109.407 191.583,129.14 191.583,153.482 C191.583,177.823 171.85,197.556 147.508,197.556 z" fill-opacity="0" stroke="#116FFF" stroke-width="9"/>
    </g>
    <g>
      <path d="M360.427,196.315 C336.086,196.315 316.353,176.583 316.353,152.241 C316.353,127.9 336.086,108.167 360.427,108.167 C384.769,108.167 404.501,127.9 404.501,152.241 C404.501,176.583 384.769,196.315 360.427,196.315 z" fill="#B1D4FF"/>
      <path d="M360.427,196.315 C336.086,196.315 316.353,176.583 316.353,152.241 C316.353,127.9 336.086,108.167 360.427,108.167 C384.769,108.167 404.501,127.9 404.501,152.241 C404.501,176.583 384.769,196.315 360.427,196.315 z" fill-opacity="0" stroke="#116FFF" stroke-width="9"/>
    </g>
    <g>
      <path d="M404.377,300.666 C380.036,300.666 360.303,280.933 360.303,256.592 C360.303,232.25 380.036,212.517 404.377,212.517 C428.719,212.517 448.451,232.25 448.451,256.592 C448.451,280.933 428.719,300.666 404.377,300.666 z" fill="#7BB6FF"/>
      <path d="M404.377,300.666 C380.036,300.666 360.303,280.933 360.303,256.592 C360.303,232.25 380.036,212.517 404.377,212.517 C428.719,212.517 448.451,232.25 448.451,256.592 C448.451,280.933 428.719,300.666 404.377,300.666 z" fill-opacity="0" stroke="#116FFF" stroke-width="9"/>
    </g>
    <g>
      <path d="M256,151.23 C231.659,151.23 211.926,131.497 211.926,107.155 C211.926,82.814 231.659,63.081 256,63.081 C280.341,63.081 300.074,82.814 300.074,107.155 C300.074,131.497 280.341,151.23 256,151.23 z" fill="#D7E9FF"/>
      <path d="M256,151.23 C231.659,151.23 211.926,131.497 211.926,107.155 C211.926,82.814 231.659,63.081 256,63.081 C280.341,63.081 300.074,82.814 300.074,107.155 C300.074,131.497 280.341,151.23 256,151.23 z" fill-opacity="0" stroke="#116FFF" stroke-width="9"/>
    </g>
  </g>
  <g id="filter-wheel-selected">
    <path d="M419.084,92.861 C509.183,182.96 509.183,329.039 419.084,419.138 C328.985,509.236 182.907,509.236 92.808,419.138 C2.709,329.039 2.709,182.96 92.808,92.861 C182.907,2.763 328.985,2.763 419.084,92.861 z" fill="#FAC8FF"/>
    <path d="M392.812,119.134 C468.401,194.723 468.401,317.277 392.812,392.866 C317.223,468.455 194.669,468.455 119.08,392.866 C43.491,317.277 43.491,194.723 119.08,119.134 C194.669,43.545 317.223,43.545 392.812,119.134 z" fill="#FCE1FF"/>
    <path d="M254.689,484.521 C127.664,484.521 24.689,381.546 24.689,254.521 C24.689,127.496 127.664,24.521 254.689,24.521 C381.714,24.521 484.689,127.496 484.689,254.521 C484.689,381.546 381.714,484.521 254.689,484.521 z" fill-opacity="0" stroke="#D047F3" stroke-width="9"/>
    <g>
      <path d="M256,450.045 C231.659,450.045 211.926,430.312 211.926,405.971 C211.926,381.629 231.659,361.896 256,361.896 C280.341,361.896 300.074,381.629 300.074,405.971 C300.074,430.312 280.341,450.045 256,450.045 z" fill="#0073FF"/>
      <path d="M256,450.045 C231.659,450.045 211.926,430.312 211.926,405.971 C211.926,381.629 231.659,361.896 256,361.896 C280.341,361.896 300.074,381.629 300.074,405.971 C300.074,430.312 280.341,450.045 256,450.045 z" fill-opacity="0" stroke="#D047F3" stroke-width="9"/>
    </g>
    <g>
      <path d="M106.268,300.074 C81.927,300.074 62.194,280.341 62.194,256 C62.194,231.659 81.927,211.926 106.268,211.926 C130.61,211.926 150.342,231.659 150.342,256 C150.342,280.341 130.61,300.074 106.268,300.074 z" fill="#7892B1"/>
      <path d="M106.268,300.074 C81.927,300.074 62.194,280.341 62.194,256 C62.194,231.659 81.927,211.926 106.268,211.926 C130.61,211.926 150.342,231.659 150.342,256 C150.342,280.341 130.61,300.074 106.268,300.074 z" fill-opacity="0" stroke="#D047F3" stroke-width="9"/>
    </g>
    <g>
      <path d="M360.599,404.73 C336.257,404.73 316.525,384.997 316.525,360.656 C316.525,336.314 336.257,316.582 360.599,316.582 C384.94,316.582 404.673,336.314 404.673,360.656 C404.673,384.997 384.94,404.73 360.599,404.73 z" fill="#4B9CFF"/>
      <path d="M360.599,404.73 C336.257,404.73 316.525,384.997 316.525,360.656 C316.525,336.314 336.257,316.582 360.599,316.582 C384.94,316.582 404.673,336.314 404.673,360.656 C404.673,384.997 384.94,404.73 360.599,404.73 z" fill-opacity="0" stroke="#D047F3" stroke-width="9"/>
    </g>
    <g>
      <path d="M148.157,403.49 C123.816,403.49 104.083,383.757 104.083,359.416 C104.083,335.074 123.816,315.341 148.157,315.341 C172.499,315.341 192.231,335.074 192.231,359.416 C192.231,383.757 172.499,403.49 148.157,403.49 z" fill="#B0C3D9"/>
      <path d="M148.157,403.49 C123.816,403.49 104.083,383.757 104.083,359.416 C104.083,335.074 123.816,315.341 148.157,315.341 C172.499,315.341 192.231,335.074 192.231,359.416 C192.231,383.757 172.499,403.49 148.157,403.49 z" fill-opacity="0" stroke="#D047F3" stroke-width="9"/>
    </g>
    <g>
      <path d="M147.508,197.556 C123.167,197.556 103.434,177.823 103.434,153.482 C103.434,129.14 123.167,109.407 147.508,109.407 C171.85,109.407 191.583,129.14 191.583,153.482 C191.583,177.823 171.85,197.556 147.508,197.556 z" fill="#263950"/>
      <path d="M147.508,197.556 C123.167,197.556 103.434,177.823 103.434,153.482 C103.434,129.14 123.167,109.407 147.508,109.407 C171.85,109.407 191.583,129.14 191.583,153.482 C191.583,177.823 171.85,197.556 147.508,197.556 z" fill-opacity="0" stroke="#D047F3" stroke-width="9"/>
    </g>
    <g>
      <path d="M360.427,196.315 C336.086,196.315 316.353,176.583 316.353,152.241 C316.353,127.9 336.086,108.167 360.427,108.167 C384.769,108.167 404.501,127.9 404.501,152.241 C404.501,176.583 384.769,196.315 360.427,196.315 z" fill="#B1D4FF"/>
      <path d="M360.427,196.315 C336.086,196.315 316.353,176.583 316.353,152.241 C316.353,127.9 336.086,108.167 360.427,108.167 C384.769,108.167 404.501,127.9 404.501,152.241 C404.501,176.583 384.769,196.315 360.427,196.315 z" fill-opacity="0" stroke="#D047F3" stroke-width="9"/>
    </g>
    <g>
      <path d="M404.377,300.666 C380.036,300.666 360.303,280.933 360.303,256.592 C360.303,232.25 380.036,212.517 404.377,212.517 C428.719,212.517 448.451,232.25 448.451,256.592 C448.451,280.933 428.719,300.666 404.377,300.666 z" fill="#7BB6FF"/>
      <path d="M404.377,300.666 C380.036,300.666 360.303,280.933 360.303,256.592 C360.303,232.25 380.036,212.517 404.377,212.517 C428.719,212.517 448.451,232.25 448.451,256.592 C448.451,280.933 428.719,300.666 404.377,300.666 z" fill-opacity="0" stroke="#D047F3" stroke-width="9"/>
    </g>
    <g>
      <path d="M256,151.23 C231.659,151.23 211.926,131.497 211.926,107.155 C211.926,82.814 231.659,63.081 256,63.081 C280.341,63.081 300.074,82.814 300.074,107.155 C300.074,131.497 280.341,151.23 256,151.23 z" fill="#D7E9FF"/>
      <path d="M256,151.23 C231.659,151.23 211.926,131.497 211.926,107.155 C211.926,82.814 231.659,63.081 256,63.081 C280.341,63.081 300.074,82.814 300.074,107.155 C300.074,131.497 280.341,151.23 256,151.23 z" fill-opacity="0" stroke="#D047F3" stroke-width="9"/>
    </g>
  </g>
</svg>
