<?xml version="1.0" encoding="UTF-8"?>
<!DOCTYPE svg PUBLIC "-//W3C//DTD SVG 1.1//EN" "http://www.w3.org/Graphics/SVG/1.1/DTD/svg11.dtd">
<svg version="1.1" xmlns="http://www.w3.org/2000/svg" xmlns:xlink="http://www.w3.org/1999/xlink" x="0" y="0" width="240" height="160" viewBox="0, 0, 240, 160">
  <g id="Background">
    <rect x="0" y="0" width="240" height="160" fill="#000000" fill-opacity="0"/>
  </g>
  <defs>
    <radialGradient id="Gradient_1" gradientUnits="userSpaceOnUse" cx="378.428" cy="211.477" r="74.582" gradientTransform="matrix(1, 0, 0, 1, -301.847, -130.177)">
      <stop offset="0" stop-color="#000000"/>
      <stop offset="1" stop-color="#000000" stop-opacity="0"/>
    </radialGradient>
    <linearGradient id="Gradient_2" gradientUnits="userSpaceOnUse" x1="545.521" y1="197.115" x2="355.251" y2="197.115" gradientTransform="matrix(1, 0, 0, 1, -301.847, -130.177)">
      <stop offset="0" stop-color="#F9F9F9"/>
      <stop offset="1" stop-color="#5F5C5D"/>
    </linearGradient>
    <linearGradient id="Gradient_3" gradientUnits="userSpaceOnUse" x1="428.777" y1="131.432" x2="428.777" y2="254.141" gradientTransform="matrix(1, 0, 0, 1, -301.847, -130.177)">
      <stop offset="0" stop-color="#CBCACA"/>
      <stop offset="1" stop-color="#231F20"/>
    </linearGradient>
    <radialGradient id="Gradient_4" gradientUnits="userSpaceOnUse" cx="367.844" cy="196.424" r="54.194" gradientTransform="matrix(1, 0, 0, 1, -301.847, -130.177)">
      <stop offset="0" stop-color="#FFFFFF"/>
      <stop offset="1" stop-color="#FEFEFE"/>
    </radialGradient>
    <radialGradient id="Gradient_5" gradientUnits="userSpaceOnUse" cx="367.844" cy="196.424" r="53.111" gradientTransform="matrix(1, 0, 0, 1, -301.847, -130.177)">
      <stop offset="0" stop-color="#FFFFFF"/>
      <stop offset="1" stop-color="#FEFEFE"/>
    </radialGradient>
  </defs>
  <g id="Layer_3">
    <path d="M76.581,155.881 C35.391,155.881 2,122.49 2,81.3 C2,40.109 35.391,6.718 76.581,6.718 C117.772,6.718 151.163,40.109 151.163,81.3 C151.163,122.49 117.772,155.881 76.581,155.881 z" fill="url(#Gradient_1)"/>
    <path d="M69.032,6.718 C36.673,6.718 10.438,32.951 10.438,65.312 L10.438,65.312 L10.438,68.565 C10.438,100.927 36.673,127.16 69.032,127.16 L69.032,127.16 L179.708,127.16 C212.068,127.16 238.302,100.927 238.302,68.565 L238.302,68.565 L238.302,65.312 C238.302,32.951 212.068,6.718 179.708,6.718 L179.708,6.718 z" fill="url(#Gradient_2)"/>
    <path d="M238.301,68.565 C238.301,100.926 212.068,127.159 179.707,127.159 L69.032,127.159 C36.673,127.159 10.438,100.926 10.438,68.565 L10.438,65.311 C10.438,32.951 36.673,6.717 69.032,6.717 L179.707,6.717 C212.068,6.717 238.301,32.951 238.301,65.311 L238.301,68.565 z" fill-opacity="0" stroke="#000000" stroke-width="1"/>
    <path d="M75.302,10.755 C45.11,10.755 20.635,35.229 20.635,65.422 L20.635,65.422 L20.635,68.457 C20.635,98.649 45.11,123.123 75.302,123.123 L75.302,123.123 L178.558,123.123 C208.75,123.123 233.224,98.649 233.224,68.457 L233.224,68.457 L233.224,65.422 C233.224,35.229 208.75,10.755 178.558,10.755 L178.558,10.755 z" fill="url(#Gradient_3)"/>
    <g>
      <path d="M233.224,68.457 C233.224,98.648 208.75,123.124 178.558,123.124 L75.301,123.124 C45.11,123.124 20.635,98.648 20.635,68.457 L20.635,65.421 C20.635,35.229 45.11,10.755 75.301,10.755 L178.558,10.755 C208.75,10.755 233.224,35.229 233.224,65.421 L233.224,68.457 z" fill-opacity="0" stroke="#4F5654" stroke-width="1"/>
      <path d="M127.243,66.247 C127.243,100.073 99.823,127.495 65.997,127.495 C32.171,127.495 4.749,100.073 4.749,66.247 C4.749,32.422 32.171,5 65.997,5 C99.823,5 127.243,32.422 127.243,66.247" fill="#2C2C2C"/>
      <path d="M121.807,66.247 C121.807,97.071 96.821,122.059 65.996,122.059 C35.173,122.059 10.184,97.071 10.184,66.247 C10.184,35.424 35.173,10.435 65.996,10.435 C96.821,10.435 121.807,35.424 121.807,66.247" fill="#DDDDDD"/>
    </g>
    <path d="M29.183,26.472 C18.491,36.372 11.801,50.527 11.801,66.247 L11.801,66.247 C11.801,74.854 13.807,82.995 17.38,90.223 L17.38,90.223 C20.818,97.184 25.71,103.302 31.658,108.178 L31.658,108.178 C41.007,115.843 52.964,120.441 65.997,120.441 L65.997,120.441 C80.469,120.441 93.615,114.769 103.335,105.526 L103.335,105.526 C113.719,95.654 120.192,81.706 120.192,66.247 L120.192,66.247 C120.192,56.712 117.729,47.75 113.403,39.966 L113.403,39.966 C108.769,31.622 101.995,24.631 93.823,19.732 L93.823,19.732 C85.689,14.854 76.17,12.052 65.997,12.052 L65.997,12.052 C51.784,12.052 38.848,17.523 29.183,26.472 z M120.192,66.247 C120.192,66.247 120.192,66.247 120.192,66.247 z" fill="url(#Gradient_4)"/>
    <path d="M12.885,66.247 C12.885,95.579 36.664,119.359 65.997,119.359 L65.997,119.359 C95.328,119.359 119.108,95.579 119.108,66.247 L119.108,66.247 C119.108,36.915 95.328,13.136 65.997,13.136 L65.997,13.136 C36.664,13.136 12.885,36.915 12.885,66.247 z" fill="url(#Gradient_5)"/>
    <g>
      <path d="M116.507,66.247 C116.507,38.351 93.893,15.738 65.997,15.738 C38.1,15.738 15.485,38.351 15.485,66.247 C15.485,94.143 38.1,116.758 65.997,116.758 C93.893,116.758 116.507,94.143 116.507,66.247 M65.997,117.192 C37.86,117.192 15.051,94.383 15.051,66.247 C15.051,38.112 37.86,15.303 65.997,15.303 C94.132,15.303 116.939,38.112 116.939,66.247 C116.939,94.383 94.132,117.192 65.997,117.192" fill="#FFFFFF"/>
      <path d="M116.507,65.814 C116.507,37.918 93.893,15.303 65.997,15.303 C38.1,15.303 15.485,37.918 15.485,65.814 C15.485,93.709 38.1,116.323 65.997,116.323 C93.893,116.323 116.507,93.709 116.507,65.814 M65.997,116.757 C37.86,116.757 15.051,93.949 15.051,65.814 C15.051,37.678 37.86,14.869 65.997,14.869 C94.132,14.869 116.939,37.678 116.939,65.814 C116.939,93.949 94.132,116.757 65.997,116.757" fill="#58595B"/>
      <path d="M116.507,66.03 C116.507,38.134 93.893,15.519 65.997,15.519 C38.1,15.519 15.485,38.134 15.485,66.03 C15.485,93.925 38.1,116.54 65.997,116.54 C93.893,116.54 116.507,93.925 116.507,66.03 M65.997,116.974 C37.86,116.974 15.051,94.164 15.051,66.03 C15.051,37.895 37.86,15.087 65.997,15.087 C94.132,15.087 116.939,37.895 116.939,66.03 C116.939,94.164 94.132,116.974 65.997,116.974" fill="#939598"/>
      <path d="M120.192,66.247 C120.192,36.316 95.926,12.052 65.997,12.052 C36.064,12.052 11.802,36.316 11.802,66.247 C11.802,96.179 36.064,120.443 65.997,120.443 C95.926,120.443 120.192,96.179 120.192,66.247 M65.997,120.876 C35.826,120.876 11.366,96.419 11.366,66.247 C11.366,36.077 35.826,11.619 65.997,11.619 C96.166,11.619 120.625,36.077 120.625,66.247 C120.625,96.419 96.166,120.876 65.997,120.876" fill="#939598"/>
    </g>
  </g>
</svg>
