<?xml version="1.0" encoding="UTF-8"?>
<!DOCTYPE svg PUBLIC "-//W3C//DTD SVG 1.1//EN" "http://www.w3.org/Graphics/SVG/1.1/DTD/svg11.dtd">
<svg version="1.1" xmlns="http://www.w3.org/2000/svg" xmlns:xlink="http://www.w3.org/1999/xlink" x="0" y="0" width="240" height="160" viewBox="0, 0, 240, 160">
  <g id="Background">
    <rect x="0" y="0" width="240" height="160" fill="#000000" fill-opacity="0"/>
  </g>
  <defs>
    <radialGradient id="Gradient_1" gradientUnits="userSpaceOnUse" cx="480.885" cy="418.25" r="73.857" gradientTransform="matrix(1, 0, 0, 1, -316.741, -338.173)">
      <stop offset="0" stop-color="#000000"/>
      <stop offset="1" stop-color="#000000" stop-opacity="0"/>
    </radialGradient>
    <linearGradient id="Gradient_2" gradientUnits="userSpaceOnUse" x1="366.486" y1="404.956" x2="549.627" y2="402.421" gradientTransform="matrix(1, 0, 0, 1, -316.741, -338.173)">
      <stop offset="0" stop-color="#CBCACA"/>
      <stop offset="1" stop-color="#231F20"/>
    </linearGradient>
    <linearGradient id="Gradient_3" gradientUnits="userSpaceOnUse" x1="434.141" y1="338.983" x2="434.141" y2="460.5" gradientTransform="matrix(1, 0, 0, 1, -316.741, -338.173)">
      <stop offset="0" stop-color="#A9FF00"/>
      <stop offset="1" stop-color="#005600"/>
    </linearGradient>
    <radialGradient id="Gradient_4" gradientUnits="userSpaceOnUse" cx="486.885" cy="403.823" r="53.667" gradientTransform="matrix(1, 0, 0, 1, -316.741, -338.173)">
      <stop offset="0" stop-color="#FFFFFF"/>
      <stop offset="1" stop-color="#FEFEFE"/>
    </radialGradient>
    <radialGradient id="Gradient_5" gradientUnits="userSpaceOnUse" cx="486.884" cy="403.824" r="52.595" gradientTransform="matrix(1, 0, 0, 1, -316.741, -338.173)">
      <stop offset="0" stop-color="#FFFFFF"/>
      <stop offset="1" stop-color="#FEFEFE"/>
    </radialGradient>
  </defs>
  <g id="Layer_3">
    <path d="M164.144,153.932 C123.354,153.932 90.288,120.866 90.288,80.077 C90.288,39.286 123.354,6.22 164.144,6.22 C204.934,6.22 238,39.286 238,80.077 C238,120.866 204.934,153.932 164.144,153.932 z" fill="url(#Gradient_1)"/>
    <path d="M62.023,6.22 C29.979,6.22 4,32.198 4,64.244 L4,64.244 L4,67.467 C4,99.513 29.979,125.49 62.023,125.49 L62.023,125.49 L171.623,125.49 C203.668,125.49 229.647,99.513 229.647,67.467 L229.647,67.467 L229.647,64.244 C229.647,32.198 203.668,6.22 171.623,6.22 L171.623,6.22 z" fill="url(#Gradient_2)"/>
    <path d="M229.647,67.467 C229.647,99.513 203.668,125.491 171.622,125.491 L62.024,125.491 C29.979,125.491 4,99.513 4,67.467 L4,64.244 C4,32.198 29.979,6.22 62.024,6.22 L171.622,6.22 C203.668,6.22 229.647,32.198 229.647,64.244 L229.647,67.467 z" fill-opacity="0" stroke="#4F5654" stroke-width="1"/>
    <path d="M65.326,10.218 C34.879,10.218 10.192,34.455 10.192,64.352 L10.192,64.352 L10.192,67.361 C10.192,97.258 34.879,121.495 65.326,121.495 L65.326,121.495 L169.473,121.495 C199.922,121.495 224.608,97.258 224.608,67.361 L224.608,67.361 L224.608,64.352 C224.608,34.455 199.922,10.218 169.473,10.218 L169.473,10.218 z" fill="url(#Gradient_3)"/>
    <g>
      <path d="M224.608,67.36 C224.608,97.257 199.923,121.494 169.473,121.494 L65.327,121.494 C34.879,121.494 10.193,97.257 10.193,67.36 L10.193,64.352 C10.193,34.454 34.879,10.218 65.327,10.218 L169.473,10.218 C199.923,10.218 224.608,34.454 224.608,64.352 L224.608,67.36 z" fill-opacity="0" stroke="#003600" stroke-width="1"/>
      <path d="M230.797,65.65 C230.797,99.147 203.643,126.303 170.146,126.303 C136.649,126.303 109.494,99.147 109.494,65.65 C109.494,32.153 136.649,5 170.146,5 C203.643,5 230.797,32.153 230.797,65.65" fill="#2C2C2C"/>
      <path d="M225.413,65.65 C225.413,96.175 200.67,120.921 170.145,120.921 C139.62,120.921 114.875,96.175 114.875,65.65 C114.875,35.128 139.62,10.382 170.145,10.382 C200.67,10.382 225.413,35.128 225.413,65.65" fill="#DDDDDD"/>
    </g>
    <path d="M133.689,26.261 C123.102,36.068 116.476,50.084 116.476,65.648 L116.476,65.648 C116.476,74.174 118.464,82.235 122,89.393 L122,89.393 C125.406,96.288 130.251,102.344 136.141,107.174 L136.141,107.174 C145.397,114.766 157.24,119.318 170.145,119.318 L170.145,119.318 C184.477,119.318 197.494,113.701 207.121,104.547 L207.121,104.547 C217.402,94.772 223.812,80.961 223.812,65.648 L223.812,65.648 C223.812,56.208 221.373,47.334 217.091,39.626 L217.091,39.626 C212.501,31.363 205.793,24.441 197.702,19.589 L197.702,19.589 C189.646,14.759 180.219,11.983 170.145,11.983 L170.145,11.983 C156.071,11.983 143.26,17.399 133.689,26.261 z M223.812,65.648 C223.812,65.648 223.812,65.648 223.812,65.648 z" fill="url(#Gradient_4)"/>
    <path d="M117.549,65.649 C117.549,94.699 141.099,118.247 170.145,118.247 L170.145,118.247 C199.191,118.247 222.739,94.699 222.739,65.649 L222.739,65.649 C222.739,36.604 199.191,13.056 170.145,13.056 L170.145,13.056 C141.099,13.056 117.549,36.604 117.549,65.649 z" fill="url(#Gradient_5)"/>
    <g>
      <path d="M220.163,65.65 C220.163,38.026 197.77,15.634 170.145,15.634 C142.519,15.634 120.125,38.026 120.125,65.65 C120.125,93.275 142.519,115.671 170.145,115.671 C197.77,115.671 220.163,93.275 220.163,65.65 M170.145,116.1 C142.282,116.1 119.695,93.514 119.695,65.65 C119.695,37.789 142.282,15.203 170.145,15.203 C198.007,15.203 220.593,37.789 220.593,65.65 C220.593,93.514 198.007,116.1 170.145,116.1" fill="#FFFFFF"/>
      <path d="M220.163,65.221 C220.163,37.597 197.77,15.202 170.145,15.202 C142.519,15.202 120.125,37.597 120.125,65.221 C120.125,92.845 142.519,115.239 170.145,115.239 C197.77,115.239 220.163,92.845 220.163,65.221 M170.145,115.67 C142.282,115.67 119.695,93.082 119.695,65.221 C119.695,37.359 142.282,14.773 170.145,14.773 C198.007,14.773 220.593,37.359 220.593,65.221 C220.593,93.082 198.007,115.67 170.145,115.67" fill="#58595B"/>
      <path d="M220.163,65.437 C220.163,37.811 197.77,15.419 170.145,15.419 C142.519,15.419 120.125,37.811 120.125,65.437 C120.125,93.061 142.519,115.456 170.145,115.456 C197.77,115.456 220.163,93.061 220.163,65.437 M170.145,115.885 C142.282,115.885 119.695,93.297 119.695,65.437 C119.695,37.574 142.282,14.988 170.145,14.988 C198.007,14.988 220.593,37.574 220.593,65.437 C220.593,93.297 198.007,115.885 170.145,115.885" fill="#939598"/>
      <path d="M223.814,65.65 C223.814,36.009 199.783,11.982 170.146,11.982 C140.502,11.982 116.477,36.009 116.477,65.65 C116.477,95.291 140.502,119.32 170.146,119.32 C199.783,119.32 223.814,95.291 223.814,65.65 M170.146,119.748 C140.268,119.748 116.047,95.529 116.047,65.65 C116.047,35.772 140.268,11.555 170.146,11.555 C200.022,11.555 224.242,35.772 224.242,65.65 C224.242,95.529 200.022,119.748 170.146,119.748" fill="#939598"/>
    </g>
  </g>
</svg>
