<?xml version="1.0" encoding="UTF-8"?>
<!DOCTYPE svg PUBLIC "-//W3C//DTD SVG 1.1//EN" "http://www.w3.org/Graphics/SVG/1.1/DTD/svg11.dtd">
<svg xmlns="http://www.w3.org/2000/svg" version="1.1" width="2133px" height="2133px" style="shape-rendering:geometricPrecision; text-rendering:geometricPrecision; image-rendering:optimizeQuality; fill-rule:evenodd; clip-rule:evenodd" xmlns:xlink="http://www.w3.org/1999/xlink">
<g><path style="opacity:1" fill="#cd56fe" d="M 754.5,327.5 C 756.167,327.5 757.833,327.5 759.5,327.5C 781.657,328.833 804.157,329.5 827,329.5C 849.843,329.5 872.343,328.833 894.5,327.5C 896.833,327.5 899.167,327.5 901.5,327.5C 902.334,328.748 903.667,329.415 905.5,329.5C 912.829,330.37 920.162,331.203 927.5,332C 935.043,334.302 942.709,336.136 950.5,337.5C 950.833,337.5 951.167,337.5 951.5,337.5C 963.594,342.764 975.594,348.431 987.5,354.5C 987.369,355.376 987.702,356.043 988.5,356.5C 990.955,358.297 993.622,359.63 996.5,360.5C 1012.46,373.795 1027.46,388.128 1041.5,403.5C 1041.84,406.198 1043.18,408.198 1045.5,409.5C 1045.55,411.632 1046.55,412.965 1048.5,413.5C 1048.27,415.933 1049.27,417.599 1051.5,418.5C 1053.24,423.747 1055.91,428.414 1059.5,432.5C 1060.73,437.282 1062.73,441.615 1065.5,445.5C 1067.12,452.034 1069.12,458.367 1071.5,464.5C 1071.9,468.761 1072.9,472.761 1074.5,476.5C 1075.01,482.853 1075.67,489.187 1076.5,495.5C 1076.23,497.099 1076.57,498.432 1077.5,499.5C 1077.5,499.833 1077.5,500.167 1077.5,500.5C 1077.33,725.5 1077.5,950.5 1078,1175.5C 1081.29,1178.55 1084.79,1181.22 1088.5,1183.5C 1088.54,1186.7 1090.2,1188.37 1093.5,1188.5C 1093.5,1190.5 1094.5,1191.5 1096.5,1191.5C 1096.5,1193.5 1097.5,1194.5 1099.5,1194.5C 1103.39,1201.06 1108.39,1206.73 1114.5,1211.5C 1115.81,1214.47 1117.81,1216.81 1120.5,1218.5C 1121.41,1222.07 1123.41,1224.73 1126.5,1226.5C 1136.17,1241.17 1145.84,1255.84 1155.5,1270.5C 1161.92,1284.35 1168.59,1298.01 1175.5,1311.5C 1175.5,1311.83 1175.5,1312.17 1175.5,1312.5C 1175.71,1315.24 1176.71,1317.57 1178.5,1319.5C 1178.73,1322.54 1179.73,1325.21 1181.5,1327.5C 1188.19,1349.31 1193.86,1371.31 1198.5,1393.5C 1198.5,1393.83 1198.5,1394.17 1198.5,1394.5C 1199.12,1402.92 1200.12,1411.25 1201.5,1419.5C 1201.5,1419.83 1201.5,1420.17 1201.5,1420.5C 1201.5,1424.5 1201.5,1428.5 1201.5,1432.5C 1202.7,1447.16 1202.7,1461.83 1201.5,1476.5C 1201.5,1480.5 1201.5,1484.5 1201.5,1488.5C 1201.5,1488.83 1201.5,1489.17 1201.5,1489.5C 1199.61,1497.59 1198.61,1505.92 1198.5,1514.5C 1196.49,1519.85 1195.49,1525.52 1195.5,1531.5C 1191.76,1542.88 1188.76,1554.54 1186.5,1566.5C 1184.06,1570.8 1182.4,1575.47 1181.5,1580.5C 1180.88,1580.61 1180.38,1580.94 1180,1581.5C 1176.99,1591.37 1173.49,1601.04 1169.5,1610.5C 1167.46,1611.91 1166.46,1613.91 1166.5,1616.5C 1154.7,1637.98 1142.03,1658.98 1128.5,1679.5C 1126.14,1680.87 1124.47,1682.87 1123.5,1685.5C 1120.35,1687.31 1118.35,1689.98 1117.5,1693.5C 1104.27,1707.07 1090.94,1720.73 1077.5,1734.5C 1069.06,1740.71 1061.06,1747.38 1053.5,1754.5C 1052.08,1754.71 1050.74,1755.21 1049.5,1756C 1044.66,1759.06 1040.33,1762.56 1036.5,1766.5C 1033.44,1767.69 1030.44,1769.19 1027.5,1771C 1025.94,1771.76 1024.94,1772.93 1024.5,1774.5C 1016.66,1777.25 1009.66,1781.25 1003.5,1786.5C 1001.44,1786.69 999.436,1787.19 997.5,1788C 995.112,1789.86 992.446,1791.19 989.5,1792C 988.619,1792.71 987.953,1793.54 987.5,1794.5C 975.665,1799.3 963.665,1803.8 951.5,1808C 950.944,1808.38 950.611,1808.88 950.5,1809.5C 947.008,1809.45 944.008,1810.45 941.5,1812.5C 937.786,1812.59 934.452,1813.59 931.5,1815.5C 927.812,1815.78 924.145,1816.28 920.5,1817C 919.402,1817.77 919.402,1818.6 920.5,1819.5C 919.833,1819.5 919.167,1819.5 918.5,1819.5C 915.078,1818.53 911.578,1818.87 908,1820.5C 906.97,1820.84 906.47,1821.5 906.5,1822.5C 905.833,1822.5 905.167,1822.5 904.5,1822.5C 903.726,1821.85 902.726,1821.52 901.5,1821.5C 899.645,1821.34 898.312,1822.01 897.5,1823.5C 894.938,1822.89 892.271,1823.06 889.5,1824C 890.056,1824.38 890.389,1824.88 890.5,1825.5C 889.5,1825.5 888.5,1825.5 887.5,1825.5C 886.551,1824.85 885.385,1824.51 884,1824.5C 881.779,1824.39 879.946,1825.06 878.5,1826.5C 878.167,1826.5 877.833,1826.5 877.5,1826.5C 866.321,1826.74 855.321,1827.41 844.5,1828.5C 833.167,1828.5 821.833,1828.5 810.5,1828.5C 800.01,1827.44 789.344,1826.77 778.5,1826.5C 777.833,1826.5 777.167,1826.5 776.5,1826.5C 776.389,1825.88 776.056,1825.38 775.5,1825C 772.633,1824.2 769.966,1824.37 767.5,1825.5C 766.833,1825.5 766.167,1825.5 765.5,1825.5C 765.611,1824.88 765.944,1824.38 766.5,1824C 763.729,1823.06 761.062,1822.89 758.5,1823.5C 756.007,1821.42 753.34,1821.08 750.5,1822.5C 749.833,1822.5 749.167,1822.5 748.5,1822.5C 748.611,1821.88 748.944,1821.38 749.5,1821C 741.185,1818.97 732.851,1817.14 724.5,1815.5C 715.461,1811.9 706.127,1808.9 696.5,1806.5C 686.095,1801.3 675.428,1796.63 664.5,1792.5C 661.089,1789.57 657.089,1787.57 652.5,1786.5C 651.089,1784.46 649.089,1783.46 646.5,1783.5C 642.079,1779.78 637.079,1776.78 631.5,1774.5C 627.872,1770.73 623.538,1768.06 618.5,1766.5C 617.965,1764.55 616.632,1763.55 614.5,1763.5C 610.158,1759.47 605.491,1755.63 600.5,1752C 599.552,1751.52 598.552,1751.35 597.5,1751.5C 597.489,1749.98 596.823,1748.82 595.5,1748C 590.27,1743.92 584.936,1740.09 579.5,1736.5C 568.5,1724.83 557.167,1713.5 545.5,1702.5C 543.628,1697.96 540.628,1694.29 536.5,1691.5C 526.585,1678 516.918,1664.33 507.5,1650.5C 506.617,1647.3 504.95,1644.63 502.5,1642.5C 502.245,1639.98 501.411,1637.65 500,1635.5C 496.324,1628.14 492.157,1621.14 487.5,1614.5C 487.5,1614.17 487.5,1613.83 487.5,1613.5C 487.245,1611.03 486.245,1609.03 484.5,1607.5C 477.213,1588.95 470.547,1570.29 464.5,1551.5C 464.498,1547.13 463.498,1543.13 461.5,1539.5C 461.5,1539.17 461.5,1538.83 461.5,1538.5C 461.246,1533.56 460.246,1528.89 458.5,1524.5C 458.5,1524.17 458.5,1523.83 458.5,1523.5C 458.184,1518.16 457.684,1512.82 457,1507.5C 456.722,1506.58 456.222,1505.92 455.5,1505.5C 455.5,1504.83 455.5,1504.17 455.5,1503.5C 454.407,1489.69 453.407,1476.02 452.5,1462.5C 452.5,1456.17 452.5,1449.83 452.5,1443.5C 453.694,1432.33 454.694,1421 455.5,1409.5C 455.5,1407.5 455.5,1405.5 455.5,1403.5C 457.116,1397.39 458.116,1391.06 458.5,1384.5C 458.5,1384.17 458.5,1383.83 458.5,1383.5C 462.485,1367.93 466.485,1352.27 470.5,1336.5C 473.921,1329.92 476.588,1322.92 478.5,1315.5C 485.789,1299.29 493.456,1283.29 501.5,1267.5C 503.669,1265.66 505.002,1263.33 505.5,1260.5C 507.993,1258.34 509.66,1255.68 510.5,1252.5C 511.376,1252.63 512.043,1252.3 512.5,1251.5C 514.297,1249.04 515.63,1246.38 516.5,1243.5C 519.933,1240.4 522.6,1236.73 524.5,1232.5C 526.822,1231.2 528.155,1229.2 528.5,1226.5C 530.86,1225.13 532.527,1223.13 533.5,1220.5C 540.855,1213.48 547.521,1205.81 553.5,1197.5C 558.5,1193.17 563.167,1188.5 567.5,1183.5C 569.144,1183.19 570.144,1182.19 570.5,1180.5C 573.056,1179.46 575.223,1177.79 577,1175.5C 577.333,951.167 577.667,726.833 578,502.5C 579.131,496.888 579.631,491.221 579.5,485.5C 579.5,485.167 579.5,484.833 579.5,484.5C 581.703,475.992 583.703,467.325 585.5,458.5C 589.08,451.1 592.08,443.434 594.5,435.5C 596.245,433.967 597.245,431.967 597.5,429.5C 600.786,426.6 602.786,422.933 603.5,418.5C 608.629,412.307 613.796,405.974 619,399.5C 619.791,398.255 620.291,396.922 620.5,395.5C 632.592,383.069 645.259,371.402 658.5,360.5C 660.933,360.727 662.599,359.727 663.5,357.5C 676.907,350.103 690.574,343.437 704.5,337.5C 712.344,335.738 720.011,333.738 727.5,331.5C 736.2,331.071 744.866,330.237 753.5,329C 754.056,328.617 754.389,328.117 754.5,327.5 Z M 762.5,455.5 C 806.167,455.5 849.833,455.5 893.5,455.5C 894.609,455.557 895.609,455.89 896.5,456.5C 903.677,457.637 910.677,459.304 917.5,461.5C 919.545,464.039 922.211,465.873 925.5,467C 932.024,472.859 937.858,479.359 943,486.5C 945.652,491.619 947.819,496.952 949.5,502.5C 950.472,527.147 950.805,551.814 950.5,576.5C 908.99,576.835 867.657,577.835 826.5,579.5C 826.5,600.167 826.5,620.833 826.5,641.5C 867.487,643.494 908.82,644.161 950.5,643.5C 950.5,662.833 950.5,682.167 950.5,701.5C 909.513,703.494 868.18,704.161 826.5,703.5C 826.169,725.007 826.503,746.34 827.5,767.5C 868.5,767.5 909.5,767.5 950.5,767.5C 950.5,787.167 950.5,806.833 950.5,826.5C 909.499,826.333 868.499,826.5 827.5,827C 826.944,827.383 826.611,827.883 826.5,828.5C 826.5,849.833 826.5,871.167 826.5,892.5C 867.663,893.499 908.997,893.832 950.5,893.5C 950.5,1005.17 950.5,1116.83 950.5,1228.5C 953.939,1230.09 957.606,1231.42 961.5,1232.5C 962.3,1234.74 963.966,1235.74 966.5,1235.5C 966.414,1236.5 966.748,1237.33 967.5,1238C 972.897,1241.02 977.897,1244.52 982.5,1248.5C 983.736,1249.25 985.07,1249.58 986.5,1249.5C 987.456,1251.52 988.79,1253.35 990.5,1255C 991.448,1255.48 992.448,1255.65 993.5,1255.5C 997.94,1261.28 1003.27,1265.95 1009.5,1269.5C 1009.5,1271.5 1010.5,1272.5 1012.5,1272.5C 1012.5,1274.5 1013.5,1275.5 1015.5,1275.5C 1018.35,1281.02 1022.35,1285.69 1027.5,1289.5C 1029.48,1293.35 1031.81,1297.01 1034.5,1300.5C 1035.85,1301.52 1037.19,1302.52 1038.5,1303.5C 1037.17,1305.56 1037.84,1306.9 1040.5,1307.5C 1043.17,1311.83 1045.83,1316.17 1048.5,1320.5C 1049.18,1320.86 1049.85,1321.2 1050.5,1321.5C 1050.52,1323.06 1050.85,1324.56 1051.5,1326C 1053.39,1329.66 1055.72,1333 1058.5,1336C 1058.04,1336.41 1057.71,1336.91 1057.5,1337.5C 1058.71,1339.15 1060.04,1340.65 1061.5,1342C 1061.04,1342.41 1060.71,1342.91 1060.5,1343.5C 1061.83,1345.17 1063.17,1346.83 1064.5,1348.5C 1064.29,1349.09 1063.96,1349.59 1063.5,1350C 1064.74,1351.39 1066.07,1352.55 1067.5,1353.5C 1067.02,1356.92 1068.02,1359.58 1070.5,1361.5C 1075.41,1377.93 1079.58,1394.6 1083,1411.5C 1083.38,1412.06 1083.88,1412.39 1084.5,1412.5C 1083.91,1414.24 1083.58,1416.08 1083.5,1418C 1084.5,1425.51 1085.84,1432.67 1087.5,1439.5C 1086.89,1440.39 1086.56,1441.39 1086.5,1442.5C 1086.5,1449.83 1086.5,1457.17 1086.5,1464.5C 1086.83,1465.83 1087.17,1467.17 1087.5,1468.5C 1085.84,1475.33 1084.5,1482.49 1083.5,1490C 1083.58,1491.92 1083.91,1493.76 1084.5,1495.5C 1079.74,1512.28 1075.07,1529.28 1070.5,1546.5C 1068.18,1548.09 1067.18,1550.42 1067.5,1553.5C 1065.91,1554.64 1064.58,1556.14 1063.5,1558C 1063.83,1558.33 1064.17,1558.67 1064.5,1559C 1059.44,1567.12 1054.77,1575.95 1050.5,1585.5C 1049.1,1587.9 1047.43,1590.07 1045.5,1592C 1044.85,1593.44 1044.52,1594.94 1044.5,1596.5C 1040.52,1599.22 1037.69,1602.88 1036,1607.5C 1034.65,1609.02 1033.15,1610.35 1031.5,1611.5C 1031.86,1612.18 1032.2,1612.85 1032.5,1613.5C 1020.48,1626.02 1008.15,1638.52 995.5,1651C 988.479,1656.03 981.479,1661.03 974.5,1666C 972.959,1667.37 971.625,1668.87 970.5,1670.5C 962.713,1674.9 954.713,1679.06 946.5,1683C 944.76,1684.52 943.094,1686.02 941.5,1687.5C 939.073,1687.52 936.74,1688.02 934.5,1689C 930.531,1691.31 926.365,1693.14 922,1694.5C 920.97,1694.84 920.47,1695.5 920.5,1696.5C 917.169,1696.02 914.503,1697.02 912.5,1699.5C 910.304,1699.59 908.137,1699.92 906,1700.5C 904.624,1700.68 903.791,1701.35 903.5,1702.5C 893.958,1704.18 884.458,1706.18 875,1708.5C 864.199,1710.55 853.366,1711.89 842.5,1712.5C 832.598,1713.82 822.598,1713.82 812.5,1712.5C 800.836,1710.4 788.836,1709.06 776.5,1708.5C 776.389,1707.88 776.056,1707.38 775.5,1707C 764.529,1704.5 753.529,1702 742.5,1699.5C 742.53,1698.5 742.03,1697.84 741,1697.5C 736.738,1695.47 732.238,1694.14 727.5,1693.5C 725.362,1691.58 722.862,1689.91 720,1688.5C 718.234,1687.77 716.401,1687.43 714.5,1687.5C 714.167,1687.5 713.833,1687.5 713.5,1687.5C 713.489,1685.98 712.823,1684.82 711.5,1684C 707.771,1681.77 703.771,1680.27 699.5,1679.5C 699.586,1678.5 699.252,1677.67 698.5,1677C 690.609,1673.09 683.275,1668.42 676.5,1663C 675.552,1662.52 674.552,1662.35 673.5,1662.5C 669.438,1658.92 665.438,1655.09 661.5,1651C 660.552,1650.52 659.552,1650.35 658.5,1650.5C 647.069,1638 635.403,1625.66 623.5,1613.5C 623.719,1612.32 623.386,1611.32 622.5,1610.5C 621.358,1609.17 620.024,1608.17 618.5,1607.5C 618.804,1606.85 619.137,1606.18 619.5,1605.5C 618.019,1604.52 616.685,1603.35 615.5,1602C 615.833,1601.67 616.167,1601.33 616.5,1601C 613.282,1598.01 610.782,1594.51 609,1590.5C 608.329,1589.75 607.496,1589.41 606.5,1589.5C 606.313,1587.44 605.813,1585.44 605,1583.5C 598.119,1572.09 591.953,1560.25 586.5,1548C 582.418,1535.61 578.418,1523.44 574.5,1511.5C 575.036,1508.3 574.369,1505.64 572.5,1503.5C 572.5,1503.17 572.5,1502.83 572.5,1502.5C 573.156,1501.38 573.489,1500.05 573.5,1498.5C 572.604,1493.12 571.271,1488.12 569.5,1483.5C 569.5,1483.17 569.5,1482.83 569.5,1482.5C 570.165,1479.35 570.498,1476.02 570.5,1472.5C 570.42,1468.57 569.753,1464.91 568.5,1461.5C 568.221,1456.41 568.555,1451.41 569.5,1446.5C 570.833,1439.83 570.833,1433.17 569.5,1426.5C 569.5,1426.17 569.5,1425.83 569.5,1425.5C 572.813,1412.54 575.48,1399.2 577.5,1385.5C 578.586,1385.38 579.253,1384.71 579.5,1383.5C 581.438,1378.3 582.772,1372.97 583.5,1367.5C 586.633,1361.07 589.966,1354.57 593.5,1348C 593.167,1347.67 592.833,1347.33 592.5,1347C 594.008,1345.49 595.341,1343.83 596.5,1342C 596.167,1341.67 595.833,1341.33 595.5,1341C 599.03,1335.9 601.697,1330.4 603.5,1324.5C 604.15,1324.2 604.817,1323.86 605.5,1323.5C 608.763,1318.26 611.929,1312.93 615,1307.5C 616.214,1305.95 617.714,1304.78 619.5,1304C 619.043,1303.59 618.709,1303.09 618.5,1302.5C 621.834,1298.8 625.167,1295.14 628.5,1291.5C 629.429,1290.31 629.762,1288.98 629.5,1287.5C 639.295,1279.54 648.295,1270.71 656.5,1261C 661.84,1256.99 667.173,1252.99 672.5,1249C 673.252,1248.33 673.586,1247.5 673.5,1246.5C 674.93,1246.58 676.264,1246.25 677.5,1245.5C 685.903,1239.34 694.57,1233.68 703.5,1228.5C 704.5,989.168 704.833,749.834 704.5,510.5C 704.5,509.5 704.5,508.5 704.5,507.5C 707.431,498.264 711.431,489.264 716.5,480.5C 723.244,473.418 730.577,467.085 738.5,461.5C 745.054,459.201 751.721,457.534 758.5,456.5C 759.708,455.766 761.041,455.433 762.5,455.5 Z"/></g>
<g><path style="opacity:1" fill="#a98cd9" d="M 759.5,327.5 C 804.5,327.5 849.5,327.5 894.5,327.5C 872.343,328.833 849.843,329.5 827,329.5C 804.157,329.5 781.657,328.833 759.5,327.5 Z"/></g>
<g><path style="opacity:1" fill="#a4a1a5" d="M 754.5,327.5 C 754.389,328.117 754.056,328.617 753.5,329C 744.866,330.237 736.2,331.071 727.5,331.5C 730.744,329.888 734.411,328.888 738.5,328.5C 743.792,327.505 749.125,327.172 754.5,327.5 Z"/></g>
<g><path style="opacity:1" fill="#aba7ad" d="M 901.5,327.5 C 910.375,327.167 919.042,328 927.5,330C 934.472,331.661 941.472,333.494 948.5,335.5C 949.713,335.747 950.38,336.414 950.5,337.5C 942.709,336.136 935.043,334.302 927.5,332C 920.162,331.203 912.829,330.37 905.5,329.5C 903.667,329.415 902.334,328.748 901.5,327.5 Z"/></g>
<g><path style="opacity:0.753" fill="#b2b1b3" d="M 727.5,331.5 C 720.011,333.738 712.344,335.738 704.5,337.5C 707.519,335.693 710.852,334.193 714.5,333C 718.79,332.077 723.123,331.577 727.5,331.5 Z"/></g>
<g><path style="opacity:0.286" fill="#c1bec4" d="M 951.5,337.5 C 962.453,339.981 972.787,344.148 982.5,350C 984.398,351.417 986.064,352.917 987.5,354.5C 975.594,348.431 963.594,342.764 951.5,337.5 Z"/></g>
<g><path style="opacity:0.894" fill="#c3c1c5" d="M 704.5,337.5 C 690.574,343.437 676.907,350.103 663.5,357.5C 663.414,356.504 663.748,355.671 664.5,355C 672.256,350.25 680.256,345.917 688.5,342C 693.627,339.714 698.961,338.214 704.5,337.5 Z"/></g>
<g><path style="opacity:0.98" fill="#cecbd0" d="M 987.5,354.5 C 990.243,355.388 992.91,356.555 995.5,358C 996.252,358.671 996.586,359.504 996.5,360.5C 993.622,359.63 990.955,358.297 988.5,356.5C 987.702,356.043 987.369,355.376 987.5,354.5 Z"/></g>
<g><path style="opacity:0.604" fill="#c2bfc8" d="M 663.5,357.5 C 662.599,359.727 660.933,360.727 658.5,360.5C 659.401,358.273 661.067,357.273 663.5,357.5 Z"/></g>
<g><path style="opacity:0.15" fill="#dddbe0" d="M 658.5,360.5 C 645.259,371.402 632.592,383.069 620.5,395.5C 620.351,394.448 620.517,393.448 621,392.5C 631.771,381.035 643.271,370.535 655.5,361C 656.448,360.517 657.448,360.351 658.5,360.5 Z"/></g>
<g><path style="opacity:0.608" fill="#d9d6de" d="M 996.5,360.5 C 997.93,360.421 999.264,360.754 1000.5,361.5C 1012.45,371.116 1023.78,381.45 1034.5,392.5C 1037.29,395.942 1039.63,399.608 1041.5,403.5C 1027.46,388.128 1012.46,373.795 996.5,360.5 Z"/></g>
<g><path style="opacity:0.486" fill="#e4e3e5" d="M 1041.5,403.5 C 1044.04,404.708 1045.38,406.708 1045.5,409.5C 1043.18,408.198 1041.84,406.198 1041.5,403.5 Z"/></g>
<g><path style="opacity:0.165" fill="#dedbe3" d="M 1045.5,409.5 C 1048.29,409.91 1049.29,411.244 1048.5,413.5C 1046.55,412.965 1045.55,411.632 1045.5,409.5 Z"/></g>
<g><path style="opacity:0.243" fill="#dfdce4" d="M 620.5,395.5 C 620.291,396.922 619.791,398.255 619,399.5C 613.796,405.974 608.629,412.307 603.5,418.5C 606.683,412.852 610.017,407.186 613.5,401.5C 615.853,399.477 618.186,397.477 620.5,395.5 Z"/></g>
<g><path style="opacity:0.012" fill="#eae9ec" d="M 1048.5,413.5 C 1051.41,414.345 1052.41,416.012 1051.5,418.5C 1049.27,417.599 1048.27,415.933 1048.5,413.5 Z"/></g>
<g><path style="opacity:0.175" fill="#e8e7e9" d="M 1051.5,418.5 C 1053.31,418.572 1054.64,419.405 1055.5,421C 1057.04,424.795 1058.37,428.629 1059.5,432.5C 1055.91,428.414 1053.24,423.747 1051.5,418.5 Z"/></g>
<g><path style="opacity:0.224" fill="#e2e0e6" d="M 603.5,418.5 C 602.786,422.933 600.786,426.6 597.5,429.5C 597.871,424.831 599.871,421.165 603.5,418.5 Z"/></g>
<g><path style="opacity:0.361" fill="#d7d6d7" d="M 597.5,429.5 C 597.245,431.967 596.245,433.967 594.5,435.5C 594.386,432.784 595.386,430.784 597.5,429.5 Z"/></g>
<g><path style="opacity:0.237" fill="#e4e3e4" d="M 1059.5,432.5 C 1061.42,434.638 1063.09,437.138 1064.5,440C 1065.23,441.766 1065.57,443.599 1065.5,445.5C 1062.73,441.615 1060.73,437.282 1059.5,432.5 Z"/></g>
<g><path style="opacity:0.275" fill="#dad8dc" d="M 594.5,435.5 C 592.08,443.434 589.08,451.1 585.5,458.5C 586.909,451.105 589.242,443.939 592.5,437C 592.836,435.97 593.503,435.47 594.5,435.5 Z"/></g>
<g><path style="opacity:0.214" fill="#e1e0e3" d="M 1065.5,445.5 C 1066.5,445.47 1067.16,445.97 1067.5,447C 1069.94,452.588 1071.27,458.421 1071.5,464.5C 1069.12,458.367 1067.12,452.034 1065.5,445.5 Z"/></g>
<g><path style="opacity:0.204" fill="#5a575b" d="M 893.5,455.5 C 849.833,455.5 806.167,455.5 762.5,455.5C 762.611,454.883 762.944,454.383 763.5,454C 806.167,453.333 848.833,453.333 891.5,454C 892.416,454.278 893.082,454.778 893.5,455.5 Z"/></g>
<g><path style="opacity:0.529" fill="#bcb9be" d="M 917.5,461.5 C 910.677,459.304 903.677,457.637 896.5,456.5C 896.62,455.414 897.287,454.747 898.5,454.5C 903.167,455.667 907.833,456.833 912.5,458C 914.431,458.902 916.097,460.069 917.5,461.5 Z"/></g>
<g><path style="opacity:0.118" fill="#c4c2c5" d="M 758.5,456.5 C 751.721,457.534 745.054,459.201 738.5,461.5C 739.574,460.115 740.907,458.949 742.5,458C 747.366,456.96 752.199,455.794 757,454.5C 758.03,454.836 758.53,455.503 758.5,456.5 Z"/></g>
<g><path style="opacity:0.522" fill="#d6d4d7" d="M 585.5,458.5 C 583.703,467.325 581.703,475.992 579.5,484.5C 578.844,483.378 578.511,482.045 578.5,480.5C 579.313,476.049 580.647,471.883 582.5,468C 581.941,467.275 581.608,466.442 581.5,465.5C 582.397,462.766 583.731,460.433 585.5,458.5 Z"/></g>
<g><path style="opacity:0.539" fill="#c9c8c9" d="M 1071.5,464.5 C 1073.27,466.911 1074.61,469.744 1075.5,473C 1075.35,474.256 1075.02,475.423 1074.5,476.5C 1072.9,472.761 1071.9,468.761 1071.5,464.5 Z"/></g>
<g><path style="opacity:0.4" fill="#e0dee3" d="M 738.5,461.5 C 730.577,467.085 723.244,473.418 716.5,480.5C 711.431,489.264 707.431,498.264 704.5,507.5C 704.5,506.167 704.5,504.833 704.5,503.5C 707.427,488.395 715.093,476.228 727.5,467C 730.642,464.096 734.309,462.262 738.5,461.5 Z"/></g>
<g><path style="opacity:0.263" fill="#c5c5c6" d="M 1074.5,476.5 C 1076.09,479.061 1077.09,482.061 1077.5,485.5C 1078.49,488.768 1078.82,492.102 1078.5,495.5C 1077.83,495.5 1077.17,495.5 1076.5,495.5C 1075.67,489.187 1075.01,482.853 1074.5,476.5 Z"/></g>
<g><path style="opacity:0.039" fill="#616062" d="M 1076.5,495.5 C 1077.17,495.5 1077.83,495.5 1078.5,495.5C 1078.77,497.099 1078.43,498.432 1077.5,499.5C 1076.57,498.432 1076.23,497.099 1076.5,495.5 Z"/></g>
<g><path style="opacity:0.576" fill="#888888" d="M 1466.5,503.5 C 1466.5,504.167 1466.5,504.833 1466.5,505.5C 1462.83,505.5 1459.17,505.5 1455.5,505.5C 1458.68,503.586 1462.35,502.92 1466.5,503.5 Z"/></g>
<g><path style="opacity:1" fill="#e6a9fe" d="M 1455.5,505.5 C 1459.17,505.5 1462.83,505.5 1466.5,505.5C 1467.77,506.09 1469.1,506.59 1470.5,507C 1473.48,509.831 1475.81,512.997 1477.5,516.5C 1478.49,652.82 1478.82,789.154 1478.5,925.5C 1477.61,928.054 1477.28,930.721 1477.5,933.5C 1473.4,943.201 1466.07,946.868 1455.5,944.5C 1453.66,942.412 1451.33,941.079 1448.5,940.5C 1444.05,934.383 1438.38,929.716 1431.5,926.5C 1430.13,924.14 1428.13,922.473 1425.5,921.5C 1415.45,913.455 1405.12,905.788 1394.5,898.5C 1392.73,896.224 1390.73,894.057 1388.5,892C 1378.91,885.416 1369.57,878.416 1360.5,871C 1359.1,870.59 1357.77,870.09 1356.5,869.5C 1356.17,869.5 1355.83,869.5 1355.5,869.5C 1354.87,867.003 1353.2,865.67 1350.5,865.5C 1349.7,862.428 1347.7,860.762 1344.5,860.5C 1344.17,860.5 1343.83,860.5 1343.5,860.5C 1343.14,858.629 1342.14,857.129 1340.5,856C 1337.32,854.593 1334.32,853.093 1331.5,851.5C 1330.71,848.379 1328.71,846.712 1325.5,846.5C 1322.61,841.928 1318.61,838.928 1313.5,837.5C 1312.34,835.018 1310.34,833.684 1307.5,833.5C 1306.41,830.739 1304.41,829.073 1301.5,828.5C 1298.09,824.648 1294.09,821.648 1289.5,819.5C 1288.1,816.623 1285.76,814.956 1282.5,814.5C 1279.58,810.215 1275.58,807.215 1270.5,805.5C 1269.13,803.14 1267.13,801.473 1264.5,800.5C 1263.2,798.178 1261.2,796.845 1258.5,796.5C 1257.43,793.764 1255.43,792.097 1252.5,791.5C 1251.2,789.178 1249.2,787.845 1246.5,787.5C 1245.09,785.086 1243.09,783.419 1240.5,782.5C 1234.37,777.543 1228.37,772.376 1222.5,767C 1218.28,764.277 1213.95,761.777 1209.5,759.5C 1202.46,752.798 1194.79,746.798 1186.5,741.5C 1183.18,733.839 1182.01,725.839 1183,717.5C 1184,715.167 1185,712.833 1186,710.5C 1188.04,708.63 1189.87,706.63 1191.5,704.5C 1196.64,703.029 1200.64,700.029 1203.5,695.5C 1204.55,695.649 1205.55,695.483 1206.5,695C 1210.27,691.477 1213.94,687.977 1217.5,684.5C 1222.29,682.449 1226.29,679.449 1229.5,675.5C 1231.18,675.108 1232.85,674.608 1234.5,674C 1237.06,671.61 1239.39,669.11 1241.5,666.5C 1248.21,662.633 1254.55,658.133 1260.5,653C 1265.53,651.14 1269.53,647.973 1272.5,643.5C 1275.71,643.288 1277.71,641.621 1278.5,638.5C 1281.2,638.155 1283.2,636.822 1284.5,634.5C 1287.13,633.527 1289.13,631.86 1290.5,629.5C 1291.96,629.567 1293.29,629.234 1294.5,628.5C 1300.77,624.893 1306.11,620.227 1310.5,614.5C 1315.06,613.054 1318.73,610.387 1321.5,606.5C 1326.22,604.471 1330.22,601.471 1333.5,597.5C 1336.41,596.927 1338.41,595.261 1339.5,592.5C 1342.29,592.378 1344.29,591.044 1345.5,588.5C 1348.71,588.288 1350.71,586.621 1351.5,583.5C 1357.22,582.781 1361.22,579.781 1363.5,574.5C 1366.64,574.031 1368.98,572.364 1370.5,569.5C 1373.2,569.33 1374.87,567.997 1375.5,565.5C 1375.83,565.5 1376.17,565.5 1376.5,565.5C 1379.53,565.163 1381.53,563.496 1382.5,560.5C 1391.16,555.683 1399.16,549.85 1406.5,543C 1417.83,535.001 1429.16,527.001 1440.5,519C 1445.1,513.894 1450.1,509.394 1455.5,505.5 Z"/></g>
<g><path style="opacity:0.199" fill="#e2e0e3" d="M 1466.5,503.5 C 1473.42,505.085 1477.09,509.418 1477.5,516.5C 1475.81,512.997 1473.48,509.831 1470.5,507C 1469.1,506.59 1467.77,506.09 1466.5,505.5C 1466.5,504.833 1466.5,504.167 1466.5,503.5 Z"/></g>
<g><path style="opacity:0.302" fill="#cdcdce" d="M 1077.5,500.5 C 1078.12,500.611 1078.62,500.944 1079,501.5C 1079.33,725.833 1079.67,950.167 1080,1174.5C 1083.04,1177.37 1085.87,1180.37 1088.5,1183.5C 1084.79,1181.22 1081.29,1178.55 1078,1175.5C 1077.5,950.5 1077.33,725.5 1077.5,500.5 Z"/></g>
<g><path style="opacity:0.624" fill="#bdbdbd" d="M 579.5,485.5 C 579.631,491.221 579.131,496.888 578,502.5C 577.667,726.833 577.333,951.167 577,1175.5C 575.223,1177.79 573.056,1179.46 570.5,1180.5C 571.932,1177.9 573.932,1175.73 576.5,1174C 575.167,949.235 575.167,724.402 576.5,499.5C 576.872,494.429 577.872,489.762 579.5,485.5 Z"/></g>
<g><path style="opacity:0.121" fill="#d2d1d3" d="M 917.5,461.5 C 921.691,462.262 925.358,464.096 928.5,467C 941.106,478.031 949.106,491.531 952.5,507.5C 952.5,530.833 952.5,554.167 952.5,577.5C 951.833,577.167 951.167,576.833 950.5,576.5C 950.805,551.814 950.472,527.147 949.5,502.5C 947.819,496.952 945.652,491.619 943,486.5C 937.858,479.359 932.024,472.859 925.5,467C 922.211,465.873 919.545,464.039 917.5,461.5 Z"/></g>
<g><path style="opacity:1" fill="#8d67d5" d="M 952.5,507.5 C 953.167,519.329 953.5,531.329 953.5,543.5C 953.499,555.852 952.832,567.852 951.5,579.5C 951.833,578.833 952.167,578.167 952.5,577.5C 952.5,554.167 952.5,530.833 952.5,507.5 Z"/></g>
<g><path style="opacity:0.953" fill="#a3a3a3" d="M 704.5,503.5 C 704.5,504.833 704.5,506.167 704.5,507.5C 704.5,508.5 704.5,509.5 704.5,510.5C 703.833,749.167 703.167,987.833 702.5,1226.5C 702.333,987.5 702.5,748.5 703,509.5C 703.191,507.292 703.691,505.292 704.5,503.5 Z"/></g>
<g><path style="opacity:0.322" fill="#eae6ec" d="M 1455.5,505.5 C 1450.1,509.394 1445.1,513.894 1440.5,519C 1429.16,527.001 1417.83,535.001 1406.5,543C 1399.16,549.85 1391.16,555.683 1382.5,560.5C 1384.45,557.377 1387.12,555.21 1390.5,554C 1393.14,550.909 1396.14,548.242 1399.5,546C 1404.17,542.22 1409.17,538.886 1414.5,536C 1417.97,532.917 1421.3,529.751 1424.5,526.5C 1425.09,526.709 1425.59,527.043 1426,527.5C 1428.95,524.208 1432.12,521.208 1435.5,518.5C 1440.04,516.637 1443.7,513.637 1446.5,509.5C 1449.33,507.647 1452.33,506.313 1455.5,505.5 Z"/></g>
<g><path style="opacity:0.302" fill="#e0e0e0" d="M 1477.5,516.5 C 1479.22,518.658 1480.05,521.325 1480,524.5C 1480.5,658.166 1480.67,791.833 1480.5,925.5C 1479.83,925.5 1479.17,925.5 1478.5,925.5C 1478.82,789.154 1478.49,652.82 1477.5,516.5 Z"/></g>
<g><path style="opacity:0.18" fill="#e3dfe7" d="M 1382.5,560.5 C 1381.53,563.496 1379.53,565.163 1376.5,565.5C 1377.61,562.721 1379.61,561.054 1382.5,560.5 Z"/></g>
<g><path style="opacity:0.502" fill="#e1dfe2" d="M 1375.5,565.5 C 1374.87,567.997 1373.2,569.33 1370.5,569.5C 1371.58,567.413 1373.25,566.08 1375.5,565.5 Z"/></g>
<g><path style="opacity:0.31" fill="#e6e4e7" d="M 1370.5,569.5 C 1368.98,572.364 1366.64,574.031 1363.5,574.5C 1365.29,572.046 1367.62,570.379 1370.5,569.5 Z"/></g>
<g><path style="opacity:0.824" fill="#8b8a8b" d="M 950.5,576.5 C 951.167,576.833 951.833,577.167 952.5,577.5C 952.167,578.167 951.833,578.833 951.5,579.5C 909.833,579.5 868.167,579.5 826.5,579.5C 867.657,577.835 908.99,576.835 950.5,576.5 Z"/></g>
<g><path style="opacity:1" fill="#dbcee6" d="M 1363.5,574.5 C 1361.22,579.781 1357.22,582.781 1351.5,583.5C 1353.05,582.086 1354.39,580.419 1355.5,578.5C 1357.71,579.047 1359.38,578.047 1360.5,575.5C 1361.32,574.614 1362.32,574.281 1363.5,574.5 Z"/></g>
<g><path style="opacity:0.232" fill="#e5dfe7" d="M 1351.5,583.5 C 1350.71,586.621 1348.71,588.288 1345.5,588.5C 1346.89,585.983 1348.89,584.316 1351.5,583.5 Z"/></g>
<g><path style="opacity:0.207" fill="#edeaee" d="M 1345.5,588.5 C 1344.29,591.044 1342.29,592.378 1339.5,592.5C 1340.73,590.043 1342.73,588.71 1345.5,588.5 Z"/></g>
<g><path style="opacity:0.244" fill="#eeebef" d="M 1339.5,592.5 C 1338.41,595.261 1336.41,596.927 1333.5,597.5C 1334.61,594.721 1336.61,593.054 1339.5,592.5 Z"/></g>
<g><path style="opacity:0.192" fill="#ebe8ed" d="M 1333.5,597.5 C 1330.22,601.471 1326.22,604.471 1321.5,606.5C 1322.09,604.903 1323.09,603.569 1324.5,602.5C 1327.4,600.55 1330.4,598.884 1333.5,597.5 Z"/></g>
<g><path style="opacity:0.163" fill="#eeecef" d="M 1321.5,606.5 C 1318.73,610.387 1315.06,613.054 1310.5,614.5C 1313.59,611.089 1317.25,608.422 1321.5,606.5 Z"/></g>
<g><path style="opacity:0.996" fill="#d8cde2" d="M 1310.5,614.5 C 1306.11,620.227 1300.77,624.893 1294.5,628.5C 1294.78,627.222 1295.45,626.222 1296.5,625.5C 1299.03,622.129 1302.03,619.129 1305.5,616.5C 1307.02,615.438 1308.69,614.771 1310.5,614.5 Z"/></g>
<g><path style="opacity:0.209" fill="#f0eff1" d="M 1296.5,625.5 C 1295.45,626.222 1294.78,627.222 1294.5,628.5C 1293.29,629.234 1291.96,629.567 1290.5,629.5C 1291.81,627.852 1293.14,626.186 1294.5,624.5C 1295.18,624.863 1295.85,625.196 1296.5,625.5 Z"/></g>
<g><path style="opacity:0.324" fill="#eeecef" d="M 1290.5,629.5 C 1289.13,631.86 1287.13,633.527 1284.5,634.5C 1284.41,633.504 1284.75,632.671 1285.5,632C 1286.9,630.562 1288.57,629.729 1290.5,629.5 Z"/></g>
<g><path style="opacity:0.307" fill="#eeecef" d="M 1284.5,634.5 C 1283.2,636.822 1281.2,638.155 1278.5,638.5C 1279.71,635.956 1281.71,634.622 1284.5,634.5 Z"/></g>
<g><path style="opacity:0.321" fill="#e6e1e9" d="M 1278.5,638.5 C 1277.71,641.621 1275.71,643.288 1272.5,643.5C 1273.61,640.721 1275.61,639.054 1278.5,638.5 Z"/></g>
<g><path style="opacity:0.929" fill="#d5d5d5" d="M 826.5,641.5 C 868.5,641.5 910.5,641.5 952.5,641.5C 952.83,662.007 952.497,682.34 951.5,702.5C 951.5,701.833 951.167,701.5 950.5,701.5C 950.5,682.167 950.5,662.833 950.5,643.5C 908.82,644.161 867.487,643.494 826.5,641.5 Z"/></g>
<g><path style="opacity:1" fill="#8c69d3" d="M 952.5,641.5 C 953.828,662.004 953.828,682.671 952.5,703.5C 951.893,703.376 951.56,703.043 951.5,702.5C 952.497,682.34 952.83,662.007 952.5,641.5 Z"/></g>
<g><path style="opacity:0.275" fill="#e8e4ec" d="M 1272.5,643.5 C 1269.53,647.973 1265.53,651.14 1260.5,653C 1254.55,658.133 1248.21,662.633 1241.5,666.5C 1244.67,663 1248.01,659.667 1251.5,656.5C 1252.09,656.709 1252.59,657.043 1253,657.5C 1258.56,651.43 1265.06,646.763 1272.5,643.5 Z"/></g>
<g><path style="opacity:0.655" fill="#eae7ec" d="M 1241.5,666.5 C 1239.39,669.11 1237.06,671.61 1234.5,674C 1232.85,674.608 1231.18,675.108 1229.5,675.5C 1231.89,672.066 1234.89,669.233 1238.5,667C 1239.45,666.517 1240.45,666.351 1241.5,666.5 Z"/></g>
<g><path style="opacity:0.223" fill="#efecf0" d="M 1229.5,675.5 C 1226.29,679.449 1222.29,682.449 1217.5,684.5C 1218.45,682.713 1219.61,681.047 1221,679.5C 1221.33,679.833 1221.67,680.167 1222,680.5C 1223.89,677.758 1226.39,676.091 1229.5,675.5 Z"/></g>
<g><path style="opacity:0.303" fill="#e9e5eb" d="M 1217.5,684.5 C 1213.94,687.977 1210.27,691.477 1206.5,695C 1205.55,695.483 1204.55,695.649 1203.5,695.5C 1206.52,691.417 1210.19,687.917 1214.5,685C 1215.45,684.517 1216.45,684.351 1217.5,684.5 Z"/></g>
<g><path style="opacity:1" fill="#d6c8e2" d="M 1203.5,695.5 C 1200.64,700.029 1196.64,703.029 1191.5,704.5C 1193.89,701.066 1196.89,698.233 1200.5,696C 1201.45,695.517 1202.45,695.351 1203.5,695.5 Z"/></g>
<g><path style="opacity:0.749" fill="#c4c2c5" d="M 1191.5,704.5 C 1189.87,706.63 1188.04,708.63 1186,710.5C 1185,712.833 1184,715.167 1183,717.5C 1182.01,725.839 1183.18,733.839 1186.5,741.5C 1184.21,739.524 1182.54,737.024 1181.5,734C 1178.78,723.396 1180.78,713.896 1187.5,705.5C 1188.69,704.571 1190.02,704.238 1191.5,704.5 Z"/></g>
<g><path style="opacity:0.137" fill="#efedf0" d="M 1186.5,741.5 C 1194.79,746.798 1202.46,752.798 1209.5,759.5C 1208.45,759.649 1207.45,759.483 1206.5,759C 1201.1,754.323 1195.6,749.823 1190,745.5C 1189.67,745.833 1189.33,746.167 1189,746.5C 1187.12,745.347 1186.28,743.681 1186.5,741.5 Z"/></g>
<g><path style="opacity:0.314" fill="#5a5a5a" d="M 951.5,766.5 C 951.5,767.167 951.167,767.5 950.5,767.5C 909.5,767.5 868.5,767.5 827.5,767.5C 853.569,766.829 879.736,766.162 906,765.5C 920.952,765.941 936.119,766.274 951.5,766.5 Z"/></g>
<g><path style="opacity:0.288" fill="#ebe7ed" d="M 1209.5,759.5 C 1213.95,761.777 1218.28,764.277 1222.5,767C 1228.37,772.376 1234.37,777.543 1240.5,782.5C 1233.04,779.388 1226.54,774.722 1221,768.5C 1220.67,768.833 1220.33,769.167 1220,769.5C 1218.24,766.573 1215.74,764.573 1212.5,763.5C 1211.09,762.431 1210.09,761.097 1209.5,759.5 Z"/></g>
<g><path style="opacity:0.435" fill="#f1eff1" d="M 1240.5,782.5 C 1243.09,783.419 1245.09,785.086 1246.5,787.5C 1243.61,786.946 1241.61,785.279 1240.5,782.5 Z"/></g>
<g><path style="opacity:0.333" fill="#efedf0" d="M 1246.5,787.5 C 1249.2,787.845 1251.2,789.178 1252.5,791.5C 1249.71,791.378 1247.71,790.044 1246.5,787.5 Z"/></g>
<g><path style="opacity:0.031" fill="#eae7ed" d="M 1252.5,791.5 C 1255.43,792.097 1257.43,793.764 1258.5,796.5C 1256.57,796.271 1254.9,795.438 1253.5,794C 1252.75,793.329 1252.41,792.496 1252.5,791.5 Z"/></g>
<g><path style="opacity:0.227" fill="#f1f0f2" d="M 1258.5,796.5 C 1261.2,796.845 1263.2,798.178 1264.5,800.5C 1263.85,800.804 1263.18,801.137 1262.5,801.5C 1261.14,799.814 1259.81,798.148 1258.5,796.5 Z"/></g>
<g><path style="opacity:0.199" fill="#eeebee" d="M 1264.5,800.5 C 1267.13,801.473 1269.13,803.14 1270.5,805.5C 1269.32,805.719 1268.32,805.386 1267.5,804.5C 1266.17,803.358 1265.17,802.024 1264.5,800.5 Z"/></g>
<g><path style="opacity:0.024" fill="#e5e1e9" d="M 1270.5,805.5 C 1275.58,807.215 1279.58,810.215 1282.5,814.5C 1279.76,812.625 1276.76,810.958 1273.5,809.5C 1272.48,808.148 1271.48,806.815 1270.5,805.5 Z"/></g>
<g><path style="opacity:0.209" fill="#edeaee" d="M 1282.5,814.5 C 1285.76,814.956 1288.1,816.623 1289.5,819.5C 1286.2,819.265 1283.86,817.598 1282.5,814.5 Z"/></g>
<g><path style="opacity:0.376" fill="#c1c1c1" d="M 704.5,510.5 C 704.833,749.834 704.5,989.168 703.5,1228.5C 694.57,1233.68 685.903,1239.34 677.5,1245.5C 676.264,1246.25 674.93,1246.58 673.5,1246.5C 675.379,1243.89 677.712,1241.72 680.5,1240C 688.097,1235.71 695.43,1231.21 702.5,1226.5C 703.167,987.833 703.833,749.167 704.5,510.5 Z"/></g>
<g><path style="opacity:0.27" fill="#e9e6ea" d="M 1289.5,819.5 C 1294.09,821.648 1298.09,824.648 1301.5,828.5C 1298.39,827.909 1295.89,826.242 1294,823.5C 1293.67,823.833 1293.33,824.167 1293,824.5C 1291.61,822.953 1290.45,821.287 1289.5,819.5 Z"/></g>
<g><path style="opacity:0.557" fill="#c1c1c1" d="M 951.5,766.5 C 952.497,786.993 952.831,807.66 952.5,828.5C 910.5,828.5 868.5,828.5 826.5,828.5C 826.611,827.883 826.944,827.383 827.5,827C 868.499,826.5 909.499,826.333 950.5,826.5C 950.5,806.833 950.5,787.167 950.5,767.5C 951.167,767.5 951.5,767.167 951.5,766.5 Z"/></g>
<g><path style="opacity:0.257" fill="#eeedef" d="M 1301.5,828.5 C 1304.41,829.073 1306.41,830.739 1307.5,833.5C 1304.61,832.946 1302.61,831.279 1301.5,828.5 Z"/></g>
<g><path style="opacity:0.227" fill="#edebee" d="M 1307.5,833.5 C 1310.34,833.684 1312.34,835.018 1313.5,837.5C 1310.71,837.378 1308.71,836.044 1307.5,833.5 Z"/></g>
<g><path style="opacity:0.261" fill="#e6dfea" d="M 1313.5,837.5 C 1318.61,838.928 1322.61,841.928 1325.5,846.5C 1324.85,846.804 1324.18,847.137 1323.5,847.5C 1320.01,844.333 1316.67,841 1313.5,837.5 Z"/></g>
<g><path style="opacity:0.246" fill="#e5dfe9" d="M 1325.5,846.5 C 1328.71,846.712 1330.71,848.379 1331.5,851.5C 1330.32,851.719 1329.32,851.386 1328.5,850.5C 1327.17,849.358 1326.17,848.024 1325.5,846.5 Z"/></g>
<g><path style="opacity:0.148" fill="#e6e2e9" d="M 1331.5,851.5 C 1334.32,853.093 1337.32,854.593 1340.5,856C 1342.14,857.129 1343.14,858.629 1343.5,860.5C 1340.77,858.45 1337.77,856.784 1334.5,855.5C 1333.83,853.84 1332.83,852.507 1331.5,851.5 Z"/></g>
<g><path style="opacity:0.047" fill="#e0d9e4" d="M 1344.5,860.5 C 1347.7,860.762 1349.7,862.428 1350.5,865.5C 1347.61,864.946 1345.61,863.279 1344.5,860.5 Z"/></g>
<g><path style="opacity:0.498" fill="#ece8ed" d="M 1350.5,865.5 C 1353.2,865.67 1354.87,867.003 1355.5,869.5C 1353.25,868.92 1351.58,867.587 1350.5,865.5 Z"/></g>
<g><path style="opacity:0.284" fill="#ece8ee" d="M 1356.5,869.5 C 1357.77,870.09 1359.1,870.59 1360.5,871C 1369.57,878.416 1378.91,885.416 1388.5,892C 1390.73,894.057 1392.73,896.224 1394.5,898.5C 1393.85,898.804 1393.18,899.137 1392.5,899.5C 1389.25,896.249 1385.92,893.082 1382.5,890C 1375.42,885.914 1368.92,881.081 1363,875.5C 1362.67,875.833 1362.33,876.167 1362,876.5C 1359.9,874.248 1358.06,871.915 1356.5,869.5 Z"/></g>
<g><path style="opacity:0.05" fill="#bababa" d="M 952.5,892.5 C 951.833,892.833 951.167,893.167 950.5,893.5C 908.997,893.832 867.663,893.499 826.5,892.5C 868.598,891.17 910.598,891.17 952.5,892.5 Z"/></g>
<g><path style="opacity:0.659" fill="#cfcfd0" d="M 952.5,892.5 C 952.333,1003.5 952.5,1114.5 953,1225.5C 956.042,1227.72 958.875,1230.05 961.5,1232.5C 957.606,1231.42 953.939,1230.09 950.5,1228.5C 950.5,1116.83 950.5,1005.17 950.5,893.5C 951.167,893.167 951.833,892.833 952.5,892.5 Z"/></g>
<g><path style="opacity:0.185" fill="#efeef0" d="M 1394.5,898.5 C 1405.12,905.788 1415.45,913.455 1425.5,921.5C 1424.5,921.414 1423.67,921.748 1423,922.5C 1422.22,920.714 1421.05,919.214 1419.5,918C 1414.23,914.409 1408.89,910.909 1403.5,907.5C 1400.03,904.871 1397.03,901.871 1394.5,898.5 Z"/></g>
<g><path style="opacity:0.242" fill="#edebee" d="M 1425.5,921.5 C 1428.13,922.473 1430.13,924.14 1431.5,926.5C 1429.57,926.271 1427.9,925.438 1426.5,924C 1425.75,923.329 1425.41,922.496 1425.5,921.5 Z"/></g>
<g><path style="opacity:0.035" fill="#9a9a9a" d="M 1478.5,925.5 C 1479.17,925.5 1479.83,925.5 1480.5,925.5C 1480.23,928.618 1479.23,931.284 1477.5,933.5C 1477.28,930.721 1477.61,928.054 1478.5,925.5 Z"/></g>
<g><path style="opacity:0.234" fill="#f2f1f2" d="M 1431.5,926.5 C 1438.38,929.716 1444.05,934.383 1448.5,940.5C 1443.94,937.202 1439.27,933.869 1434.5,930.5C 1433.09,929.431 1432.09,928.097 1431.5,926.5 Z"/></g>
<g><path style="opacity:0.376" fill="#efeeef" d="M 1448.5,940.5 C 1451.33,941.079 1453.66,942.412 1455.5,944.5C 1452.23,944.646 1449.9,943.312 1448.5,940.5 Z"/></g>
<g><path style="opacity:0.545" fill="#cfcdd0" d="M 1477.5,933.5 C 1476.61,942.384 1471.61,946.718 1462.5,946.5C 1459.73,946.471 1457.4,945.805 1455.5,944.5C 1466.07,946.868 1473.4,943.201 1477.5,933.5 Z"/></g>
<g><path style="opacity:0.851" fill="#7e7e7e" d="M 862.5,952.5 C 862.5,953.167 862.5,953.833 862.5,954.5C 837.158,954.167 811.825,954.5 786.5,955.5C 784.223,956.421 781.89,957.087 779.5,957.5C 781.485,955.061 784.152,953.561 787.5,953C 812.498,952.5 837.498,952.333 862.5,952.5 Z"/></g>
<g><path style="opacity:1" fill="#e6a9fe" d="M 862.5,954.5 C 866.637,954.886 870.637,955.886 874.5,957.5C 878.202,961.203 882.202,964.537 886.5,967.5C 887.885,970.659 888.885,973.992 889.5,977.5C 888.836,1080.17 889.502,1182.51 891.5,1284.5C 893.062,1284.73 894.395,1285.4 895.5,1286.5C 896.635,1287.47 897.635,1288.64 898.5,1290C 907.081,1294.09 915.747,1297.93 924.5,1301.5C 925.659,1303.25 927.326,1304.25 929.5,1304.5C 930.262,1306.26 931.596,1307.26 933.5,1307.5C 935.878,1309.88 938.545,1311.88 941.5,1313.5C 949.132,1323.13 957.799,1331.8 967.5,1339.5C 969.016,1342.53 971.016,1345.2 973.5,1347.5C 974.026,1349.23 975.026,1350.56 976.5,1351.5C 981.174,1359.17 985.841,1366.84 990.5,1374.5C 992.436,1379.33 993.936,1384.33 995,1389.5C 996.431,1392.39 997.931,1395.06 999.5,1397.5C 999.587,1401.33 1000.59,1404.67 1002.5,1407.5C 1002.5,1407.83 1002.5,1408.17 1002.5,1408.5C 1004.15,1415.39 1005.15,1422.39 1005.5,1429.5C 1006.79,1446.82 1006.79,1464.15 1005.5,1481.5C 1005.5,1482.83 1005.5,1484.17 1005.5,1485.5C 1005.5,1485.83 1005.5,1486.17 1005.5,1486.5C 1004.53,1488.61 1004.2,1490.94 1004.5,1493.5C 1002.9,1495.48 1001.73,1497.81 1001,1500.5C 1000.45,1504.17 999.952,1507.84 999.5,1511.5C 997.159,1516.15 995.159,1521.15 993.5,1526.5C 993.5,1526.83 993.5,1527.17 993.5,1527.5C 990.659,1531.85 988.326,1536.52 986.5,1541.5C 984.336,1543.82 982.669,1546.49 981.5,1549.5C 979.282,1552.24 977.282,1555.24 975.5,1558.5C 973.844,1560.46 972.177,1562.46 970.5,1564.5C 968.861,1566.81 966.861,1568.81 964.5,1570.5C 960.259,1573.57 956.925,1577.41 954.5,1582C 950.094,1584.23 946.427,1587.4 943.5,1591.5C 940.673,1593.17 938.006,1595 935.5,1597C 934.117,1598.27 933.117,1599.77 932.5,1601.5C 926.908,1602.79 922.575,1605.79 919.5,1610.5C 919.167,1610.5 918.833,1610.5 918.5,1610.5C 914.207,1610.98 910.873,1612.98 908.5,1616.5C 904.144,1616.85 900.477,1618.51 897.5,1621.5C 885.956,1624.78 874.289,1627.61 862.5,1630C 860.934,1630.61 859.6,1631.44 858.5,1632.5C 854.936,1631.1 851.602,1631.43 848.5,1633.5C 848.167,1633.5 847.833,1633.5 847.5,1633.5C 834.167,1632.17 820.833,1632.17 807.5,1633.5C 807.167,1633.5 806.833,1633.5 806.5,1633.5C 792.818,1630.83 779.152,1627.83 765.5,1624.5C 758.245,1619.3 750.245,1615.63 741.5,1613.5C 739.741,1609.78 736.741,1607.78 732.5,1607.5C 732.167,1607.5 731.833,1607.5 731.5,1607.5C 726.473,1603.15 721.14,1599.15 715.5,1595.5C 706.053,1585.6 696.386,1575.93 686.5,1566.5C 685.385,1562.05 683.052,1558.39 679.5,1555.5C 678.833,1555.17 678.167,1554.83 677.5,1554.5C 674.699,1549.58 671.866,1544.58 669,1539.5C 667.404,1533.81 664.904,1528.64 661.5,1524C 658.679,1513.17 655.345,1502.67 651.5,1492.5C 651.5,1492.17 651.5,1491.83 651.5,1491.5C 651.932,1488.12 651.265,1485.12 649.5,1482.5C 649.666,1477.49 649.499,1472.49 649,1467.5C 648.617,1466.94 648.117,1466.61 647.5,1466.5C 647.5,1466.17 647.5,1465.83 647.5,1465.5C 648.492,1457.68 648.826,1449.68 648.5,1441.5C 649.369,1439.28 649.702,1436.95 649.5,1434.5C 649.5,1431.83 649.5,1429.17 649.5,1426.5C 651.265,1423.88 651.932,1420.88 651.5,1417.5C 651.5,1417.17 651.5,1416.83 651.5,1416.5C 652.461,1414.74 652.795,1412.74 652.5,1410.5C 656.004,1405.84 657.671,1400.5 657.5,1394.5C 659.871,1389.74 661.871,1384.74 663.5,1379.5C 665.008,1377.82 666.008,1375.82 666.5,1373.5C 666.5,1373.17 666.5,1372.83 666.5,1372.5C 668.25,1371.34 669.25,1369.67 669.5,1367.5C 671.008,1365.82 672.008,1363.82 672.5,1361.5C 674.25,1360.34 675.25,1358.67 675.5,1356.5C 677.833,1353.83 680.167,1351.17 682.5,1348.5C 687.974,1342.88 692.974,1336.88 697.5,1330.5C 702.116,1324.38 707.783,1319.55 714.5,1316C 716.539,1314.07 718.206,1311.91 719.5,1309.5C 723.946,1309.11 727.279,1306.94 729.5,1303C 733.995,1301.08 737.995,1298.58 741.5,1295.5C 744.526,1294.83 747.526,1293.99 750.5,1293C 752.063,1292.24 753.063,1291.07 753.5,1289.5C 757.446,1289.12 761.112,1288.12 764.5,1286.5C 765.117,1286.39 765.617,1286.06 766,1285.5C 766.5,1182.5 766.667,1079.5 766.5,976.5C 766.833,974.5 767.167,972.5 767.5,970.5C 770.792,965.54 774.792,961.207 779.5,957.5C 781.89,957.087 784.223,956.421 786.5,955.5C 811.825,954.5 837.158,954.167 862.5,954.5 Z"/></g>
<g><path style="opacity:0.816" fill="#c7bccd" d="M 862.5,952.5 C 871.964,953.096 879.63,957.096 885.5,964.5C 886.386,965.325 886.719,966.325 886.5,967.5C 882.202,964.537 878.202,961.203 874.5,957.5C 870.637,955.886 866.637,954.886 862.5,954.5C 862.5,953.833 862.5,953.167 862.5,952.5 Z"/></g>
<g><path style="opacity:0.224" fill="#f0f0f0" d="M 779.5,957.5 C 774.792,961.207 770.792,965.54 767.5,970.5C 767.565,968.304 768.232,966.304 769.5,964.5C 771.984,962.517 774.317,960.35 776.5,958C 777.448,957.517 778.448,957.351 779.5,957.5 Z"/></g>
<g><path style="opacity:0.167" fill="#9b9b9b" d="M 767.5,970.5 C 767.167,972.5 766.833,974.5 766.5,976.5C 765.833,1079.17 765.167,1181.83 764.5,1284.5C 764.333,1180.83 764.5,1077.17 765,973.5C 765.236,971.881 766.069,970.881 767.5,970.5 Z"/></g>
<g><path style="opacity:0.277" fill="#f1f1f1" d="M 886.5,967.5 C 887.497,967.47 888.164,967.97 888.5,969C 889.886,971.732 890.886,974.565 891.5,977.5C 890.833,977.5 890.167,977.5 889.5,977.5C 888.885,973.992 887.885,970.659 886.5,967.5 Z"/></g>
<g><path style="opacity:1" fill="#cfa5f1" d="M 766.5,976.5 C 766.667,1079.5 766.5,1182.5 766,1285.5C 765.617,1286.06 765.117,1286.39 764.5,1286.5C 764.5,1285.83 764.5,1285.17 764.5,1284.5C 765.167,1181.83 765.833,1079.17 766.5,976.5 Z"/></g>
<g><path style="opacity:0.794" fill="#575757" d="M 889.5,977.5 C 890.167,977.5 890.833,977.5 891.5,977.5C 891.5,1079.83 891.5,1182.17 891.5,1284.5C 889.502,1182.51 888.836,1080.17 889.5,977.5 Z"/></g>
<g><path style="opacity:0.906" fill="#a08cba" d="M 570.5,1180.5 C 570.144,1182.19 569.144,1183.19 567.5,1183.5C 567.856,1181.81 568.856,1180.81 570.5,1180.5 Z"/></g>
<g><path style="opacity:0.342" fill="#ecebec" d="M 567.5,1183.5 C 563.167,1188.5 558.5,1193.17 553.5,1197.5C 556.135,1192.34 559.801,1187.84 564.5,1184C 565.448,1183.52 566.448,1183.35 567.5,1183.5 Z"/></g>
<g><path style="opacity:0.784" fill="#a083c2" d="M 1088.5,1183.5 C 1090.5,1184.83 1092.17,1186.5 1093.5,1188.5C 1090.2,1188.37 1088.54,1186.7 1088.5,1183.5 Z"/></g>
<g><path style="opacity:0.624" fill="#a193ad" d="M 1093.5,1188.5 C 1094.83,1189.17 1095.83,1190.17 1096.5,1191.5C 1094.5,1191.5 1093.5,1190.5 1093.5,1188.5 Z"/></g>
<g><path style="opacity:0.584" fill="#aba6ac" d="M 1096.5,1191.5 C 1097.83,1192.17 1098.83,1193.17 1099.5,1194.5C 1097.5,1194.5 1096.5,1193.5 1096.5,1191.5 Z"/></g>
<g><path style="opacity:0.325" fill="#e0dee3" d="M 553.5,1197.5 C 547.521,1205.81 540.855,1213.48 533.5,1220.5C 533.351,1219.45 533.517,1218.45 534,1217.5C 537.073,1214.93 539.573,1211.93 541.5,1208.5C 545.266,1204.39 549.266,1200.73 553.5,1197.5 Z"/></g>
<g><path style="opacity:0.281" fill="#dcdade" d="M 1099.5,1194.5 C 1105.65,1199.3 1110.65,1204.97 1114.5,1211.5C 1108.39,1206.73 1103.39,1201.06 1099.5,1194.5 Z"/></g>
<g><path style="opacity:0.21" fill="#e9e8ea" d="M 1114.5,1211.5 C 1116.52,1212.46 1118.35,1213.79 1120,1215.5C 1120.48,1216.45 1120.65,1217.45 1120.5,1218.5C 1117.81,1216.81 1115.81,1214.47 1114.5,1211.5 Z"/></g>
<g><path style="opacity:0.222" fill="#e6e4ea" d="M 1120.5,1218.5 C 1122.81,1220.48 1125.15,1222.48 1127.5,1224.5C 1127.14,1225.18 1126.8,1225.85 1126.5,1226.5C 1123.41,1224.73 1121.41,1222.07 1120.5,1218.5 Z"/></g>
<g><path style="opacity:0.203" fill="#e5e3e7" d="M 533.5,1220.5 C 532.527,1223.13 530.86,1225.13 528.5,1226.5C 528.729,1224.57 529.562,1222.9 531,1221.5C 531.671,1220.75 532.504,1220.41 533.5,1220.5 Z"/></g>
<g><path style="opacity:0.351" fill="#e7e7e8" d="M 528.5,1226.5 C 528.155,1229.2 526.822,1231.2 524.5,1232.5C 524.196,1231.85 523.863,1231.18 523.5,1230.5C 525.186,1229.14 526.852,1227.81 528.5,1226.5 Z"/></g>
<g><path style="opacity:0.363" fill="#cfcdd2" d="M 961.5,1232.5 C 963.933,1232.27 965.599,1233.27 966.5,1235.5C 963.966,1235.74 962.3,1234.74 961.5,1232.5 Z"/></g>
<g><path style="opacity:0.227" fill="#e9e7ec" d="M 1126.5,1226.5 C 1127.24,1226.37 1127.91,1226.54 1128.5,1227C 1136.02,1237.28 1143.35,1247.61 1150.5,1258C 1150.17,1258.33 1149.83,1258.67 1149.5,1259C 1150.69,1260.35 1152.02,1261.52 1153.5,1262.5C 1153.29,1263.09 1152.96,1263.59 1152.5,1264C 1155.05,1265.75 1156.05,1267.92 1155.5,1270.5C 1145.84,1255.84 1136.17,1241.17 1126.5,1226.5 Z"/></g>
<g><path style="opacity:0.314" fill="#dddbe0" d="M 524.5,1232.5 C 522.6,1236.73 519.933,1240.4 516.5,1243.5C 517.74,1238.74 520.407,1235.08 524.5,1232.5 Z"/></g>
<g><path style="opacity:0.043" fill="#d3d1d6" d="M 966.5,1235.5 C 972.196,1238.02 977.529,1241.19 982.5,1245C 984.041,1246.37 985.375,1247.87 986.5,1249.5C 985.07,1249.58 983.736,1249.25 982.5,1248.5C 977.897,1244.52 972.897,1241.02 967.5,1238C 966.748,1237.33 966.414,1236.5 966.5,1235.5 Z"/></g>
<g><path style="opacity:0.435" fill="#e2dee6" d="M 516.5,1243.5 C 515.63,1246.38 514.297,1249.04 512.5,1251.5C 512.043,1252.3 511.376,1252.63 510.5,1252.5C 510.351,1251.45 510.517,1250.45 511,1249.5C 512.409,1247.05 514.242,1245.05 516.5,1243.5 Z"/></g>
<g><path style="opacity:0.104" fill="#ebeaed" d="M 510.5,1252.5 C 509.66,1255.68 507.993,1258.34 505.5,1260.5C 505.297,1258.61 505.963,1257.11 507.5,1256C 506.968,1254 507.968,1252.83 510.5,1252.5 Z"/></g>
<g><path style="opacity:0.22" fill="#dedce1" d="M 986.5,1249.5 C 989.888,1250.35 992.221,1252.35 993.5,1255.5C 992.448,1255.65 991.448,1255.48 990.5,1255C 988.79,1253.35 987.456,1251.52 986.5,1249.5 Z"/></g>
<g><path style="opacity:0.283" fill="#ecebed" d="M 505.5,1260.5 C 505.002,1263.33 503.669,1265.66 501.5,1267.5C 501.073,1264.44 502.406,1262.11 505.5,1260.5 Z"/></g>
<g><path style="opacity:0.337" fill="#e0dfe2" d="M 993.5,1255.5 C 999.753,1259.08 1005.09,1263.75 1009.5,1269.5C 1003.27,1265.95 997.94,1261.28 993.5,1255.5 Z"/></g>
<g><path style="opacity:0.773" fill="#dfdce3" d="M 673.5,1246.5 C 673.586,1247.5 673.252,1248.33 672.5,1249C 667.173,1252.99 661.84,1256.99 656.5,1261C 648.295,1270.71 639.295,1279.54 629.5,1287.5C 641.654,1271.01 656.32,1257.34 673.5,1246.5 Z"/></g>
<g><path style="opacity:0.035" fill="#aca7b3" d="M 1009.5,1269.5 C 1011.19,1269.86 1012.19,1270.86 1012.5,1272.5C 1010.5,1272.5 1009.5,1271.5 1009.5,1269.5 Z"/></g>
<g><path style="opacity:0.154" fill="#a7a7a7" d="M 1012.5,1272.5 C 1013.83,1273.17 1014.83,1274.17 1015.5,1275.5C 1013.5,1275.5 1012.5,1274.5 1012.5,1272.5 Z"/></g>
<g><path style="opacity:0.275" fill="#ebe9ec" d="M 1155.5,1270.5 C 1163.04,1280.17 1168.71,1291.01 1172.5,1303C 1173.83,1305 1175.17,1307 1176.5,1309C 1176.26,1309.9 1175.92,1310.74 1175.5,1311.5C 1168.59,1298.01 1161.92,1284.35 1155.5,1270.5 Z"/></g>
<g><path style="opacity:0.329" fill="#e4e1e9" d="M 1015.5,1275.5 C 1019.06,1278.55 1022.56,1281.89 1026,1285.5C 1026.79,1286.74 1027.29,1288.08 1027.5,1289.5C 1022.35,1285.69 1018.35,1281.02 1015.5,1275.5 Z"/></g>
<g><path style="opacity:1" fill="#c3b2d1" d="M 764.5,1284.5 C 764.5,1285.17 764.5,1285.83 764.5,1286.5C 761.112,1288.12 757.446,1289.12 753.5,1289.5C 753.47,1288.5 753.97,1287.84 755,1287.5C 758.28,1286.72 761.447,1285.72 764.5,1284.5 Z"/></g>
<g><path style="opacity:0.82" fill="#c5b9cc" d="M 895.5,1286.5 C 901.124,1288.64 906.79,1290.81 912.5,1293C 916.007,1295.25 919.673,1297.25 923.5,1299C 924.252,1299.67 924.586,1300.5 924.5,1301.5C 915.747,1297.93 907.081,1294.09 898.5,1290C 897.635,1288.64 896.635,1287.47 895.5,1286.5 Z"/></g>
<g><path style="opacity:1" fill="#baaac6" d="M 753.5,1289.5 C 753.063,1291.07 752.063,1292.24 750.5,1293C 747.526,1293.99 744.526,1294.83 741.5,1295.5C 741.47,1294.5 741.97,1293.84 743,1293.5C 746.313,1291.62 749.813,1290.29 753.5,1289.5 Z"/></g>
<g><path style="opacity:0.182" fill="#e9e8eb" d="M 501.5,1267.5 C 493.456,1283.29 485.789,1299.29 478.5,1315.5C 477.364,1311.97 478.364,1308.97 481.5,1306.5C 481.291,1305.91 480.957,1305.41 480.5,1305C 485.536,1295.92 490.203,1286.59 494.5,1277C 496.78,1273.59 499.113,1270.42 501.5,1267.5 Z"/></g>
<g><path style="opacity:0.236" fill="#e3e0e6" d="M 1027.5,1289.5 C 1029.02,1289.51 1030.18,1290.18 1031,1291.5C 1032.61,1295.04 1034.94,1298.04 1038,1300.5C 1038.48,1301.45 1038.65,1302.45 1038.5,1303.5C 1037.19,1302.52 1035.85,1301.52 1034.5,1300.5C 1031.81,1297.01 1029.48,1293.35 1027.5,1289.5 Z"/></g>
<g><path style="opacity:0.576" fill="#dcdcdc" d="M 924.5,1301.5 C 926.933,1301.27 928.599,1302.27 929.5,1304.5C 927.326,1304.25 925.659,1303.25 924.5,1301.5 Z"/></g>
<g><path style="opacity:0.145" fill="#e7e4eb" d="M 1038.5,1303.5 C 1042.44,1307.33 1045.94,1311.66 1049,1316.5C 1050.01,1318.02 1050.51,1319.69 1050.5,1321.5C 1049.85,1321.2 1049.18,1320.86 1048.5,1320.5C 1045.83,1316.17 1043.17,1311.83 1040.5,1307.5C 1037.84,1306.9 1037.17,1305.56 1038.5,1303.5 Z"/></g>
<g><path style="opacity:0.573" fill="#e6e6e6" d="M 929.5,1304.5 C 931.973,1304.09 933.306,1305.09 933.5,1307.5C 931.596,1307.26 930.262,1306.26 929.5,1304.5 Z"/></g>
<g><path style="opacity:1" fill="#cbbed4" d="M 741.5,1295.5 C 737.995,1298.58 733.995,1301.08 729.5,1303C 727.279,1306.94 723.946,1309.11 719.5,1309.5C 721.701,1306.46 724.368,1303.96 727.5,1302C 732.088,1299.54 736.755,1297.37 741.5,1295.5 Z"/></g>
<g><path style="opacity:0.364" fill="#e7e7e7" d="M 933.5,1307.5 C 936.989,1308.31 939.656,1310.31 941.5,1313.5C 938.545,1311.88 935.878,1309.88 933.5,1307.5 Z"/></g>
<g><path style="opacity:0.071" fill="#e3e0e7" d="M 629.5,1287.5 C 629.762,1288.98 629.429,1290.31 628.5,1291.5C 625.167,1295.14 621.834,1298.8 618.5,1302.5C 618.709,1303.09 619.043,1303.59 619.5,1304C 617.714,1304.78 616.214,1305.95 615,1307.5C 611.929,1312.93 608.763,1318.26 605.5,1323.5C 604.817,1323.86 604.15,1324.2 603.5,1324.5C 609.828,1310.51 618.494,1298.18 629.5,1287.5 Z"/></g>
<g><path style="opacity:0.251" fill="#dfdde1" d="M 1175.5,1312.5 C 1178.47,1314.09 1179.47,1316.43 1178.5,1319.5C 1176.71,1317.57 1175.71,1315.24 1175.5,1312.5 Z"/></g>
<g><path style="opacity:0.182" fill="#e0dfe1" d="M 478.5,1315.5 C 476.588,1322.92 473.921,1329.92 470.5,1336.5C 470.635,1331.08 472.301,1326.25 475.5,1322C 474.978,1321.44 474.645,1320.77 474.5,1320C 475.465,1318.02 476.799,1316.52 478.5,1315.5 Z"/></g>
<g><path style="opacity:0.871" fill="#d9cce2" d="M 941.5,1313.5 C 943.433,1313.73 945.1,1314.56 946.5,1316C 952.983,1323.08 959.816,1329.91 967,1336.5C 967.483,1337.45 967.649,1338.45 967.5,1339.5C 957.799,1331.8 949.132,1323.13 941.5,1313.5 Z"/></g>
<g><path style="opacity:0.444" fill="#e3dfe6" d="M 719.5,1309.5 C 718.206,1311.91 716.539,1314.07 714.5,1316C 707.783,1319.55 702.116,1324.38 697.5,1330.5C 694.833,1332.83 692.167,1335.17 689.5,1337.5C 694.475,1331.19 699.808,1325.19 705.5,1319.5C 709.732,1316.96 713.398,1313.79 716.5,1310C 717.448,1309.52 718.448,1309.35 719.5,1309.5 Z"/></g>
<g><path style="opacity:0.128" fill="#edeced" d="M 1178.5,1319.5 C 1181.76,1321.35 1182.76,1324.02 1181.5,1327.5C 1179.73,1325.21 1178.73,1322.54 1178.5,1319.5 Z"/></g>
<g><path style="opacity:0.259" fill="#e7e5ea" d="M 1050.5,1321.5 C 1058.03,1330.99 1063.69,1341.65 1067.5,1353.5C 1066.07,1352.55 1064.74,1351.39 1063.5,1350C 1063.96,1349.59 1064.29,1349.09 1064.5,1348.5C 1063.17,1346.83 1061.83,1345.17 1060.5,1343.5C 1060.71,1342.91 1061.04,1342.41 1061.5,1342C 1060.04,1340.65 1058.71,1339.15 1057.5,1337.5C 1057.71,1336.91 1058.04,1336.41 1058.5,1336C 1055.72,1333 1053.39,1329.66 1051.5,1326C 1050.85,1324.56 1050.52,1323.06 1050.5,1321.5 Z"/></g>
<g><path style="opacity:1" fill="#cebbdd" d="M 697.5,1330.5 C 692.974,1336.88 687.974,1342.88 682.5,1348.5C 682.5,1347.83 682.5,1347.17 682.5,1346.5C 683.598,1345.6 683.598,1344.77 682.5,1344C 685.056,1341.94 687.39,1339.77 689.5,1337.5C 692.167,1335.17 694.833,1332.83 697.5,1330.5 Z"/></g>
<g><path style="opacity:0.229" fill="#e9e9e9" d="M 967.5,1339.5 C 970.972,1341.04 972.972,1343.71 973.5,1347.5C 971.016,1345.2 969.016,1342.53 967.5,1339.5 Z"/></g>
<g><path style="opacity:0.204" fill="#e7e5ea" d="M 603.5,1324.5 C 601.697,1330.4 599.03,1335.9 595.5,1341C 595.833,1341.33 596.167,1341.67 596.5,1342C 595.341,1343.83 594.008,1345.49 592.5,1347C 592.833,1347.33 593.167,1347.67 593.5,1348C 589.966,1354.57 586.633,1361.07 583.5,1367.5C 583.814,1364.05 584.648,1360.72 586,1357.5C 588.648,1351.58 591.315,1345.58 594,1339.5C 596.72,1334.02 599.887,1329.02 603.5,1324.5 Z"/></g>
<g><path style="opacity:0.076" fill="#d6d4d7" d="M 1181.5,1327.5 C 1183.1,1328.74 1184.26,1330.4 1185,1332.5C 1189.81,1348.5 1193.98,1364.67 1197.5,1381C 1198.12,1385.15 1198.46,1389.31 1198.5,1393.5C 1193.86,1371.31 1188.19,1349.31 1181.5,1327.5 Z"/></g>
<g><path style="opacity:0.274" fill="#f5f5f5" d="M 682.5,1346.5 C 682.5,1347.17 682.5,1347.83 682.5,1348.5C 680.167,1351.17 677.833,1353.83 675.5,1356.5C 676.755,1352.38 679.089,1349.04 682.5,1346.5 Z"/></g>
<g><path style="opacity:0.134" fill="#f6f6f6" d="M 973.5,1347.5 C 976.651,1347.61 977.651,1348.95 976.5,1351.5C 975.026,1350.56 974.026,1349.23 973.5,1347.5 Z"/></g>
<g><path style="opacity:0.388" fill="#d9d8d9" d="M 470.5,1336.5 C 466.485,1352.27 462.485,1367.93 458.5,1383.5C 460.173,1368.29 463.507,1353.46 468.5,1339C 468.684,1337.62 469.351,1336.79 470.5,1336.5 Z"/></g>
<g><path style="opacity:0.031" fill="#f2f2f2" d="M 976.5,1351.5 C 977.482,1352.14 978.482,1352.81 979.5,1353.5C 981.549,1357.24 983.882,1360.74 986.5,1364C 988.381,1367.31 989.714,1370.81 990.5,1374.5C 985.841,1366.84 981.174,1359.17 976.5,1351.5 Z"/></g>
<g><path style="opacity:0.289" fill="#f9f9f9" d="M 675.5,1356.5 C 675.25,1358.67 674.25,1360.34 672.5,1361.5C 672.273,1359.07 673.273,1357.4 675.5,1356.5 Z"/></g>
<g><path style="opacity:0.31" fill="#dfdce3" d="M 1067.5,1353.5 C 1069.65,1355.62 1070.65,1358.28 1070.5,1361.5C 1068.02,1359.58 1067.02,1356.92 1067.5,1353.5 Z"/></g>
<g><path style="opacity:0.498" fill="#e9e9e9" d="M 672.5,1361.5 C 672.008,1363.82 671.008,1365.82 669.5,1367.5C 669.386,1364.78 670.386,1362.78 672.5,1361.5 Z"/></g>
<g><path style="opacity:0.184" fill="#dddbe0" d="M 583.5,1367.5 C 582.772,1372.97 581.438,1378.3 579.5,1383.5C 579.253,1384.71 578.586,1385.38 577.5,1385.5C 578.139,1378.91 580.139,1372.91 583.5,1367.5 Z"/></g>
<g><path style="opacity:0.404" fill="#d8d8d8" d="M 669.5,1367.5 C 669.25,1369.67 668.25,1371.34 666.5,1372.5C 666.592,1370.15 667.592,1368.49 669.5,1367.5 Z"/></g>
<g><path style="opacity:0.149" fill="#d5d5d5" d="M 666.5,1373.5 C 666.008,1375.82 665.008,1377.82 663.5,1379.5C 663.386,1376.78 664.386,1374.78 666.5,1373.5 Z"/></g>
<g><path style="opacity:0.163" fill="#dad8dc" d="M 1070.5,1361.5 C 1072.12,1363.12 1073.28,1365.12 1074,1367.5C 1079.06,1382.17 1082.56,1397.17 1084.5,1412.5C 1083.88,1412.39 1083.38,1412.06 1083,1411.5C 1079.58,1394.6 1075.41,1377.93 1070.5,1361.5 Z"/></g>
<g><path style="opacity:0.278" fill="#efefef" d="M 663.5,1379.5 C 661.871,1384.74 659.871,1389.74 657.5,1394.5C 657.077,1393.74 656.743,1392.9 656.5,1392C 658.281,1388.38 659.948,1384.71 661.5,1381C 661.836,1379.97 662.503,1379.47 663.5,1379.5 Z"/></g>
<g><path style="opacity:0.214" fill="#dcd4e1" d="M 990.5,1374.5 C 991.497,1374.47 992.164,1374.97 992.5,1376C 994.58,1382.57 997.247,1388.9 1000.5,1395C 1000.26,1395.9 999.923,1396.74 999.5,1397.5C 997.931,1395.06 996.431,1392.39 995,1389.5C 993.936,1384.33 992.436,1379.33 990.5,1374.5 Z"/></g>
<g><path style="opacity:0.549" fill="#bfbebf" d="M 458.5,1384.5 C 458.116,1391.06 457.116,1397.39 455.5,1403.5C 454.914,1401.76 454.581,1399.92 454.5,1398C 455.244,1393.08 456.577,1388.58 458.5,1384.5 Z"/></g>
<g><path style="opacity:0.965" fill="#d6c9dc" d="M 657.5,1394.5 C 657.671,1400.5 656.004,1405.84 652.5,1410.5C 652.042,1407.61 652.709,1405.11 654.5,1403C 653.978,1402.44 653.645,1401.77 653.5,1401C 654.55,1398.47 655.883,1396.3 657.5,1394.5 Z"/></g>
<g><path style="opacity:0.231" fill="#b0afb1" d="M 1198.5,1394.5 C 1200.61,1400.06 1201.95,1406.06 1202.5,1412.5C 1202.5,1415.03 1202.16,1417.36 1201.5,1419.5C 1200.12,1411.25 1199.12,1402.92 1198.5,1394.5 Z"/></g>
<g><path style="opacity:0.207" fill="#ededed" d="M 455.5,1403.5 C 455.5,1405.5 455.5,1407.5 455.5,1409.5C 454.5,1409.5 453.5,1409.5 452.5,1409.5C 452.5,1407.5 452.5,1405.5 452.5,1403.5C 453.5,1403.5 454.5,1403.5 455.5,1403.5 Z"/></g>
<g><path style="opacity:0.035" fill="#c3bec6" d="M 999.5,1397.5 C 1001.33,1399.53 1002.67,1402.03 1003.5,1405C 1003.47,1406.07 1003.14,1406.9 1002.5,1407.5C 1000.59,1404.67 999.587,1401.33 999.5,1397.5 Z"/></g>
<g><path style="opacity:0.059" fill="#c6c3c9" d="M 577.5,1385.5 C 575.48,1399.2 572.813,1412.54 569.5,1425.5C 570.046,1414.7 571.546,1404.03 574,1393.5C 574.983,1390.69 576.149,1388.02 577.5,1385.5 Z"/></g>
<g><path style="opacity:0.259" fill="#cacaca" d="M 1002.5,1408.5 C 1004.04,1410.03 1005.04,1412.03 1005.5,1414.5C 1006.68,1419.77 1007.34,1425.11 1007.5,1430.5C 1006.83,1430.17 1006.17,1429.83 1005.5,1429.5C 1005.15,1422.39 1004.15,1415.39 1002.5,1408.5 Z"/></g>
<g><path style="opacity:0.639" fill="#c3c3c3" d="M 652.5,1410.5 C 652.795,1412.74 652.461,1414.74 651.5,1416.5C 650.853,1415.73 650.52,1414.73 650.5,1413.5C 650.64,1411.97 651.307,1410.97 652.5,1410.5 Z"/></g>
<g><path style="opacity:0.929" fill="#bbb8bc" d="M 651.5,1417.5 C 651.932,1420.88 651.265,1423.88 649.5,1426.5C 648.945,1422.99 649.612,1419.99 651.5,1417.5 Z"/></g>
<g><path style="opacity:0.933" fill="#94909b" d="M 452.5,1409.5 C 453.5,1409.5 454.5,1409.5 455.5,1409.5C 454.694,1421 453.694,1432.33 452.5,1443.5C 452.717,1432.02 452.717,1420.68 452.5,1409.5 Z"/></g>
<g><path style="opacity:0.886" fill="#c8c7c8" d="M 1084.5,1412.5 C 1086.95,1421.2 1087.95,1430.2 1087.5,1439.5C 1085.84,1432.67 1084.5,1425.51 1083.5,1418C 1083.58,1416.08 1083.91,1414.24 1084.5,1412.5 Z"/></g>
<g><path style="opacity:0.263" fill="#c0c0c0" d="M 1201.5,1420.5 C 1203.44,1424.71 1204.1,1429.38 1203.5,1434.5C 1202.83,1433.83 1202.17,1433.17 1201.5,1432.5C 1201.5,1428.5 1201.5,1424.5 1201.5,1420.5 Z"/></g>
<g><path style="opacity:0.382" fill="#cccccc" d="M 649.5,1426.5 C 649.5,1429.17 649.5,1431.83 649.5,1434.5C 648.833,1434.5 648.167,1434.5 647.5,1434.5C 646.964,1431.3 647.631,1428.64 649.5,1426.5 Z"/></g>
<g><path style="opacity:0.678" fill="#6c6c6c" d="M 647.5,1434.5 C 648.167,1434.5 648.833,1434.5 649.5,1434.5C 649.702,1436.95 649.369,1439.28 648.5,1441.5C 648.167,1441.5 647.833,1441.5 647.5,1441.5C 647.5,1439.17 647.5,1436.83 647.5,1434.5 Z"/></g>
<g><path style="opacity:0.355" fill="#d4d2d6" d="M 569.5,1426.5 C 570.833,1433.17 570.833,1439.83 569.5,1446.5C 568.275,1445.85 567.608,1444.68 567.5,1443C 568.032,1437.43 568.698,1431.93 569.5,1426.5 Z"/></g>
<g><path style="opacity:1" fill="#ad99bf" d="M 1005.5,1429.5 C 1006.17,1429.83 1006.83,1430.17 1007.5,1430.5C 1007.5,1432.5 1007.5,1434.5 1007.5,1436.5C 1007.5,1448.83 1007.5,1461.17 1007.5,1473.5C 1007.5,1475.5 1007.5,1477.5 1007.5,1479.5C 1006.83,1480.17 1006.17,1480.83 1005.5,1481.5C 1006.79,1464.15 1006.79,1446.82 1005.5,1429.5 Z"/></g>
<g><path style="opacity:0.429" fill="#c7c7c7" d="M 1007.5,1436.5 C 1008.83,1442.3 1009.5,1448.46 1009.5,1455C 1009.5,1461.54 1008.83,1467.7 1007.5,1473.5C 1007.5,1461.17 1007.5,1448.83 1007.5,1436.5 Z"/></g>
<g><path style="opacity:0.953" fill="#e0e0e0" d="M 647.5,1441.5 C 647.833,1441.5 648.167,1441.5 648.5,1441.5C 648.826,1449.68 648.492,1457.68 647.5,1465.5C 646.187,1457.6 646.187,1449.6 647.5,1441.5 Z"/></g>
<g><path style="opacity:0.027" fill="#656565" d="M 1086.5,1464.5 C 1086.5,1457.17 1086.5,1449.83 1086.5,1442.5C 1087.12,1442.39 1087.62,1442.06 1088,1441.5C 1088.67,1449.5 1088.67,1457.5 1088,1465.5C 1087.62,1464.94 1087.12,1464.61 1086.5,1464.5 Z"/></g>
<g><path style="opacity:0.263" fill="#636164" d="M 1201.5,1432.5 C 1202.17,1433.17 1202.83,1433.83 1203.5,1434.5C 1203.5,1448.17 1203.5,1461.83 1203.5,1475.5C 1202.83,1475.83 1202.17,1476.17 1201.5,1476.5C 1202.7,1461.83 1202.7,1447.16 1201.5,1432.5 Z"/></g>
<g><path style="opacity:0.035" fill="#b4b3b6" d="M 568.5,1461.5 C 569.753,1464.91 570.42,1468.57 570.5,1472.5C 570.498,1476.02 570.165,1479.35 569.5,1482.5C 568.099,1475.41 567.766,1468.41 568.5,1461.5 Z"/></g>
<g><path style="opacity:0.678" fill="#a5a5a5" d="M 647.5,1466.5 C 648.117,1466.61 648.617,1466.94 649,1467.5C 649.499,1472.49 649.666,1477.49 649.5,1482.5C 647.554,1477.6 646.887,1472.27 647.5,1466.5 Z"/></g>
<g><path style="opacity:0.278" fill="#b7b5b9" d="M 1087.5,1468.5 C 1087.87,1477.79 1086.87,1486.79 1084.5,1495.5C 1083.91,1493.76 1083.58,1491.92 1083.5,1490C 1084.5,1482.49 1085.84,1475.33 1087.5,1468.5 Z"/></g>
<g><path style="opacity:0.237" fill="#eeeeee" d="M 1007.5,1479.5 C 1007.97,1482.08 1007.31,1484.08 1005.5,1485.5C 1005.5,1484.17 1005.5,1482.83 1005.5,1481.5C 1006.17,1480.83 1006.83,1480.17 1007.5,1479.5 Z"/></g>
<g><path style="opacity:0.875" fill="#dcdcdc" d="M 1203.5,1475.5 C 1204.1,1480.29 1203.43,1484.63 1201.5,1488.5C 1201.5,1484.5 1201.5,1480.5 1201.5,1476.5C 1202.17,1476.17 1202.83,1475.83 1203.5,1475.5 Z"/></g>
<g><path style="opacity:0.337" fill="#c4c3c4" d="M 649.5,1482.5 C 651.265,1485.12 651.932,1488.12 651.5,1491.5C 649.612,1489.01 648.945,1486.01 649.5,1482.5 Z"/></g>
<g><path style="opacity:0.075" fill="#c7c7c7" d="M 1005.5,1486.5 C 1006.15,1487.27 1006.48,1488.27 1006.5,1489.5C 1006.66,1491.35 1005.99,1492.69 1004.5,1493.5C 1004.2,1490.94 1004.53,1488.61 1005.5,1486.5 Z"/></g>
<g><path style="opacity:0.02" fill="#bab8bc" d="M 1201.5,1489.5 C 1202.65,1493.31 1202.81,1497.31 1202,1501.5C 1201.23,1506.11 1200.06,1510.44 1198.5,1514.5C 1198.61,1505.92 1199.61,1497.59 1201.5,1489.5 Z"/></g>
<g><path style="opacity:0.251" fill="#adacad" d="M 452.5,1462.5 C 453.407,1476.02 454.407,1489.69 455.5,1503.5C 454.5,1503.5 453.5,1503.5 452.5,1503.5C 452.5,1489.83 452.5,1476.17 452.5,1462.5 Z"/></g>
<g><path style="opacity:0.059" fill="#bdbcbe" d="M 569.5,1483.5 C 571.271,1488.12 572.604,1493.12 573.5,1498.5C 573.489,1500.05 573.156,1501.38 572.5,1502.5C 570.419,1496.46 569.419,1490.13 569.5,1483.5 Z"/></g>
<g><path style="opacity:0.229" fill="#e0d9e3" d="M 1004.5,1493.5 C 1004.96,1496.39 1004.29,1498.89 1002.5,1501C 1003.08,1501.89 1003.41,1502.89 1003.5,1504C 1002.67,1506.97 1001.33,1509.47 999.5,1511.5C 999.952,1507.84 1000.45,1504.17 1001,1500.5C 1001.73,1497.81 1002.9,1495.48 1004.5,1493.5 Z"/></g>
<g><path style="opacity:0.337" fill="#bdbbbe" d="M 572.5,1503.5 C 574.369,1505.64 575.036,1508.3 574.5,1511.5C 572.96,1509.16 572.294,1506.5 572.5,1503.5 Z"/></g>
<g><path style="opacity:0.549" fill="#bdbac0" d="M 455.5,1505.5 C 456.222,1505.92 456.722,1506.58 457,1507.5C 457.684,1512.82 458.184,1518.16 458.5,1523.5C 456.577,1519.42 455.244,1514.92 454.5,1510C 454.508,1508.29 454.842,1506.79 455.5,1505.5 Z"/></g>
<g><path style="opacity:0.937" fill="#ddd3e3" d="M 651.5,1492.5 C 655.345,1502.67 658.679,1513.17 661.5,1524C 664.904,1528.64 667.404,1533.81 669,1539.5C 671.866,1544.58 674.699,1549.58 677.5,1554.5C 674.634,1552.54 672.3,1550.04 670.5,1547C 666.383,1537.31 661.883,1527.81 657,1518.5C 656.316,1517.22 656.483,1516.05 657.5,1515C 655.966,1512.85 654.632,1510.52 653.5,1508C 653.645,1507.23 653.978,1506.56 654.5,1506C 652.602,1502.99 651.269,1499.66 650.5,1496C 650.514,1494.62 650.848,1493.45 651.5,1492.5 Z"/></g>
<g><path style="opacity:0.51" fill="#d9d9da" d="M 1084.5,1495.5 C 1082.22,1513.3 1077.56,1530.3 1070.5,1546.5C 1075.07,1529.28 1079.74,1512.28 1084.5,1495.5 Z"/></g>
<g><path style="opacity:0.22" fill="#e3e2e4" d="M 999.5,1511.5 C 999.923,1512.26 1000.26,1513.1 1000.5,1514C 999.271,1516.58 997.938,1519.08 996.5,1521.5C 996.709,1522.09 997.043,1522.59 997.5,1523C 996.264,1524.39 994.931,1525.55 993.5,1526.5C 995.159,1521.15 997.159,1516.15 999.5,1511.5 Z"/></g>
<g><path style="opacity:1" fill="#c9c5ce" d="M 1198.5,1514.5 C 1198.53,1518.86 1198.2,1523.19 1197.5,1527.5C 1197.41,1529.33 1196.75,1530.67 1195.5,1531.5C 1195.49,1525.52 1196.49,1519.85 1198.5,1514.5 Z"/></g>
<g><path style="opacity:0.42" fill="#d9d9d9" d="M 458.5,1524.5 C 460.246,1528.89 461.246,1533.56 461.5,1538.5C 460.307,1538.03 459.64,1537.03 459.5,1535.5C 458.754,1531.87 458.421,1528.2 458.5,1524.5 Z"/></g>
<g><path style="opacity:0.201" fill="#f8f8f8" d="M 993.5,1527.5 C 992.74,1532.15 991.074,1536.48 988.5,1540.5C 987.817,1540.86 987.15,1541.2 986.5,1541.5C 988.326,1536.52 990.659,1531.85 993.5,1527.5 Z"/></g>
<g><path style="opacity:0.176" fill="#cac8ca" d="M 461.5,1539.5 C 463.498,1543.13 464.498,1547.13 464.5,1551.5C 463.307,1551.03 462.64,1550.03 462.5,1548.5C 461.838,1545.53 461.505,1542.53 461.5,1539.5 Z"/></g>
<g><path style="opacity:0.02" fill="#e6e6e6" d="M 986.5,1541.5 C 986.224,1545.08 984.557,1547.75 981.5,1549.5C 982.669,1546.49 984.336,1543.82 986.5,1541.5 Z"/></g>
<g><path style="opacity:0.171" fill="#e9e8ea" d="M 1070.5,1546.5 C 1070.45,1549.35 1069.45,1551.68 1067.5,1553.5C 1067.18,1550.42 1068.18,1548.09 1070.5,1546.5 Z"/></g>
<g><path style="opacity:0.196" fill="#d4d1d7" d="M 1195.5,1531.5 C 1195.08,1539.32 1193.74,1546.99 1191.5,1554.5C 1190.11,1558.85 1188.45,1562.85 1186.5,1566.5C 1188.76,1554.54 1191.76,1542.88 1195.5,1531.5 Z"/></g>
<g><path style="opacity:0.23" fill="#f2f1f2" d="M 981.5,1549.5 C 981.331,1553.75 979.331,1556.75 975.5,1558.5C 977.282,1555.24 979.282,1552.24 981.5,1549.5 Z"/></g>
<g><path style="opacity:0.172" fill="#f8f8f8" d="M 677.5,1554.5 C 678.167,1554.83 678.833,1555.17 679.5,1555.5C 679.557,1556.61 679.89,1557.61 680.5,1558.5C 677.349,1558.39 676.349,1557.05 677.5,1554.5 Z"/></g>
<g><path style="opacity:0.251" fill="#f4f4f4" d="M 975.5,1558.5 C 975.288,1561.71 973.621,1563.71 970.5,1564.5C 972.177,1562.46 973.844,1560.46 975.5,1558.5 Z"/></g>
<g><path style="opacity:0.792" fill="#d6c4e0" d="M 679.5,1555.5 C 683.052,1558.39 685.385,1562.05 686.5,1566.5C 683.066,1565.02 681.066,1562.36 680.5,1558.5C 679.89,1557.61 679.557,1556.61 679.5,1555.5 Z"/></g>
<g><path style="opacity:0.569" fill="#e3e1e5" d="M 464.5,1551.5 C 470.547,1570.29 477.213,1588.95 484.5,1607.5C 483.069,1606.55 481.736,1605.39 480.5,1604C 480.957,1603.59 481.291,1603.09 481.5,1602.5C 475.337,1589.72 470.003,1575.72 465.5,1560.5C 464.838,1557.53 464.505,1554.53 464.5,1551.5 Z"/></g>
<g><path style="opacity:0.293" fill="#f6f6f6" d="M 970.5,1564.5 C 970.414,1565.5 970.748,1566.33 971.5,1567C 969.055,1568.77 966.722,1570.6 964.5,1572.5C 964.5,1571.83 964.5,1571.17 964.5,1570.5C 966.861,1568.81 968.861,1566.81 970.5,1564.5 Z"/></g>
<g><path style="opacity:0.198" fill="#e3e2e4" d="M 574.5,1511.5 C 578.418,1523.44 582.418,1535.61 586.5,1548C 591.953,1560.25 598.119,1572.09 605,1583.5C 605.813,1585.44 606.313,1587.44 606.5,1589.5C 590.589,1565.79 579.922,1539.79 574.5,1511.5 Z"/></g>
<g><path style="opacity:0.255" fill="#e5e4e7" d="M 1186.5,1566.5 C 1186.55,1569.37 1186.22,1572.21 1185.5,1575C 1184.86,1577.48 1183.52,1579.31 1181.5,1580.5C 1182.4,1575.47 1184.06,1570.8 1186.5,1566.5 Z"/></g>
<g><path style="opacity:0.827" fill="#cabbd3" d="M 964.5,1570.5 C 964.5,1571.17 964.5,1571.83 964.5,1572.5C 962.914,1574.63 961.081,1576.63 959,1578.5C 957.991,1580.02 957.491,1581.69 957.5,1583.5C 956.127,1583.34 954.793,1583.51 953.5,1584C 947.955,1590.11 941.955,1595.78 935.5,1601C 934.552,1601.48 933.552,1601.65 932.5,1601.5C 933.117,1599.77 934.117,1598.27 935.5,1597C 938.006,1595 940.673,1593.17 943.5,1591.5C 946.427,1587.4 950.094,1584.23 954.5,1582C 956.925,1577.41 960.259,1573.57 964.5,1570.5 Z"/></g>
<g><path style="opacity:0.012" fill="#cecdce" d="M 686.5,1566.5 C 696.386,1575.93 706.053,1585.6 715.5,1595.5C 714.448,1595.65 713.448,1595.48 712.5,1595C 704,1586.5 695.5,1578 687,1569.5C 686.517,1568.55 686.351,1567.55 686.5,1566.5 Z"/></g>
<g><path style="opacity:0.22" fill="#eae9ec" d="M 1067.5,1553.5 C 1062.1,1568.3 1055.1,1582.3 1046.5,1595.5C 1046.04,1596.3 1045.38,1596.63 1044.5,1596.5C 1044.52,1594.94 1044.85,1593.44 1045.5,1592C 1047.43,1590.07 1049.1,1587.9 1050.5,1585.5C 1054.77,1575.95 1059.44,1567.12 1064.5,1559C 1064.17,1558.67 1063.83,1558.33 1063.5,1558C 1064.58,1556.14 1065.91,1554.64 1067.5,1553.5 Z"/></g>
<g><path style="opacity:0.314" fill="#dcd9df" d="M 1181.5,1580.5 C 1181.92,1581.26 1182.26,1582.1 1182.5,1583C 1181.37,1585.52 1180.03,1587.85 1178.5,1590C 1178.96,1590.41 1179.29,1590.91 1179.5,1591.5C 1178.26,1593.78 1176.93,1595.95 1175.5,1598C 1175.83,1598.33 1176.17,1598.67 1176.5,1599C 1174.4,1603.13 1172.07,1606.97 1169.5,1610.5C 1173.49,1601.04 1176.99,1591.37 1180,1581.5C 1180.38,1580.94 1180.88,1580.61 1181.5,1580.5 Z"/></g>
<g><path style="opacity:0.136" fill="#e8e7ea" d="M 606.5,1589.5 C 607.496,1589.41 608.329,1589.75 609,1590.5C 610.782,1594.51 613.282,1598.01 616.5,1601C 616.167,1601.33 615.833,1601.67 615.5,1602C 616.685,1603.35 618.019,1604.52 619.5,1605.5C 619.137,1606.18 618.804,1606.85 618.5,1607.5C 613.331,1602.32 609.331,1596.32 606.5,1589.5 Z"/></g>
<g><path style="opacity:0.461" fill="#dcdcdc" d="M 715.5,1595.5 C 721.14,1599.15 726.473,1603.15 731.5,1607.5C 729.821,1607.11 728.154,1606.61 726.5,1606C 722.259,1602.92 718.592,1599.42 715.5,1595.5 Z"/></g>
<g><path style="opacity:0.245" fill="#e7e5ea" d="M 1044.5,1596.5 C 1041.72,1603.07 1037.72,1608.74 1032.5,1613.5C 1032.2,1612.85 1031.86,1612.18 1031.5,1611.5C 1033.15,1610.35 1034.65,1609.02 1036,1607.5C 1037.69,1602.88 1040.52,1599.22 1044.5,1596.5 Z"/></g>
<g><path style="opacity:0.106" fill="#d2cbd6" d="M 932.5,1601.5 C 931.826,1603.02 930.826,1604.36 929.5,1605.5C 926.378,1607.63 923.045,1609.3 919.5,1610.5C 922.575,1605.79 926.908,1602.79 932.5,1601.5 Z"/></g>
<g><path style="opacity:0.135" fill="#d8d4dc" d="M 618.5,1607.5 C 620.024,1608.17 621.358,1609.17 622.5,1610.5C 623.386,1611.32 623.719,1612.32 623.5,1613.5C 620.914,1612.36 619.247,1610.36 618.5,1607.5 Z"/></g>
<g><path style="opacity:0.204" fill="#ceccd1" d="M 484.5,1607.5 C 486.245,1609.03 487.245,1611.03 487.5,1613.5C 485.386,1612.22 484.386,1610.22 484.5,1607.5 Z"/></g>
<g><path style="opacity:0.349" fill="#d8d0de" d="M 732.5,1607.5 C 736.741,1607.78 739.741,1609.78 741.5,1613.5C 738.757,1612.61 736.09,1611.45 733.5,1610C 732.748,1609.33 732.414,1608.5 732.5,1607.5 Z"/></g>
<g><path style="opacity:0.205" fill="#d8d4dc" d="M 1169.5,1610.5 C 1169.61,1613.22 1168.61,1615.22 1166.5,1616.5C 1166.46,1613.91 1167.46,1611.91 1169.5,1610.5 Z"/></g>
<g><path style="opacity:0.373" fill="#dad8db" d="M 918.5,1610.5 C 918.586,1611.5 918.252,1612.33 917.5,1613C 914.707,1614.65 911.707,1615.82 908.5,1616.5C 910.873,1612.98 914.207,1610.98 918.5,1610.5 Z"/></g>
<g><path style="opacity:0.145" fill="#d3d1d3" d="M 908.5,1616.5 C 905.585,1619.65 901.918,1621.32 897.5,1621.5C 900.477,1618.51 904.144,1616.85 908.5,1616.5 Z"/></g>
<g><path style="opacity:0.159" fill="#cdc3d3" d="M 741.5,1613.5 C 750.245,1615.63 758.245,1619.3 765.5,1624.5C 756.372,1622.93 748.372,1619.26 741.5,1613.5 Z"/></g>
<g><path style="opacity:0.345" fill="#b4adb8" d="M 897.5,1621.5 C 896.942,1622.79 895.942,1623.62 894.5,1624C 888.812,1625.77 883.145,1627.6 877.5,1629.5C 871.238,1631.12 864.904,1632.12 858.5,1632.5C 859.6,1631.44 860.934,1630.61 862.5,1630C 874.289,1627.61 885.956,1624.78 897.5,1621.5 Z"/></g>
<g><path style="opacity:0.388" fill="#bbb6bd" d="M 765.5,1624.5 C 779.152,1627.83 792.818,1630.83 806.5,1633.5C 795.974,1633.33 785.641,1631.83 775.5,1629C 771.93,1627.79 768.597,1626.29 765.5,1624.5 Z"/></g>
<g><path style="opacity:0.288" fill="#e0dce4" d="M 487.5,1614.5 C 492.157,1621.14 496.324,1628.14 500,1635.5C 501.411,1637.65 502.245,1639.98 502.5,1642.5C 500.46,1641.3 498.794,1639.63 497.5,1637.5C 497.709,1636.91 498.043,1636.41 498.5,1636C 492.845,1629.85 489.178,1622.68 487.5,1614.5 Z"/></g>
<g><path style="opacity:0.144" fill="#e5e2e8" d="M 623.5,1613.5 C 635.403,1625.66 647.069,1638 658.5,1650.5C 649.988,1644.5 642.154,1637.5 635,1629.5C 631.913,1625.29 628.58,1621.29 625,1617.5C 624.209,1616.26 623.709,1614.92 623.5,1613.5 Z"/></g>
<g><path style="opacity:0.976" fill="#b7b2b9" d="M 858.5,1632.5 C 855.375,1633.48 852.042,1633.81 848.5,1633.5C 851.602,1631.43 854.936,1631.1 858.5,1632.5 Z"/></g>
<g><path style="opacity:1" fill="#b99ed6" d="M 847.5,1633.5 C 834.124,1632.85 821.124,1633.52 808.5,1635.5C 807.662,1635.16 807.328,1634.49 807.5,1633.5C 820.833,1632.17 834.167,1632.17 847.5,1633.5 Z"/></g>
<g><path style="opacity:0.301" fill="#b4b4b4" d="M 847.5,1633.5 C 847.833,1633.5 848.167,1633.5 848.5,1633.5C 835.542,1635.48 822.209,1636.15 808.5,1635.5C 821.124,1633.52 834.124,1632.85 847.5,1633.5 Z"/></g>
<g><path style="opacity:0.205" fill="#e7e5e9" d="M 1166.5,1616.5 C 1166.57,1618.4 1166.23,1620.23 1165.5,1622C 1162.45,1627.9 1159.12,1633.57 1155.5,1639C 1155.96,1639.41 1156.29,1639.91 1156.5,1640.5C 1155.02,1641.48 1153.69,1642.65 1152.5,1644C 1152.83,1644.33 1153.17,1644.67 1153.5,1645C 1146.77,1655.67 1139.77,1666.17 1132.5,1676.5C 1131.43,1677.91 1130.1,1678.91 1128.5,1679.5C 1142.03,1658.98 1154.7,1637.98 1166.5,1616.5 Z"/></g>
<g><path style="opacity:0.135" fill="#e7e6e7" d="M 502.5,1642.5 C 504.95,1644.63 506.617,1647.3 507.5,1650.5C 504.968,1650.17 503.968,1649 504.5,1647C 502.893,1645.95 502.227,1644.45 502.5,1642.5 Z"/></g>
<g><path style="opacity:0.302" fill="#d8d6db" d="M 658.5,1650.5 C 659.552,1650.35 660.552,1650.52 661.5,1651C 665.438,1655.09 669.438,1658.92 673.5,1662.5C 669.067,1659.92 664.734,1657.08 660.5,1654C 659.177,1653.18 658.511,1652.02 658.5,1650.5 Z"/></g>
<g><path style="opacity:0.494" fill="#d7d3dc" d="M 1032.5,1613.5 C 1025.15,1624.03 1016.82,1633.86 1007.5,1643C 998.458,1651.04 989.124,1658.71 979.5,1666C 976.714,1668.06 973.714,1669.56 970.5,1670.5C 971.625,1668.87 972.959,1667.37 974.5,1666C 981.479,1661.03 988.479,1656.03 995.5,1651C 1008.15,1638.52 1020.48,1626.02 1032.5,1613.5 Z"/></g>
<g><path style="opacity:0.098" fill="#e6e4e9" d="M 507.5,1650.5 C 516.918,1664.33 526.585,1678 536.5,1691.5C 534.226,1689.92 531.893,1688.25 529.5,1686.5C 529.709,1685.91 530.043,1685.41 530.5,1685C 527.208,1682.05 524.208,1678.88 521.5,1675.5C 517.492,1668.49 513.159,1661.65 508.5,1655C 507.852,1653.56 507.519,1652.06 507.5,1650.5 Z"/></g>
<g><path style="opacity:0.137" fill="#d9d7db" d="M 673.5,1662.5 C 674.552,1662.35 675.552,1662.52 676.5,1663C 683.275,1668.42 690.609,1673.09 698.5,1677C 699.252,1677.67 699.586,1678.5 699.5,1679.5C 696.081,1678.29 692.747,1676.79 689.5,1675C 683.554,1671.54 678.22,1667.37 673.5,1662.5 Z"/></g>
<g><path style="opacity:0.19" fill="#c3c0c7" d="M 970.5,1670.5 C 961.961,1677.94 952.294,1683.61 941.5,1687.5C 943.094,1686.02 944.76,1684.52 946.5,1683C 954.713,1679.06 962.713,1674.9 970.5,1670.5 Z"/></g>
<g><path style="opacity:0.498" fill="#d7d5da" d="M 699.5,1679.5 C 703.771,1680.27 707.771,1681.77 711.5,1684C 712.823,1684.82 713.489,1685.98 713.5,1687.5C 708.075,1686.06 703.409,1683.39 699.5,1679.5 Z"/></g>
<g><path style="opacity:0.412" fill="#dedce2" d="M 1128.5,1679.5 C 1128.27,1681.43 1127.44,1683.1 1126,1684.5C 1125.33,1685.25 1124.5,1685.59 1123.5,1685.5C 1124.47,1682.87 1126.14,1680.87 1128.5,1679.5 Z"/></g>
<g><path style="opacity:0.424" fill="#cdcbd1" d="M 714.5,1687.5 C 716.401,1687.43 718.234,1687.77 720,1688.5C 722.862,1689.91 725.362,1691.58 727.5,1693.5C 722.351,1693.02 718.018,1691.02 714.5,1687.5 Z"/></g>
<g><path style="opacity:0.224" fill="#e0dde3" d="M 1123.5,1685.5 C 1123.41,1686.5 1123.75,1687.33 1124.5,1688C 1122,1689.67 1119.67,1691.5 1117.5,1693.5C 1118.35,1689.98 1120.35,1687.31 1123.5,1685.5 Z"/></g>
<g><path style="opacity:0.69" fill="#cccacf" d="M 941.5,1687.5 C 935.163,1691.84 928.163,1694.84 920.5,1696.5C 920.47,1695.5 920.97,1694.84 922,1694.5C 926.365,1693.14 930.531,1691.31 934.5,1689C 936.74,1688.02 939.073,1687.52 941.5,1687.5 Z"/></g>
<g><path style="opacity:0.326" fill="#e5e3e7" d="M 536.5,1691.5 C 540.628,1694.29 543.628,1697.96 545.5,1702.5C 540.976,1699.99 537.976,1696.32 536.5,1691.5 Z"/></g>
<g><path style="opacity:0.745" fill="#c5c2c9" d="M 727.5,1693.5 C 732.238,1694.14 736.738,1695.47 741,1697.5C 742.03,1697.84 742.53,1698.5 742.5,1699.5C 736.739,1699.03 731.739,1697.03 727.5,1693.5 Z"/></g>
<g><path style="opacity:0.965" fill="#cccbcc" d="M 920.5,1696.5 C 918.302,1698.4 915.636,1699.4 912.5,1699.5C 914.503,1697.02 917.169,1696.02 920.5,1696.5 Z"/></g>
<g><path style="opacity:0.937" fill="#adaaae" d="M 912.5,1699.5 C 909.992,1701.55 906.992,1702.55 903.5,1702.5C 903.791,1701.35 904.624,1700.68 906,1700.5C 908.137,1699.92 910.304,1699.59 912.5,1699.5 Z"/></g>
<g><path style="opacity:0.322" fill="#b6b5b8" d="M 742.5,1699.5 C 753.529,1702 764.529,1704.5 775.5,1707C 776.056,1707.38 776.389,1707.88 776.5,1708.5C 775.85,1708.8 775.183,1709.14 774.5,1709.5C 771.308,1708.13 767.974,1707.3 764.5,1707C 756.749,1705.36 749.416,1702.86 742.5,1699.5 Z"/></g>
<g><path style="opacity:0.125" fill="#e2dfe6" d="M 1117.5,1693.5 C 1117.65,1694.55 1117.48,1695.55 1117,1696.5C 1105.61,1709.29 1093.78,1721.62 1081.5,1733.5C 1080.26,1734.25 1078.93,1734.58 1077.5,1734.5C 1090.94,1720.73 1104.27,1707.07 1117.5,1693.5 Z"/></g>
<g><path style="opacity:0.651" fill="#b8b6b9" d="M 903.5,1702.5 C 903.389,1703.12 903.056,1703.62 902.5,1704C 887.724,1708.11 872.724,1711.11 857.5,1713C 852.416,1713.78 847.416,1713.61 842.5,1712.5C 853.366,1711.89 864.199,1710.55 875,1708.5C 884.458,1706.18 893.958,1704.18 903.5,1702.5 Z"/></g>
<g><path style="opacity:0.549" fill="#b3b1b3" d="M 776.5,1708.5 C 788.836,1709.06 800.836,1710.4 812.5,1712.5C 807.684,1713.65 802.684,1713.82 797.5,1713C 790.865,1711.78 784.199,1710.78 777.5,1710C 776.944,1709.62 776.611,1709.12 776.5,1708.5 Z"/></g>
<g><path style="opacity:0.242" fill="#e0dee2" d="M 545.5,1702.5 C 557.167,1713.5 568.5,1724.83 579.5,1736.5C 578.448,1736.65 577.448,1736.48 576.5,1736C 566.306,1725.81 556.14,1715.64 546,1705.5C 545.517,1704.55 545.351,1703.55 545.5,1702.5 Z"/></g>
<g><path style="opacity:0.082" fill="#d7d4db" d="M 1077.5,1734.5 C 1075.44,1738.07 1072.78,1741.23 1069.5,1744C 1068.5,1744.33 1067.5,1744.67 1066.5,1745C 1063.65,1748.56 1060.32,1751.56 1056.5,1754C 1055.55,1754.48 1054.55,1754.65 1053.5,1754.5C 1061.06,1747.38 1069.06,1740.71 1077.5,1734.5 Z"/></g>
<g><path style="opacity:0.384" fill="#dfdce2" d="M 579.5,1736.5 C 584.936,1740.09 590.27,1743.92 595.5,1748C 596.823,1748.82 597.489,1749.98 597.5,1751.5C 590.392,1747.93 584.392,1742.93 579.5,1736.5 Z"/></g>
<g><path style="opacity:0.373" fill="#dad8dd" d="M 597.5,1751.5 C 598.552,1751.35 599.552,1751.52 600.5,1752C 605.491,1755.63 610.158,1759.47 614.5,1763.5C 611.757,1762.61 609.09,1761.45 606.5,1760C 602.864,1757.75 599.864,1754.92 597.5,1751.5 Z"/></g>
<g><path style="opacity:0.055" fill="#d5d4d7" d="M 1053.5,1754.5 C 1051.14,1757.92 1048.14,1760.75 1044.5,1763C 1041.91,1764.45 1039.24,1765.61 1036.5,1766.5C 1040.33,1762.56 1044.66,1759.06 1049.5,1756C 1050.74,1755.21 1052.08,1754.71 1053.5,1754.5 Z"/></g>
<g><path style="opacity:0.375" fill="#d8d7d9" d="M 614.5,1763.5 C 616.632,1763.55 617.965,1764.55 618.5,1766.5C 616.027,1766.91 614.694,1765.91 614.5,1763.5 Z"/></g>
<g><path style="opacity:0.184" fill="#d8d7da" d="M 1036.5,1766.5 C 1034.8,1769.26 1032.47,1771.42 1029.5,1773C 1027.98,1774.01 1026.31,1774.51 1024.5,1774.5C 1024.94,1772.93 1025.94,1771.76 1027.5,1771C 1030.44,1769.19 1033.44,1767.69 1036.5,1766.5 Z"/></g>
<g><path style="opacity:0.306" fill="#cac8ce" d="M 618.5,1766.5 C 623.538,1768.06 627.872,1770.73 631.5,1774.5C 629.94,1774.48 628.44,1774.15 627,1773.5C 623.628,1771.74 620.794,1769.41 618.5,1766.5 Z"/></g>
<g><path style="opacity:0.329" fill="#d0cfd1" d="M 631.5,1774.5 C 637.079,1776.78 642.079,1779.78 646.5,1783.5C 642,1781.22 637.334,1779.05 632.5,1777C 631.748,1776.33 631.414,1775.5 631.5,1774.5 Z"/></g>
<g><path style="opacity:0.216" fill="#c8c7ca" d="M 1024.5,1774.5 C 1018.51,1780.14 1011.51,1784.14 1003.5,1786.5C 1009.66,1781.25 1016.66,1777.25 1024.5,1774.5 Z"/></g>
<g><path style="opacity:0.098" fill="#b2b1b2" d="M 646.5,1783.5 C 649.089,1783.46 651.089,1784.46 652.5,1786.5C 649.784,1786.61 647.784,1785.61 646.5,1783.5 Z"/></g>
<g><path style="opacity:0.412" fill="#cbc9cd" d="M 652.5,1786.5 C 657.089,1787.57 661.089,1789.57 664.5,1792.5C 659.566,1792.08 655.566,1790.08 652.5,1786.5 Z"/></g>
<g><path style="opacity:0.196" fill="#d3d1d5" d="M 1003.5,1786.5 C 999.125,1790.86 993.791,1793.53 987.5,1794.5C 987.953,1793.54 988.619,1792.71 989.5,1792C 992.446,1791.19 995.112,1789.86 997.5,1788C 999.436,1787.19 1001.44,1786.69 1003.5,1786.5 Z"/></g>
<g><path style="opacity:0.165" fill="#c4c3c5" d="M 664.5,1792.5 C 675.428,1796.63 686.095,1801.3 696.5,1806.5C 691.533,1806.09 686.866,1804.76 682.5,1802.5C 677.868,1800.24 673.202,1798.08 668.5,1796C 666.907,1795.05 665.574,1793.88 664.5,1792.5 Z"/></g>
<g><path style="opacity:0.263" fill="#c3c1c5" d="M 987.5,1794.5 C 983.335,1797.14 979.002,1799.64 974.5,1802C 969.336,1803.67 964.336,1805.67 959.5,1808C 956.568,1808.95 953.568,1809.45 950.5,1809.5C 950.611,1808.88 950.944,1808.38 951.5,1808C 963.665,1803.8 975.665,1799.3 987.5,1794.5 Z"/></g>
<g><path style="opacity:0.973" fill="#c3c1c4" d="M 696.5,1806.5 C 706.127,1808.9 715.461,1811.9 724.5,1815.5C 721.161,1815.11 717.827,1814.61 714.5,1814C 708.113,1812.21 702.113,1809.71 696.5,1806.5 Z"/></g>
<g><path style="opacity:0.451" fill="#bdbbc0" d="M 950.5,1809.5 C 948.159,1811.85 945.159,1812.85 941.5,1812.5C 944.008,1810.45 947.008,1809.45 950.5,1809.5 Z"/></g>
<g><path style="opacity:0.173" fill="#d3d2d3" d="M 941.5,1812.5 C 941.209,1813.65 940.376,1814.32 939,1814.5C 936.538,1815.16 934.038,1815.49 931.5,1815.5C 934.452,1813.59 937.786,1812.59 941.5,1812.5 Z"/></g>
<g><path style="opacity:0.204" fill="#b5b2b9" d="M 931.5,1815.5 C 931.389,1816.12 931.056,1816.62 930.5,1817C 926.953,1817.31 923.62,1818.14 920.5,1819.5C 919.402,1818.6 919.402,1817.77 920.5,1817C 924.145,1816.28 927.812,1815.78 931.5,1815.5 Z"/></g>
<g><path style="opacity:0.004" fill="#b3b1b4" d="M 724.5,1815.5 C 732.851,1817.14 741.185,1818.97 749.5,1821C 748.944,1821.38 748.611,1821.88 748.5,1822.5C 742.991,1821.03 737.324,1819.86 731.5,1819C 728.808,1818.26 726.475,1817.09 724.5,1815.5 Z"/></g>
<g><path style="opacity:0.024" fill="#bcbbbd" d="M 918.5,1819.5 C 914.54,1820.5 910.54,1821.5 906.5,1822.5C 906.47,1821.5 906.97,1820.84 908,1820.5C 911.578,1818.87 915.078,1818.53 918.5,1819.5 Z"/></g>
<g><path style="opacity:0.271" fill="#aaa8ab" d="M 758.5,1823.5 C 755.615,1823.81 752.948,1823.47 750.5,1822.5C 753.34,1821.08 756.007,1821.42 758.5,1823.5 Z"/></g>
<g><path style="opacity:0.271" fill="#b2b0b2" d="M 904.5,1822.5 C 902.393,1823.47 900.059,1823.8 897.5,1823.5C 898.312,1822.01 899.645,1821.34 901.5,1821.5C 902.726,1821.52 903.726,1821.85 904.5,1822.5 Z"/></g>
<g><path style="opacity:0.043" fill="#acaaae" d="M 765.5,1825.5 C 762.612,1826.01 760.279,1825.34 758.5,1823.5C 761.062,1822.89 763.729,1823.06 766.5,1824C 765.944,1824.38 765.611,1824.88 765.5,1825.5 Z"/></g>
<g><path style="opacity:0.043" fill="#bdbbbf" d="M 897.5,1823.5 C 897.389,1824.12 897.056,1824.62 896.5,1825C 894.527,1825.5 892.527,1825.66 890.5,1825.5C 890.389,1824.88 890.056,1824.38 889.5,1824C 892.271,1823.06 894.938,1822.89 897.5,1823.5 Z"/></g>
<g><path style="opacity:0.306" fill="#acaaac" d="M 776.5,1826.5 C 773.287,1826.81 770.287,1826.48 767.5,1825.5C 769.966,1824.37 772.633,1824.2 775.5,1825C 776.056,1825.38 776.389,1825.88 776.5,1826.5 Z"/></g>
<g><path style="opacity:0.306" fill="#afaeb0" d="M 887.5,1825.5 C 884.713,1826.48 881.713,1826.81 878.5,1826.5C 879.946,1825.06 881.779,1824.39 884,1824.5C 885.385,1824.51 886.551,1824.85 887.5,1825.5 Z"/></g>
<g><path style="opacity:0.937" fill="#9f9aa0" d="M 778.5,1826.5 C 789.344,1826.77 800.01,1827.44 810.5,1828.5C 799.448,1829.14 788.781,1828.48 778.5,1826.5 Z"/></g>
<g><path style="opacity:0.059" fill="#bbb9bc" d="M 877.5,1826.5 C 866.884,1828.48 855.884,1829.14 844.5,1828.5C 855.321,1827.41 866.321,1826.74 877.5,1826.5 Z"/></g>
</svg>
