<?xml version="1.0" encoding="UTF-8"?>
<!DOCTYPE svg PUBLIC "-//W3C//DTD SVG 1.1//EN" "http://www.w3.org/Graphics/SVG/1.1/DTD/svg11.dtd">
<svg xmlns="http://www.w3.org/2000/svg" version="1.1" width="2133px" height="2133px" style="shape-rendering:geometricPrecision; text-rendering:geometricPrecision; image-rendering:optimizeQuality; fill-rule:evenodd; clip-rule:evenodd" xmlns:xlink="http://www.w3.org/1999/xlink">
<g><path style="opacity:1" fill="#116eff" d="M 825.5,289.5 C 982.167,289.5 1138.83,289.5 1295.5,289.5C 1295.66,350.222 1295.49,410.888 1295,471.5C 1301.75,472.314 1308.59,472.814 1315.5,473C 1317.67,474.586 1320,475.92 1322.5,477C 1327.17,477.333 1331.83,477.667 1336.5,478C 1338.83,479.667 1341.17,481.333 1343.5,483C 1346.5,483.333 1349.5,483.667 1352.5,484C 1355.28,487.557 1358.95,489.224 1363.5,489C 1365.5,489.667 1366.83,491 1367.5,493C 1370.04,494.092 1372.71,494.759 1375.5,495C 1377.42,498.462 1380.42,500.129 1384.5,500C 1386.3,503.737 1389.3,505.737 1393.5,506C 1394.72,509.223 1397.06,510.889 1400.5,511C 1401.74,512.154 1402.74,513.488 1403.5,515C 1407.76,516.934 1411.76,519.268 1415.5,522C 1420.18,527.052 1424.84,532.052 1429.5,537C 1432.57,537.697 1434.57,539.53 1435.5,542.5C 1438.33,544.833 1441.17,547.167 1444,549.5C 1444.62,552.612 1446.46,554.445 1449.5,555C 1450.29,556.085 1450.96,557.252 1451.5,558.5C 1454.5,561.325 1457.66,563.992 1461,566.5C 1461.33,569.5 1463,571.167 1466,571.5C 1466.7,574.585 1468.53,576.585 1471.5,577.5C 1475.16,581.327 1478.66,585.327 1482,589.5C 1486.24,597.998 1491.91,605.332 1499,611.5C 1500.04,613.715 1500.71,616.048 1501,618.5C 1504.23,621.306 1507.23,624.306 1510,627.5C 1511.02,630.105 1511.85,632.772 1512.5,635.5C 1513.63,636.262 1514.79,636.929 1516,637.5C 1518.33,642.5 1520.67,647.5 1523,652.5C 1524.33,653.167 1525.67,653.833 1527,654.5C 1527.33,657.167 1527.67,659.833 1528,662.5C 1529.67,663.5 1531.33,664.5 1533,665.5C 1533.33,668.167 1533.67,670.833 1534,673.5C 1536.4,673.958 1538.06,675.292 1539,677.5C 1539.5,680.146 1539.66,682.813 1539.5,685.5C 1540.93,685.421 1542.26,685.754 1543.5,686.5C 1544.32,689.447 1544.82,692.447 1545,695.5C 1549.86,697.219 1551.53,700.552 1550,705.5C 1551.62,707.158 1553.29,708.825 1555,710.5C 1555.04,716.547 1557.04,721.88 1561,726.5C 1560.43,731.087 1562.1,734.421 1566,736.5C 1565.59,741.957 1567.26,746.624 1571,750.5C 1571.8,756.399 1573.8,761.732 1577,766.5C 1576.85,771.506 1578.35,775.84 1581.5,779.5C 1581.71,786.251 1583.88,792.251 1588,797.5C 1587.81,804.07 1589.47,810.07 1593,815.5C 1593.7,821.305 1594.86,826.971 1596.5,832.5C 1619.16,833.333 1641.83,833.833 1664.5,834C 1666.6,835.766 1668.93,837.099 1671.5,838C 1676.5,838.333 1681.5,838.667 1686.5,839C 1691.78,842.893 1697.78,844.893 1704.5,845C 1707.94,848.819 1712.27,850.485 1717.5,850C 1718.5,851 1719.5,852 1720.5,853C 1727.29,855.647 1733.96,858.48 1740.5,861.5C 1742.96,864.234 1745.96,866.234 1749.5,867.5C 1751.19,870.594 1753.86,872.26 1757.5,872.5C 1774.15,884.95 1789.99,898.95 1805,914.5C 1807.2,918.4 1809.7,922.067 1812.5,925.5C 1813.63,926.262 1814.79,926.929 1816,927.5C 1817.23,930.732 1819.23,933.399 1822,935.5C 1822.31,937.556 1822.81,939.556 1823.5,941.5C 1825.19,942.228 1826.69,943.228 1828,944.5C 1830.47,950.975 1833.81,956.975 1838,962.5C 1838.76,968.029 1841.1,972.695 1845,976.5C 1845.5,979.817 1845.67,983.15 1845.5,986.5C 1847.14,986.286 1848.64,986.62 1850,987.5C 1850.86,992.303 1851.19,996.97 1851,1001.5C 1854.83,1002.84 1856.33,1005.5 1855.5,1009.5C 1856.5,1009.5 1857.5,1009.5 1858.5,1009.5C 1858.5,1048.5 1858.5,1087.5 1858.5,1126.5C 1856.09,1126.92 1854.26,1128.25 1853,1130.5C 1851.18,1135.32 1850.01,1140.32 1849.5,1145.5C 1847.85,1146.78 1846.69,1148.45 1846,1150.5C 1845.75,1153.89 1845.25,1157.22 1844.5,1160.5C 1843.15,1161.95 1841.48,1162.62 1839.5,1162.5C 1839.5,1165.83 1839.5,1169.17 1839.5,1172.5C 1837.61,1172.3 1836.11,1172.96 1835,1174.5C 1835.51,1179.51 1833.51,1182.84 1829,1184.5C 1828.67,1186.83 1828.33,1189.17 1828,1191.5C 1820.56,1198.35 1814.56,1206.35 1810,1215.5C 1807.16,1218.34 1804.16,1221.01 1801,1223.5C 1800.67,1226.5 1799,1228.17 1796,1228.5C 1795.38,1231.61 1793.54,1233.45 1790.5,1234C 1787.73,1237.09 1785.06,1240.25 1782.5,1243.5C 1778.32,1247.34 1773.98,1251.01 1769.5,1254.5C 1765.63,1254.63 1762.96,1256.46 1761.5,1260C 1758.25,1260.08 1755.92,1261.58 1754.5,1264.5C 1750.4,1265.48 1747.06,1267.65 1744.5,1271C 1740.48,1271.43 1737.31,1273.26 1735,1276.5C 1730.52,1276.52 1727.02,1278.36 1724.5,1282C 1719.59,1281.6 1715.59,1283.26 1712.5,1287C 1706.43,1287.18 1701.09,1289.18 1696.5,1293C 1689.83,1292.48 1683.83,1294.14 1678.5,1298C 1671.83,1298.33 1665.17,1298.67 1658.5,1299C 1648.37,1302.73 1637.87,1304.23 1627,1303.5C 1621.83,1303.33 1616.67,1303.17 1611.5,1303C 1606.45,1301.89 1601.45,1300.89 1596.5,1300C 1594.91,1306.38 1593.74,1312.88 1593,1319.5C 1589.19,1324.45 1587.52,1330.12 1588,1336.5C 1587.1,1339.07 1585.77,1341.4 1584,1343.5C 1583.83,1349.09 1582.16,1354.09 1579,1358.5C 1578.63,1365.61 1576.3,1371.95 1572,1377.5C 1570.03,1384.13 1568.03,1390.8 1566,1397.5C 1564.33,1399.83 1562.67,1402.17 1561,1404.5C 1561.81,1407.5 1561.65,1410.5 1560.5,1413.5C 1559.02,1413.24 1557.69,1413.57 1556.5,1414.5C 1555.76,1417.44 1555.26,1420.44 1555,1423.5C 1551.3,1426.54 1549.3,1430.54 1549,1435.5C 1545.91,1441.61 1542.57,1447.61 1539,1453.5C 1539.08,1457.35 1537.58,1460.35 1534.5,1462.5C 1532.18,1469.14 1528.85,1475.14 1524.5,1480.5C 1523.2,1483.05 1522.2,1485.72 1521.5,1488.5C 1519.95,1489.44 1518.61,1490.61 1517.5,1492C 1517.3,1494.32 1516.8,1496.49 1516,1498.5C 1512.83,1501.64 1509.83,1504.97 1507,1508.5C 1506.71,1510.95 1506.04,1513.29 1505,1515.5C 1501.78,1518.26 1498.78,1521.26 1496,1524.5C 1495.64,1526.61 1494.97,1528.61 1494,1530.5C 1491.23,1532.6 1489.23,1535.27 1488,1538.5C 1486.67,1539.17 1485.33,1539.83 1484,1540.5C 1480.37,1545.73 1476.7,1551.06 1473,1556.5C 1458.98,1570.57 1445.15,1584.74 1431.5,1599C 1424.82,1604.02 1418.49,1609.35 1412.5,1615C 1408.94,1615.56 1406.6,1617.56 1405.5,1621C 1402.25,1621.08 1399.92,1622.58 1398.5,1625.5C 1394.4,1626.21 1391.4,1628.38 1389.5,1632C 1385.54,1631.65 1382.87,1633.32 1381.5,1637C 1376.83,1637.17 1373.17,1639.17 1370.5,1643C 1366.03,1642.61 1362.7,1644.28 1360.5,1648C 1357.83,1648.33 1355.17,1648.67 1352.5,1649C 1347.97,1653.78 1342.3,1655.78 1335.5,1655C 1333.63,1656.08 1331.96,1657.42 1330.5,1659C 1324.5,1659.33 1318.5,1659.67 1312.5,1660C 1307.05,1661.76 1301.55,1663.26 1296,1664.5C 1295.5,1723.83 1295.33,1783.17 1295.5,1842.5C 1138.83,1842.5 982.167,1842.5 825.5,1842.5C 825.667,1783.17 825.5,1723.83 825,1664.5C 814.327,1660.19 803.16,1658.36 791.5,1659C 790.122,1657.29 788.455,1655.95 786.5,1655C 783.167,1654.67 779.833,1654.33 776.5,1654C 772.414,1649.86 767.414,1647.86 761.5,1648C 759.421,1644.1 756.087,1642.43 751.5,1643C 748.99,1638.81 745.323,1636.81 740.5,1637C 738.842,1633.83 736.175,1632.17 732.5,1632C 730.598,1628.38 727.598,1626.21 723.5,1625.5C 719.91,1622.84 716.577,1619.84 713.5,1616.5C 712.205,1615.9 710.872,1615.4 709.5,1615C 693.2,1601.02 677.367,1586.19 662,1570.5C 652.677,1558.14 642.677,1546.48 632,1535.5C 630.034,1531.37 627.868,1527.37 625.5,1523.5C 624.372,1522.74 623.205,1522.07 622,1521.5C 619.265,1516.94 616.765,1512.27 614.5,1507.5C 613.372,1506.74 612.205,1506.07 611,1505.5C 608.798,1498.68 605.131,1493.01 600,1488.5C 598.711,1485.65 598.211,1482.65 598.5,1479.5C 596.286,1479.71 594.619,1478.88 593.5,1477C 592.839,1474.54 592.339,1472.04 592,1469.5C 588.192,1467.78 586.525,1464.78 587,1460.5C 586.333,1458.5 585,1457.17 583,1456.5C 582.012,1453.58 581.346,1450.58 581,1447.5C 579.667,1446.83 578.333,1446.17 577,1445.5C 576.667,1442.83 576.333,1440.17 576,1437.5C 573.125,1436.29 571.292,1434.12 570.5,1431C 571.386,1428.89 571.386,1426.72 570.5,1424.5C 568.61,1424.7 567.11,1424.04 566,1422.5C 566.229,1418.12 564.896,1414.45 562,1411.5C 560.794,1407.14 559.461,1402.81 558,1398.5C 554.986,1395.55 553.652,1391.89 554,1387.5C 550.417,1382.81 548.25,1377.47 547.5,1371.5C 546.722,1369.85 545.556,1368.52 544,1367.5C 544.414,1361.44 542.747,1356.11 539,1351.5C 538.968,1344.74 536.968,1338.74 533,1333.5C 532.579,1329.13 531.912,1324.79 531,1320.5C 527.437,1315.58 526.103,1310.25 527,1304.5C 524.934,1299.81 522.101,1299.31 518.5,1303C 509.167,1303.67 499.833,1303.67 490.5,1303C 485.014,1302.26 479.681,1300.92 474.5,1299C 467.833,1298.67 461.167,1298.33 454.5,1298C 449.512,1294.19 443.846,1292.53 437.5,1293C 432.494,1289.33 426.827,1287.33 420.5,1287C 417.408,1283.26 413.408,1281.6 408.5,1282C 405.752,1278.39 402.086,1276.39 397.5,1276C 395.232,1273.03 392.232,1271.37 388.5,1271C 387.257,1269.85 386.257,1268.51 385.5,1267C 380.588,1265.07 375.922,1262.74 371.5,1260C 370.334,1256.74 368.001,1254.91 364.5,1254.5C 362.768,1251.26 360.102,1249.43 356.5,1249C 352.541,1245.34 348.541,1241.68 344.5,1238C 339.351,1231.68 333.684,1225.85 327.5,1220.5C 322.81,1213.76 318.143,1207.1 313.5,1200.5C 312.252,1199.96 311.085,1199.29 310,1198.5C 307.524,1191.71 303.857,1185.71 299,1180.5C 298.667,1178.5 298.333,1176.5 298,1174.5C 296.173,1173.34 294.507,1172.01 293,1170.5C 292.667,1167.83 292.333,1165.17 292,1162.5C 287.059,1157.95 285.225,1152.29 286.5,1145.5C 284.61,1145.7 283.11,1145.04 282,1143.5C 282.604,1136.18 280.937,1129.51 277,1123.5C 275.989,1122.66 274.822,1122.33 273.5,1122.5C 273.5,1085.17 273.5,1047.83 273.5,1010.5C 276.136,1009.97 278.303,1008.63 280,1006.5C 281.061,1001.9 281.727,997.229 282,992.5C 285.814,988.282 287.481,983.282 287,977.5C 288.307,976.228 289.807,975.228 291.5,974.5C 292.244,971.557 292.744,968.557 293,965.5C 294.333,964.833 295.667,964.167 297,963.5C 297.333,961.167 297.667,958.833 298,956.5C 298.791,954.396 300.291,953.063 302.5,952.5C 303.213,950.224 303.713,947.891 304,945.5C 307.374,943.053 310.041,940.053 312,936.5C 313.275,934.283 314.275,931.949 315,929.5C 318.294,925.872 321.794,922.539 325.5,919.5C 326.246,918.264 326.579,916.93 326.5,915.5C 327.675,915.719 328.675,915.386 329.5,914.5C 337.486,905.38 345.82,896.547 354.5,888C 357.423,887.793 359.256,886.293 360,883.5C 363.223,882.448 365.723,880.448 367.5,877.5C 369.444,876.811 371.444,876.311 373.5,876C 376.684,872.829 380.017,869.829 383.5,867C 387.356,866.467 390.356,864.634 392.5,861.5C 396.89,861.406 400.224,859.572 402.5,856C 405.101,855.08 407.768,854.413 410.5,854C 411.878,852.287 413.545,850.953 415.5,850C 420.483,849.897 424.816,848.23 428.5,845C 432.5,844.333 436.5,843.667 440.5,843C 441.977,840.852 443.977,839.518 446.5,839C 451.167,838.667 455.833,838.333 460.5,838C 463.071,837.099 465.404,835.766 467.5,834C 486.833,833.667 506.167,833.333 525.5,833C 527.35,831.155 527.683,829.155 526.5,827C 527.282,824.26 527.782,821.426 528,818.5C 530.259,816.754 531.592,814.42 532,811.5C 532.333,808.167 532.667,804.833 533,801.5C 536.863,796.566 538.863,790.899 539,784.5C 542.814,780.282 544.481,775.282 544,769.5C 547.465,765.459 548.965,760.959 548.5,756C 552.458,750.904 554.958,745.071 556,738.5C 559.437,734.511 560.937,729.845 560.5,724.5C 561.675,724.719 562.675,724.386 563.5,723.5C 564.775,720.627 565.608,717.627 566,714.5C 567,713.833 568,713.167 569,712.5C 569.803,706.742 572.137,701.742 576,697.5C 576.276,692.327 578.276,687.994 582,684.5C 581.615,680.124 583.281,676.791 587,674.5C 591.265,665.865 595.432,657.198 599.5,648.5C 603.392,647.212 604.726,644.712 603.5,641C 604.532,638.126 606.532,636.626 609.5,636.5C 612.164,631.826 614.331,626.826 616,621.5C 621.083,617.72 624.75,612.72 627,606.5C 628.351,604.981 629.851,603.648 631.5,602.5C 632.246,601.264 632.579,599.93 632.5,598.5C 633.978,598.762 635.311,598.429 636.5,597.5C 640.245,590.349 644.745,583.682 650,577.5C 664.799,562.701 679.633,547.867 694.5,533C 698.821,529.34 703.155,525.673 707.5,522C 710.403,521.431 712.403,519.765 713.5,517C 717.294,516.544 719.961,514.544 721.5,511C 724.944,510.889 727.277,509.223 728.5,506C 732.702,505.737 735.702,503.737 737.5,500C 741.582,500.129 744.582,498.462 746.5,495C 751.347,494.576 755.347,492.576 758.5,489C 763.009,489.152 766.675,487.485 769.5,484C 772.5,483.667 775.5,483.333 778.5,483C 780.833,481.333 783.167,479.667 785.5,478C 790.167,477.667 794.833,477.333 799.5,477C 802.071,476.099 804.404,474.766 806.5,473C 813.081,472.813 819.581,472.313 826,471.5C 825.512,410.888 825.345,350.222 825.5,289.5 Z M 1295.5,553.5 C 1299.65,555.021 1303.99,555.854 1308.5,556C 1310.46,556.953 1312.12,558.287 1313.5,560C 1319.45,559.868 1324.45,561.868 1328.5,566C 1332.92,565.612 1336.25,567.279 1338.5,571C 1342.87,571.019 1346.21,572.852 1348.5,576.5C 1352.37,576.627 1355.04,578.46 1356.5,582C 1360.46,582.312 1363.46,584.145 1365.5,587.5C 1366.79,588.098 1368.13,588.598 1369.5,589C 1376.49,595.598 1383.66,602.098 1391,608.5C 1398.02,617.181 1405.35,625.514 1413,633.5C 1415.4,636.914 1417.4,640.58 1419,644.5C 1422.4,647.561 1425.4,650.894 1428,654.5C 1428.97,656.392 1429.64,658.392 1430,660.5C 1433.7,663.667 1436.7,667.334 1439,671.5C 1439.97,673.392 1440.64,675.392 1441,677.5C 1441.91,679.439 1443.41,680.439 1445.5,680.5C 1445.84,682.854 1446.34,685.187 1447,687.5C 1450.91,693.638 1454.57,699.971 1458,706.5C 1461.58,709.217 1463.25,712.883 1463,717.5C 1466.72,719.745 1468.39,723.079 1468,727.5C 1469.1,729.053 1470.43,730.386 1472,731.5C 1471.78,736.051 1473.44,739.718 1477,742.5C 1480.18,749.557 1482.85,756.891 1485,764.5C 1485.95,766.455 1487.29,768.122 1489,769.5C 1488.65,773.887 1489.99,777.553 1493,780.5C 1494.47,784.723 1495.47,789.057 1496,793.5C 1499.63,796.959 1501.29,801.293 1501,806.5C 1501.69,808.555 1502.85,810.221 1504.5,811.5C 1505.32,814.785 1505.82,818.118 1506,821.5C 1509.99,826.814 1511.99,832.814 1512,839.5C 1515.04,843.998 1516.71,848.998 1517,854.5C 1520.73,858.3 1519.9,860.466 1514.5,861C 1512.38,864.296 1509.38,866.13 1505.5,866.5C 1503.71,869.566 1501.04,871.4 1497.5,872C 1496.26,873.154 1495.26,874.488 1494.5,876C 1490.83,876.165 1488.16,877.832 1486.5,881C 1484.91,881.862 1483.25,882.529 1481.5,883C 1478.3,886.112 1475.3,889.445 1472.5,893C 1471.5,893.333 1470.5,893.667 1469.5,894C 1465.64,898.023 1461.64,901.856 1457.5,905.5C 1454.98,908.197 1452.81,911.197 1451,914.5C 1449.79,915.071 1448.63,915.738 1447.5,916.5C 1443.68,920.793 1439.84,925.126 1436,929.5C 1435.33,931.5 1434.67,933.5 1434,935.5C 1431.16,938.44 1428.49,941.44 1426,944.5C 1424.98,947.105 1424.15,949.772 1423.5,952.5C 1418.97,955.157 1417.3,959.157 1418.5,964.5C 1413.92,964.866 1412.26,967.2 1413.5,971.5C 1412.09,974.456 1410.25,977.123 1408,979.5C 1407.79,984.701 1406.13,989.367 1403,993.5C 1401.86,998.083 1401.19,1002.75 1401,1007.5C 1398.21,1009.37 1396.88,1012.03 1397,1015.5C 1396.68,1020.14 1396.52,1024.64 1396.5,1029C 1362.6,1029.83 1328.76,1029.66 1295,1028.5C 1295.66,964.554 1295.66,900.554 1295,836.5C 1294.63,835.584 1294.13,834.75 1293.5,834C 1138.17,833.333 982.833,833.333 827.5,834C 826.874,834.75 826.374,835.584 826,836.5C 825.344,900.554 825.344,964.554 826,1028.5C 796.572,1029.66 767.072,1029.83 737.5,1029C 737,1028.5 736.5,1028 736,1027.5C 735.812,1019.78 735.146,1012.12 734,1004.5C 733.311,1003.64 732.478,1002.98 731.5,1002.5C 730.63,997.841 729.797,993.175 729,988.5C 727.89,986.963 726.39,986.297 724.5,986.5C 724.665,983.15 724.498,979.817 724,976.5C 720.675,972.846 718.675,968.513 718,963.5C 713.502,957.177 709.502,950.511 706,943.5C 704.989,942.663 703.822,942.33 702.5,942.5C 702.146,940.459 702.146,938.626 702.5,937C 688.999,919.545 673.999,903.378 657.5,888.5C 654.317,888.223 652.317,886.556 651.5,883.5C 650.271,882.719 648.938,882.219 647.5,882C 645.961,878.456 643.294,876.456 639.5,876C 638.257,874.846 637.257,873.512 636.5,872C 632.541,872.349 629.874,870.683 628.5,867C 624.705,866.207 621.705,864.207 619.5,861C 615.651,861.076 612.651,859.576 610.5,856.5C 608.577,855.692 606.577,855.192 604.5,855C 603.978,854.439 603.645,853.772 603.5,853C 604.951,850.047 606.618,847.213 608.5,844.5C 609.125,839.369 610.292,834.369 612,829.5C 613,828.5 614,827.5 615,826.5C 615.333,823.167 615.667,819.833 616,816.5C 616.687,814.445 617.854,812.779 619.5,811.5C 619.598,804.703 621.764,798.703 626,793.5C 625.652,789.113 626.986,785.447 630,782.5C 630.436,775.972 632.77,770.305 637,765.5C 636.731,760.844 638.398,757.177 642,754.5C 641.867,749.646 643.533,745.646 647,742.5C 647.413,739.768 648.08,737.101 649,734.5C 655.165,724.31 660.499,713.644 665,702.5C 668.719,700.209 670.385,696.876 670,692.5C 671.512,691.743 672.846,690.743 674,689.5C 675.822,684.523 678.155,679.857 681,675.5C 684.575,673.13 686.409,669.797 686.5,665.5C 687.628,664.738 688.795,664.071 690,663.5C 692.735,658.939 695.235,654.273 697.5,649.5C 700.418,646.614 703.251,643.614 706,640.5C 707.944,636.235 710.277,632.235 713,628.5C 725.518,614.649 738.684,601.482 752.5,589C 756.29,588.214 759.29,586.214 761.5,583C 762.833,582.667 764.167,582.333 765.5,582C 766.874,578.317 769.541,576.651 773.5,577C 775.878,573.475 779.211,571.475 783.5,571C 786.137,567.183 789.804,565.516 794.5,566C 797.974,561.307 802.64,559.307 808.5,560C 809.977,557.852 811.977,556.518 814.5,556C 818.191,555.58 821.858,555.08 825.5,554.5C 825.167,620.17 825.5,685.837 826.5,751.5C 904.46,752.165 982.46,752.499 1060.5,752.5C 1138.54,752.499 1216.54,752.165 1294.5,751.5C 1295.9,750.148 1296.56,748.481 1296.5,746.5C 1295.51,682.183 1295.18,617.849 1295.5,553.5 Z M 739.5,1102.5 C 741.854,1102.84 744.187,1103.34 746.5,1104C 770.167,1104.67 793.833,1104.67 817.5,1104C 820.057,1102.88 822.557,1102.71 825,1103.5C 825.17,1168.21 825.67,1232.87 826.5,1297.5C 982.499,1298.67 1138.5,1298.83 1294.5,1298C 1295.33,1233.24 1295.83,1168.4 1296,1103.5C 1298.44,1102.71 1300.94,1102.88 1303.5,1104C 1331.5,1104.67 1359.5,1104.67 1387.5,1104C 1389.56,1103.69 1391.56,1103.19 1393.5,1102.5C 1394.48,1102.98 1395.31,1103.64 1396,1104.5C 1396.33,1110.5 1396.67,1116.5 1397,1122.5C 1400.8,1128.87 1402.8,1135.87 1403,1143.5C 1404.05,1145.11 1405.55,1145.77 1407.5,1145.5C 1407.33,1148.85 1407.5,1152.18 1408,1155.5C 1411.34,1159.18 1413.34,1163.52 1414,1168.5C 1417.67,1172.46 1420.17,1177.12 1421.5,1182.5C 1425.4,1186.56 1428.23,1191.22 1430,1196.5C 1436.42,1202.6 1441.75,1209.6 1446,1217.5C 1450.99,1222.2 1455.49,1227.2 1459.5,1232.5C 1462.36,1235.51 1465.69,1238.01 1469.5,1240C 1472.29,1242.63 1474.96,1245.46 1477.5,1248.5C 1481.65,1250.83 1485.65,1253.33 1489.5,1256C 1490.74,1257.15 1491.74,1258.49 1492.5,1260C 1496.17,1260.17 1498.84,1261.83 1500.5,1265C 1504.01,1265.66 1506.67,1267.49 1508.5,1270.5C 1512.48,1270.68 1515.65,1272.35 1518,1275.5C 1517.16,1279.37 1516.49,1283.37 1516,1287.5C 1515.22,1290.18 1513.89,1292.52 1512,1294.5C 1511.66,1298.56 1510.99,1302.56 1510,1306.5C 1509.58,1308.29 1508.58,1309.62 1507,1310.5C 1505.91,1315.14 1504.91,1319.81 1504,1324.5C 1501.06,1327.88 1499.73,1331.88 1500,1336.5C 1498.93,1339.6 1497.27,1342.26 1495,1344.5C 1495.27,1349.12 1493.94,1353.12 1491,1356.5C 1490,1360.17 1489,1363.83 1488,1367.5C 1487.29,1368.97 1486.12,1369.64 1484.5,1369.5C 1484.63,1375.34 1482.8,1380.34 1479,1384.5C 1478.81,1386.9 1478.31,1389.23 1477.5,1391.5C 1471.22,1402.4 1465.72,1413.74 1461,1425.5C 1458.87,1427.8 1457.37,1430.47 1456.5,1433.5C 1452.36,1435.95 1450.36,1439.61 1450.5,1444.5C 1446.81,1447.22 1444.64,1450.88 1444,1455.5C 1439.72,1460.26 1436.55,1465.59 1434.5,1471.5C 1433.67,1472.41 1432.67,1473.08 1431.5,1473.5C 1430.31,1477.19 1428.14,1480.19 1425,1482.5C 1424.67,1483.83 1424.33,1485.17 1424,1486.5C 1415.94,1495.62 1408.61,1505.29 1402,1515.5C 1400.79,1516.07 1399.63,1516.74 1398.5,1517.5C 1392.27,1524.42 1385.94,1531.25 1379.5,1538C 1378.5,1538.33 1377.5,1538.67 1376.5,1539C 1373.36,1542.17 1370.03,1545.17 1366.5,1548C 1364.91,1548.86 1363.25,1549.53 1361.5,1550C 1360.74,1551.51 1359.74,1552.85 1358.5,1554C 1354.1,1556.7 1349.43,1559.03 1344.5,1561C 1342.25,1564.72 1338.92,1566.39 1334.5,1566C 1331.61,1570.11 1327.61,1572.11 1322.5,1572C 1318.72,1575.88 1314.05,1577.55 1308.5,1577C 1305.27,1580.03 1301.43,1581.87 1297,1582.5C 1295.7,1581.9 1294.87,1580.9 1294.5,1579.5C 1295.17,1514.86 1295.84,1450.19 1296.5,1385.5C 1296.61,1383.63 1295.94,1382.13 1294.5,1381C 1138.5,1380.33 982.5,1380.33 826.5,1381C 825.056,1382.13 824.39,1383.63 824.5,1385.5C 825.163,1450.17 825.83,1514.84 826.5,1579.5C 826.547,1581 825.881,1582 824.5,1582.5C 820.286,1581.73 816.619,1579.89 813.5,1577C 808.173,1577.62 803.84,1575.95 800.5,1572C 794.989,1572.41 790.655,1570.41 787.5,1566C 783.124,1566.39 779.791,1564.72 777.5,1561C 773.538,1560.69 770.538,1558.85 768.5,1555.5C 764.631,1555.37 761.964,1553.54 760.5,1550C 757.243,1549.55 754.909,1547.88 753.5,1545C 747.36,1540.85 741.36,1536.51 735.5,1532C 730.778,1526.25 725.778,1520.75 720.5,1515.5C 717.534,1511.35 714.701,1507.01 712,1502.5C 708.772,1499.69 705.772,1496.69 703,1493.5C 698.633,1484.74 693.299,1476.74 687,1469.5C 686.386,1465.92 684.552,1463.25 681.5,1461.5C 680.756,1460.01 680.09,1458.51 679.5,1457C 679.833,1456.67 680.167,1456.33 680.5,1456C 677.131,1453.64 674.964,1450.47 674,1446.5C 670.645,1444.15 668.978,1440.82 669,1436.5C 667.846,1435.26 666.512,1434.26 665,1433.5C 665.617,1428.54 663.784,1424.87 659.5,1422.5C 659.61,1417.98 657.776,1414.65 654,1412.5C 653.667,1409.83 653.333,1407.17 653,1404.5C 651.846,1403.26 650.512,1402.26 649,1401.5C 649.49,1396.71 647.823,1393.05 644,1390.5C 643.012,1387.58 642.346,1384.58 642,1381.5C 639.957,1380.42 638.624,1378.75 638,1376.5C 637.933,1371.15 635.933,1366.82 632,1363.5C 631.667,1360.5 631.333,1357.5 631,1354.5C 630,1353.5 629,1352.5 628,1351.5C 625.821,1342.53 623.155,1333.86 620,1325.5C 619.163,1323.16 617.829,1321.16 616,1319.5C 616.414,1313.44 614.747,1308.11 611,1303.5C 610.612,1299.78 609.945,1296.11 609,1292.5C 606.448,1289.32 604.948,1285.66 604.5,1281.5C 604.529,1279.97 605.196,1278.8 606.5,1278C 609.576,1277.65 612.576,1276.99 615.5,1276C 617.418,1272.54 620.418,1270.87 624.5,1271C 626.726,1267.88 629.726,1265.71 633.5,1264.5C 634.919,1261.58 637.252,1260.08 640.5,1260C 641.293,1258.91 641.96,1257.75 642.5,1256.5C 647.113,1254.37 651.446,1251.87 655.5,1249C 658.698,1245.89 661.698,1242.55 664.5,1239C 667.264,1238.74 668.931,1237.24 669.5,1234.5C 671.193,1233.77 672.693,1232.77 674,1231.5C 676.232,1228.73 678.399,1225.9 680.5,1223C 687.696,1217.28 693.363,1210.11 697.5,1201.5C 703.126,1197.16 706.793,1191.49 708.5,1184.5C 710.193,1183.77 711.693,1182.77 713,1181.5C 713.333,1178.83 713.667,1176.17 714,1173.5C 717.153,1173.01 718.986,1171.18 719.5,1168C 718.614,1165.89 718.614,1163.72 719.5,1161.5C 721.592,1161.44 723.092,1160.44 724,1158.5C 724.583,1152.09 726.75,1146.25 730.5,1141C 730.135,1135.75 731.635,1130.92 735,1126.5C 735.333,1120.5 735.667,1114.5 736,1108.5C 736.424,1105.97 737.59,1103.97 739.5,1102.5 Z"/></g>
<g><path style="opacity:1" fill="#94c1ff" d="M 901.5,362.5 C 1007.82,363.663 1114.15,363.829 1220.5,363C 1221.67,466.763 1221.83,570.597 1221,674.5C 1113.98,674.506 1006.81,674.506 899.5,674.5C 898.839,570.289 899.506,466.289 901.5,362.5 Z"/></g>
<g><path style="opacity:1" fill="#116eff" d="M 995.5,406.5 C 1025.17,406.333 1054.84,406.5 1084.5,407C 1090.08,411.192 1096.41,413.192 1103.5,413C 1105.82,416.577 1109.16,418.41 1113.5,418.5C 1115.42,421.464 1118.09,423.464 1121.5,424.5C 1122.07,427.237 1123.74,428.737 1126.5,429C 1127.5,430.667 1128.5,432.333 1129.5,434C 1130.94,434.219 1132.27,434.719 1133.5,435.5C 1134.12,438.564 1134.95,441.564 1136,444.5C 1137.68,445.061 1139.01,446.061 1140,447.5C 1140.5,453.829 1142.17,459.829 1145,465.5C 1145.67,474.833 1145.67,484.167 1145,493.5C 1142.25,499.919 1140.25,506.586 1139,513.5C 1137.98,514.687 1136.81,515.687 1135.5,516.5C 1132.21,524.768 1127.21,531.768 1120.5,537.5C 1117.09,538.536 1114.42,540.536 1112.5,543.5C 1108.9,543.726 1106.23,545.392 1104.5,548.5C 1099.6,549.073 1095.6,551.239 1092.5,555C 1084.27,554.384 1076.61,556.051 1069.5,560C 1056.5,560.5 1043.5,560.667 1030.5,560.5C 1031.99,589.191 1031.83,617.857 1030,646.5C 1026.29,647.646 1022.46,648.313 1018.5,648.5C 1013.99,647.247 1009.49,647.247 1005,648.5C 1001.23,648.621 997.893,647.621 995,645.5C 994.17,565.763 994.337,486.097 995.5,406.5 Z"/></g>
<g><path style="opacity:1" fill="#94c1ff" d="M 1030.5,440.5 C 1044.84,440.333 1059.17,440.5 1073.5,441C 1076.45,441.806 1079.11,443.139 1081.5,445C 1084.83,445.667 1088.17,446.333 1091.5,447C 1094.96,450.168 1098.13,453.668 1101,457.5C 1102.11,459.397 1102.28,461.23 1101.5,463C 1105.59,468.092 1107.25,474.092 1106.5,481C 1106.17,485.5 1105.83,490 1105.5,494.5C 1102.65,496.025 1101.65,498.191 1102.5,501C 1099.2,507.969 1094.2,513.302 1087.5,517C 1086.17,518.333 1084.83,519.667 1083.5,521C 1065.89,523.414 1048.22,525.247 1030.5,526.5C 1031.82,497.836 1031.82,469.169 1030.5,440.5 Z"/></g>
<g><path style="opacity:1" fill="#94c1ff" d="M 475.5,910.5 C 495.836,910.333 516.169,910.5 536.5,911C 540.381,911.607 543.714,913.274 546.5,916C 550.5,916.333 554.5,916.667 558.5,917C 560.5,917.667 561.833,919 562.5,921C 565.5,921.333 568.5,921.667 571.5,922C 574.13,925.817 577.797,927.817 582.5,928C 583.743,929.154 584.743,930.488 585.5,932C 587.5,932.333 589.5,932.667 591.5,933C 601.269,940.429 610.769,948.262 620,956.5C 624.013,962.667 628.18,968.667 632.5,974.5C 637.991,978.792 641.491,984.459 643,991.5C 644.333,992.167 645.667,992.833 647,993.5C 647.333,996.5 647.667,999.5 648,1002.5C 649.333,1003.17 650.667,1003.83 652,1004.5C 651.826,1010.98 653.826,1016.65 658,1021.5C 657.365,1029.15 659.031,1036.15 663,1042.5C 663.667,1059.5 663.667,1076.5 663,1093.5C 661.372,1095.65 660.039,1097.99 659,1100.5C 658.827,1105.58 658.161,1110.58 657,1115.5C 656.29,1116.97 655.124,1117.64 653.5,1117.5C 652.353,1120.5 652.187,1123.5 653,1126.5C 652.047,1128.46 650.713,1130.12 649,1131.5C 648.772,1136.49 646.772,1140.49 643,1143.5C 642.667,1145.5 642.333,1147.5 642,1149.5C 640.667,1150.17 639.333,1150.83 638,1151.5C 636.621,1156.59 634.454,1161.26 631.5,1165.5C 629.807,1166.23 628.307,1167.23 627,1168.5C 624.768,1171.27 622.601,1174.1 620.5,1177C 619.234,1177.31 618.067,1177.81 617,1178.5C 614.724,1181.82 612.224,1184.99 609.5,1188C 606.216,1190.85 602.549,1193.18 598.5,1195C 596.842,1198.17 594.175,1199.83 590.5,1200C 588.691,1203.57 585.691,1205.4 581.5,1205.5C 578.662,1209.71 574.662,1211.54 569.5,1211C 565.808,1215 561.141,1216.66 555.5,1216C 553.469,1218.02 551.135,1219.69 548.5,1221C 542.833,1221.33 537.167,1221.67 531.5,1222C 529.833,1223 528.167,1224 526.5,1225C 513.496,1226.93 500.496,1226.93 487.5,1225C 485.5,1224 483.5,1223 481.5,1222C 475.5,1221.67 469.5,1221.33 463.5,1221C 460.775,1219.88 458.442,1218.22 456.5,1216C 453.167,1215.67 449.833,1215.33 446.5,1215C 443.557,1211.1 439.557,1209.44 434.5,1210C 432.444,1205.97 429.11,1203.97 424.5,1204C 423.257,1202.85 422.257,1201.51 421.5,1200C 418.252,1199.92 415.919,1198.42 414.5,1195.5C 410.473,1194.67 407.473,1192.51 405.5,1189C 404.5,1188.67 403.5,1188.33 402.5,1188C 398.299,1183.8 394.133,1179.63 390,1175.5C 389.517,1174.55 389.351,1173.55 389.5,1172.5C 387.61,1172.7 386.11,1172.04 385,1170.5C 382.254,1167.35 380.254,1163.68 379,1159.5C 375.99,1156.13 372.99,1152.79 370,1149.5C 368.495,1147.7 368.328,1145.87 369.5,1144C 368.333,1141.5 366.5,1139.67 364,1138.5C 363.667,1135.5 363.333,1132.5 363,1129.5C 361.667,1128.83 360.333,1128.17 359,1127.5C 358.811,1122.75 358.145,1118.08 357,1113.5C 352.402,1111.31 351.236,1107.81 353.5,1103C 352.959,1099.17 352.459,1095.34 352,1091.5C 349.938,1089.64 348.605,1087.31 348,1084.5C 347.333,1073.5 347.333,1062.5 348,1051.5C 347.972,1047.28 349.305,1043.61 352,1040.5C 352.977,1034.16 353.644,1027.83 354,1021.5C 355.333,1020.17 356.667,1018.83 358,1017.5C 360.537,1007.06 364.37,997.064 369.5,987.5C 373.148,985.207 374.981,981.873 375,977.5C 383.419,968.672 391.586,959.505 399.5,950C 403.133,948.023 406.467,945.69 409.5,943C 410.743,941.846 411.743,940.512 412.5,939C 416.283,938.446 418.95,936.446 420.5,933C 424.416,933.158 427.082,931.491 428.5,928C 430.833,927.667 433.167,927.333 435.5,927C 437.167,925.333 438.833,923.667 440.5,922C 443.5,921.667 446.5,921.333 449.5,921C 450.167,919 451.5,917.667 453.5,917C 457.167,916.667 460.833,916.333 464.5,916C 467.959,913.604 471.626,911.77 475.5,910.5 Z"/></g>
<g><path style="opacity:1" fill="#94c1ff" d="M 899.5,910.5 C 1006.83,910.5 1114.17,910.5 1221.5,910.5C 1221.83,1014.5 1221.5,1118.5 1220.5,1222.5C 1219.91,1222.71 1219.41,1223.04 1219,1223.5C 1217.6,1222.77 1216.1,1222.27 1214.5,1222C 1111.83,1221.33 1009.17,1221.33 906.5,1222C 904.899,1222.27 903.399,1222.77 902,1223.5C 901.586,1223.04 901.086,1222.71 900.5,1222.5C 899.5,1118.5 899.167,1014.5 899.5,910.5 Z"/></g>
<g><path style="opacity:1" fill="#94c1ff" d="M 1596.5,910.5 C 1616.84,910.333 1637.17,910.5 1657.5,911C 1661.58,911.873 1665.24,913.539 1668.5,916C 1672.5,916.333 1676.5,916.667 1680.5,917C 1683.52,920.691 1687.52,922.358 1692.5,922C 1694.02,923.351 1695.35,924.851 1696.5,926.5C 1701.02,926.39 1704.35,928.224 1706.5,932C 1710.78,931.525 1713.78,933.192 1715.5,937C 1717.09,937.862 1718.75,938.529 1720.5,939C 1721.26,940.512 1722.26,941.846 1723.5,943C 1732.15,948.074 1739.65,954.574 1746,962.5C 1748.67,966.347 1751.17,970.347 1753.5,974.5C 1758.89,978.933 1762.56,984.6 1764.5,991.5C 1765.93,992.23 1767.1,993.23 1768,994.5C 1768.33,997.167 1768.67,999.833 1769,1002.5C 1770.33,1003.17 1771.67,1003.83 1773,1004.5C 1772.81,1011.59 1774.97,1017.76 1779.5,1023C 1778.8,1027.13 1778.96,1031.3 1780,1035.5C 1782.06,1036.98 1783.39,1038.98 1784,1041.5C 1784.67,1058.17 1784.67,1074.83 1784,1091.5C 1783.48,1094.02 1782.15,1096.02 1780,1097.5C 1779.21,1103.43 1778.54,1109.43 1778,1115.5C 1774.18,1118.89 1772.51,1123.23 1773,1128.5C 1769.95,1135.69 1766.45,1142.69 1762.5,1149.5C 1761.24,1150.38 1760.07,1151.38 1759,1152.5C 1757.44,1157.28 1755.11,1161.61 1752,1165.5C 1742.28,1174.08 1733.12,1183.25 1724.5,1193C 1720.96,1193.6 1718.29,1195.43 1716.5,1198.5C 1714.88,1199.15 1713.22,1199.65 1711.5,1200C 1710.74,1201.51 1709.74,1202.85 1708.5,1204C 1704.42,1203.87 1701.42,1205.54 1699.5,1209C 1696.62,1210.13 1693.62,1210.79 1690.5,1211C 1689.74,1212.51 1688.74,1213.85 1687.5,1215C 1683.83,1215.33 1680.17,1215.67 1676.5,1216C 1674.5,1217.67 1672.5,1219.33 1670.5,1221C 1664.17,1221.33 1657.83,1221.67 1651.5,1222C 1648.02,1224.79 1644.02,1226.12 1639.5,1226C 1628.8,1226.7 1618.14,1226.36 1607.5,1225C 1605.67,1224.25 1604,1223.25 1602.5,1222C 1596.5,1221.67 1590.5,1221.33 1584.5,1221C 1581.61,1220.11 1579.27,1218.44 1577.5,1216C 1571.86,1216.66 1567.19,1215 1563.5,1211C 1558.23,1211.7 1554.23,1209.87 1551.5,1205.5C 1547.3,1205.51 1544.3,1203.68 1542.5,1200C 1539.25,1199.92 1536.92,1198.42 1535.5,1195.5C 1533.63,1194.38 1531.63,1193.54 1529.5,1193C 1521.02,1186.19 1513.19,1178.69 1506,1170.5C 1505.77,1167.94 1504.44,1166.27 1502,1165.5C 1501.03,1163.61 1500.36,1161.61 1500,1159.5C 1496.83,1156.24 1493.83,1152.91 1491,1149.5C 1490.01,1146.58 1489.35,1143.58 1489,1140.5C 1487.67,1139.83 1486.33,1139.17 1485,1138.5C 1484.67,1135.5 1484.33,1132.5 1484,1129.5C 1482.67,1128.83 1481.33,1128.17 1480,1127.5C 1479.58,1123.13 1478.91,1118.79 1478,1114.5C 1476.43,1113.39 1475.1,1112.05 1474,1110.5C 1473.67,1105.17 1473.33,1099.83 1473,1094.5C 1470.71,1091.65 1469.38,1088.32 1469,1084.5C 1468.33,1073.17 1468.33,1061.83 1469,1050.5C 1469.56,1046.83 1470.89,1043.49 1473,1040.5C 1473.33,1035.17 1473.67,1029.83 1474,1024.5C 1474.89,1021.87 1476.39,1019.7 1478.5,1018C 1479.74,1016.14 1479.74,1014.31 1478.5,1012.5C 1482.35,1004.1 1486.35,995.764 1490.5,987.5C 1494.15,985.207 1495.98,981.873 1496,977.5C 1502.78,970.373 1509.28,962.873 1515.5,955C 1522.17,950.221 1528.17,944.888 1533.5,939C 1536.76,938.545 1539.09,936.879 1540.5,934C 1542.71,932.956 1545.05,932.29 1547.5,932C 1549.22,928.192 1552.22,926.525 1556.5,927C 1557.83,925.333 1559.17,923.667 1560.5,922C 1563.83,921.667 1567.17,921.333 1570.5,921C 1571.17,919 1572.5,917.667 1574.5,917C 1578.5,916.667 1582.5,916.333 1586.5,916C 1589.44,913.363 1592.78,911.53 1596.5,910.5 Z"/></g>
<g><path style="opacity:1" fill="#116eff" d="M 1037.5,942.5 C 1045.83,943.554 1054.16,943.721 1062.5,943C 1065.51,942.84 1067.68,944.007 1069,946.5C 1069.82,1025.53 1069.66,1104.53 1068.5,1183.5C 1057.2,1184.6 1045.87,1184.77 1034.5,1184C 1032.94,1183.68 1031.77,1182.85 1031,1181.5C 1030.33,1103.83 1030.33,1026.17 1031,948.5C 1032.4,945.595 1034.57,943.595 1037.5,942.5 Z"/></g>
<g><path style="opacity:1" fill="#94c1ff" d="M 899.5,1457.5 C 1006.83,1457.5 1114.17,1457.5 1221.5,1457.5C 1221.5,1562.17 1221.5,1666.83 1221.5,1771.5C 1218.13,1771.33 1214.79,1770.83 1211.5,1770C 1161.17,1769.83 1110.83,1769.67 1060.5,1769.5C 1007.09,1769.35 953.756,1769.85 900.5,1771C 899.501,1666.57 899.168,1562.07 899.5,1457.5 Z"/></g>
<g><path style="opacity:1" fill="#116eff" d="M 975.5,1489.5 C 1001.17,1489.33 1026.84,1489.5 1052.5,1490C 1063.82,1493.82 1075.49,1495.49 1087.5,1495C 1089.5,1496.33 1091.5,1497.67 1093.5,1499C 1099.51,1498.74 1104.51,1500.74 1108.5,1505C 1113.2,1504.52 1116.86,1506.18 1119.5,1510C 1121.63,1510.54 1123.63,1511.38 1125.5,1512.5C 1129.79,1515.46 1133.79,1518.79 1137.5,1522.5C 1138.62,1523.91 1139.62,1525.41 1140.5,1527C 1141.77,1527.31 1142.93,1527.81 1144,1528.5C 1147.32,1533.14 1150.16,1538.14 1152.5,1543.5C 1153.93,1544.23 1155.1,1545.23 1156,1546.5C 1156.5,1549.15 1156.66,1551.81 1156.5,1554.5C 1157.93,1554.42 1159.26,1554.75 1160.5,1555.5C 1161.92,1560.73 1162.76,1566.06 1163,1571.5C 1163.78,1574.18 1165.11,1576.52 1167,1578.5C 1167.67,1597.5 1167.67,1616.5 1167,1635.5C 1165.19,1637.55 1163.85,1639.89 1163,1642.5C 1162.55,1647.53 1161.89,1652.53 1161,1657.5C 1159.89,1659.04 1158.39,1659.7 1156.5,1659.5C 1157.83,1665.07 1156,1669.07 1151,1671.5C 1148.67,1676.17 1146.33,1680.83 1144,1685.5C 1140.62,1686.39 1138.46,1688.56 1137.5,1692C 1134.74,1692.26 1133.07,1693.76 1132.5,1696.5C 1129.37,1697.8 1127.04,1699.96 1125.5,1703C 1122.6,1703.57 1120.6,1705.24 1119.5,1708C 1115.3,1708.26 1112.3,1710.26 1110.5,1714C 1106.46,1713.85 1103.46,1715.52 1101.5,1719C 1095.76,1719.24 1090.76,1721.24 1086.5,1725C 1082.83,1725.33 1079.17,1725.67 1075.5,1726C 1072.98,1726.52 1070.98,1727.85 1069.5,1730C 1036.83,1730.67 1004.17,1730.67 971.5,1730C 970.874,1729.25 970.374,1728.42 970,1727.5C 969.333,1650.5 969.333,1573.5 970,1496.5C 970.233,1492.78 972.066,1490.45 975.5,1489.5 Z"/></g>
<g><path style="opacity:1" fill="#94c1ff" d="M 1009.5,1524.5 C 1011.1,1524.31 1012.44,1524.81 1013.5,1526C 1034.54,1526.2 1055.54,1527.2 1076.5,1529C 1079.29,1529.56 1081.62,1530.89 1083.5,1533C 1086.88,1533.45 1090.21,1534.12 1093.5,1535C 1094.74,1536.15 1095.74,1537.49 1096.5,1539C 1098.17,1539.33 1099.83,1539.67 1101.5,1540C 1106.33,1545.83 1111.49,1551.33 1117,1556.5C 1116.89,1561.61 1118.89,1565.61 1123,1568.5C 1122.81,1573.35 1124.14,1577.69 1127,1581.5C 1128.57,1597.46 1128.9,1613.46 1128,1629.5C 1124.87,1635.78 1122.87,1642.45 1122,1649.5C 1117.75,1658.54 1112.59,1666.87 1106.5,1674.5C 1103.42,1675.17 1101.42,1677 1100.5,1680C 1098.83,1680.33 1097.17,1680.67 1095.5,1681C 1094.74,1682.51 1093.74,1683.85 1092.5,1685C 1089.77,1685.41 1087.1,1686.08 1084.5,1687C 1083.83,1689 1082.5,1690.33 1080.5,1691C 1075.83,1691.33 1071.17,1691.67 1066.5,1692C 1064.84,1693.83 1062.84,1695.16 1060.5,1696C 1043.17,1696.5 1025.84,1696.67 1008.5,1696.5C 1009.5,1639.06 1009.83,1581.73 1009.5,1524.5 Z"/></g>
</svg>
