<?xml version="1.0" encoding="UTF-8"?>
<!DOCTYPE svg PUBLIC "-//W3C//DTD SVG 1.1//EN" "http://www.w3.org/Graphics/SVG/1.1/DTD/svg11.dtd">
<svg xmlns="http://www.w3.org/2000/svg" version="1.1" width="2133px" height="2133px" style="shape-rendering:geometricPrecision; text-rendering:geometricPrecision; image-rendering:optimizeQuality; fill-rule:evenodd; clip-rule:evenodd" xmlns:xlink="http://www.w3.org/1999/xlink">
<g><path style="opacity:1" fill="#cd56fe" d="M 1451.5,1594.5 C 1450.5,1596.17 1449.17,1597.5 1447.5,1598.5C 1445.54,1598.8 1444.21,1599.8 1443.5,1601.5C 1436.46,1606.23 1429.46,1610.89 1422.5,1615.5C 1419.46,1617.23 1416.46,1618.89 1413.5,1620.5C 1413.05,1621.46 1412.38,1622.29 1411.5,1623C 1404.1,1626.72 1397.1,1630.89 1390.5,1635.5C 1389.17,1635.5 1387.83,1635.5 1386.5,1635.5C 1251.5,1635.5 1116.5,1635.5 981.5,1635.5C 981.5,1614.5 981.5,1593.5 981.5,1572.5C 985.634,1571.52 989.968,1571.18 994.5,1571.5C 1001.75,1570.7 1009.09,1570.2 1016.5,1570C 1017.24,1568.96 1018.24,1568.46 1019.5,1568.5C 1022.17,1568.5 1024.83,1568.5 1027.5,1568.5C 1032.55,1568.66 1037.55,1568.33 1042.5,1567.5C 1050.02,1567.82 1057.35,1567.49 1064.5,1566.5C 1072.98,1566.15 1081.32,1565.15 1089.5,1563.5C 1096.5,1563.5 1103.5,1563.5 1110.5,1563.5C 1110.83,1563.5 1111.17,1563.5 1111.5,1563.5C 1196.5,1563.33 1281.5,1563.5 1366.5,1564C 1370.44,1565.02 1374.44,1565.52 1378.5,1565.5C 1378.5,1460.17 1378.5,1354.83 1378.5,1249.5C 1270.5,1249.5 1162.5,1249.5 1054.5,1249.5C 1054.5,1315.83 1054.5,1382.17 1054.5,1448.5C 1047.17,1448.5 1039.83,1448.5 1032.5,1448.5C 1006.53,1446.47 980.531,1445.13 954.5,1444.5C 946.167,1444.5 937.833,1444.5 929.5,1444.5C 928.833,1444.17 928.167,1443.83 927.5,1443.5C 924.466,1441.98 921.133,1441.15 917.5,1441C 915.421,1437.1 912.087,1435.43 907.5,1436C 904.99,1431.81 901.323,1429.81 896.5,1430C 894.842,1426.83 892.175,1425.17 888.5,1425C 886.598,1421.38 883.598,1419.21 879.5,1418.5C 875.91,1415.84 872.577,1412.84 869.5,1409.5C 866.135,1408.97 863.802,1407.13 862.5,1404C 861.5,1403.67 860.5,1403.33 859.5,1403C 858.077,1399.91 855.743,1397.91 852.5,1397C 843.55,1387.72 834.217,1378.72 824.5,1370C 812.575,1355.83 800.408,1341.99 788,1328.5C 786.034,1324.37 783.868,1320.37 781.5,1316.5C 780.372,1315.74 779.205,1315.07 778,1314.5C 775.265,1309.94 772.765,1305.27 770.5,1300.5C 769.372,1299.74 768.205,1299.07 767,1298.5C 764.798,1291.68 761.131,1286.01 756,1281.5C 754.711,1278.65 754.211,1275.65 754.5,1272.5C 752.286,1272.71 750.619,1271.88 749.5,1270C 748.839,1267.54 748.339,1265.04 748,1262.5C 744.192,1260.78 742.525,1257.78 743,1253.5C 742.333,1251.5 741,1250.17 739,1249.5C 738.012,1246.58 737.346,1243.58 737,1240.5C 735.667,1239.83 734.333,1239.17 733,1238.5C 732.667,1235.83 732.333,1233.17 732,1230.5C 729.125,1229.29 727.292,1227.12 726.5,1224C 727.386,1221.89 727.386,1219.72 726.5,1217.5C 724.61,1217.7 723.11,1217.04 722,1215.5C 722.229,1211.12 720.896,1207.45 718,1204.5C 716.794,1200.14 715.461,1195.81 714,1191.5C 710.986,1188.55 709.652,1184.89 710,1180.5C 706.417,1175.81 704.25,1170.47 703.5,1164.5C 702.722,1162.85 701.556,1161.52 700,1160.5C 700.414,1154.44 698.747,1149.11 695,1144.5C 694.968,1137.74 692.968,1131.74 689,1126.5C 688.579,1122.13 687.912,1117.79 687,1113.5C 683.437,1108.58 682.103,1103.25 683,1097.5C 680.934,1092.81 678.101,1092.31 674.5,1096C 665.167,1096.67 655.833,1096.67 646.5,1096C 641.014,1095.26 635.681,1093.92 630.5,1092C 623.833,1091.67 617.167,1091.33 610.5,1091C 605.512,1087.19 599.846,1085.53 593.5,1086C 588.494,1082.33 582.827,1080.33 576.5,1080C 573.408,1076.26 569.408,1074.6 564.5,1075C 561.752,1071.39 558.086,1069.39 553.5,1069C 551.232,1066.03 548.232,1064.37 544.5,1064C 543.257,1062.85 542.257,1061.51 541.5,1060C 536.588,1058.07 531.922,1055.74 527.5,1053C 526.334,1049.74 524.001,1047.91 520.5,1047.5C 518.768,1044.26 516.102,1042.43 512.5,1042C 508.541,1038.34 504.541,1034.68 500.5,1031C 495.351,1024.68 489.684,1018.85 483.5,1013.5C 478.81,1006.76 474.143,1000.1 469.5,993.5C 468.252,992.96 467.085,992.293 466,991.5C 463.524,984.708 459.857,978.708 455,973.5C 454.667,971.5 454.333,969.5 454,967.5C 452.173,966.341 450.507,965.008 449,963.5C 448.667,960.833 448.333,958.167 448,955.5C 443.059,950.952 441.225,945.285 442.5,938.5C 440.61,938.703 439.11,938.037 438,936.5C 438.604,929.178 436.937,922.512 433,916.5C 431.989,915.663 430.822,915.33 429.5,915.5C 429.5,878.167 429.5,840.833 429.5,803.5C 432.136,802.965 434.303,801.632 436,799.5C 437.061,794.896 437.727,790.229 438,785.5C 441.814,781.282 443.481,776.282 443,770.5C 444.307,769.228 445.807,768.228 447.5,767.5C 448.244,764.557 448.744,761.557 449,758.5C 450.333,757.833 451.667,757.167 453,756.5C 453.333,754.167 453.667,751.833 454,749.5C 454.791,747.396 456.291,746.063 458.5,745.5C 459.213,743.224 459.713,740.891 460,738.5C 463.374,736.053 466.041,733.053 468,729.5C 469.275,727.283 470.275,724.949 471,722.5C 474.294,718.872 477.794,715.539 481.5,712.5C 482.246,711.264 482.579,709.93 482.5,708.5C 483.675,708.719 484.675,708.386 485.5,707.5C 493.486,698.38 501.82,689.547 510.5,681C 513.423,680.793 515.256,679.293 516,676.5C 519.223,675.448 521.723,673.448 523.5,670.5C 525.444,669.811 527.444,669.311 529.5,669C 532.684,665.829 536.017,662.829 539.5,660C 543.356,659.467 546.356,657.634 548.5,654.5C 552.89,654.406 556.224,652.572 558.5,649C 561.101,648.08 563.768,647.413 566.5,647C 567.878,645.287 569.545,643.953 571.5,643C 576.483,642.897 580.816,641.23 584.5,638C 588.5,637.333 592.5,636.667 596.5,636C 597.977,633.852 599.977,632.518 602.5,632C 607.167,631.667 611.833,631.333 616.5,631C 619.071,630.099 621.404,628.766 623.5,627C 642.833,626.667 662.167,626.333 681.5,626C 683.35,624.155 683.683,622.155 682.5,620C 683.282,617.26 683.782,614.426 684,611.5C 686.259,609.754 687.592,607.42 688,604.5C 688.333,601.167 688.667,597.833 689,594.5C 692.863,589.566 694.863,583.899 695,577.5C 698.814,573.282 700.481,568.282 700,562.5C 703.465,558.459 704.965,553.959 704.5,549C 708.458,543.904 710.958,538.071 712,531.5C 715.437,527.511 716.937,522.845 716.5,517.5C 717.675,517.719 718.675,517.386 719.5,516.5C 720.775,513.627 721.608,510.627 722,507.5C 723,506.833 724,506.167 725,505.5C 725.803,499.742 728.137,494.742 732,490.5C 732.276,485.327 734.276,480.994 738,477.5C 737.615,473.124 739.281,469.791 743,467.5C 747.265,458.865 751.432,450.198 755.5,441.5C 759.392,440.212 760.726,437.712 759.5,434C 760.532,431.126 762.532,429.626 765.5,429.5C 768.164,424.826 770.331,419.826 772,414.5C 777.083,410.72 780.75,405.72 783,399.5C 784.351,397.981 785.851,396.648 787.5,395.5C 788.246,394.264 788.579,392.93 788.5,391.5C 789.978,391.762 791.311,391.429 792.5,390.5C 796.245,383.349 800.745,376.682 806,370.5C 820.799,355.701 835.633,340.867 850.5,326C 854.821,322.34 859.155,318.673 863.5,315C 866.403,314.431 868.403,312.765 869.5,310C 873.294,309.544 875.961,307.544 877.5,304C 880.944,303.889 883.277,302.223 884.5,299C 888.702,298.737 891.702,296.737 893.5,293C 897.582,293.129 900.582,291.462 902.5,288C 907.347,287.576 911.347,285.576 914.5,282C 919.009,282.152 922.675,280.485 925.5,277C 928.5,276.667 931.5,276.333 934.5,276C 936.833,274.333 939.167,272.667 941.5,271C 946.167,270.667 950.833,270.333 955.5,270C 958.071,269.099 960.404,267.766 962.5,266C 969.081,265.813 975.581,265.313 982,264.5C 981.512,203.888 981.345,143.222 981.5,82.5C 1138.17,82.5 1294.83,82.5 1451.5,82.5C 1451.66,143.222 1451.49,203.888 1451,264.5C 1457.75,265.314 1464.59,265.814 1471.5,266C 1473.67,267.586 1476,268.92 1478.5,270C 1483.17,270.333 1487.83,270.667 1492.5,271C 1494.83,272.667 1497.17,274.333 1499.5,276C 1502.5,276.333 1505.5,276.667 1508.5,277C 1511.28,280.557 1514.95,282.224 1519.5,282C 1521.5,282.667 1522.83,284 1523.5,286C 1526.04,287.092 1528.71,287.759 1531.5,288C 1533.42,291.462 1536.42,293.129 1540.5,293C 1542.3,296.737 1545.3,298.737 1549.5,299C 1550.72,302.223 1553.06,303.889 1556.5,304C 1557.74,305.154 1558.74,306.488 1559.5,308C 1563.76,309.934 1567.76,312.268 1571.5,315C 1576.18,320.052 1580.84,325.052 1585.5,330C 1588.57,330.697 1590.57,332.53 1591.5,335.5C 1594.33,337.833 1597.17,340.167 1600,342.5C 1600.62,345.612 1602.46,347.445 1605.5,348C 1606.29,349.085 1606.96,350.252 1607.5,351.5C 1610.5,354.325 1613.66,356.992 1617,359.5C 1617.33,362.5 1619,364.167 1622,364.5C 1622.7,367.585 1624.53,369.585 1627.5,370.5C 1631.16,374.327 1634.66,378.327 1638,382.5C 1642.24,390.998 1647.91,398.332 1655,404.5C 1656.04,406.715 1656.71,409.048 1657,411.5C 1660.23,414.306 1663.23,417.306 1666,420.5C 1667.02,423.105 1667.85,425.772 1668.5,428.5C 1669.63,429.262 1670.79,429.929 1672,430.5C 1674.33,435.5 1676.67,440.5 1679,445.5C 1680.33,446.167 1681.67,446.833 1683,447.5C 1683.33,450.167 1683.67,452.833 1684,455.5C 1685.67,456.5 1687.33,457.5 1689,458.5C 1689.33,461.167 1689.67,463.833 1690,466.5C 1692.4,466.958 1694.06,468.292 1695,470.5C 1695.5,473.146 1695.66,475.813 1695.5,478.5C 1696.93,478.421 1698.26,478.754 1699.5,479.5C 1700.32,482.447 1700.82,485.447 1701,488.5C 1705.86,490.219 1707.53,493.552 1706,498.5C 1707.62,500.158 1709.29,501.825 1711,503.5C 1711.04,509.547 1713.04,514.88 1717,519.5C 1716.43,524.087 1718.1,527.421 1722,529.5C 1721.59,534.957 1723.26,539.624 1727,543.5C 1727.8,549.399 1729.8,554.732 1733,559.5C 1732.85,564.506 1734.35,568.84 1737.5,572.5C 1737.71,579.251 1739.88,585.251 1744,590.5C 1743.81,597.07 1745.47,603.07 1749,608.5C 1749.7,614.305 1750.86,619.971 1752.5,625.5C 1775.16,626.333 1797.83,626.833 1820.5,627C 1822.6,628.766 1824.93,630.099 1827.5,631C 1832.5,631.333 1837.5,631.667 1842.5,632C 1847.78,635.893 1853.78,637.893 1860.5,638C 1863.94,641.819 1868.27,643.485 1873.5,643C 1874.5,644 1875.5,645 1876.5,646C 1883.29,648.647 1889.96,651.48 1896.5,654.5C 1898.96,657.234 1901.96,659.234 1905.5,660.5C 1907.19,663.594 1909.86,665.26 1913.5,665.5C 1930.15,677.95 1945.99,691.95 1961,707.5C 1963.2,711.4 1965.7,715.067 1968.5,718.5C 1969.63,719.262 1970.79,719.929 1972,720.5C 1973.23,723.732 1975.23,726.399 1978,728.5C 1978.31,730.556 1978.81,732.556 1979.5,734.5C 1981.19,735.228 1982.69,736.228 1984,737.5C 1986.47,743.975 1989.81,749.975 1994,755.5C 1994.76,761.029 1997.1,765.695 2001,769.5C 2001.5,772.817 2001.67,776.15 2001.5,779.5C 2003.14,779.286 2004.64,779.62 2006,780.5C 2006.86,785.303 2007.19,789.97 2007,794.5C 2010.83,795.836 2012.33,798.503 2011.5,802.5C 2012.5,802.5 2013.5,802.5 2014.5,802.5C 2014.5,841.5 2014.5,880.5 2014.5,919.5C 2012.09,919.921 2010.26,921.254 2009,923.5C 2007.18,928.324 2006.01,933.324 2005.5,938.5C 2003.85,939.779 2002.69,941.445 2002,943.5C 2001.75,946.89 2001.25,950.223 2000.5,953.5C 1999.15,954.95 1997.48,955.617 1995.5,955.5C 1995.5,958.833 1995.5,962.167 1995.5,965.5C 1993.61,965.297 1992.11,965.963 1991,967.5C 1991.51,972.507 1989.51,975.84 1985,977.5C 1984.67,979.833 1984.33,982.167 1984,984.5C 1976.56,991.35 1970.56,999.35 1966,1008.5C 1963.16,1011.34 1960.16,1014.01 1957,1016.5C 1956.67,1019.5 1955,1021.17 1952,1021.5C 1951.38,1024.61 1949.54,1026.45 1946.5,1027C 1943.73,1030.09 1941.06,1033.25 1938.5,1036.5C 1934.32,1040.34 1929.98,1044.01 1925.5,1047.5C 1921.63,1047.63 1918.96,1049.46 1917.5,1053C 1914.25,1053.08 1911.92,1054.58 1910.5,1057.5C 1906.4,1058.48 1903.06,1060.65 1900.5,1064C 1896.48,1064.43 1893.31,1066.26 1891,1069.5C 1886.52,1069.52 1883.02,1071.36 1880.5,1075C 1875.59,1074.6 1871.59,1076.26 1868.5,1080C 1862.43,1080.18 1857.09,1082.18 1852.5,1086C 1845.83,1085.48 1839.83,1087.14 1834.5,1091C 1827.83,1091.33 1821.17,1091.67 1814.5,1092C 1804.37,1095.73 1793.87,1097.23 1783,1096.5C 1777.83,1096.33 1772.67,1096.17 1767.5,1096C 1762.45,1094.89 1757.45,1093.89 1752.5,1093C 1750.91,1099.38 1749.74,1105.88 1749,1112.5C 1745.19,1117.45 1743.52,1123.12 1744,1129.5C 1743.1,1132.07 1741.77,1134.4 1740,1136.5C 1739.83,1142.09 1738.16,1147.09 1735,1151.5C 1734.63,1158.61 1732.3,1164.95 1728,1170.5C 1726.03,1177.13 1724.03,1183.8 1722,1190.5C 1720.33,1192.83 1718.67,1195.17 1717,1197.5C 1717.81,1200.5 1717.65,1203.5 1716.5,1206.5C 1715.02,1206.24 1713.69,1206.57 1712.5,1207.5C 1711.76,1210.44 1711.26,1213.44 1711,1216.5C 1707.3,1219.54 1705.3,1223.54 1705,1228.5C 1701.91,1234.61 1698.57,1240.61 1695,1246.5C 1695.08,1250.35 1693.58,1253.35 1690.5,1255.5C 1688.18,1262.14 1684.85,1268.14 1680.5,1273.5C 1679.2,1276.05 1678.2,1278.72 1677.5,1281.5C 1675.95,1282.44 1674.61,1283.61 1673.5,1285C 1673.3,1287.32 1672.8,1289.49 1672,1291.5C 1668.83,1294.64 1665.83,1297.97 1663,1301.5C 1662.71,1303.95 1662.04,1306.29 1661,1308.5C 1657.78,1311.26 1654.78,1314.26 1652,1317.5C 1651.64,1319.61 1650.97,1321.61 1650,1323.5C 1647.23,1325.6 1645.23,1328.27 1644,1331.5C 1642.67,1332.17 1641.33,1332.83 1640,1333.5C 1636.37,1338.73 1632.7,1344.06 1629,1349.5C 1614.98,1363.57 1601.15,1377.74 1587.5,1392C 1580.82,1397.02 1574.49,1402.35 1568.5,1408C 1564.94,1408.56 1562.6,1410.56 1561.5,1414C 1558.25,1414.08 1555.92,1415.58 1554.5,1418.5C 1550.4,1419.21 1547.4,1421.38 1545.5,1425C 1541.54,1424.65 1538.87,1426.32 1537.5,1430C 1532.83,1430.17 1529.17,1432.17 1526.5,1436C 1522.03,1435.61 1518.7,1437.28 1516.5,1441C 1513.83,1441.33 1511.17,1441.67 1508.5,1442C 1503.97,1446.78 1498.3,1448.78 1491.5,1448C 1489.63,1449.08 1487.96,1450.42 1486.5,1452C 1480.5,1452.33 1474.5,1452.67 1468.5,1453C 1463.05,1454.76 1457.55,1456.26 1452,1457.5C 1451.5,1503.17 1451.33,1548.83 1451.5,1594.5 Z M 1451.5,346.5 C 1455.65,348.021 1459.99,348.854 1464.5,349C 1466.46,349.953 1468.12,351.287 1469.5,353C 1475.45,352.868 1480.45,354.868 1484.5,359C 1488.92,358.612 1492.25,360.279 1494.5,364C 1498.87,364.019 1502.21,365.852 1504.5,369.5C 1508.37,369.627 1511.04,371.46 1512.5,375C 1516.46,375.312 1519.46,377.145 1521.5,380.5C 1522.79,381.098 1524.13,381.598 1525.5,382C 1532.49,388.598 1539.66,395.098 1547,401.5C 1554.02,410.181 1561.35,418.514 1569,426.5C 1571.4,429.914 1573.4,433.58 1575,437.5C 1578.4,440.561 1581.4,443.894 1584,447.5C 1584.97,449.392 1585.64,451.392 1586,453.5C 1589.7,456.667 1592.7,460.334 1595,464.5C 1595.97,466.392 1596.64,468.392 1597,470.5C 1597.91,472.439 1599.41,473.439 1601.5,473.5C 1601.84,475.854 1602.34,478.187 1603,480.5C 1606.91,486.638 1610.57,492.971 1614,499.5C 1617.58,502.217 1619.25,505.883 1619,510.5C 1622.72,512.745 1624.39,516.079 1624,520.5C 1625.1,522.053 1626.43,523.386 1628,524.5C 1627.78,529.051 1629.44,532.718 1633,535.5C 1636.18,542.557 1638.85,549.891 1641,557.5C 1641.95,559.455 1643.29,561.122 1645,562.5C 1644.65,566.887 1645.99,570.553 1649,573.5C 1650.47,577.723 1651.47,582.057 1652,586.5C 1655.63,589.959 1657.29,594.293 1657,599.5C 1657.69,601.555 1658.85,603.221 1660.5,604.5C 1661.32,607.785 1661.82,611.118 1662,614.5C 1665.99,619.814 1667.99,625.814 1668,632.5C 1671.04,636.998 1672.71,641.998 1673,647.5C 1676.73,651.3 1675.9,653.466 1670.5,654C 1668.38,657.296 1665.38,659.13 1661.5,659.5C 1659.71,662.566 1657.04,664.4 1653.5,665C 1652.26,666.154 1651.26,667.488 1650.5,669C 1646.83,669.165 1644.16,670.832 1642.5,674C 1640.91,674.862 1639.25,675.529 1637.5,676C 1634.3,679.112 1631.3,682.445 1628.5,686C 1627.5,686.333 1626.5,686.667 1625.5,687C 1621.64,691.023 1617.64,694.856 1613.5,698.5C 1610.98,701.197 1608.81,704.197 1607,707.5C 1605.79,708.071 1604.63,708.738 1603.5,709.5C 1599.68,713.793 1595.84,718.126 1592,722.5C 1591.33,724.5 1590.67,726.5 1590,728.5C 1587.16,731.44 1584.49,734.44 1582,737.5C 1580.98,740.105 1580.15,742.772 1579.5,745.5C 1574.97,748.157 1573.3,752.157 1574.5,757.5C 1569.92,757.866 1568.26,760.2 1569.5,764.5C 1568.09,767.456 1566.25,770.123 1564,772.5C 1563.79,777.701 1562.13,782.367 1559,786.5C 1557.86,791.083 1557.19,795.749 1557,800.5C 1554.21,802.368 1552.88,805.034 1553,808.5C 1552.68,813.141 1552.52,817.641 1552.5,822C 1518.6,822.829 1484.76,822.662 1451,821.5C 1451.66,757.554 1451.66,693.554 1451,629.5C 1450.63,628.584 1450.13,627.75 1449.5,627C 1294.17,626.333 1138.83,626.333 983.5,627C 982.874,627.75 982.374,628.584 982,629.5C 981.344,693.554 981.344,757.554 982,821.5C 952.572,822.662 923.072,822.828 893.5,822C 893,821.5 892.5,821 892,820.5C 891.812,812.782 891.146,805.115 890,797.5C 889.311,796.643 888.478,795.977 887.5,795.5C 886.63,790.841 885.797,786.175 885,781.5C 883.89,779.963 882.39,779.297 880.5,779.5C 880.665,776.15 880.498,772.817 880,769.5C 876.675,765.846 874.675,761.513 874,756.5C 869.502,750.177 865.502,743.511 862,736.5C 860.989,735.663 859.822,735.33 858.5,735.5C 858.146,733.459 858.146,731.626 858.5,730C 844.999,712.545 829.999,696.378 813.5,681.5C 810.317,681.223 808.317,679.556 807.5,676.5C 806.271,675.719 804.938,675.219 803.5,675C 801.961,671.456 799.294,669.456 795.5,669C 794.257,667.846 793.257,666.512 792.5,665C 788.541,665.349 785.874,663.683 784.5,660C 780.705,659.207 777.705,657.207 775.5,654C 771.651,654.076 768.651,652.576 766.5,649.5C 764.577,648.692 762.577,648.192 760.5,648C 759.978,647.439 759.645,646.772 759.5,646C 760.951,643.047 762.618,640.213 764.5,637.5C 765.125,632.369 766.292,627.369 768,622.5C 769,621.5 770,620.5 771,619.5C 771.333,616.167 771.667,612.833 772,609.5C 772.687,607.445 773.854,605.779 775.5,604.5C 775.598,597.703 777.764,591.703 782,586.5C 781.652,582.113 782.986,578.447 786,575.5C 786.436,568.972 788.77,563.305 793,558.5C 792.731,553.844 794.398,550.177 798,547.5C 797.867,542.646 799.533,538.646 803,535.5C 803.413,532.768 804.08,530.101 805,527.5C 811.165,517.31 816.499,506.644 821,495.5C 824.719,493.209 826.385,489.876 826,485.5C 827.512,484.743 828.846,483.743 830,482.5C 831.822,477.523 834.155,472.857 837,468.5C 840.575,466.13 842.409,462.797 842.5,458.5C 843.628,457.738 844.795,457.071 846,456.5C 848.735,451.939 851.235,447.273 853.5,442.5C 856.418,439.614 859.251,436.614 862,433.5C 863.944,429.235 866.277,425.235 869,421.5C 881.518,407.649 894.684,394.482 908.5,382C 912.29,381.214 915.29,379.214 917.5,376C 918.833,375.667 920.167,375.333 921.5,375C 922.874,371.317 925.541,369.651 929.5,370C 931.878,366.475 935.211,364.475 939.5,364C 942.137,360.183 945.804,358.516 950.5,359C 953.974,354.307 958.64,352.307 964.5,353C 965.977,350.852 967.977,349.518 970.5,349C 974.191,348.58 977.858,348.08 981.5,347.5C 981.167,413.17 981.5,478.837 982.5,544.5C 1060.46,545.165 1138.46,545.499 1216.5,545.5C 1294.54,545.499 1372.54,545.165 1450.5,544.5C 1451.9,543.148 1452.56,541.481 1452.5,539.5C 1451.51,475.183 1451.18,410.849 1451.5,346.5 Z M 895.5,895.5 C 897.854,895.838 900.187,896.338 902.5,897C 926.167,897.667 949.833,897.667 973.5,897C 976.057,895.881 978.557,895.715 981,896.5C 981.17,961.207 981.67,1025.87 982.5,1090.5C 1138.5,1091.67 1294.5,1091.83 1450.5,1091C 1451.33,1026.24 1451.83,961.404 1452,896.5C 1454.44,895.715 1456.94,895.881 1459.5,897C 1487.5,897.667 1515.5,897.667 1543.5,897C 1545.56,896.689 1547.56,896.189 1549.5,895.5C 1550.48,895.977 1551.31,896.643 1552,897.5C 1552.33,903.5 1552.67,909.5 1553,915.5C 1556.8,921.867 1558.8,928.867 1559,936.5C 1560.05,938.107 1561.55,938.773 1563.5,938.5C 1563.33,941.85 1563.5,945.183 1564,948.5C 1567.34,952.183 1569.34,956.516 1570,961.5C 1573.67,965.456 1576.17,970.122 1577.5,975.5C 1581.4,979.556 1584.23,984.223 1586,989.5C 1592.42,995.599 1597.75,1002.6 1602,1010.5C 1606.99,1015.2 1611.49,1020.2 1615.5,1025.5C 1618.36,1028.51 1621.69,1031.01 1625.5,1033C 1628.29,1035.63 1630.96,1038.46 1633.5,1041.5C 1637.65,1043.83 1641.65,1046.33 1645.5,1049C 1646.74,1050.15 1647.74,1051.49 1648.5,1053C 1652.17,1053.17 1654.84,1054.83 1656.5,1058C 1660.01,1058.66 1662.67,1060.49 1664.5,1063.5C 1668.48,1063.68 1671.65,1065.35 1674,1068.5C 1673.16,1072.37 1672.49,1076.37 1672,1080.5C 1671.22,1083.18 1669.89,1085.52 1668,1087.5C 1667.66,1091.56 1666.99,1095.56 1666,1099.5C 1665.58,1101.29 1664.58,1102.62 1663,1103.5C 1661.91,1108.14 1660.91,1112.81 1660,1117.5C 1657.06,1120.88 1655.73,1124.88 1656,1129.5C 1654.93,1132.6 1653.27,1135.26 1651,1137.5C 1651.27,1142.12 1649.94,1146.12 1647,1149.5C 1646,1153.17 1645,1156.83 1644,1160.5C 1643.29,1161.97 1642.12,1162.64 1640.5,1162.5C 1640.63,1168.34 1638.8,1173.34 1635,1177.5C 1634.81,1179.9 1634.31,1182.23 1633.5,1184.5C 1627.22,1195.4 1621.72,1206.74 1617,1218.5C 1614.87,1220.8 1613.37,1223.47 1612.5,1226.5C 1608.36,1228.95 1606.36,1232.61 1606.5,1237.5C 1602.81,1240.22 1600.64,1243.88 1600,1248.5C 1595.72,1253.26 1592.55,1258.59 1590.5,1264.5C 1589.67,1265.41 1588.67,1266.08 1587.5,1266.5C 1586.31,1270.19 1584.14,1273.19 1581,1275.5C 1580.67,1276.83 1580.33,1278.17 1580,1279.5C 1571.94,1288.62 1564.61,1298.29 1558,1308.5C 1556.79,1309.07 1555.63,1309.74 1554.5,1310.5C 1548.27,1317.42 1541.94,1324.25 1535.5,1331C 1534.5,1331.33 1533.5,1331.67 1532.5,1332C 1529.36,1335.17 1526.03,1338.17 1522.5,1341C 1520.91,1341.86 1519.25,1342.53 1517.5,1343C 1516.74,1344.51 1515.74,1345.85 1514.5,1347C 1510.1,1349.7 1505.43,1352.03 1500.5,1354C 1498.25,1357.72 1494.92,1359.39 1490.5,1359C 1487.61,1363.11 1483.61,1365.11 1478.5,1365C 1474.72,1368.88 1470.05,1370.55 1464.5,1370C 1461.27,1373.03 1457.43,1374.87 1453,1375.5C 1451.7,1374.9 1450.87,1373.9 1450.5,1372.5C 1451.17,1307.86 1451.84,1243.19 1452.5,1178.5C 1452.61,1176.63 1451.94,1175.13 1450.5,1174C 1294.5,1173.33 1138.5,1173.33 982.5,1174C 981.056,1175.13 980.39,1176.63 980.5,1178.5C 981.163,1243.17 981.83,1307.84 982.5,1372.5C 982.547,1374 981.881,1375 980.5,1375.5C 976.286,1374.73 972.619,1372.89 969.5,1370C 964.173,1370.62 959.84,1368.95 956.5,1365C 950.989,1365.41 946.655,1363.41 943.5,1359C 939.124,1359.39 935.791,1357.72 933.5,1354C 929.538,1353.69 926.538,1351.85 924.5,1348.5C 920.631,1348.37 917.964,1346.54 916.5,1343C 913.243,1342.55 910.909,1340.88 909.5,1338C 903.36,1333.85 897.36,1329.51 891.5,1325C 886.778,1319.25 881.778,1313.75 876.5,1308.5C 873.534,1304.35 870.701,1300.01 868,1295.5C 864.772,1292.69 861.772,1289.69 859,1286.5C 854.633,1277.74 849.299,1269.74 843,1262.5C 842.386,1258.92 840.552,1256.25 837.5,1254.5C 836.756,1253.01 836.09,1251.51 835.5,1250C 835.833,1249.67 836.167,1249.33 836.5,1249C 833.131,1246.64 830.964,1243.47 830,1239.5C 826.645,1237.15 824.978,1233.82 825,1229.5C 823.846,1228.26 822.512,1227.26 821,1226.5C 821.617,1221.54 819.784,1217.87 815.5,1215.5C 815.61,1210.98 813.776,1207.65 810,1205.5C 809.667,1202.83 809.333,1200.17 809,1197.5C 807.846,1196.26 806.512,1195.26 805,1194.5C 805.49,1189.71 803.823,1186.05 800,1183.5C 799.012,1180.58 798.346,1177.58 798,1174.5C 795.957,1173.42 794.624,1171.75 794,1169.5C 793.933,1164.15 791.933,1159.82 788,1156.5C 787.667,1153.5 787.333,1150.5 787,1147.5C 786,1146.5 785,1145.5 784,1144.5C 781.821,1135.53 779.155,1126.86 776,1118.5C 775.163,1116.16 773.829,1114.16 772,1112.5C 772.414,1106.44 770.747,1101.11 767,1096.5C 766.612,1092.78 765.945,1089.11 765,1085.5C 762.448,1082.32 760.948,1078.66 760.5,1074.5C 760.529,1072.97 761.196,1071.8 762.5,1071C 765.576,1070.65 768.576,1069.99 771.5,1069C 773.418,1065.54 776.418,1063.87 780.5,1064C 782.726,1060.88 785.726,1058.71 789.5,1057.5C 790.919,1054.58 793.252,1053.08 796.5,1053C 797.293,1051.91 797.96,1050.75 798.5,1049.5C 803.113,1047.37 807.446,1044.87 811.5,1042C 814.698,1038.89 817.698,1035.55 820.5,1032C 823.264,1031.74 824.931,1030.24 825.5,1027.5C 827.193,1026.77 828.693,1025.77 830,1024.5C 832.232,1021.73 834.399,1018.9 836.5,1016C 843.696,1010.28 849.363,1003.11 853.5,994.5C 859.126,990.16 862.793,984.494 864.5,977.5C 866.193,976.772 867.693,975.772 869,974.5C 869.333,971.833 869.667,969.167 870,966.5C 873.153,966.014 874.986,964.18 875.5,961C 874.614,958.888 874.614,956.722 875.5,954.5C 877.592,954.439 879.092,953.439 880,951.5C 880.583,945.085 882.75,939.252 886.5,934C 886.135,928.751 887.635,923.918 891,919.5C 891.333,913.5 891.667,907.5 892,901.5C 892.424,898.975 893.59,896.975 895.5,895.5 Z"/></g>
<g><path style="opacity:1" fill="#b566ff" d="M 1056.5,154.5 C 1163.51,155.662 1270.51,155.829 1377.5,155C 1378.67,259.43 1378.83,363.93 1378,468.5C 1270.28,468.51 1162.44,468.51 1054.5,468.5C 1053.84,363.622 1054.51,258.955 1056.5,154.5 Z"/></g>
<g><path style="opacity:1" fill="#e6aaff" d="M 1057.5,155.5 C 1163.82,156.663 1270.15,156.829 1376.5,156C 1377.67,259.763 1377.83,363.597 1377,467.5C 1269.98,467.506 1162.81,467.506 1055.5,467.5C 1054.84,363.289 1055.51,259.289 1057.5,155.5 Z"/></g>
<g><path style="opacity:1" fill="#a571ff" d="M 1151.5,199.5 C 1181.17,199.333 1210.84,199.5 1240.5,200C 1246.08,204.192 1252.41,206.192 1259.5,206C 1261.82,209.577 1265.16,211.41 1269.5,211.5C 1271.42,214.464 1274.09,216.464 1277.5,217.5C 1278.07,220.237 1279.74,221.737 1282.5,222C 1283.5,223.667 1284.5,225.333 1285.5,227C 1286.94,227.219 1288.27,227.719 1289.5,228.5C 1290.12,231.564 1290.95,234.564 1292,237.5C 1293.68,238.061 1295.01,239.061 1296,240.5C 1296.5,246.829 1298.17,252.829 1301,258.5C 1301.67,267.833 1301.67,277.167 1301,286.5C 1298.25,292.919 1296.25,299.586 1295,306.5C 1293.98,307.687 1292.81,308.687 1291.5,309.5C 1288.21,317.768 1283.21,324.768 1276.5,330.5C 1273.09,331.536 1270.42,333.536 1268.5,336.5C 1264.9,336.726 1262.23,338.392 1260.5,341.5C 1255.6,342.073 1251.6,344.239 1248.5,348C 1240.27,347.384 1232.61,349.051 1225.5,353C 1212.5,353.5 1199.5,353.667 1186.5,353.5C 1187.99,382.191 1187.83,410.857 1186,439.5C 1182.29,440.646 1178.46,441.313 1174.5,441.5C 1169.99,440.247 1165.49,440.247 1161,441.5C 1157.23,441.621 1153.89,440.621 1151,438.5C 1150.17,358.763 1150.34,279.097 1151.5,199.5 Z"/></g>
<g><path style="opacity:1" fill="#cd56ff" d="M 1152.5,200.5 C 1181.5,200.333 1210.5,200.5 1239.5,201C 1245.08,205.192 1251.41,207.192 1258.5,207C 1260.82,210.577 1264.16,212.41 1268.5,212.5C 1270.42,215.464 1273.09,217.464 1276.5,218.5C 1277.07,221.237 1278.74,222.737 1281.5,223C 1282.5,224.667 1283.5,226.333 1284.5,228C 1285.94,228.219 1287.27,228.719 1288.5,229.5C 1289.12,232.564 1289.95,235.564 1291,238.5C 1292.68,239.061 1294.01,240.061 1295,241.5C 1295.5,247.829 1297.17,253.829 1300,259.5C 1300.67,268.167 1300.67,276.833 1300,285.5C 1297.25,291.919 1295.25,298.586 1294,305.5C 1292.98,306.687 1291.81,307.687 1290.5,308.5C 1287.21,316.768 1282.21,323.768 1275.5,329.5C 1272.09,330.536 1269.42,332.536 1267.5,335.5C 1263.9,335.726 1261.23,337.392 1259.5,340.5C 1254.6,341.073 1250.6,343.239 1247.5,347C 1239.27,346.384 1231.61,348.051 1224.5,352C 1211.5,352.5 1198.5,352.667 1185.5,352.5C 1186.97,381.194 1186.81,409.861 1185,438.5C 1181.61,439.538 1178.11,440.205 1174.5,440.5C 1170,439.221 1165.5,439.221 1161,440.5C 1157.57,440.492 1154.57,439.492 1152,437.5C 1151.17,358.43 1151.34,279.43 1152.5,200.5 Z"/></g>
<g><path style="opacity:1" fill="#a571ff" d="M 1185.5,232.5 C 1200.5,232.333 1215.5,232.5 1230.5,233C 1233.45,233.806 1236.11,235.139 1238.5,237C 1241.83,237.667 1245.17,238.333 1248.5,239C 1251.96,242.168 1255.13,245.668 1258,249.5C 1258.92,252.101 1259.59,254.768 1260,257.5C 1260.69,258.357 1261.52,259.023 1262.5,259.5C 1263.83,269.167 1263.83,278.833 1262.5,288.5C 1261.52,288.977 1260.69,289.643 1260,290.5C 1259.61,293.633 1258.77,296.633 1257.5,299.5C 1254.67,302.495 1252.01,305.662 1249.5,309C 1245.71,309.793 1242.71,311.793 1240.5,315C 1222.23,317.47 1203.9,319.303 1185.5,320.5C 1186.82,291.168 1186.82,261.835 1185.5,232.5 Z"/></g>
<g><path style="opacity:1" fill="#e6aaff" d="M 1186.5,233.5 C 1200.84,233.333 1215.17,233.5 1229.5,234C 1232.45,234.806 1235.11,236.139 1237.5,238C 1240.83,238.667 1244.17,239.333 1247.5,240C 1250.96,243.168 1254.13,246.668 1257,250.5C 1258.11,252.397 1258.28,254.23 1257.5,256C 1261.59,261.092 1263.25,267.092 1262.5,274C 1262.17,278.5 1261.83,283 1261.5,287.5C 1258.65,289.025 1257.65,291.191 1258.5,294C 1255.2,300.969 1250.2,306.302 1243.5,310C 1242.17,311.333 1240.83,312.667 1239.5,314C 1221.89,316.414 1204.22,318.247 1186.5,319.5C 1187.82,290.836 1187.82,262.169 1186.5,233.5 Z"/></g>
<g><path style="opacity:1" fill="#b566ff" d="M 630.5,702.5 C 651.503,702.333 672.503,702.5 693.5,703C 697.381,703.607 700.714,705.274 703.5,708C 707.5,708.333 711.5,708.667 715.5,709C 717.5,709.667 718.833,711 719.5,713C 722.5,713.333 725.5,713.667 728.5,714C 731.13,717.817 734.797,719.817 739.5,720C 740.743,721.154 741.743,722.488 742.5,724C 744.5,724.333 746.5,724.667 748.5,725C 758.269,732.429 767.769,740.262 777,748.5C 781.013,754.667 785.18,760.667 789.5,766.5C 794.991,770.792 798.491,776.459 800,783.5C 801.333,784.167 802.667,784.833 804,785.5C 804.333,788.5 804.667,791.5 805,794.5C 806.333,795.167 807.667,795.833 809,796.5C 808.826,802.98 810.826,808.647 815,813.5C 814.365,821.146 816.031,828.146 820,834.5C 820.667,852.167 820.667,869.833 820,887.5C 818.372,889.653 817.039,891.987 816,894.5C 815.827,899.584 815.161,904.584 814,909.5C 813.29,910.973 812.124,911.64 810.5,911.5C 810.072,914.356 809.905,917.356 810,920.5C 809.047,922.455 807.713,924.122 806,925.5C 805.772,930.49 803.772,934.49 800,937.5C 799.667,939.5 799.333,941.5 799,943.5C 797.667,944.167 796.333,944.833 795,945.5C 793.621,950.589 791.454,955.255 788.5,959.5C 786.807,960.228 785.307,961.228 784,962.5C 781.768,965.27 779.601,968.103 777.5,971C 776.234,971.309 775.067,971.809 774,972.5C 771.724,975.823 769.224,978.99 766.5,982C 763.216,984.848 759.549,987.181 755.5,989C 753.842,992.168 751.175,993.835 747.5,994C 745.691,997.57 742.691,999.403 738.5,999.5C 735.662,1003.71 731.662,1005.54 726.5,1005C 722.808,1009 718.141,1010.66 712.5,1010C 710.469,1012.02 708.135,1013.69 705.5,1015C 699.833,1015.33 694.167,1015.67 688.5,1016C 686.833,1017 685.167,1018 683.5,1019C 669.829,1020.94 656.163,1020.94 642.5,1019C 640.5,1018 638.5,1017 636.5,1016C 630.5,1015.67 624.5,1015.33 618.5,1015C 615.775,1013.88 613.442,1012.22 611.5,1010C 608.167,1009.67 604.833,1009.33 601.5,1009C 598.557,1005.1 594.557,1003.44 589.5,1004C 587.444,999.968 584.11,997.968 579.5,998C 578.257,996.846 577.257,995.512 576.5,994C 573.252,993.918 570.919,992.418 569.5,989.5C 565.473,988.672 562.473,986.505 560.5,983C 559.5,982.667 558.5,982.333 557.5,982C 553.299,977.799 549.133,973.633 545,969.5C 544.517,968.552 544.351,967.552 544.5,966.5C 542.61,966.703 541.11,966.037 540,964.5C 537.254,961.349 535.254,957.683 534,953.5C 530.99,950.126 527.99,946.792 525,943.5C 523.908,940.956 523.241,938.289 523,935.5C 521.846,934.257 520.512,933.257 519,932.5C 518.667,929.5 518.333,926.5 518,923.5C 516.667,922.833 515.333,922.167 514,921.5C 513.811,916.749 513.145,912.083 512,907.5C 510.324,906.939 508.991,905.939 508,904.5C 508.739,898.159 508.405,891.825 507,885.5C 504.938,883.64 503.605,881.306 503,878.5C 502.333,866.833 502.333,855.167 503,843.5C 502.972,839.277 504.305,835.611 507,832.5C 507.311,826.126 507.977,819.793 509,813.5C 510.333,812.167 511.667,810.833 513,809.5C 515.537,799.064 519.37,789.064 524.5,779.5C 528.148,777.207 529.981,773.873 530,769.5C 538.419,760.672 546.586,751.505 554.5,742C 558.133,740.023 561.467,737.69 564.5,735C 565.743,733.846 566.743,732.512 567.5,731C 571.283,730.446 573.95,728.446 575.5,725C 579.416,725.158 582.082,723.491 583.5,720C 585.833,719.667 588.167,719.333 590.5,719C 592.167,717.333 593.833,715.667 595.5,714C 598.5,713.667 601.5,713.333 604.5,713C 605.167,711 606.5,709.667 608.5,709C 612.167,708.667 615.833,708.333 619.5,708C 622.959,705.604 626.626,703.77 630.5,702.5 Z"/></g>
<g><path style="opacity:1" fill="#b566ff" d="M 1054.5,702.5 C 1162.5,702.5 1270.5,702.5 1378.5,702.5C 1378.83,807.169 1378.5,911.835 1377.5,1016.5C 1374.85,1017.36 1372.19,1017.2 1369.5,1016C 1267.5,1015.33 1165.5,1015.33 1063.5,1016C 1060.81,1017.2 1058.15,1017.36 1055.5,1016.5C 1054.5,911.835 1054.17,807.169 1054.5,702.5 Z"/></g>
<g><path style="opacity:1" fill="#b566ff" d="M 1751.5,702.5 C 1772.5,702.333 1793.5,702.5 1814.5,703C 1818.58,703.873 1822.24,705.539 1825.5,708C 1829.5,708.333 1833.5,708.667 1837.5,709C 1840.52,712.691 1844.52,714.358 1849.5,714C 1851.02,715.351 1852.35,716.851 1853.5,718.5C 1858.02,718.39 1861.35,720.224 1863.5,724C 1867.78,723.525 1870.78,725.192 1872.5,729C 1874.09,729.862 1875.75,730.529 1877.5,731C 1878.26,732.512 1879.26,733.846 1880.5,735C 1889.15,740.074 1896.65,746.574 1903,754.5C 1905.67,758.347 1908.17,762.347 1910.5,766.5C 1915.89,770.933 1919.56,776.6 1921.5,783.5C 1922.93,784.23 1924.1,785.23 1925,786.5C 1925.33,789.167 1925.67,791.833 1926,794.5C 1927.33,795.167 1928.67,795.833 1930,796.5C 1929.72,803.066 1931.72,808.733 1936,813.5C 1935.6,818.113 1935.93,822.78 1937,827.5C 1939.06,828.978 1940.39,830.978 1941,833.5C 1941.67,850.833 1941.67,868.167 1941,885.5C 1940.48,888.023 1939.15,890.023 1937,891.5C 1936.74,897.551 1936.07,903.551 1935,909.5C 1931.18,912.892 1929.51,917.225 1930,922.5C 1926.95,929.693 1923.45,936.693 1919.5,943.5C 1918.24,944.382 1917.07,945.382 1916,946.5C 1914.44,951.28 1912.11,955.613 1909,959.5C 1899.28,968.08 1890.12,977.247 1881.5,987C 1877.96,987.6 1875.29,989.434 1873.5,992.5C 1871.88,993.154 1870.22,993.654 1868.5,994C 1867.74,995.512 1866.74,996.846 1865.5,998C 1861.42,997.871 1858.42,999.538 1856.5,1003C 1853.62,1004.13 1850.62,1004.79 1847.5,1005C 1846.74,1006.51 1845.74,1007.85 1844.5,1009C 1840.83,1009.33 1837.17,1009.67 1833.5,1010C 1831.5,1011.67 1829.5,1013.33 1827.5,1015C 1821.17,1015.33 1814.83,1015.67 1808.5,1016C 1805.02,1018.79 1801.02,1020.12 1796.5,1020C 1785.14,1020.72 1773.8,1020.39 1762.5,1019C 1760.67,1018.25 1759,1017.25 1757.5,1016C 1751.5,1015.67 1745.5,1015.33 1739.5,1015C 1736.61,1014.11 1734.27,1012.44 1732.5,1010C 1726.86,1010.66 1722.19,1009 1718.5,1005C 1713.23,1005.7 1709.23,1003.87 1706.5,999.5C 1702.3,999.512 1699.3,997.678 1697.5,994C 1694.25,993.918 1691.92,992.418 1690.5,989.5C 1688.63,988.376 1686.63,987.543 1684.5,987C 1676.02,980.192 1668.19,972.692 1661,964.5C 1660.77,961.94 1659.44,960.274 1657,959.5C 1656.03,957.608 1655.36,955.608 1655,953.5C 1651.83,950.239 1648.83,946.906 1646,943.5C 1645.01,940.576 1644.35,937.576 1644,934.5C 1642.67,933.833 1641.33,933.167 1640,932.5C 1639.67,929.5 1639.33,926.5 1639,923.5C 1637.67,922.833 1636.33,922.167 1635,921.5C 1634.58,917.128 1633.91,912.795 1633,908.5C 1631.43,907.386 1630.1,906.053 1629,904.5C 1628.67,899.167 1628.33,893.833 1628,888.5C 1625.71,885.649 1624.38,882.315 1624,878.5C 1623.33,866.5 1623.33,854.5 1624,842.5C 1624.56,838.825 1625.89,835.492 1628,832.5C 1628.33,827.167 1628.67,821.833 1629,816.5C 1630.49,813.373 1632.32,810.54 1634.5,808C 1633.45,806.612 1633.28,805.112 1634,803.5C 1636.9,799.251 1638.9,794.584 1640,789.5C 1642.64,784.849 1645.64,780.515 1649,776.5C 1650.04,774.285 1650.71,771.952 1651,769.5C 1657.78,762.373 1664.28,754.873 1670.5,747C 1677.17,742.221 1683.17,736.888 1688.5,731C 1691.76,730.545 1694.09,728.879 1695.5,726C 1697.71,724.956 1700.05,724.29 1702.5,724C 1704.22,720.192 1707.22,718.525 1711.5,719C 1712.83,717.333 1714.17,715.667 1715.5,714C 1718.83,713.667 1722.17,713.333 1725.5,713C 1726.17,711 1727.5,709.667 1729.5,709C 1733.5,708.667 1737.5,708.333 1741.5,708C 1744.44,705.363 1747.78,703.53 1751.5,702.5 Z"/></g>
<g><path style="opacity:1" fill="#e6a9ff" d="M 631.5,703.5 C 651.836,703.333 672.169,703.5 692.5,704C 696.381,704.607 699.714,706.274 702.5,709C 706.5,709.333 710.5,709.667 714.5,710C 716.5,710.667 717.833,712 718.5,714C 721.5,714.333 724.5,714.667 727.5,715C 730.13,718.817 733.797,720.817 738.5,721C 739.743,722.154 740.743,723.488 741.5,725C 743.5,725.333 745.5,725.667 747.5,726C 757.269,733.429 766.769,741.262 776,749.5C 780.013,755.667 784.18,761.667 788.5,767.5C 793.991,771.792 797.491,777.459 799,784.5C 800.333,785.167 801.667,785.833 803,786.5C 803.333,789.5 803.667,792.5 804,795.5C 805.333,796.167 806.667,796.833 808,797.5C 807.826,803.98 809.826,809.647 814,814.5C 813.365,822.146 815.031,829.146 819,835.5C 819.667,852.5 819.667,869.5 819,886.5C 817.372,888.653 816.039,890.987 815,893.5C 814.827,898.584 814.161,903.584 813,908.5C 812.29,909.973 811.124,910.64 809.5,910.5C 808.353,913.5 808.187,916.5 809,919.5C 808.047,921.455 806.713,923.122 805,924.5C 804.772,929.49 802.772,933.49 799,936.5C 798.667,938.5 798.333,940.5 798,942.5C 796.667,943.167 795.333,943.833 794,944.5C 792.621,949.589 790.454,954.255 787.5,958.5C 785.807,959.228 784.307,960.228 783,961.5C 780.768,964.27 778.601,967.103 776.5,970C 775.234,970.309 774.067,970.809 773,971.5C 770.724,974.823 768.224,977.99 765.5,981C 762.216,983.848 758.549,986.181 754.5,988C 752.842,991.168 750.175,992.835 746.5,993C 744.691,996.57 741.691,998.403 737.5,998.5C 734.662,1002.71 730.662,1004.54 725.5,1004C 721.808,1008 717.141,1009.66 711.5,1009C 709.469,1011.02 707.135,1012.69 704.5,1014C 698.833,1014.33 693.167,1014.67 687.5,1015C 685.833,1016 684.167,1017 682.5,1018C 669.496,1019.93 656.496,1019.93 643.5,1018C 641.5,1017 639.5,1016 637.5,1015C 631.5,1014.67 625.5,1014.33 619.5,1014C 616.775,1012.88 614.442,1011.22 612.5,1009C 609.167,1008.67 605.833,1008.33 602.5,1008C 599.557,1004.1 595.557,1002.44 590.5,1003C 588.444,998.968 585.11,996.968 580.5,997C 579.257,995.846 578.257,994.512 577.5,993C 574.252,992.918 571.919,991.418 570.5,988.5C 566.473,987.672 563.473,985.505 561.5,982C 560.5,981.667 559.5,981.333 558.5,981C 554.299,976.799 550.133,972.633 546,968.5C 545.517,967.552 545.351,966.552 545.5,965.5C 543.61,965.703 542.11,965.037 541,963.5C 538.254,960.349 536.254,956.683 535,952.5C 531.99,949.126 528.99,945.792 526,942.5C 524.908,939.956 524.241,937.289 524,934.5C 522.846,933.257 521.512,932.257 520,931.5C 519.667,928.5 519.333,925.5 519,922.5C 517.667,921.833 516.333,921.167 515,920.5C 514.811,915.749 514.145,911.083 513,906.5C 508.402,904.314 507.236,900.814 509.5,896C 508.959,892.172 508.459,888.339 508,884.5C 505.938,882.64 504.605,880.306 504,877.5C 503.333,866.5 503.333,855.5 504,844.5C 503.972,840.277 505.305,836.611 508,833.5C 508.311,827.126 508.977,820.793 510,814.5C 511.333,813.167 512.667,811.833 514,810.5C 516.537,800.064 520.37,790.064 525.5,780.5C 529.148,778.207 530.981,774.873 531,770.5C 539.419,761.672 547.586,752.505 555.5,743C 559.133,741.023 562.467,738.69 565.5,736C 566.743,734.846 567.743,733.512 568.5,732C 572.283,731.446 574.95,729.446 576.5,726C 580.416,726.158 583.082,724.491 584.5,721C 586.833,720.667 589.167,720.333 591.5,720C 593.167,718.333 594.833,716.667 596.5,715C 599.5,714.667 602.5,714.333 605.5,714C 606.167,712 607.5,710.667 609.5,710C 613.167,709.667 616.833,709.333 620.5,709C 623.959,706.604 627.626,704.77 631.5,703.5 Z"/></g>
<g><path style="opacity:1" fill="#e6aaff" d="M 1055.5,703.5 C 1162.83,703.5 1270.17,703.5 1377.5,703.5C 1377.83,807.502 1377.5,911.502 1376.5,1015.5C 1375.91,1015.71 1375.41,1016.04 1375,1016.5C 1373.6,1015.77 1372.1,1015.27 1370.5,1015C 1267.83,1014.33 1165.17,1014.33 1062.5,1015C 1060.9,1015.27 1059.4,1015.77 1058,1016.5C 1057.59,1016.04 1057.09,1015.71 1056.5,1015.5C 1055.5,911.502 1055.17,807.502 1055.5,703.5 Z"/></g>
<g><path style="opacity:1" fill="#e6a9ff" d="M 1752.5,703.5 C 1772.84,703.333 1793.17,703.5 1813.5,704C 1817.58,704.873 1821.24,706.539 1824.5,709C 1828.5,709.333 1832.5,709.667 1836.5,710C 1839.52,713.691 1843.52,715.358 1848.5,715C 1850.02,716.351 1851.35,717.851 1852.5,719.5C 1857.02,719.39 1860.35,721.224 1862.5,725C 1866.78,724.525 1869.78,726.192 1871.5,730C 1873.09,730.862 1874.75,731.529 1876.5,732C 1877.26,733.512 1878.26,734.846 1879.5,736C 1888.15,741.074 1895.65,747.574 1902,755.5C 1904.67,759.347 1907.17,763.347 1909.5,767.5C 1914.89,771.933 1918.56,777.6 1920.5,784.5C 1921.93,785.23 1923.1,786.23 1924,787.5C 1924.33,790.167 1924.67,792.833 1925,795.5C 1926.33,796.167 1927.67,796.833 1929,797.5C 1928.81,804.589 1930.97,810.755 1935.5,816C 1934.8,820.134 1934.96,824.301 1936,828.5C 1938.06,829.978 1939.39,831.978 1940,834.5C 1940.67,851.167 1940.67,867.833 1940,884.5C 1939.48,887.023 1938.15,889.023 1936,890.5C 1935.74,896.551 1935.07,902.551 1934,908.5C 1930.18,911.892 1928.51,916.225 1929,921.5C 1925.95,928.693 1922.45,935.693 1918.5,942.5C 1917.24,943.382 1916.07,944.382 1915,945.5C 1913.44,950.28 1911.11,954.613 1908,958.5C 1898.28,967.08 1889.12,976.247 1880.5,986C 1876.96,986.6 1874.29,988.434 1872.5,991.5C 1870.88,992.154 1869.22,992.654 1867.5,993C 1866.74,994.512 1865.74,995.846 1864.5,997C 1860.42,996.871 1857.42,998.538 1855.5,1002C 1852.62,1003.13 1849.62,1003.79 1846.5,1004C 1845.74,1005.51 1844.74,1006.85 1843.5,1008C 1839.83,1008.33 1836.17,1008.67 1832.5,1009C 1830.5,1010.67 1828.5,1012.33 1826.5,1014C 1820.17,1014.33 1813.83,1014.67 1807.5,1015C 1804.02,1017.79 1800.02,1019.12 1795.5,1019C 1784.8,1019.7 1774.14,1019.36 1763.5,1018C 1761.67,1017.25 1760,1016.25 1758.5,1015C 1752.5,1014.67 1746.5,1014.33 1740.5,1014C 1737.61,1013.11 1735.27,1011.44 1733.5,1009C 1727.86,1009.66 1723.19,1008 1719.5,1004C 1714.23,1004.7 1710.23,1002.87 1707.5,998.5C 1703.3,998.512 1700.3,996.678 1698.5,993C 1695.25,992.918 1692.92,991.418 1691.5,988.5C 1689.63,987.376 1687.63,986.543 1685.5,986C 1677.02,979.192 1669.19,971.692 1662,963.5C 1661.77,960.94 1660.44,959.274 1658,958.5C 1657.03,956.608 1656.36,954.608 1656,952.5C 1652.83,949.239 1649.83,945.906 1647,942.5C 1646.01,939.576 1645.35,936.576 1645,933.5C 1643.67,932.833 1642.33,932.167 1641,931.5C 1640.67,928.5 1640.33,925.5 1640,922.5C 1638.67,921.833 1637.33,921.167 1636,920.5C 1635.58,916.128 1634.91,911.795 1634,907.5C 1632.43,906.386 1631.1,905.053 1630,903.5C 1629.67,898.167 1629.33,892.833 1629,887.5C 1626.71,884.649 1625.38,881.315 1625,877.5C 1624.33,866.167 1624.33,854.833 1625,843.5C 1625.56,839.825 1626.89,836.492 1629,833.5C 1629.33,828.167 1629.67,822.833 1630,817.5C 1630.89,814.867 1632.39,812.7 1634.5,811C 1635.74,809.144 1635.74,807.311 1634.5,805.5C 1638.35,797.097 1642.35,788.764 1646.5,780.5C 1650.15,778.207 1651.98,774.873 1652,770.5C 1658.78,763.373 1665.28,755.873 1671.5,748C 1678.17,743.221 1684.17,737.888 1689.5,732C 1692.76,731.545 1695.09,729.879 1696.5,727C 1698.71,725.956 1701.05,725.29 1703.5,725C 1705.22,721.192 1708.22,719.525 1712.5,720C 1713.83,718.333 1715.17,716.667 1716.5,715C 1719.83,714.667 1723.17,714.333 1726.5,714C 1727.17,712 1728.5,710.667 1730.5,710C 1734.5,709.667 1738.5,709.333 1742.5,709C 1745.44,706.363 1748.78,704.53 1752.5,703.5 Z"/></g>
<g><path style="opacity:1" fill="#a571ff" d="M 1193.5,735.5 C 1201.83,736.554 1210.16,736.721 1218.5,736C 1221.51,735.84 1223.68,737.007 1225,739.5C 1225.82,818.528 1225.66,897.528 1224.5,976.5C 1213.2,977.601 1201.87,977.767 1190.5,977C 1188.94,976.682 1187.77,975.849 1187,974.5C 1186.33,896.833 1186.33,819.167 1187,741.5C 1188.4,738.595 1190.57,736.595 1193.5,735.5 Z"/></g>
<g><path style="opacity:1" fill="#cd56ff" d="M 1194.5,736.5 C 1202.16,737.581 1209.83,737.748 1217.5,737C 1220.51,736.84 1222.68,738.007 1224,740.5C 1224.82,818.861 1224.66,897.195 1223.5,975.5C 1212.87,976.596 1202.2,976.763 1191.5,976C 1189.94,975.682 1188.77,974.849 1188,973.5C 1187.33,896.5 1187.33,819.5 1188,742.5C 1189.4,739.595 1191.57,737.595 1194.5,736.5 Z"/></g>
<g><path style="opacity:1" fill="#b666fe" d="M 1111.5,1563.5 C 1196.67,1562.33 1282,1562.17 1367.5,1563C 1370.79,1563.83 1374.13,1564.33 1377.5,1564.5C 1377.5,1459.83 1377.5,1355.17 1377.5,1250.5C 1270.17,1250.5 1162.83,1250.5 1055.5,1250.5C 1055.5,1316.83 1055.5,1383.17 1055.5,1449.5C 1048.17,1449.5 1040.83,1449.5 1033.5,1449.5C 1032.83,1449.5 1032.5,1449.17 1032.5,1448.5C 1039.83,1448.5 1047.17,1448.5 1054.5,1448.5C 1054.5,1382.17 1054.5,1315.83 1054.5,1249.5C 1162.5,1249.5 1270.5,1249.5 1378.5,1249.5C 1378.5,1354.83 1378.5,1460.17 1378.5,1565.5C 1374.44,1565.52 1370.44,1565.02 1366.5,1564C 1281.5,1563.5 1196.5,1563.33 1111.5,1563.5 Z"/></g>
<g><path style="opacity:1" fill="#e6a9fe" d="M 1111.5,1563.5 C 1111.17,1563.5 1110.83,1563.5 1110.5,1563.5C 1107.57,1562.18 1104.24,1561.51 1100.5,1561.5C 1097.17,1561.67 1093.83,1561.83 1090.5,1562C 1089.94,1562.38 1089.61,1562.88 1089.5,1563.5C 1081.32,1565.15 1072.98,1566.15 1064.5,1566.5C 1064.5,1565.83 1064.17,1565.5 1063.5,1565.5C 1060.52,1564.84 1057.35,1564.5 1054,1564.5C 1050.42,1564.52 1047.26,1565.18 1044.5,1566.5C 1043.51,1566.33 1042.84,1566.66 1042.5,1567.5C 1037.55,1568.33 1032.55,1568.66 1027.5,1568.5C 1030.98,1567.68 1034.64,1567.18 1038.5,1567C 1035.33,1566.83 1032.17,1566.67 1029,1566.5C 1025.42,1566.52 1022.26,1567.18 1019.5,1568.5C 1018.24,1568.46 1017.24,1568.96 1016.5,1570C 1009.09,1570.2 1001.75,1570.7 994.5,1571.5C 992.952,1570.21 990.952,1569.54 988.5,1569.5C 985.097,1569.56 981.764,1570.06 978.5,1571C 977.944,1571.38 977.611,1571.88 977.5,1572.5C 976.833,1572.5 976.167,1572.5 975.5,1572.5C 971.354,1571.35 967.02,1571.19 962.5,1572C 954.444,1573.09 946.444,1574.43 938.5,1576C 928.652,1580.68 921.318,1587.85 916.5,1597.5C 915.778,1597.92 915.278,1598.58 915,1599.5C 914.333,1604.5 914.333,1609.5 915,1614.5C 915.383,1615.06 915.883,1615.39 916.5,1615.5C 922.518,1624.86 930.852,1631.36 941.5,1635C 948.721,1637.34 956.054,1639.17 963.5,1640.5C 963.918,1641.22 964.584,1641.72 965.5,1642C 969.191,1642.42 972.858,1642.92 976.5,1643.5C 981.702,1643.3 986.702,1643.96 991.5,1645.5C 993.59,1645.43 995.59,1645.09 997.5,1644.5C 997.833,1644.5 998.167,1644.5 998.5,1644.5C 998.918,1645.22 999.584,1645.72 1000.5,1646C 1003.15,1646.5 1005.81,1646.66 1008.5,1646.5C 1010.83,1646.5 1013.17,1646.5 1015.5,1646.5C 1018.73,1647.55 1022.06,1648.21 1025.5,1648.5C 1028.17,1648.5 1030.83,1648.5 1033.5,1648.5C 1036.43,1649.3 1039.43,1649.63 1042.5,1649.5C 1045.87,1650.75 1049.2,1650.75 1052.5,1649.5C 1053.17,1649.5 1053.83,1649.5 1054.5,1649.5C 1055.78,1650.93 1057.45,1651.6 1059.5,1651.5C 1064.31,1652.49 1069.31,1652.82 1074.5,1652.5C 1077.52,1652.7 1080.52,1653.04 1083.5,1653.5C 1086.71,1653.81 1089.71,1653.48 1092.5,1652.5C 1093.5,1652.5 1094.5,1652.5 1095.5,1652.5C 1095.41,1653.5 1095.75,1654.33 1096.5,1655C 1103.25,1655.79 1109.91,1655.63 1116.5,1654.5C 1116.83,1654.5 1117.17,1654.5 1117.5,1654.5C 1118.6,1655.56 1119.93,1656.39 1121.5,1657C 1127.75,1657.81 1133.92,1657.64 1140,1656.5C 1143.4,1657.54 1146.9,1658.21 1150.5,1658.5C 1155.83,1658.5 1161.17,1658.5 1166.5,1658.5C 1172.93,1659.64 1179.43,1660.31 1186,1660.5C 1189.25,1660.48 1192.08,1659.81 1194.5,1658.5C 1195.39,1659.11 1196.39,1659.44 1197.5,1659.5C 1199.21,1660.74 1201.21,1661.41 1203.5,1661.5C 1207.99,1662.17 1212.65,1662.5 1217.5,1662.5C 1222.55,1662.49 1227.22,1661.83 1231.5,1660.5C 1232.5,1660.5 1233.5,1660.5 1234.5,1660.5C 1238.39,1662.28 1242.72,1663.11 1247.5,1663C 1268.17,1663.67 1288.83,1663.67 1309.5,1663C 1312.36,1663.03 1314.69,1662.2 1316.5,1660.5C 1317.96,1660.57 1319.29,1660.23 1320.5,1659.5C 1322.22,1660.8 1324.39,1661.47 1327,1661.5C 1329.17,1661.33 1331.33,1661.17 1333.5,1661C 1354.83,1656.26 1374.5,1647.76 1392.5,1635.5C 1400.16,1632.03 1407.49,1627.87 1414.5,1623C 1417.33,1621.09 1417,1620.26 1413.5,1620.5C 1416.46,1618.89 1419.46,1617.23 1422.5,1615.5C 1422.56,1616.04 1422.89,1616.38 1423.5,1616.5C 1431.58,1611.92 1439.24,1606.75 1446.5,1601C 1445.42,1600.53 1444.42,1600.7 1443.5,1601.5C 1444.21,1599.8 1445.54,1598.8 1447.5,1598.5C 1447.37,1599.24 1447.54,1599.91 1448,1600.5C 1481.06,1576.38 1513.89,1551.88 1546.5,1527C 1568.63,1511.22 1590.79,1495.39 1613,1479.5C 1622.25,1474.15 1631.75,1469.32 1641.5,1465C 1651.84,1461.17 1662.5,1458.51 1673.5,1457C 1674.06,1456.62 1674.39,1456.12 1674.5,1455.5C 1674.83,1455.5 1675.17,1455.5 1675.5,1455.5C 1679.6,1456.79 1683.6,1456.79 1687.5,1455.5C 1692.87,1454.49 1698.2,1454.49 1703.5,1455.5C 1707.59,1456.2 1711.59,1456.2 1715.5,1455.5C 1715.61,1456.12 1715.94,1456.62 1716.5,1457C 1733.37,1460.59 1746.7,1469.43 1756.5,1483.5C 1756.5,1485.5 1756.5,1487.5 1756.5,1489.5C 1747.43,1511.11 1734.1,1529.95 1716.5,1546C 1655.8,1596.55 1594.13,1645.72 1531.5,1693.5C 1484.24,1728.43 1435.91,1761.76 1386.5,1793.5C 1367.77,1804.04 1348.77,1814.2 1329.5,1824C 1328.62,1824.71 1327.95,1825.54 1327.5,1826.5C 1325.6,1826.43 1323.77,1826.77 1322,1827.5C 1306.63,1834.61 1290.8,1840.11 1274.5,1844C 1271.18,1844.5 1267.85,1844.67 1264.5,1844.5C 1256.01,1845 1247.67,1845.67 1239.5,1846.5C 1238,1846.99 1236.67,1847.66 1235.5,1848.5C 1234.04,1848.43 1232.71,1848.77 1231.5,1849.5C 1217.02,1848.17 1202.18,1847.5 1187,1847.5C 1171.82,1847.5 1156.98,1848.17 1142.5,1849.5C 1140.96,1848.7 1139.29,1848.37 1137.5,1848.5C 1129.74,1846.78 1121.74,1846.12 1113.5,1846.5C 1106.09,1845.87 1099.09,1846.54 1092.5,1848.5C 1091.29,1847.77 1089.96,1847.43 1088.5,1847.5C 1087.85,1846.27 1086.68,1845.61 1085,1845.5C 1080.86,1844.76 1076.7,1844.43 1072.5,1844.5C 1067.06,1843.89 1062.06,1844.56 1057.5,1846.5C 1056.29,1845.77 1054.96,1845.43 1053.5,1845.5C 1052.67,1844.25 1051.33,1843.59 1049.5,1843.5C 1044.52,1842.96 1039.52,1842.62 1034.5,1842.5C 1030.43,1842.51 1026.77,1843.18 1023.5,1844.5C 1022.29,1843.77 1020.96,1843.43 1019.5,1843.5C 1015.46,1841.88 1011.13,1841.05 1006.5,1841C 1000.98,1840.18 995.65,1840.35 990.5,1841.5C 990.5,1842.17 990.5,1842.83 990.5,1843.5C 989.292,1842.77 987.959,1842.43 986.5,1842.5C 986.03,1841.31 985.03,1840.64 983.5,1840.5C 981.182,1840 978.848,1839.67 976.5,1839.5C 970.074,1838.88 964.074,1839.55 958.5,1841.5C 957.609,1840.89 956.609,1840.56 955.5,1840.5C 955.389,1839.88 955.056,1839.38 954.5,1839C 944.363,1837.4 934.363,1837.23 924.5,1838.5C 923.5,1838.5 922.5,1838.5 921.5,1838.5C 919.562,1836.84 917.228,1836.17 914.5,1836.5C 909.678,1835.83 904.678,1835.5 899.5,1835.5C 894.119,1835.51 889.119,1836.17 884.5,1837.5C 883.167,1837.5 881.833,1837.5 880.5,1837.5C 880.389,1836.88 880.056,1836.38 879.5,1836C 874.511,1835.5 869.511,1835.33 864.5,1835.5C 848.919,1833.99 833.252,1834.32 817.5,1836.5C 814.36,1835.36 811.027,1835.19 807.5,1836C 792.425,1839.46 777.592,1843.63 763,1848.5C 761.831,1849.01 760.998,1849.84 760.5,1851C 755.211,1851.81 750.211,1853.48 745.5,1856C 744.619,1856.71 743.953,1857.54 743.5,1858.5C 742.735,1858.08 741.902,1857.74 741,1857.5C 722.118,1865.84 703.618,1874.84 685.5,1884.5C 677.814,1887.2 669.814,1888.2 661.5,1887.5C 661.5,1888.5 661.5,1889.5 661.5,1890.5C 660.167,1890.5 658.833,1890.5 657.5,1890.5C 653.018,1889.67 648.351,1889.17 643.5,1889C 565.654,1819.65 487.654,1750.49 409.5,1681.5C 397.843,1670.51 385.843,1659.85 373.5,1649.5C 370.365,1639.99 368.199,1630.32 367,1620.5C 425.358,1568.28 488.525,1522.95 556.5,1484.5C 590.787,1465.58 627.121,1451.92 665.5,1443.5C 667.861,1443.33 670.194,1442.99 672.5,1442.5C 674.5,1442.5 676.5,1442.5 678.5,1442.5C 681.85,1442.67 685.183,1442.5 688.5,1442C 690.653,1441.9 692.319,1441.07 693.5,1439.5C 694.833,1439.5 696.167,1439.5 697.5,1439.5C 716.655,1440.83 736.155,1441.5 756,1441.5C 775.845,1441.5 795.345,1440.83 814.5,1439.5C 816.167,1439.5 817.833,1439.5 819.5,1439.5C 821.658,1441.22 824.325,1442.05 827.5,1442C 833.825,1442.5 840.158,1442.67 846.5,1442.5C 851.5,1442.5 856.5,1442.5 861.5,1442.5C 865.042,1442.81 868.375,1442.48 871.5,1441.5C 873.167,1441.5 874.833,1441.5 876.5,1441.5C 881.735,1443.45 887.402,1444.12 893.5,1443.5C 897.419,1444.13 901.419,1444.47 905.5,1444.5C 909.565,1444.49 913.232,1443.82 916.5,1442.5C 917.708,1443.23 919.041,1443.57 920.5,1443.5C 921.167,1444.17 921.833,1444.83 922.5,1445.5C 927.656,1446.17 932.989,1446.5 938.5,1446.5C 944.211,1446.49 949.544,1445.83 954.5,1444.5C 980.531,1445.13 1006.53,1446.47 1032.5,1448.5C 1032.5,1449.17 1032.83,1449.5 1033.5,1449.5C 1033.61,1450.12 1033.94,1450.62 1034.5,1451C 1043.85,1451.83 1053.18,1451.67 1062.5,1450.5C 1060.26,1449.53 1057.92,1449.19 1055.5,1449.5C 1055.5,1383.17 1055.5,1316.83 1055.5,1250.5C 1162.83,1250.5 1270.17,1250.5 1377.5,1250.5C 1377.5,1355.17 1377.5,1459.83 1377.5,1564.5C 1374.13,1564.33 1370.79,1563.83 1367.5,1563C 1282,1562.17 1196.67,1562.33 1111.5,1563.5 Z M 975.5,1572.5 C 976.167,1572.5 976.833,1572.5 977.5,1572.5C 978.833,1572.5 980.167,1572.5 981.5,1572.5C 981.5,1593.5 981.5,1614.5 981.5,1635.5C 1116.5,1635.5 1251.5,1635.5 1386.5,1635.5C 1371.1,1646.99 1353.76,1654.66 1334.5,1658.5C 1329.88,1659.49 1325.21,1659.83 1320.5,1659.5C 1319.29,1660.23 1317.96,1660.57 1316.5,1660.5C 1310.5,1660.5 1304.5,1660.5 1298.5,1660.5C 1286.5,1660.5 1274.5,1660.5 1262.5,1660.5C 1253.17,1660.5 1243.83,1660.5 1234.5,1660.5C 1233.5,1660.5 1232.5,1660.5 1231.5,1660.5C 1231.5,1659.83 1231.17,1659.5 1230.5,1659.5C 1223.17,1659.5 1215.83,1659.5 1208.5,1659.5C 1204.83,1659.5 1201.17,1659.5 1197.5,1659.5C 1196.39,1659.44 1195.39,1659.11 1194.5,1658.5C 1194.5,1657.83 1194.17,1657.5 1193.5,1657.5C 1189.83,1657.5 1186.17,1657.5 1182.5,1657.5C 1177.17,1657.5 1171.83,1657.5 1166.5,1657.5C 1166.39,1656.88 1166.06,1656.38 1165.5,1656C 1159.84,1655.5 1154.18,1655.33 1148.5,1655.5C 1145.06,1655.75 1141.73,1655.41 1138.5,1654.5C 1134.5,1654.5 1130.5,1654.5 1126.5,1654.5C 1123.5,1654.5 1120.5,1654.5 1117.5,1654.5C 1117.17,1654.5 1116.83,1654.5 1116.5,1654.5C 1109.91,1652.54 1102.91,1651.87 1095.5,1652.5C 1094.5,1652.5 1093.5,1652.5 1092.5,1652.5C 1089.66,1650.6 1086.33,1649.93 1082.5,1650.5C 1079.83,1650.5 1077.17,1650.5 1074.5,1650.5C 1074.5,1649.83 1074.17,1649.5 1073.5,1649.5C 1070.83,1649.5 1068.17,1649.5 1065.5,1649.5C 1061.83,1649.5 1058.17,1649.5 1054.5,1649.5C 1053.83,1649.5 1053.17,1649.5 1052.5,1649.5C 1049.66,1647.6 1046.33,1646.93 1042.5,1647.5C 1039.39,1647.74 1036.39,1647.4 1033.5,1646.5C 1030.71,1645.52 1027.71,1645.19 1024.5,1645.5C 1021.5,1645.5 1018.5,1645.5 1015.5,1645.5C 1013.05,1644.53 1010.39,1644.19 1007.5,1644.5C 1004.5,1644.5 1001.5,1644.5 998.5,1644.5C 998.167,1644.5 997.833,1644.5 997.5,1644.5C 984.633,1641.47 971.299,1638.97 957.5,1637C 949.566,1635.11 941.9,1632.45 934.5,1629C 930.062,1625.93 925.729,1622.76 921.5,1619.5C 918.938,1616.32 916.938,1612.99 915.5,1609.5C 915.5,1607.83 915.5,1606.17 915.5,1604.5C 918.331,1600.1 920.998,1595.43 923.5,1590.5C 929.239,1585.01 935.739,1580.68 943,1577.5C 954.011,1575.71 964.844,1574.05 975.5,1572.5 Z"/></g>
<g><path style="opacity:1" fill="#a571fe" d="M 1305.5,1465.5 C 1306.83,1463.2 1308.67,1461.2 1311,1459.5C 1311.5,1456.85 1311.66,1454.19 1311.5,1451.5C 1313.39,1451.7 1314.89,1451.04 1316,1449.5C 1316.89,1444.53 1317.55,1439.53 1318,1434.5C 1318.85,1431.89 1320.19,1429.55 1322,1427.5C 1322.67,1409.17 1322.67,1390.83 1322,1372.5C 1320.11,1370.52 1318.78,1368.18 1318,1365.5C 1317.76,1360.06 1316.92,1354.73 1315.5,1349.5C 1314.26,1348.75 1312.93,1348.42 1311.5,1348.5C 1311.74,1345.42 1311.41,1342.42 1310.5,1339.5C 1309.5,1338.83 1308.5,1338.17 1307.5,1337.5C 1305.16,1332.14 1302.32,1327.14 1299,1322.5C 1297.93,1321.81 1296.77,1321.31 1295.5,1321C 1292.74,1317.45 1289.74,1314.12 1286.5,1311C 1282.86,1308.08 1278.86,1305.75 1274.5,1304C 1271.86,1300.18 1268.2,1298.52 1263.5,1299C 1259.51,1294.74 1254.51,1292.74 1248.5,1293C 1246.5,1291.67 1244.5,1290.33 1242.5,1289C 1230.49,1289.49 1218.82,1287.82 1207.5,1284C 1181.44,1283.03 1155.44,1283.36 1129.5,1285C 1128,1286.49 1127.16,1288.32 1127,1290.5C 1126.5,1344.5 1126.33,1398.5 1126.5,1452.5C 1126.17,1452.5 1125.83,1452.5 1125.5,1452.5C 1125.33,1398.17 1125.5,1343.83 1126,1289.5C 1126.16,1287.32 1127,1285.49 1128.5,1284C 1155.1,1282.36 1181.77,1282.03 1208.5,1283C 1219.82,1286.82 1231.49,1288.49 1243.5,1288C 1245.5,1289.33 1247.5,1290.67 1249.5,1292C 1255.51,1291.74 1260.51,1293.74 1264.5,1298C 1269.2,1297.52 1272.86,1299.18 1275.5,1303C 1279.86,1304.75 1283.86,1307.08 1287.5,1310C 1290.74,1313.12 1293.74,1316.45 1296.5,1320C 1297.77,1320.31 1298.93,1320.81 1300,1321.5C 1303.32,1326.14 1306.16,1331.14 1308.5,1336.5C 1309.5,1337.17 1310.5,1337.83 1311.5,1338.5C 1312.41,1341.42 1312.74,1344.42 1312.5,1347.5C 1313.93,1347.42 1315.26,1347.75 1316.5,1348.5C 1317.92,1353.73 1318.76,1359.06 1319,1364.5C 1319.78,1367.18 1321.11,1369.52 1323,1371.5C 1323.67,1390.5 1323.67,1409.5 1323,1428.5C 1321.19,1430.55 1319.85,1432.89 1319,1435.5C 1318.55,1440.53 1317.89,1445.53 1317,1450.5C 1315.89,1452.04 1314.39,1452.7 1312.5,1452.5C 1314.02,1458.97 1311.68,1463.3 1305.5,1465.5 Z"/></g>
<g><path style="opacity:1" fill="#cd56fe" d="M 1305.5,1465.5 C 1304.17,1465.5 1302.83,1465.5 1301.5,1465.5C 1299.29,1464.73 1296.95,1464.07 1294.5,1463.5C 1286.78,1461.59 1278.78,1460.59 1270.5,1460.5C 1273.03,1454.77 1275.87,1449.11 1279,1443.5C 1279.87,1436.45 1281.87,1429.78 1285,1423.5C 1285.91,1406.79 1285.57,1390.13 1284,1373.5C 1281.14,1369.69 1279.81,1365.35 1280,1360.5C 1275.89,1357.61 1273.89,1353.61 1274,1348.5C 1268.49,1343.33 1263.33,1337.83 1258.5,1332C 1256.83,1331.67 1255.17,1331.33 1253.5,1331C 1252.74,1329.49 1251.74,1328.15 1250.5,1327C 1247.21,1326.12 1243.88,1325.45 1240.5,1325C 1238.62,1322.89 1236.29,1321.56 1233.5,1321C 1210.36,1319.42 1187.36,1318.09 1164.5,1317C 1163.92,1317.89 1163.59,1318.89 1163.5,1320C 1164.49,1365.15 1164.82,1410.31 1164.5,1455.5C 1162.83,1455.5 1161.17,1455.5 1159.5,1455.5C 1158.04,1455.57 1156.71,1455.23 1155.5,1454.5C 1146.83,1454.5 1138.17,1454.5 1129.5,1454.5C 1128.29,1454.07 1127.29,1453.4 1126.5,1452.5C 1126.33,1398.5 1126.5,1344.5 1127,1290.5C 1127.16,1288.32 1128,1286.49 1129.5,1285C 1155.44,1283.36 1181.44,1283.03 1207.5,1284C 1218.82,1287.82 1230.49,1289.49 1242.5,1289C 1244.5,1290.33 1246.5,1291.67 1248.5,1293C 1254.51,1292.74 1259.51,1294.74 1263.5,1299C 1268.2,1298.52 1271.86,1300.18 1274.5,1304C 1278.86,1305.75 1282.86,1308.08 1286.5,1311C 1289.74,1314.12 1292.74,1317.45 1295.5,1321C 1296.77,1321.31 1297.93,1321.81 1299,1322.5C 1302.32,1327.14 1305.16,1332.14 1307.5,1337.5C 1308.5,1338.17 1309.5,1338.83 1310.5,1339.5C 1311.41,1342.42 1311.74,1345.42 1311.5,1348.5C 1312.93,1348.42 1314.26,1348.75 1315.5,1349.5C 1316.92,1354.73 1317.76,1360.06 1318,1365.5C 1318.78,1368.18 1320.11,1370.52 1322,1372.5C 1322.67,1390.83 1322.67,1409.17 1322,1427.5C 1320.19,1429.55 1318.85,1431.89 1318,1434.5C 1317.55,1439.53 1316.89,1444.53 1316,1449.5C 1314.89,1451.04 1313.39,1451.7 1311.5,1451.5C 1311.66,1454.19 1311.5,1456.85 1311,1459.5C 1308.67,1461.2 1306.83,1463.2 1305.5,1465.5 Z"/></g>
<g><path style="opacity:1" fill="#a570fe" d="M 1270.5,1460.5 C 1269.76,1460.63 1269.09,1460.46 1268.5,1460C 1271.85,1454.31 1275.01,1448.48 1278,1442.5C 1278.87,1435.45 1280.87,1428.78 1284,1422.5C 1284.9,1406.46 1284.57,1390.46 1283,1374.5C 1280.14,1370.69 1278.81,1366.35 1279,1361.5C 1274.89,1358.61 1272.89,1354.61 1273,1349.5C 1267.49,1344.33 1262.33,1338.83 1257.5,1333C 1255.83,1332.67 1254.17,1332.33 1252.5,1332C 1251.74,1330.49 1250.74,1329.15 1249.5,1328C 1246.21,1327.12 1242.88,1326.45 1239.5,1326C 1237.62,1323.89 1235.29,1322.56 1232.5,1322C 1211.54,1320.2 1190.54,1319.2 1169.5,1319C 1167.3,1316.85 1165.63,1317.18 1164.5,1320C 1165.49,1365.47 1165.83,1410.97 1165.5,1456.5C 1163.26,1456.79 1161.26,1456.46 1159.5,1455.5C 1161.17,1455.5 1162.83,1455.5 1164.5,1455.5C 1164.82,1410.31 1164.49,1365.15 1163.5,1320C 1163.59,1318.89 1163.92,1317.89 1164.5,1317C 1187.36,1318.09 1210.36,1319.42 1233.5,1321C 1236.29,1321.56 1238.62,1322.89 1240.5,1325C 1243.88,1325.45 1247.21,1326.12 1250.5,1327C 1251.74,1328.15 1252.74,1329.49 1253.5,1331C 1255.17,1331.33 1256.83,1331.67 1258.5,1332C 1263.33,1337.83 1268.49,1343.33 1274,1348.5C 1273.89,1353.61 1275.89,1357.61 1280,1360.5C 1279.81,1365.35 1281.14,1369.69 1284,1373.5C 1285.57,1390.13 1285.91,1406.79 1285,1423.5C 1281.87,1429.78 1279.87,1436.45 1279,1443.5C 1275.87,1449.11 1273.03,1454.77 1270.5,1460.5 Z"/></g>
<g><path style="opacity:0.4" fill="#cfcfcf" d="M 672.5,1439.5 C 674.833,1439.5 677.167,1439.5 679.5,1439.5C 679.443,1440.61 679.11,1441.61 678.5,1442.5C 676.5,1442.5 674.5,1442.5 672.5,1442.5C 672.5,1441.5 672.5,1440.5 672.5,1439.5 Z"/></g>
<g><path style="opacity:0.4" fill="#717171" d="M 679.5,1439.5 C 684.167,1439.5 688.833,1439.5 693.5,1439.5C 692.319,1441.07 690.653,1441.9 688.5,1442C 685.183,1442.5 681.85,1442.67 678.5,1442.5C 679.11,1441.61 679.443,1440.61 679.5,1439.5 Z"/></g>
<g><path style="opacity:1" fill="#a493aa" d="M 697.5,1439.5 C 736.5,1439.5 775.5,1439.5 814.5,1439.5C 795.345,1440.83 775.845,1441.5 756,1441.5C 736.155,1441.5 716.655,1440.83 697.5,1439.5 Z"/></g>
<g><path style="opacity:0.4" fill="#b0b0b0" d="M 842.5,1439.5 C 848.167,1439.5 853.833,1439.5 859.5,1439.5C 859.082,1440.22 858.416,1440.72 857.5,1441C 859.058,1441.21 860.391,1441.71 861.5,1442.5C 856.5,1442.5 851.5,1442.5 846.5,1442.5C 844.369,1441.69 842.036,1441.19 839.5,1441C 840.737,1440.77 841.737,1440.27 842.5,1439.5 Z"/></g>
<g><path style="opacity:0.4" fill="#e5e5e5" d="M 859.5,1439.5 C 863.971,1438.91 867.971,1439.58 871.5,1441.5C 868.375,1442.48 865.042,1442.81 861.5,1442.5C 860.391,1441.71 859.058,1441.21 857.5,1441C 858.416,1440.72 859.082,1440.22 859.5,1439.5 Z"/></g>
<g><path style="opacity:0.929" fill="#6a6a6a" d="M 819.5,1439.5 C 827.167,1439.5 834.833,1439.5 842.5,1439.5C 841.737,1440.27 840.737,1440.77 839.5,1441C 842.036,1441.19 844.369,1441.69 846.5,1442.5C 840.158,1442.67 833.825,1442.5 827.5,1442C 824.325,1442.05 821.658,1441.22 819.5,1439.5 Z"/></g>
<g><path style="opacity:0.592" fill="#606060" d="M 672.5,1439.5 C 672.5,1440.5 672.5,1441.5 672.5,1442.5C 670.194,1442.99 667.861,1443.33 665.5,1443.5C 665.5,1442.83 665.5,1442.17 665.5,1441.5C 668.211,1441.82 670.544,1441.15 672.5,1439.5 Z"/></g>
<g><path style="opacity:0.592" fill="#757575" d="M 876.5,1441.5 C 883.167,1441.5 889.833,1441.5 896.5,1441.5C 895.5,1442.17 894.5,1442.83 893.5,1443.5C 887.402,1444.12 881.735,1443.45 876.5,1441.5 Z"/></g>
<g><path style="opacity:1" fill="#bdbdbd" d="M 896.5,1441.5 C 903.354,1441.18 910.021,1441.51 916.5,1442.5C 913.232,1443.82 909.565,1444.49 905.5,1444.5C 901.419,1444.47 897.419,1444.13 893.5,1443.5C 894.5,1442.83 895.5,1442.17 896.5,1441.5 Z"/></g>
<g><path style="opacity:0.776" fill="#595959" d="M 920.5,1443.5 C 922.833,1443.5 925.167,1443.5 927.5,1443.5C 928.167,1443.83 928.833,1444.17 929.5,1444.5C 927.393,1445.47 925.059,1445.8 922.5,1445.5C 921.833,1444.83 921.167,1444.17 920.5,1443.5 Z"/></g>
<g><path style="opacity:1" fill="#b698c2" d="M 929.5,1444.5 C 937.833,1444.5 946.167,1444.5 954.5,1444.5C 949.544,1445.83 944.211,1446.49 938.5,1446.5C 932.989,1446.5 927.656,1446.17 922.5,1445.5C 925.059,1445.8 927.393,1445.47 929.5,1444.5 Z"/></g>
<g><path style="opacity:1" fill="#ab91b4" d="M 964.5,1447.5 C 974.008,1446.18 983.675,1446.18 993.5,1447.5C 983.84,1448.53 974.174,1448.53 964.5,1447.5 Z"/></g>
<g><path style="opacity:1" fill="#a98fb3" d="M 1033.5,1449.5 C 1040.83,1449.5 1048.17,1449.5 1055.5,1449.5C 1057.92,1449.19 1060.26,1449.53 1062.5,1450.5C 1053.18,1451.67 1043.85,1451.83 1034.5,1451C 1033.94,1450.62 1033.61,1450.12 1033.5,1449.5 Z"/></g>
<g><path style="opacity:1" fill="#d2abe1" d="M 1093.5,1451.5 C 1084.98,1451.17 1076.65,1451.51 1068.5,1452.5C 1067.02,1452.76 1065.69,1452.43 1064.5,1451.5C 1074.33,1450.18 1083.99,1450.18 1093.5,1451.5 Z"/></g>
<g><path style="opacity:1" fill="#ac94b5" d="M 1068.5,1452.5 C 1076.65,1451.51 1084.98,1451.17 1093.5,1451.5C 1090.4,1452.82 1086.9,1453.49 1083,1453.5C 1078.14,1453.37 1073.31,1453.04 1068.5,1452.5 Z"/></g>
<g><path style="opacity:1" fill="#b69fbe" d="M 1125.5,1452.5 C 1121.39,1453.83 1116.89,1454.49 1112,1454.5C 1107.5,1454.17 1103,1453.83 1098.5,1453.5C 1107.48,1452.5 1116.48,1452.17 1125.5,1452.5 Z"/></g>
<g><path style="opacity:0.43" fill="#454545" d="M 1685.5,1453.5 C 1691.5,1453.5 1697.5,1453.5 1703.5,1453.5C 1703.5,1454.17 1703.5,1454.83 1703.5,1455.5C 1698.2,1454.49 1692.87,1454.49 1687.5,1455.5C 1686.17,1455.5 1685.5,1454.83 1685.5,1453.5 Z"/></g>
<g><path style="opacity:1" fill="#ab8fb6" d="M 1129.5,1454.5 C 1138.17,1454.5 1146.83,1454.5 1155.5,1454.5C 1151.72,1455.82 1147.56,1456.49 1143,1456.5C 1138.83,1456.33 1134.67,1456.17 1130.5,1456C 1129.94,1455.62 1129.61,1455.12 1129.5,1454.5 Z"/></g>
<g><path style="opacity:1" fill="#a499a8" d="M 1685.5,1453.5 C 1685.5,1454.83 1686.17,1455.5 1687.5,1455.5C 1683.6,1456.79 1679.6,1456.79 1675.5,1455.5C 1678.34,1453.6 1681.67,1452.93 1685.5,1453.5 Z"/></g>
<g><path style="opacity:1" fill="#a7a4a8" d="M 1703.5,1453.5 C 1707.97,1452.91 1711.97,1453.58 1715.5,1455.5C 1711.59,1456.2 1707.59,1456.2 1703.5,1455.5C 1703.5,1454.83 1703.5,1454.17 1703.5,1453.5 Z"/></g>
<g><path style="opacity:1" fill="#b8a1c1" d="M 1191.5,1457.5 C 1200.86,1457.17 1210.19,1457.5 1219.5,1458.5C 1214.83,1458.83 1210.17,1459.17 1205.5,1459.5C 1200.45,1459.49 1195.78,1458.83 1191.5,1457.5 Z"/></g>
<g><path style="opacity:1" fill="#b3a1ba" d="M 1223.5,1459.5 C 1233.85,1459.17 1244.19,1459.5 1254.5,1460.5C 1249.33,1460.83 1244.17,1461.17 1239,1461.5C 1233.45,1461.49 1228.29,1460.83 1223.5,1459.5 Z"/></g>
<g><path style="opacity:0.482" fill="#afabb0" d="M 665.5,1441.5 C 665.5,1442.17 665.5,1442.83 665.5,1443.5C 627.121,1451.92 590.787,1465.58 556.5,1484.5C 556.5,1483.5 556.5,1482.5 556.5,1481.5C 583.378,1466.61 611.711,1454.94 641.5,1446.5C 649.589,1444.81 657.589,1443.14 665.5,1441.5 Z"/></g>
<g><path style="opacity:0.286" fill="#b7b3b9" d="M 1715.5,1455.5 C 1719.25,1455.39 1722.91,1455.89 1726.5,1457C 1730.47,1458.65 1734.47,1460.32 1738.5,1462C 1744.65,1466.82 1750.48,1471.98 1756,1477.5C 1756.5,1479.47 1756.66,1481.47 1756.5,1483.5C 1746.7,1469.43 1733.37,1460.59 1716.5,1457C 1715.94,1456.62 1715.61,1456.12 1715.5,1455.5 Z"/></g>
<g><path style="opacity:1" fill="#bfadc6" d="M 1294.5,1463.5 C 1296.95,1464.07 1299.29,1464.73 1301.5,1465.5C 1317.88,1469.69 1330.88,1478.85 1340.5,1493C 1341.29,1495.1 1341.62,1497.27 1341.5,1499.5C 1336.14,1486.97 1327.14,1477.8 1314.5,1472C 1306.01,1468.76 1297.34,1466.09 1288.5,1464C 1290.47,1463.5 1292.47,1463.34 1294.5,1463.5 Z"/></g>
<g><path style="opacity:0.702" fill="#c2bfc3" d="M 1674.5,1455.5 C 1674.39,1456.12 1674.06,1456.62 1673.5,1457C 1662.5,1458.51 1651.84,1461.17 1641.5,1465C 1631.75,1469.32 1622.25,1474.15 1613,1479.5C 1590.79,1495.39 1568.63,1511.22 1546.5,1527C 1513.89,1551.88 1481.06,1576.38 1448,1600.5C 1447.54,1599.91 1447.37,1599.24 1447.5,1598.5C 1449.17,1597.5 1450.5,1596.17 1451.5,1594.5C 1497.97,1561.23 1543.97,1527.07 1589.5,1492C 1591.99,1490.4 1594.66,1489.06 1597.5,1488C 1598.31,1486.69 1599.31,1485.52 1600.5,1484.5C 1618.51,1472.1 1638.18,1462.93 1659.5,1457C 1664.45,1455.95 1669.45,1455.45 1674.5,1455.5 Z"/></g>
<g><path style="opacity:1" fill="#b9a7c0" d="M 1341.5,1499.5 C 1342.81,1501.92 1343.48,1504.75 1343.5,1508C 1343.17,1510.83 1342.83,1513.67 1342.5,1516.5C 1341.5,1510.87 1341.17,1505.21 1341.5,1499.5 Z"/></g>
<g><path style="opacity:1" fill="#bbabc1" d="M 1339.5,1521.5 C 1339.24,1520.02 1339.57,1518.69 1340.5,1517.5C 1340.83,1518.17 1341.17,1518.83 1341.5,1519.5C 1341.25,1520.71 1340.59,1521.38 1339.5,1521.5 Z"/></g>
<g><path style="opacity:0.38" fill="#cac7cb" d="M 556.5,1481.5 C 556.5,1482.5 556.5,1483.5 556.5,1484.5C 488.525,1522.95 425.358,1568.28 367,1620.5C 368.199,1630.32 370.365,1639.99 373.5,1649.5C 385.843,1659.85 397.843,1670.51 409.5,1681.5C 408.833,1681.5 408.167,1681.5 407.5,1681.5C 405.375,1679.93 403.042,1678.6 400.5,1677.5C 391.726,1668.81 382.726,1660.31 373.5,1652C 372.207,1651.51 370.873,1651.34 369.5,1651.5C 369.244,1649.21 369.577,1647.04 370.5,1645C 368.519,1640.11 366.519,1635.11 364.5,1630C 364.585,1628.89 364.919,1627.89 365.5,1627C 363.543,1624.88 363.043,1622.38 364,1619.5C 366.167,1617.33 368.333,1615.17 370.5,1613C 387.119,1600.38 403.119,1587.05 418.5,1573C 424.32,1569.71 429.653,1565.71 434.5,1561C 461.461,1541.33 488.794,1522.33 516.5,1504C 529.645,1496.26 542.979,1488.76 556.5,1481.5 Z"/></g>
<g><path style="opacity:1" fill="#bea7c7" d="M 1339.5,1521.5 C 1338.17,1525.67 1336.17,1529.5 1333.5,1533C 1326.74,1538.05 1319.41,1542.05 1311.5,1545C 1309.74,1545.8 1308.07,1545.63 1306.5,1544.5C 1312.99,1542.26 1319.32,1539.43 1325.5,1536C 1331.07,1531.93 1335.74,1527.1 1339.5,1521.5 Z"/></g>
<g><path style="opacity:1" fill="#b99fc2" d="M 1298.5,1544.5 C 1300.92,1544.19 1303.26,1544.53 1305.5,1545.5C 1305.29,1546.09 1304.96,1546.59 1304.5,1547C 1297.51,1548.42 1290.51,1548.59 1283.5,1547.5C 1288.13,1546.67 1292.8,1546.17 1297.5,1546C 1298.06,1545.62 1298.39,1545.12 1298.5,1544.5 Z"/></g>
<g><path style="opacity:1" fill="#b29abb" d="M 1248.5,1549.5 C 1253.87,1549.17 1259.21,1549.51 1264.5,1550.5C 1261.83,1550.83 1259.17,1551.17 1256.5,1551.5C 1253.41,1551.48 1250.74,1550.81 1248.5,1549.5 Z"/></g>
<g><path style="opacity:1" fill="#bea5c8" d="M 1266.5,1548.5 C 1271.54,1548.17 1276.54,1548.51 1281.5,1549.5C 1279,1549.83 1276.5,1550.17 1274,1550.5C 1271.07,1550.48 1268.57,1549.81 1266.5,1548.5 Z"/></g>
<g><path style="opacity:1" fill="#b39eba" d="M 1227.5,1551.5 C 1233.87,1551.17 1240.2,1551.5 1246.5,1552.5C 1243.33,1552.83 1240.17,1553.17 1237,1553.5C 1233.42,1553.48 1230.26,1552.82 1227.5,1551.5 Z"/></g>
<g><path style="opacity:1" fill="#ae9cb5" d="M 1186.5,1554.5 C 1192.54,1554.17 1198.54,1554.5 1204.5,1555.5C 1198.19,1556.66 1191.86,1556.83 1185.5,1556C 1186.06,1555.62 1186.39,1555.12 1186.5,1554.5 Z"/></g>
<g><path style="opacity:1" fill="#b1a2b6" d="M 1161.5,1556.5 C 1167.87,1556.17 1174.2,1556.5 1180.5,1557.5C 1173.86,1558.66 1167.19,1558.83 1160.5,1558C 1161.06,1557.62 1161.39,1557.12 1161.5,1556.5 Z"/></g>
<g><path style="opacity:1" fill="#ac99b3" d="M 1118.5,1559.5 C 1123.87,1559.17 1129.21,1559.51 1134.5,1560.5C 1127.86,1561.66 1121.19,1561.83 1114.5,1561C 1116.06,1560.79 1117.39,1560.29 1118.5,1559.5 Z"/></g>
<g><path style="opacity:1" fill="#b69fc7" d="M 1110.5,1563.5 C 1103.5,1563.5 1096.5,1563.5 1089.5,1563.5C 1089.61,1562.88 1089.94,1562.38 1090.5,1562C 1093.83,1561.83 1097.17,1561.67 1100.5,1561.5C 1104.24,1561.51 1107.57,1562.18 1110.5,1563.5 Z"/></g>
<g><path style="opacity:1" fill="#ad95b6" d="M 1063.5,1565.5 C 1057.36,1566.49 1051.02,1566.82 1044.5,1566.5C 1047.26,1565.18 1050.42,1564.52 1054,1564.5C 1057.35,1564.5 1060.52,1564.84 1063.5,1565.5 Z"/></g>
<g><path style="opacity:1" fill="#cc77ee" d="M 1063.5,1565.5 C 1064.17,1565.5 1064.5,1565.83 1064.5,1566.5C 1057.35,1567.49 1050.02,1567.82 1042.5,1567.5C 1042.84,1566.66 1043.51,1566.33 1044.5,1566.5C 1051.02,1566.82 1057.36,1566.49 1063.5,1565.5 Z"/></g>
<g><path style="opacity:1" fill="#a285ae" d="M 1027.5,1568.5 C 1024.83,1568.5 1022.17,1568.5 1019.5,1568.5C 1022.26,1567.18 1025.42,1566.52 1029,1566.5C 1032.17,1566.67 1035.33,1566.83 1038.5,1567C 1034.64,1567.18 1030.98,1567.68 1027.5,1568.5 Z"/></g>
<g><path style="opacity:1" fill="#a290a9" d="M 994.5,1571.5 C 989.968,1571.18 985.634,1571.52 981.5,1572.5C 980.167,1572.5 978.833,1572.5 977.5,1572.5C 977.611,1571.88 977.944,1571.38 978.5,1571C 981.764,1570.06 985.097,1569.56 988.5,1569.5C 990.952,1569.54 992.952,1570.21 994.5,1571.5 Z"/></g>
<g><path style="opacity:0.675" fill="#c3c0c4" d="M 975.5,1572.5 C 964.844,1574.05 954.011,1575.71 943,1577.5C 935.739,1580.68 929.239,1585.01 923.5,1590.5C 920.998,1595.43 918.331,1600.1 915.5,1604.5C 915.993,1602.19 916.326,1599.86 916.5,1597.5C 921.318,1587.85 928.652,1580.68 938.5,1576C 946.444,1574.43 954.444,1573.09 962.5,1572C 967.02,1571.19 971.354,1571.35 975.5,1572.5 Z"/></g>
<g><path style="opacity:0.875" fill="#96889b" d="M 916.5,1597.5 C 916.326,1599.86 915.993,1602.19 915.5,1604.5C 915.5,1606.17 915.5,1607.83 915.5,1609.5C 915.517,1611.56 915.85,1613.56 916.5,1615.5C 915.883,1615.39 915.383,1615.06 915,1614.5C 914.333,1609.5 914.333,1604.5 915,1599.5C 915.278,1598.58 915.778,1597.92 916.5,1597.5 Z"/></g>
<g><path style="opacity:1" fill="#b797c4" d="M 1422.5,1615.5 C 1429.46,1610.89 1436.46,1606.23 1443.5,1601.5C 1444.42,1600.7 1445.42,1600.53 1446.5,1601C 1439.24,1606.75 1431.58,1611.92 1423.5,1616.5C 1422.89,1616.38 1422.56,1616.04 1422.5,1615.5 Z"/></g>
<g><path style="opacity:1" fill="#b8b4b9" d="M 915.5,1609.5 C 916.938,1612.99 918.938,1616.32 921.5,1619.5C 925.729,1622.76 930.062,1625.93 934.5,1629C 941.9,1632.45 949.566,1635.11 957.5,1637C 971.299,1638.97 984.633,1641.47 997.5,1644.5C 995.59,1645.09 993.59,1645.43 991.5,1645.5C 986.702,1643.96 981.702,1643.3 976.5,1643.5C 976.082,1642.78 975.416,1642.28 974.5,1642C 970.809,1641.58 967.142,1641.08 963.5,1640.5C 956.054,1639.17 948.721,1637.34 941.5,1635C 930.852,1631.36 922.518,1624.86 916.5,1615.5C 915.85,1613.56 915.517,1611.56 915.5,1609.5 Z"/></g>
<g><path style="opacity:1" fill="#b89ec3" d="M 1413.5,1620.5 C 1417,1620.26 1417.33,1621.09 1414.5,1623C 1407.49,1627.87 1400.16,1632.03 1392.5,1635.5C 1391.83,1635.5 1391.17,1635.5 1390.5,1635.5C 1397.1,1630.89 1404.1,1626.72 1411.5,1623C 1412.38,1622.29 1413.05,1621.46 1413.5,1620.5 Z"/></g>
<g><path style="opacity:0.969" fill="#a88ab4" d="M 963.5,1640.5 C 967.142,1641.08 970.809,1641.58 974.5,1642C 975.416,1642.28 976.082,1642.78 976.5,1643.5C 972.858,1642.92 969.191,1642.42 965.5,1642C 964.584,1641.72 963.918,1641.22 963.5,1640.5 Z"/></g>
<g><path style="opacity:0.886" fill="#979797" d="M 998.5,1644.5 C 1001.5,1644.5 1004.5,1644.5 1007.5,1644.5C 1007.83,1645.17 1008.17,1645.83 1008.5,1646.5C 1005.81,1646.66 1003.15,1646.5 1000.5,1646C 999.584,1645.72 998.918,1645.22 998.5,1644.5 Z"/></g>
<g><path style="opacity:0.886" fill="#dcdcdc" d="M 1007.5,1644.5 C 1010.39,1644.19 1013.05,1644.53 1015.5,1645.5C 1015.5,1645.83 1015.5,1646.17 1015.5,1646.5C 1013.17,1646.5 1010.83,1646.5 1008.5,1646.5C 1008.17,1645.83 1007.83,1645.17 1007.5,1644.5 Z"/></g>
<g><path style="opacity:0.529" fill="#cbcbcb" d="M 1024.5,1645.5 C 1027.71,1645.19 1030.71,1645.52 1033.5,1646.5C 1033.5,1647.17 1033.5,1647.83 1033.5,1648.5C 1030.83,1648.5 1028.17,1648.5 1025.5,1648.5C 1025.08,1647.78 1024.42,1647.28 1023.5,1647C 1024.06,1646.62 1024.39,1646.12 1024.5,1645.5 Z"/></g>
<g><path style="opacity:1" fill="#7c7c7c" d="M 1015.5,1646.5 C 1015.5,1646.17 1015.5,1645.83 1015.5,1645.5C 1018.5,1645.5 1021.5,1645.5 1024.5,1645.5C 1024.39,1646.12 1024.06,1646.62 1023.5,1647C 1024.42,1647.28 1025.08,1647.78 1025.5,1648.5C 1022.06,1648.21 1018.73,1647.55 1015.5,1646.5 Z"/></g>
<g><path style="opacity:0.441" fill="#808080" d="M 1033.5,1646.5 C 1036.39,1647.4 1039.39,1647.74 1042.5,1647.5C 1042.5,1648.17 1042.5,1648.83 1042.5,1649.5C 1039.43,1649.63 1036.43,1649.3 1033.5,1648.5C 1033.5,1647.83 1033.5,1647.17 1033.5,1646.5 Z"/></g>
<g><path style="opacity:0.441" fill="#c6c4c6" d="M 1042.5,1647.5 C 1046.33,1646.93 1049.66,1647.6 1052.5,1649.5C 1049.2,1650.75 1045.87,1650.75 1042.5,1649.5C 1042.5,1648.83 1042.5,1648.17 1042.5,1647.5 Z"/></g>
<g><path style="opacity:0.722" fill="#b1aeb2" d="M 1386.5,1635.5 C 1387.83,1635.5 1389.17,1635.5 1390.5,1635.5C 1391.17,1635.5 1391.83,1635.5 1392.5,1635.5C 1374.5,1647.76 1354.83,1656.26 1333.5,1661C 1331.33,1661.17 1329.17,1661.33 1327,1661.5C 1324.39,1661.47 1322.22,1660.8 1320.5,1659.5C 1325.21,1659.83 1329.88,1659.49 1334.5,1658.5C 1353.76,1654.66 1371.1,1646.99 1386.5,1635.5 Z"/></g>
<g><path style="opacity:0.882" fill="#8f8f8f" d="M 1054.5,1649.5 C 1058.17,1649.5 1061.83,1649.5 1065.5,1649.5C 1065.5,1650.17 1065.5,1650.83 1065.5,1651.5C 1063.5,1651.5 1061.5,1651.5 1059.5,1651.5C 1057.45,1651.6 1055.78,1650.93 1054.5,1649.5 Z"/></g>
<g><path style="opacity:0.882" fill="#dedede" d="M 1065.5,1649.5 C 1068.17,1649.5 1070.83,1649.5 1073.5,1649.5C 1071.36,1651.37 1068.7,1652.04 1065.5,1651.5C 1065.5,1650.83 1065.5,1650.17 1065.5,1649.5 Z"/></g>
<g><path style="opacity:0.496" fill="#cfccd0" d="M 1756.5,1489.5 C 1756.82,1493.23 1756.49,1496.89 1755.5,1500.5C 1750.92,1509.79 1745.09,1518.12 1738,1525.5C 1729.96,1535.55 1721.13,1545.05 1711.5,1554C 1710.5,1554.33 1709.5,1554.67 1708.5,1555C 1702.64,1560.1 1696.98,1565.44 1691.5,1571C 1690.5,1571.33 1689.5,1571.67 1688.5,1572C 1666.22,1591.46 1643.56,1610.29 1620.5,1628.5C 1592.45,1649.48 1564.79,1670.98 1537.5,1693C 1535.03,1693.99 1532.7,1695.16 1530.5,1696.5C 1530.56,1695.39 1530.89,1694.39 1531.5,1693.5C 1594.13,1645.72 1655.8,1596.55 1716.5,1546C 1734.1,1529.95 1747.43,1511.11 1756.5,1489.5 Z"/></g>
<g><path style="opacity:1" fill="#a688b1" d="M 1073.5,1649.5 C 1074.17,1649.5 1074.5,1649.83 1074.5,1650.5C 1074.5,1651.17 1074.5,1651.83 1074.5,1652.5C 1069.31,1652.82 1064.31,1652.49 1059.5,1651.5C 1061.5,1651.5 1063.5,1651.5 1065.5,1651.5C 1068.7,1652.04 1071.36,1651.37 1073.5,1649.5 Z"/></g>
<g><path style="opacity:0.525" fill="#c5c5c5" d="M 1082.5,1650.5 C 1086.33,1649.93 1089.66,1650.6 1092.5,1652.5C 1089.71,1653.48 1086.71,1653.81 1083.5,1653.5C 1083.08,1652.78 1082.42,1652.28 1081.5,1652C 1082.06,1651.62 1082.39,1651.12 1082.5,1650.5 Z"/></g>
<g><path style="opacity:0.996" fill="#7a7a7a" d="M 1074.5,1650.5 C 1077.17,1650.5 1079.83,1650.5 1082.5,1650.5C 1082.39,1651.12 1082.06,1651.62 1081.5,1652C 1082.42,1652.28 1083.08,1652.78 1083.5,1653.5C 1080.52,1653.04 1077.52,1652.7 1074.5,1652.5C 1074.5,1651.83 1074.5,1651.17 1074.5,1650.5 Z"/></g>
<g><path style="opacity:1" fill="#cd56fe" d="M 281.5,1653.5 C 287.202,1655.17 292.869,1657.17 298.5,1659.5C 310.972,1669.14 322.972,1679.31 334.5,1690C 335.745,1690.79 337.078,1691.29 338.5,1691.5C 340.557,1695.07 343.223,1698.23 346.5,1701C 402.226,1749.74 457.559,1798.74 512.5,1848C 513.448,1848.48 514.448,1848.65 515.5,1848.5C 516.882,1851.39 518.882,1853.89 521.5,1856C 538.205,1871.04 555.205,1885.71 572.5,1900C 579.925,1906.9 585.925,1914.74 590.5,1923.5C 590.5,1925.5 590.5,1927.5 590.5,1929.5C 591.747,1932.8 591.747,1936.13 590.5,1939.5C 589.278,1946.08 586.611,1952.08 582.5,1957.5C 572.91,1966.59 562.576,1974.75 551.5,1982C 550.177,1982.82 549.511,1983.98 549.5,1985.5C 548.448,1985.35 547.448,1985.52 546.5,1986C 522.687,2004.65 499.353,2023.82 476.5,2043.5C 470.664,2048.5 464.664,2053.33 458.5,2058C 447.057,2065.27 434.557,2068.44 421,2067.5C 415.061,2065.62 409.228,2063.29 403.5,2060.5C 399.132,2057.78 394.799,2055.11 390.5,2052.5C 381.39,2042.89 372.057,2033.39 362.5,2024C 347.199,2010.37 332.199,1996.37 317.5,1982C 314.603,1979.59 311.603,1977.42 308.5,1975.5C 308.141,1973.63 307.141,1972.13 305.5,1971C 275.5,1943 245.5,1915 215.5,1887C 213.595,1885.58 211.595,1884.41 209.5,1883.5C 207.78,1880.27 205.447,1877.44 202.5,1875C 179.344,1854.51 156.844,1833.34 135,1811.5C 131.961,1806.65 128.461,1802.31 124.5,1798.5C 123.838,1794.51 122.171,1791.18 119.5,1788.5C 119.144,1783.57 118.144,1778.9 116.5,1774.5C 116.5,1772.83 116.5,1771.17 116.5,1769.5C 117.013,1764.43 118.846,1759.76 122,1755.5C 125.74,1752.05 129.573,1748.72 133.5,1745.5C 141.972,1739.86 150.305,1734.03 158.5,1728C 160.756,1725.92 162.756,1723.75 164.5,1721.5C 189.506,1704.01 213.84,1685.51 237.5,1666C 241.405,1663.24 245.405,1660.74 249.5,1658.5C 252.902,1656.53 256.569,1655.03 260.5,1654C 267.492,1653.5 274.492,1653.33 281.5,1653.5 Z"/></g>
<g><path style="opacity:1" fill="#aaa3ac" d="M 1095.5,1652.5 C 1102.91,1651.87 1109.91,1652.54 1116.5,1654.5C 1109.91,1655.63 1103.25,1655.79 1096.5,1655C 1095.75,1654.33 1095.41,1653.5 1095.5,1652.5 Z"/></g>
<g><path style="opacity:0.875" fill="#a09fa0" d="M 279.5,1650.5 C 279.389,1651.12 279.056,1651.62 278.5,1652C 279.737,1652.23 280.737,1652.73 281.5,1653.5C 274.492,1653.33 267.492,1653.5 260.5,1654C 256.569,1655.03 252.902,1656.53 249.5,1658.5C 249.5,1657.5 249.5,1656.5 249.5,1655.5C 253.786,1653.78 258.119,1652.28 262.5,1651C 268.157,1650.5 273.824,1650.33 279.5,1650.5 Z"/></g>
<g><path style="opacity:1" fill="#8d8192" d="M 1117.5,1654.5 C 1120.5,1654.5 1123.5,1654.5 1126.5,1654.5C 1126.61,1655.12 1126.94,1655.62 1127.5,1656C 1129.33,1656.17 1131.17,1656.33 1133,1656.5C 1135.3,1656.45 1137.13,1655.79 1138.5,1654.5C 1141.73,1655.41 1145.06,1655.75 1148.5,1655.5C 1148.39,1656.12 1148.06,1656.62 1147.5,1657C 1148.74,1657.23 1149.74,1657.73 1150.5,1658.5C 1146.9,1658.21 1143.4,1657.54 1140,1656.5C 1133.92,1657.64 1127.75,1657.81 1121.5,1657C 1119.93,1656.39 1118.6,1655.56 1117.5,1654.5 Z"/></g>
<g><path style="opacity:0.875" fill="#dbdbdb" d="M 1126.5,1654.5 C 1130.5,1654.5 1134.5,1654.5 1138.5,1654.5C 1137.13,1655.79 1135.3,1656.45 1133,1656.5C 1131.17,1656.33 1129.33,1656.17 1127.5,1656C 1126.94,1655.62 1126.61,1655.12 1126.5,1654.5 Z"/></g>
<g><path style="opacity:0.992" fill="#c0c0c0" d="M 1148.5,1655.5 C 1154.18,1655.33 1159.84,1655.5 1165.5,1656C 1166.06,1656.38 1166.39,1656.88 1166.5,1657.5C 1166.5,1657.83 1166.5,1658.17 1166.5,1658.5C 1161.17,1658.5 1155.83,1658.5 1150.5,1658.5C 1149.74,1657.73 1148.74,1657.23 1147.5,1657C 1148.06,1656.62 1148.39,1656.12 1148.5,1655.5 Z"/></g>
<g><path style="opacity:1" fill="#948e95" d="M 1166.5,1658.5 C 1166.5,1658.17 1166.5,1657.83 1166.5,1657.5C 1171.83,1657.5 1177.17,1657.5 1182.5,1657.5C 1183.87,1658.79 1185.7,1659.45 1188,1659.5C 1190.3,1659.45 1192.13,1658.79 1193.5,1657.5C 1194.17,1657.5 1194.5,1657.83 1194.5,1658.5C 1192.08,1659.81 1189.25,1660.48 1186,1660.5C 1179.43,1660.31 1172.93,1659.64 1166.5,1658.5 Z"/></g>
<g><path style="opacity:0.698" fill="#dedede" d="M 1182.5,1657.5 C 1186.17,1657.5 1189.83,1657.5 1193.5,1657.5C 1192.13,1658.79 1190.3,1659.45 1188,1659.5C 1185.7,1659.45 1183.87,1658.79 1182.5,1657.5 Z"/></g>
<g><path style="opacity:0.863" fill="#717171" d="M 1197.5,1659.5 C 1201.17,1659.5 1204.83,1659.5 1208.5,1659.5C 1208.83,1660.17 1209.17,1660.83 1209.5,1661.5C 1207.5,1661.5 1205.5,1661.5 1203.5,1661.5C 1201.21,1661.41 1199.21,1660.74 1197.5,1659.5 Z"/></g>
<g><path style="opacity:0.863" fill="#d8d8d8" d="M 1208.5,1659.5 C 1215.83,1659.5 1223.17,1659.5 1230.5,1659.5C 1223.91,1661.46 1216.91,1662.13 1209.5,1661.5C 1209.17,1660.83 1208.83,1660.17 1208.5,1659.5 Z"/></g>
<g><path style="opacity:1" fill="#a589b0" d="M 1230.5,1659.5 C 1231.17,1659.5 1231.5,1659.83 1231.5,1660.5C 1227.22,1661.83 1222.55,1662.49 1217.5,1662.5C 1212.65,1662.5 1207.99,1662.17 1203.5,1661.5C 1205.5,1661.5 1207.5,1661.5 1209.5,1661.5C 1216.91,1662.13 1223.91,1661.46 1230.5,1659.5 Z"/></g>
<g><path style="opacity:0.984" fill="#898989" d="M 1234.5,1660.5 C 1243.83,1660.5 1253.17,1660.5 1262.5,1660.5C 1260.37,1661.31 1258.04,1661.81 1255.5,1662C 1271.17,1662.67 1286.83,1662.67 1302.5,1662C 1300.94,1661.79 1299.61,1661.29 1298.5,1660.5C 1304.5,1660.5 1310.5,1660.5 1316.5,1660.5C 1314.69,1662.2 1312.36,1663.03 1309.5,1663C 1288.83,1663.67 1268.17,1663.67 1247.5,1663C 1242.72,1663.11 1238.39,1662.28 1234.5,1660.5 Z"/></g>
<g><path style="opacity:0.012" fill="#b4b4b4" d="M 1262.5,1660.5 C 1274.5,1660.5 1286.5,1660.5 1298.5,1660.5C 1299.61,1661.29 1300.94,1661.79 1302.5,1662C 1286.83,1662.67 1271.17,1662.67 1255.5,1662C 1258.04,1661.81 1260.37,1661.31 1262.5,1660.5 Z"/></g>
<g><path style="opacity:0.043" fill="#d0cad1" d="M 279.5,1650.5 C 288.34,1652.09 296.673,1655.26 304.5,1660C 310.926,1664.92 316.926,1670.42 322.5,1676.5C 328.804,1680.47 334.137,1685.47 338.5,1691.5C 337.078,1691.29 335.745,1690.79 334.5,1690C 322.972,1679.31 310.972,1669.14 298.5,1659.5C 292.869,1657.17 287.202,1655.17 281.5,1653.5C 280.737,1652.73 279.737,1652.23 278.5,1652C 279.056,1651.62 279.389,1651.12 279.5,1650.5 Z"/></g>
<g><path style="opacity:0.392" fill="#d3cfd5" d="M 249.5,1655.5 C 249.5,1656.5 249.5,1657.5 249.5,1658.5C 245.405,1660.74 241.405,1663.24 237.5,1666C 213.84,1685.51 189.506,1704.01 164.5,1721.5C 165.252,1719.9 166.252,1718.4 167.5,1717C 186.104,1703.72 204.104,1689.72 221.5,1675C 230.33,1667.75 239.664,1661.25 249.5,1655.5 Z"/></g>
<g><path style="opacity:0.361" fill="#cac5cc" d="M 164.5,1721.5 C 162.756,1723.75 160.756,1725.92 158.5,1728C 150.305,1734.03 141.972,1739.86 133.5,1745.5C 129.573,1748.72 125.74,1752.05 122,1755.5C 118.846,1759.76 117.013,1764.43 116.5,1769.5C 115.773,1764.06 116.773,1759.06 119.5,1754.5C 128.695,1746.8 138.029,1739.3 147.5,1732C 151.958,1729.05 156.292,1725.88 160.5,1722.5C 161.736,1721.75 163.07,1721.42 164.5,1721.5 Z"/></g>
<g><path style="opacity:0.396" fill="#c0bcc1" d="M 1531.5,1693.5 C 1530.89,1694.39 1530.56,1695.39 1530.5,1696.5C 1469.01,1745.07 1403.51,1788.07 1334,1825.5C 1331.9,1826.29 1329.73,1826.62 1327.5,1826.5C 1327.95,1825.54 1328.62,1824.71 1329.5,1824C 1348.77,1814.2 1367.77,1804.04 1386.5,1793.5C 1435.91,1761.76 1484.24,1728.43 1531.5,1693.5 Z"/></g>
<g><path style="opacity:0.407" fill="#d3d1d4" d="M 407.5,1681.5 C 408.167,1681.5 408.833,1681.5 409.5,1681.5C 487.654,1750.49 565.654,1819.65 643.5,1889C 648.351,1889.17 653.018,1889.67 657.5,1890.5C 655.603,1891.8 653.269,1892.47 650.5,1892.5C 646.368,1892.95 642.702,1891.95 639.5,1889.5C 630.328,1881.42 621.328,1872.92 612.5,1864C 611.5,1863.67 610.5,1863.33 609.5,1863C 604.681,1857.01 599.014,1852.01 592.5,1848C 579.644,1835.64 566.644,1823.48 553.5,1811.5C 546.833,1806.17 540.167,1800.83 533.5,1795.5C 525.392,1787.48 517.059,1779.64 508.5,1772C 503.265,1768.54 498.598,1764.37 494.5,1759.5C 493.167,1758.83 491.833,1758.17 490.5,1757.5C 476.876,1744.88 463.21,1732.21 449.5,1719.5C 443.4,1715.57 438.067,1710.74 433.5,1705C 427.932,1701.44 422.932,1697.11 418.5,1692C 416.641,1691.32 414.974,1690.32 413.5,1689C 411.232,1686.58 409.232,1684.08 407.5,1681.5 Z"/></g>
<g><path style="opacity:0.4" fill="#b0a4b4" d="M 116.5,1774.5 C 118.144,1778.9 119.144,1783.57 119.5,1788.5C 118.5,1788.5 117.5,1788.5 116.5,1788.5C 116.905,1783.99 116.905,1779.32 116.5,1774.5 Z"/></g>
<g><path style="opacity:0.163" fill="#e3e0e4" d="M 119.5,1788.5 C 122.171,1791.18 123.838,1794.51 124.5,1798.5C 120.255,1796.32 118.588,1792.99 119.5,1788.5 Z"/></g>
<g><path style="opacity:0.402" fill="#d5d1d6" d="M 338.5,1691.5 C 339.552,1691.35 340.552,1691.52 341.5,1692C 350.176,1700.25 358.843,1708.42 367.5,1716.5C 368.931,1716.98 370.264,1717.64 371.5,1718.5C 380.083,1725.91 388.416,1733.74 396.5,1742C 397.5,1742.33 398.5,1742.67 399.5,1743C 408.132,1752.08 417.132,1760.75 426.5,1769C 427.5,1769.33 428.5,1769.67 429.5,1770C 443.956,1784.13 458.956,1797.47 474.5,1810C 483.059,1817.64 491.392,1825.48 499.5,1833.5C 500.931,1833.98 502.264,1834.64 503.5,1835.5C 507.912,1839.57 511.912,1843.91 515.5,1848.5C 514.448,1848.65 513.448,1848.48 512.5,1848C 457.559,1798.74 402.226,1749.74 346.5,1701C 343.223,1698.23 340.557,1695.07 338.5,1691.5 Z"/></g>
<g><path style="opacity:0.151" fill="#d9d6da" d="M 124.5,1798.5 C 128.461,1802.31 131.961,1806.65 135,1811.5C 156.844,1833.34 179.344,1854.51 202.5,1875C 205.447,1877.44 207.78,1880.27 209.5,1883.5C 208.07,1883.58 206.736,1883.25 205.5,1882.5C 198.257,1874.17 190.257,1866.67 181.5,1860C 174.076,1851.9 166.076,1844.57 157.5,1838C 148.948,1829.07 140.281,1820.24 131.5,1811.5C 128.797,1807.83 126.131,1804.16 123.5,1800.5C 123.863,1799.82 124.196,1799.15 124.5,1798.5 Z"/></g>
<g><path style="opacity:1" fill="#ab89b8" d="M 914.5,1836.5 C 909.5,1836.5 904.5,1836.5 899.5,1836.5C 894.381,1835.9 889.715,1836.56 885.5,1838.5C 884.833,1838.5 884.5,1838.17 884.5,1837.5C 889.119,1836.17 894.119,1835.51 899.5,1835.5C 904.678,1835.5 909.678,1835.83 914.5,1836.5 Z"/></g>
<g><path style="opacity:0.012" fill="#6c6c6c" d="M 864.5,1835.5 C 852.162,1835.33 839.829,1835.5 827.5,1836C 828.737,1836.23 829.737,1836.73 830.5,1837.5C 826.069,1837.23 821.735,1837.56 817.5,1838.5C 817.5,1837.83 817.5,1837.17 817.5,1836.5C 833.252,1834.32 848.919,1833.99 864.5,1835.5 Z"/></g>
<g><path style="opacity:0.012" fill="#8a8a8a" d="M 864.5,1835.5 C 864.5,1836.17 864.5,1836.83 864.5,1837.5C 853.167,1837.5 841.833,1837.5 830.5,1837.5C 829.737,1836.73 828.737,1836.23 827.5,1836C 839.829,1835.5 852.162,1835.33 864.5,1835.5 Z"/></g>
<g><path style="opacity:0.012" fill="#565656" d="M 864.5,1835.5 C 869.511,1835.33 874.511,1835.5 879.5,1836C 880.056,1836.38 880.389,1836.88 880.5,1837.5C 875.167,1837.5 869.833,1837.5 864.5,1837.5C 864.5,1836.83 864.5,1836.17 864.5,1835.5 Z"/></g>
<g><path style="opacity:0.302" fill="#d9d9d9" d="M 899.5,1836.5 C 900.5,1837.17 901.5,1837.83 902.5,1838.5C 896.833,1838.5 891.167,1838.5 885.5,1838.5C 889.715,1836.56 894.381,1835.9 899.5,1836.5 Z"/></g>
<g><path style="opacity:0.302" fill="#898989" d="M 899.5,1836.5 C 904.5,1836.5 909.5,1836.5 914.5,1836.5C 917.228,1836.17 919.562,1836.84 921.5,1838.5C 915.167,1838.5 908.833,1838.5 902.5,1838.5C 901.5,1837.83 900.5,1837.17 899.5,1836.5 Z"/></g>
<g><path style="opacity:1" fill="#918895" d="M 955.5,1840.5 C 950.167,1840.5 944.833,1840.5 939.5,1840.5C 937.603,1839.2 935.269,1838.53 932.5,1838.5C 929.731,1838.53 927.397,1839.2 925.5,1840.5C 924.662,1840.16 924.328,1839.49 924.5,1838.5C 934.363,1837.23 944.363,1837.4 954.5,1839C 955.056,1839.38 955.389,1839.88 955.5,1840.5 Z"/></g>
<g><path style="opacity:1" fill="#b0adb1" d="M 1327.5,1826.5 C 1324.74,1829.29 1321.41,1831.46 1317.5,1833C 1308.79,1836.29 1299.95,1839.45 1291,1842.5C 1276.21,1846.72 1261.04,1848.72 1245.5,1848.5C 1245.83,1847.83 1246.17,1847.17 1246.5,1846.5C 1251.18,1846.67 1255.85,1846.5 1260.5,1846C 1262.06,1845.79 1263.39,1845.29 1264.5,1844.5C 1267.85,1844.67 1271.18,1844.5 1274.5,1844C 1290.8,1840.11 1306.63,1834.61 1322,1827.5C 1323.77,1826.77 1325.6,1826.43 1327.5,1826.5 Z"/></g>
<g><path style="opacity:0.418" fill="#dbdbdb" d="M 939.5,1840.5 C 934.833,1840.5 930.167,1840.5 925.5,1840.5C 927.397,1839.2 929.731,1838.53 932.5,1838.5C 935.269,1838.53 937.603,1839.2 939.5,1840.5 Z"/></g>
<g><path style="opacity:0.137" fill="#b6b1b8" d="M 817.5,1836.5 C 817.5,1837.17 817.5,1837.83 817.5,1838.5C 813.486,1838.33 809.486,1838.5 805.5,1839C 799.233,1841.72 792.567,1843.39 785.5,1844C 773.56,1848 761.727,1852.5 750,1857.5C 747.901,1858.29 745.734,1858.62 743.5,1858.5C 743.953,1857.54 744.619,1856.71 745.5,1856C 750.211,1853.48 755.211,1851.81 760.5,1851C 760.998,1849.84 761.831,1849.01 763,1848.5C 777.592,1843.63 792.425,1839.46 807.5,1836C 811.027,1835.19 814.36,1835.36 817.5,1836.5 Z"/></g>
<g><path style="opacity:0.016" fill="#c5c5c5" d="M 976.5,1839.5 C 976.918,1840.22 977.584,1840.72 978.5,1841C 977.944,1841.38 977.611,1841.88 977.5,1842.5C 970.978,1842.82 964.645,1842.49 958.5,1841.5C 964.074,1839.55 970.074,1838.88 976.5,1839.5 Z"/></g>
<g><path style="opacity:0.016" fill="#6a6a6a" d="M 976.5,1839.5 C 978.848,1839.67 981.182,1840 983.5,1840.5C 985.03,1840.64 986.03,1841.31 986.5,1842.5C 983.5,1842.5 980.5,1842.5 977.5,1842.5C 977.611,1841.88 977.944,1841.38 978.5,1841C 977.584,1840.72 976.918,1840.22 976.5,1839.5 Z"/></g>
<g><path style="opacity:0.871" fill="#d3d3d3" d="M 990.5,1841.5 C 995.179,1841.33 999.845,1841.5 1004.5,1842C 1006.06,1842.21 1007.39,1842.71 1008.5,1843.5C 1002.5,1843.5 996.5,1843.5 990.5,1843.5C 990.5,1842.83 990.5,1842.17 990.5,1841.5 Z"/></g>
<g><path style="opacity:0.314" fill="#7b737d" d="M 990.5,1841.5 C 995.65,1840.35 1000.98,1840.18 1006.5,1841C 1011.13,1841.05 1015.46,1841.88 1019.5,1843.5C 1015.83,1843.5 1012.17,1843.5 1008.5,1843.5C 1007.39,1842.71 1006.06,1842.21 1004.5,1842C 999.845,1841.5 995.179,1841.33 990.5,1841.5 Z"/></g>
<g><path style="opacity:0.427" fill="#8d888f" d="M 1053.5,1845.5 C 1047.5,1845.5 1041.5,1845.5 1035.5,1845.5C 1034.13,1844.21 1032.3,1843.55 1030,1843.5C 1027.7,1843.55 1025.87,1844.21 1024.5,1845.5C 1023.83,1845.5 1023.5,1845.17 1023.5,1844.5C 1026.77,1843.18 1030.43,1842.51 1034.5,1842.5C 1039.52,1842.62 1044.52,1842.96 1049.5,1843.5C 1051.33,1843.59 1052.67,1844.25 1053.5,1845.5 Z"/></g>
<g><path style="opacity:0.335" fill="#dfdfdf" d="M 1035.5,1845.5 C 1031.83,1845.5 1028.17,1845.5 1024.5,1845.5C 1025.87,1844.21 1027.7,1843.55 1030,1843.5C 1032.3,1843.55 1034.13,1844.21 1035.5,1845.5 Z"/></g>
<g><path style="opacity:1" fill="#af8cbd" d="M 1264.5,1844.5 C 1263.39,1845.29 1262.06,1845.79 1260.5,1846C 1255.85,1846.5 1251.18,1846.67 1246.5,1846.5C 1244.17,1846.5 1241.83,1846.5 1239.5,1846.5C 1247.67,1845.67 1256.01,1845 1264.5,1844.5 Z"/></g>
<g><path style="opacity:0.024" fill="#c1c1c1" d="M 1072.5,1844.5 C 1073.95,1845.3 1075.62,1845.8 1077.5,1846C 1076.58,1846.28 1075.92,1846.78 1075.5,1847.5C 1069.31,1847.82 1063.31,1847.49 1057.5,1846.5C 1062.06,1844.56 1067.06,1843.89 1072.5,1844.5 Z"/></g>
<g><path style="opacity:0.024" fill="#727272" d="M 1072.5,1844.5 C 1076.7,1844.43 1080.86,1844.76 1085,1845.5C 1086.68,1845.61 1087.85,1846.27 1088.5,1847.5C 1084.17,1847.5 1079.83,1847.5 1075.5,1847.5C 1075.92,1846.78 1076.58,1846.28 1077.5,1846C 1075.62,1845.8 1073.95,1845.3 1072.5,1844.5 Z"/></g>
<g><path style="opacity:0.882" fill="#cbcbcb" d="M 1113.5,1846.5 C 1114.83,1847.17 1116.17,1847.83 1117.5,1848.5C 1109.17,1848.5 1100.83,1848.5 1092.5,1848.5C 1099.09,1846.54 1106.09,1845.87 1113.5,1846.5 Z"/></g>
<g><path style="opacity:0.322" fill="#636363" d="M 1113.5,1846.5 C 1121.74,1846.12 1129.74,1846.78 1137.5,1848.5C 1130.83,1848.5 1124.17,1848.5 1117.5,1848.5C 1116.17,1847.83 1114.83,1847.17 1113.5,1846.5 Z"/></g>
<g><path style="opacity:1" fill="#9c8ea2" d="M 1231.5,1849.5 C 1231.5,1850.17 1231.17,1850.5 1230.5,1850.5C 1225.6,1848.55 1220.27,1847.89 1214.5,1848.5C 1190.48,1847.84 1166.81,1848.51 1143.5,1850.5C 1142.83,1850.5 1142.5,1850.17 1142.5,1849.5C 1156.98,1848.17 1171.82,1847.5 1187,1847.5C 1202.18,1847.5 1217.02,1848.17 1231.5,1849.5 Z"/></g>
<g><path style="opacity:0.322" fill="#767676" d="M 1239.5,1846.5 C 1241.83,1846.5 1244.17,1846.5 1246.5,1846.5C 1246.17,1847.17 1245.83,1847.83 1245.5,1848.5C 1242.17,1848.5 1238.83,1848.5 1235.5,1848.5C 1236.67,1847.66 1238,1846.99 1239.5,1846.5 Z"/></g>
<g><path style="opacity:0.437" fill="#bdbdbd" d="M 1214.5,1848.5 C 1214.5,1849.17 1214.5,1849.83 1214.5,1850.5C 1190.83,1850.5 1167.17,1850.5 1143.5,1850.5C 1166.81,1848.51 1190.48,1847.84 1214.5,1848.5 Z"/></g>
<g><path style="opacity:0.437" fill="#e5e5e5" d="M 1214.5,1848.5 C 1220.27,1847.89 1225.6,1848.55 1230.5,1850.5C 1225.17,1850.5 1219.83,1850.5 1214.5,1850.5C 1214.5,1849.83 1214.5,1849.17 1214.5,1848.5 Z"/></g>
<g><path style="opacity:0.238" fill="#d3cfd5" d="M 515.5,1848.5 C 516.552,1848.35 517.552,1848.52 518.5,1849C 532.195,1861.03 545.528,1873.37 558.5,1886C 564.72,1889.55 570.053,1894.21 574.5,1900C 576.869,1900.54 578.869,1901.7 580.5,1903.5C 581.039,1906.78 583.039,1909.45 586.5,1911.5C 587.574,1913.98 588.908,1916.32 590.5,1918.5C 591.666,1920.17 591.666,1921.83 590.5,1923.5C 585.925,1914.74 579.925,1906.9 572.5,1900C 555.205,1885.71 538.205,1871.04 521.5,1856C 518.882,1853.89 516.882,1851.39 515.5,1848.5 Z"/></g>
<g><path style="opacity:0.588" fill="#bcb8bd" d="M 743.5,1858.5 C 741.86,1859.93 740.026,1861.27 738,1862.5C 720.176,1870.16 702.676,1878.49 685.5,1887.5C 685.5,1886.5 685.5,1885.5 685.5,1884.5C 703.618,1874.84 722.118,1865.84 741,1857.5C 741.902,1857.74 742.735,1858.08 743.5,1858.5 Z"/></g>
<g><path style="opacity:1" fill="#98899d" d="M 685.5,1884.5 C 685.5,1885.5 685.5,1886.5 685.5,1887.5C 683.515,1888.05 681.849,1889.05 680.5,1890.5C 678.952,1889.21 676.952,1888.54 674.5,1888.5C 672.5,1888.67 670.5,1888.83 668.5,1889C 667.944,1889.38 667.611,1889.88 667.5,1890.5C 665.5,1890.5 663.5,1890.5 661.5,1890.5C 661.5,1889.5 661.5,1888.5 661.5,1887.5C 669.814,1888.2 677.814,1887.2 685.5,1884.5 Z"/></g>
<g><path style="opacity:0.231" fill="#dadada" d="M 680.5,1890.5 C 676.167,1890.5 671.833,1890.5 667.5,1890.5C 667.611,1889.88 667.944,1889.38 668.5,1889C 670.5,1888.83 672.5,1888.67 674.5,1888.5C 676.952,1888.54 678.952,1889.21 680.5,1890.5 Z"/></g>
<g><path style="opacity:0.387" fill="#d9d6da" d="M 209.5,1883.5 C 211.595,1884.41 213.595,1885.58 215.5,1887C 245.5,1915 275.5,1943 305.5,1971C 307.141,1972.13 308.141,1973.63 308.5,1975.5C 307.07,1975.58 305.736,1975.25 304.5,1974.5C 289.225,1959.75 273.891,1944.92 258.5,1930C 257.5,1929.67 256.5,1929.33 255.5,1929C 245.07,1917.9 234.07,1907.57 222.5,1898C 217.937,1893.28 213.604,1888.44 209.5,1883.5 Z"/></g>
<g><path style="opacity:0.408" fill="#b8b8b8" d="M 590.5,1923.5 C 592.308,1924.92 592.975,1926.92 592.5,1929.5C 591.833,1929.5 591.167,1929.5 590.5,1929.5C 590.5,1927.5 590.5,1925.5 590.5,1923.5 Z"/></g>
<g><path style="opacity:0.408" fill="#575757" d="M 590.5,1929.5 C 591.167,1929.5 591.833,1929.5 592.5,1929.5C 592.5,1932.5 592.5,1935.5 592.5,1938.5C 591.833,1938.83 591.167,1939.17 590.5,1939.5C 591.747,1936.13 591.747,1932.8 590.5,1929.5 Z"/></g>
<g><path style="opacity:0.663" fill="#d1cdd2" d="M 592.5,1938.5 C 592.636,1941.55 592.302,1944.55 591.5,1947.5C 588.241,1953.59 584.408,1959.25 580,1964.5C 572.071,1970.45 563.905,1976.12 555.5,1981.5C 554.272,1984.07 552.272,1985.4 549.5,1985.5C 549.511,1983.98 550.177,1982.82 551.5,1982C 562.576,1974.75 572.91,1966.59 582.5,1957.5C 586.611,1952.08 589.278,1946.08 590.5,1939.5C 591.167,1939.17 591.833,1938.83 592.5,1938.5 Z"/></g>
<g><path style="opacity:0.256" fill="#dbd8dc" d="M 308.5,1975.5 C 311.603,1977.42 314.603,1979.59 317.5,1982C 332.199,1996.37 347.199,2010.37 362.5,2024C 372.057,2033.39 381.39,2042.89 390.5,2052.5C 389.07,2052.58 387.736,2052.25 386.5,2051.5C 368.618,2034.83 350.951,2017.66 333.5,2000C 332.5,1999.67 331.5,1999.33 330.5,1999C 322.573,1991.58 315.24,1983.74 308.5,1975.5 Z"/></g>
<g><path style="opacity:0.741" fill="#d7d3d8" d="M 549.5,1985.5 C 548.524,1986.81 547.524,1988.15 546.5,1989.5C 522.885,2008.11 499.552,2027.11 476.5,2046.5C 476.5,2045.5 476.5,2044.5 476.5,2043.5C 499.353,2023.82 522.687,2004.65 546.5,1986C 547.448,1985.52 548.448,1985.35 549.5,1985.5 Z"/></g>
<g><path style="opacity:0.106" fill="#b7b1ba" d="M 476.5,2043.5 C 476.5,2044.5 476.5,2045.5 476.5,2046.5C 467.352,2055.8 456.685,2062.96 444.5,2068C 434.5,2068.67 424.5,2068.67 414.5,2068C 409.561,2065.68 404.561,2063.35 399.5,2061C 398.023,2058.85 396.023,2057.52 393.5,2057C 391.859,2055.87 390.859,2054.37 390.5,2052.5C 394.799,2055.11 399.132,2057.78 403.5,2060.5C 409.228,2063.29 415.061,2065.62 421,2067.5C 434.557,2068.44 447.057,2065.27 458.5,2058C 464.664,2053.33 470.664,2048.5 476.5,2043.5 Z"/></g>
</svg>
